<?xml version="1.0" encoding="utf-8" standalone="no"?>
<!DOCTYPE svg PUBLIC "-//W3C//DTD SVG 1.1//EN"
  "http://www.w3.org/Graphics/SVG/1.1/DTD/svg11.dtd">
<svg xmlns:xlink="http://www.w3.org/1999/xlink" width="576pt" height="360pt" viewBox="0 0 576 360" xmlns="http://www.w3.org/2000/svg" version="1.1">
 <metadata>
  <rdf:RDF xmlns:dc="http://purl.org/dc/elements/1.1/" xmlns:cc="http://creativecommons.org/ns#" xmlns:rdf="http://www.w3.org/1999/02/22-rdf-syntax-ns#">
   <cc:Work>
    <dc:type rdf:resource="http://purl.org/dc/dcmitype/StillImage"/>
    <dc:date>2026-05-04T03:49:48.561896</dc:date>
    <dc:format>image/svg+xml</dc:format>
    <dc:creator>
     <cc:Agent>
      <dc:title>Matplotlib v3.10.9, https://matplotlib.org/</dc:title>
     </cc:Agent>
    </dc:creator>
   </cc:Work>
  </rdf:RDF>
 </metadata>
 <defs>
  <style type="text/css">*{stroke-linejoin: round; stroke-linecap: butt}</style>
 </defs>
 <g id="figure_1">
  <g id="patch_1">
   <path d="M 0 360 
L 576 360 
L 576 0 
L 0 0 
z
" style="fill: #ffffff"/>
  </g>
  <g id="axes_1">
   <g id="patch_2">
    <path d="M 47.72 318.04 
L 479.110909 318.04 
L 479.110909 12.312 
L 47.72 12.312 
z
" style="fill: #ffffff"/>
   </g>
   <g id="PathCollection_1">
    <defs>
     <path id="m3b0a0daac4" d="M 0 3 
C 0.795609 3 1.55874 2.683901 2.12132 2.12132 
C 2.683901 1.55874 3 0.795609 3 0 
C 3 -0.795609 2.683901 -1.55874 2.12132 -2.12132 
C 1.55874 -2.683901 0.795609 -3 0 -3 
C -0.795609 -3 -1.55874 -2.683901 -2.12132 -2.12132 
C -2.683901 -1.55874 -3 -0.795609 -3 0 
C -3 0.795609 -2.683901 1.55874 -2.12132 2.12132 
C -1.55874 2.683901 -0.795609 3 0 3 
z
" style="stroke: #1f77b4"/>
    </defs>
    <g clip-path="url(#p409e6a8857)">
     <use xlink:href="#m3b0a0daac4" x="67.328678" y="26.208727" style="fill: #1f77b4; stroke: #1f77b4"/>
    </g>
   </g>
   <g id="PathCollection_2">
    <defs>
     <path id="m54920f25df" d="M 0 3 
C 0.795609 3 1.55874 2.683901 2.12132 2.12132 
C 2.683901 1.55874 3 0.795609 3 0 
C 3 -0.795609 2.683901 -1.55874 2.12132 -2.12132 
C 1.55874 -2.683901 0.795609 -3 0 -3 
C -0.795609 -3 -1.55874 -2.683901 -2.12132 -2.12132 
C -2.683901 -1.55874 -3 -0.795609 -3 0 
C -3 0.795609 -2.683901 1.55874 -2.12132 2.12132 
C -1.55874 2.683901 -0.795609 3 0 3 
z
" style="stroke: #ff7f0e"/>
    </defs>
    <g clip-path="url(#p409e6a8857)">
     <use xlink:href="#m54920f25df" x="339.855561" y="302.769461" style="fill: #ff7f0e; stroke: #ff7f0e"/>
    </g>
   </g>
   <g id="PathCollection_3">
    <defs>
     <path id="m51b55cabc5" d="M 0 3 
C 0.795609 3 1.55874 2.683901 2.12132 2.12132 
C 2.683901 1.55874 3 0.795609 3 0 
C 3 -0.795609 2.683901 -1.55874 2.12132 -2.12132 
C 1.55874 -2.683901 0.795609 -3 0 -3 
C -0.795609 -3 -1.55874 -2.683901 -2.12132 -2.12132 
C -2.683901 -1.55874 -3 -0.795609 -3 0 
C -3 0.795609 -2.683901 1.55874 -2.12132 2.12132 
C -1.55874 2.683901 -0.795609 3 0 3 
z
" style="stroke: #2ca02c"/>
    </defs>
    <g clip-path="url(#p409e6a8857)">
     <use xlink:href="#m51b55cabc5" x="67.328678" y="268.823829" style="fill: #2ca02c; stroke: #2ca02c"/>
    </g>
   </g>
   <g id="PathCollection_4">
    <defs>
     <path id="m57958883c5" d="M 0 3 
C 0.795609 3 1.55874 2.683901 2.12132 2.12132 
C 2.683901 1.55874 3 0.795609 3 0 
C 3 -0.795609 2.683901 -1.55874 2.12132 -2.12132 
C 1.55874 -2.683901 0.795609 -3 0 -3 
C -0.795609 -3 -1.55874 -2.683901 -2.12132 -2.12132 
C -2.683901 -1.55874 -3 -0.795609 -3 0 
C -3 0.795609 -2.683901 1.55874 -2.12132 2.12132 
C -1.55874 2.683901 -0.795609 3 0 3 
z
" style="stroke: #d62728"/>
    </defs>
    <g clip-path="url(#p409e6a8857)">
     <use xlink:href="#m57958883c5" x="67.328678" y="188.967916" style="fill: #d62728; stroke: #d62728"/>
    </g>
   </g>
   <g id="PathCollection_5">
    <defs>
     <path id="m39d2e8206e" d="M 0 3 
C 0.795609 3 1.55874 2.683901 2.12132 2.12132 
C 2.683901 1.55874 3 0.795609 3 0 
C 3 -0.795609 2.683901 -1.55874 2.12132 -2.12132 
C 1.55874 -2.683901 0.795609 -3 0 -3 
C -0.795609 -3 -1.55874 -2.683901 -2.12132 -2.12132 
C -2.683901 -1.55874 -3 -0.795609 -3 0 
C -3 0.795609 -2.683901 1.55874 -2.12132 2.12132 
C -1.55874 2.683901 -0.795609 3 0 3 
z
" style="stroke: #9467bd"/>
    </defs>
    <g clip-path="url(#p409e6a8857)">
     <use xlink:href="#m39d2e8206e" x="459.502231" y="304.143273" style="fill: #9467bd; stroke: #9467bd"/>
    </g>
   </g>
   <g id="PathCollection_6">
    <defs>
     <path id="m079117e815" d="M 0 3 
C 0.795609 3 1.55874 2.683901 2.12132 2.12132 
C 2.683901 1.55874 3 0.795609 3 0 
C 3 -0.795609 2.683901 -1.55874 2.12132 -2.12132 
C 1.55874 -2.683901 0.795609 -3 0 -3 
C -0.795609 -3 -1.55874 -2.683901 -2.12132 -2.12132 
C -2.683901 -1.55874 -3 -0.795609 -3 0 
C -3 0.795609 -2.683901 1.55874 -2.12132 2.12132 
C -1.55874 2.683901 -0.795609 3 0 3 
z
" style="stroke: #8c564b"/>
    </defs>
    <g clip-path="url(#p409e6a8857)">
     <use xlink:href="#m079117e815" x="362.615603" y="287.320327" style="fill: #8c564b; stroke: #8c564b"/>
    </g>
   </g>
   <g id="matplotlib.axis_1">
    <g id="xtick_1">
     <g id="line2d_1">
      <defs>
       <path id="m51bb157689" d="M 0 0 
L 0 3.5 
" style="stroke: #000000; stroke-width: 0.8"/>
      </defs>
      <g>
       <use xlink:href="#m51bb157689" x="67.328678" y="318.04" style="stroke: #000000; stroke-width: 0.8"/>
      </g>
     </g>
     <g id="text_1">
      <!-- 0.0 -->
      <g transform="translate(59.377115 332.638438) scale(0.1 -0.1)">
       <defs>
        <path id="DejaVuSans-30" d="M 2034 4250 
Q 1547 4250 1301 3770 
Q 1056 3291 1056 2328 
Q 1056 1369 1301 889 
Q 1547 409 2034 409 
Q 2525 409 2770 889 
Q 3016 1369 3016 2328 
Q 3016 3291 2770 3770 
Q 2525 4250 2034 4250 
z
M 2034 4750 
Q 2819 4750 3233 4129 
Q 3647 3509 3647 2328 
Q 3647 1150 3233 529 
Q 2819 -91 2034 -91 
Q 1250 -91 836 529 
Q 422 1150 422 2328 
Q 422 3509 836 4129 
Q 1250 4750 2034 4750 
z
" transform="scale(0.015625)"/>
        <path id="DejaVuSans-2e" d="M 684 794 
L 1344 794 
L 1344 0 
L 684 0 
L 684 794 
z
" transform="scale(0.015625)"/>
       </defs>
       <use xlink:href="#DejaVuSans-30"/>
       <use xlink:href="#DejaVuSans-2e" transform="translate(63.623047 0)"/>
       <use xlink:href="#DejaVuSans-30" transform="translate(95.410156 0)"/>
      </g>
     </g>
    </g>
    <g id="xtick_2">
     <g id="line2d_2">
      <g>
       <use xlink:href="#m51bb157689" x="153.514319" y="318.04" style="stroke: #000000; stroke-width: 0.8"/>
      </g>
     </g>
     <g id="text_2">
      <!-- 0.2 -->
      <g transform="translate(145.562756 332.638438) scale(0.1 -0.1)">
       <defs>
        <path id="DejaVuSans-32" d="M 1228 531 
L 3431 531 
L 3431 0 
L 469 0 
L 469 531 
Q 828 903 1448 1529 
Q 2069 2156 2228 2338 
Q 2531 2678 2651 2914 
Q 2772 3150 2772 3378 
Q 2772 3750 2511 3984 
Q 2250 4219 1831 4219 
Q 1534 4219 1204 4116 
Q 875 4013 500 3803 
L 500 4441 
Q 881 4594 1212 4672 
Q 1544 4750 1819 4750 
Q 2544 4750 2975 4387 
Q 3406 4025 3406 3419 
Q 3406 3131 3298 2873 
Q 3191 2616 2906 2266 
Q 2828 2175 2409 1742 
Q 1991 1309 1228 531 
z
" transform="scale(0.015625)"/>
       </defs>
       <use xlink:href="#DejaVuSans-30"/>
       <use xlink:href="#DejaVuSans-2e" transform="translate(63.623047 0)"/>
       <use xlink:href="#DejaVuSans-32" transform="translate(95.410156 0)"/>
      </g>
     </g>
    </g>
    <g id="xtick_3">
     <g id="line2d_3">
      <g>
       <use xlink:href="#m51bb157689" x="239.69996" y="318.04" style="stroke: #000000; stroke-width: 0.8"/>
      </g>
     </g>
     <g id="text_3">
      <!-- 0.4 -->
      <g transform="translate(231.748397 332.638438) scale(0.1 -0.1)">
       <defs>
        <path id="DejaVuSans-34" d="M 2419 4116 
L 825 1625 
L 2419 1625 
L 2419 4116 
z
M 2253 4666 
L 3047 4666 
L 3047 1625 
L 3713 1625 
L 3713 1100 
L 3047 1100 
L 3047 0 
L 2419 0 
L 2419 1100 
L 313 1100 
L 313 1709 
L 2253 4666 
z
" transform="scale(0.015625)"/>
       </defs>
       <use xlink:href="#DejaVuSans-30"/>
       <use xlink:href="#DejaVuSans-2e" transform="translate(63.623047 0)"/>
       <use xlink:href="#DejaVuSans-34" transform="translate(95.410156 0)"/>
      </g>
     </g>
    </g>
    <g id="xtick_4">
     <g id="line2d_4">
      <g>
       <use xlink:href="#m51bb157689" x="325.885601" y="318.04" style="stroke: #000000; stroke-width: 0.8"/>
      </g>
     </g>
     <g id="text_4">
      <!-- 0.6 -->
      <g transform="translate(317.934038 332.638438) scale(0.1 -0.1)">
       <defs>
        <path id="DejaVuSans-36" d="M 2113 2584 
Q 1688 2584 1439 2293 
Q 1191 2003 1191 1497 
Q 1191 994 1439 701 
Q 1688 409 2113 409 
Q 2538 409 2786 701 
Q 3034 994 3034 1497 
Q 3034 2003 2786 2293 
Q 2538 2584 2113 2584 
z
M 3366 4563 
L 3366 3988 
Q 3128 4100 2886 4159 
Q 2644 4219 2406 4219 
Q 1781 4219 1451 3797 
Q 1122 3375 1075 2522 
Q 1259 2794 1537 2939 
Q 1816 3084 2150 3084 
Q 2853 3084 3261 2657 
Q 3669 2231 3669 1497 
Q 3669 778 3244 343 
Q 2819 -91 2113 -91 
Q 1303 -91 875 529 
Q 447 1150 447 2328 
Q 447 3434 972 4092 
Q 1497 4750 2381 4750 
Q 2619 4750 2861 4703 
Q 3103 4656 3366 4563 
z
" transform="scale(0.015625)"/>
       </defs>
       <use xlink:href="#DejaVuSans-30"/>
       <use xlink:href="#DejaVuSans-2e" transform="translate(63.623047 0)"/>
       <use xlink:href="#DejaVuSans-36" transform="translate(95.410156 0)"/>
      </g>
     </g>
    </g>
    <g id="xtick_5">
     <g id="line2d_5">
      <g>
       <use xlink:href="#m51bb157689" x="412.071242" y="318.04" style="stroke: #000000; stroke-width: 0.8"/>
      </g>
     </g>
     <g id="text_5">
      <!-- 0.8 -->
      <g transform="translate(404.119679 332.638438) scale(0.1 -0.1)">
       <defs>
        <path id="DejaVuSans-38" d="M 2034 2216 
Q 1584 2216 1326 1975 
Q 1069 1734 1069 1313 
Q 1069 891 1326 650 
Q 1584 409 2034 409 
Q 2484 409 2743 651 
Q 3003 894 3003 1313 
Q 3003 1734 2745 1975 
Q 2488 2216 2034 2216 
z
M 1403 2484 
Q 997 2584 770 2862 
Q 544 3141 544 3541 
Q 544 4100 942 4425 
Q 1341 4750 2034 4750 
Q 2731 4750 3128 4425 
Q 3525 4100 3525 3541 
Q 3525 3141 3298 2862 
Q 3072 2584 2669 2484 
Q 3125 2378 3379 2068 
Q 3634 1759 3634 1313 
Q 3634 634 3220 271 
Q 2806 -91 2034 -91 
Q 1263 -91 848 271 
Q 434 634 434 1313 
Q 434 1759 690 2068 
Q 947 2378 1403 2484 
z
M 1172 3481 
Q 1172 3119 1398 2916 
Q 1625 2713 2034 2713 
Q 2441 2713 2670 2916 
Q 2900 3119 2900 3481 
Q 2900 3844 2670 4047 
Q 2441 4250 2034 4250 
Q 1625 4250 1398 4047 
Q 1172 3844 1172 3481 
z
" transform="scale(0.015625)"/>
       </defs>
       <use xlink:href="#DejaVuSans-30"/>
       <use xlink:href="#DejaVuSans-2e" transform="translate(63.623047 0)"/>
       <use xlink:href="#DejaVuSans-38" transform="translate(95.410156 0)"/>
      </g>
     </g>
    </g>
    <g id="text_6">
     <!-- false restriction rate among true portable -->
     <g transform="translate(159.513111 346.316563) scale(0.1 -0.1)">
      <defs>
       <path id="DejaVuSans-66" d="M 2375 4863 
L 2375 4384 
L 1825 4384 
Q 1516 4384 1395 4259 
Q 1275 4134 1275 3809 
L 1275 3500 
L 2222 3500 
L 2222 3053 
L 1275 3053 
L 1275 0 
L 697 0 
L 697 3053 
L 147 3053 
L 147 3500 
L 697 3500 
L 697 3744 
Q 697 4328 969 4595 
Q 1241 4863 1831 4863 
L 2375 4863 
z
" transform="scale(0.015625)"/>
       <path id="DejaVuSans-61" d="M 2194 1759 
Q 1497 1759 1228 1600 
Q 959 1441 959 1056 
Q 959 750 1161 570 
Q 1363 391 1709 391 
Q 2188 391 2477 730 
Q 2766 1069 2766 1631 
L 2766 1759 
L 2194 1759 
z
M 3341 1997 
L 3341 0 
L 2766 0 
L 2766 531 
Q 2569 213 2275 61 
Q 1981 -91 1556 -91 
Q 1019 -91 701 211 
Q 384 513 384 1019 
Q 384 1609 779 1909 
Q 1175 2209 1959 2209 
L 2766 2209 
L 2766 2266 
Q 2766 2663 2505 2880 
Q 2244 3097 1772 3097 
Q 1472 3097 1187 3025 
Q 903 2953 641 2809 
L 641 3341 
Q 956 3463 1253 3523 
Q 1550 3584 1831 3584 
Q 2591 3584 2966 3190 
Q 3341 2797 3341 1997 
z
" transform="scale(0.015625)"/>
       <path id="DejaVuSans-6c" d="M 603 4863 
L 1178 4863 
L 1178 0 
L 603 0 
L 603 4863 
z
" transform="scale(0.015625)"/>
       <path id="DejaVuSans-73" d="M 2834 3397 
L 2834 2853 
Q 2591 2978 2328 3040 
Q 2066 3103 1784 3103 
Q 1356 3103 1142 2972 
Q 928 2841 928 2578 
Q 928 2378 1081 2264 
Q 1234 2150 1697 2047 
L 1894 2003 
Q 2506 1872 2764 1633 
Q 3022 1394 3022 966 
Q 3022 478 2636 193 
Q 2250 -91 1575 -91 
Q 1294 -91 989 -36 
Q 684 19 347 128 
L 347 722 
Q 666 556 975 473 
Q 1284 391 1588 391 
Q 1994 391 2212 530 
Q 2431 669 2431 922 
Q 2431 1156 2273 1281 
Q 2116 1406 1581 1522 
L 1381 1569 
Q 847 1681 609 1914 
Q 372 2147 372 2553 
Q 372 3047 722 3315 
Q 1072 3584 1716 3584 
Q 2034 3584 2315 3537 
Q 2597 3491 2834 3397 
z
" transform="scale(0.015625)"/>
       <path id="DejaVuSans-65" d="M 3597 1894 
L 3597 1613 
L 953 1613 
Q 991 1019 1311 708 
Q 1631 397 2203 397 
Q 2534 397 2845 478 
Q 3156 559 3463 722 
L 3463 178 
Q 3153 47 2828 -22 
Q 2503 -91 2169 -91 
Q 1331 -91 842 396 
Q 353 884 353 1716 
Q 353 2575 817 3079 
Q 1281 3584 2069 3584 
Q 2775 3584 3186 3129 
Q 3597 2675 3597 1894 
z
M 3022 2063 
Q 3016 2534 2758 2815 
Q 2500 3097 2075 3097 
Q 1594 3097 1305 2825 
Q 1016 2553 972 2059 
L 3022 2063 
z
" transform="scale(0.015625)"/>
       <path id="DejaVuSans-20" transform="scale(0.015625)"/>
       <path id="DejaVuSans-72" d="M 2631 2963 
Q 2534 3019 2420 3045 
Q 2306 3072 2169 3072 
Q 1681 3072 1420 2755 
Q 1159 2438 1159 1844 
L 1159 0 
L 581 0 
L 581 3500 
L 1159 3500 
L 1159 2956 
Q 1341 3275 1631 3429 
Q 1922 3584 2338 3584 
Q 2397 3584 2469 3576 
Q 2541 3569 2628 3553 
L 2631 2963 
z
" transform="scale(0.015625)"/>
       <path id="DejaVuSans-74" d="M 1172 4494 
L 1172 3500 
L 2356 3500 
L 2356 3053 
L 1172 3053 
L 1172 1153 
Q 1172 725 1289 603 
Q 1406 481 1766 481 
L 2356 481 
L 2356 0 
L 1766 0 
Q 1100 0 847 248 
Q 594 497 594 1153 
L 594 3053 
L 172 3053 
L 172 3500 
L 594 3500 
L 594 4494 
L 1172 4494 
z
" transform="scale(0.015625)"/>
       <path id="DejaVuSans-69" d="M 603 3500 
L 1178 3500 
L 1178 0 
L 603 0 
L 603 3500 
z
M 603 4863 
L 1178 4863 
L 1178 4134 
L 603 4134 
L 603 4863 
z
" transform="scale(0.015625)"/>
       <path id="DejaVuSans-63" d="M 3122 3366 
L 3122 2828 
Q 2878 2963 2633 3030 
Q 2388 3097 2138 3097 
Q 1578 3097 1268 2742 
Q 959 2388 959 1747 
Q 959 1106 1268 751 
Q 1578 397 2138 397 
Q 2388 397 2633 464 
Q 2878 531 3122 666 
L 3122 134 
Q 2881 22 2623 -34 
Q 2366 -91 2075 -91 
Q 1284 -91 818 406 
Q 353 903 353 1747 
Q 353 2603 823 3093 
Q 1294 3584 2113 3584 
Q 2378 3584 2631 3529 
Q 2884 3475 3122 3366 
z
" transform="scale(0.015625)"/>
       <path id="DejaVuSans-6f" d="M 1959 3097 
Q 1497 3097 1228 2736 
Q 959 2375 959 1747 
Q 959 1119 1226 758 
Q 1494 397 1959 397 
Q 2419 397 2687 759 
Q 2956 1122 2956 1747 
Q 2956 2369 2687 2733 
Q 2419 3097 1959 3097 
z
M 1959 3584 
Q 2709 3584 3137 3096 
Q 3566 2609 3566 1747 
Q 3566 888 3137 398 
Q 2709 -91 1959 -91 
Q 1206 -91 779 398 
Q 353 888 353 1747 
Q 353 2609 779 3096 
Q 1206 3584 1959 3584 
z
" transform="scale(0.015625)"/>
       <path id="DejaVuSans-6e" d="M 3513 2113 
L 3513 0 
L 2938 0 
L 2938 2094 
Q 2938 2591 2744 2837 
Q 2550 3084 2163 3084 
Q 1697 3084 1428 2787 
Q 1159 2491 1159 1978 
L 1159 0 
L 581 0 
L 581 3500 
L 1159 3500 
L 1159 2956 
Q 1366 3272 1645 3428 
Q 1925 3584 2291 3584 
Q 2894 3584 3203 3211 
Q 3513 2838 3513 2113 
z
" transform="scale(0.015625)"/>
       <path id="DejaVuSans-6d" d="M 3328 2828 
Q 3544 3216 3844 3400 
Q 4144 3584 4550 3584 
Q 5097 3584 5394 3201 
Q 5691 2819 5691 2113 
L 5691 0 
L 5113 0 
L 5113 2094 
Q 5113 2597 4934 2840 
Q 4756 3084 4391 3084 
Q 3944 3084 3684 2787 
Q 3425 2491 3425 1978 
L 3425 0 
L 2847 0 
L 2847 2094 
Q 2847 2600 2669 2842 
Q 2491 3084 2119 3084 
Q 1678 3084 1418 2786 
Q 1159 2488 1159 1978 
L 1159 0 
L 581 0 
L 581 3500 
L 1159 3500 
L 1159 2956 
Q 1356 3278 1631 3431 
Q 1906 3584 2284 3584 
Q 2666 3584 2933 3390 
Q 3200 3197 3328 2828 
z
" transform="scale(0.015625)"/>
       <path id="DejaVuSans-67" d="M 2906 1791 
Q 2906 2416 2648 2759 
Q 2391 3103 1925 3103 
Q 1463 3103 1205 2759 
Q 947 2416 947 1791 
Q 947 1169 1205 825 
Q 1463 481 1925 481 
Q 2391 481 2648 825 
Q 2906 1169 2906 1791 
z
M 3481 434 
Q 3481 -459 3084 -895 
Q 2688 -1331 1869 -1331 
Q 1566 -1331 1297 -1286 
Q 1028 -1241 775 -1147 
L 775 -588 
Q 1028 -725 1275 -790 
Q 1522 -856 1778 -856 
Q 2344 -856 2625 -561 
Q 2906 -266 2906 331 
L 2906 616 
Q 2728 306 2450 153 
Q 2172 0 1784 0 
Q 1141 0 747 490 
Q 353 981 353 1791 
Q 353 2603 747 3093 
Q 1141 3584 1784 3584 
Q 2172 3584 2450 3431 
Q 2728 3278 2906 2969 
L 2906 3500 
L 3481 3500 
L 3481 434 
z
" transform="scale(0.015625)"/>
       <path id="DejaVuSans-75" d="M 544 1381 
L 544 3500 
L 1119 3500 
L 1119 1403 
Q 1119 906 1312 657 
Q 1506 409 1894 409 
Q 2359 409 2629 706 
Q 2900 1003 2900 1516 
L 2900 3500 
L 3475 3500 
L 3475 0 
L 2900 0 
L 2900 538 
Q 2691 219 2414 64 
Q 2138 -91 1772 -91 
Q 1169 -91 856 284 
Q 544 659 544 1381 
z
M 1991 3584 
L 1991 3584 
z
" transform="scale(0.015625)"/>
       <path id="DejaVuSans-70" d="M 1159 525 
L 1159 -1331 
L 581 -1331 
L 581 3500 
L 1159 3500 
L 1159 2969 
Q 1341 3281 1617 3432 
Q 1894 3584 2278 3584 
Q 2916 3584 3314 3078 
Q 3713 2572 3713 1747 
Q 3713 922 3314 415 
Q 2916 -91 2278 -91 
Q 1894 -91 1617 61 
Q 1341 213 1159 525 
z
M 3116 1747 
Q 3116 2381 2855 2742 
Q 2594 3103 2138 3103 
Q 1681 3103 1420 2742 
Q 1159 2381 1159 1747 
Q 1159 1113 1420 752 
Q 1681 391 2138 391 
Q 2594 391 2855 752 
Q 3116 1113 3116 1747 
z
" transform="scale(0.015625)"/>
       <path id="DejaVuSans-62" d="M 3116 1747 
Q 3116 2381 2855 2742 
Q 2594 3103 2138 3103 
Q 1681 3103 1420 2742 
Q 1159 2381 1159 1747 
Q 1159 1113 1420 752 
Q 1681 391 2138 391 
Q 2594 391 2855 752 
Q 3116 1113 3116 1747 
z
M 1159 2969 
Q 1341 3281 1617 3432 
Q 1894 3584 2278 3584 
Q 2916 3584 3314 3078 
Q 3713 2572 3713 1747 
Q 3713 922 3314 415 
Q 2916 -91 2278 -91 
Q 1894 -91 1617 61 
Q 1341 213 1159 525 
L 1159 0 
L 581 0 
L 581 4863 
L 1159 4863 
L 1159 2969 
z
" transform="scale(0.015625)"/>
      </defs>
      <use xlink:href="#DejaVuSans-66"/>
      <use xlink:href="#DejaVuSans-61" transform="translate(35.205078 0)"/>
      <use xlink:href="#DejaVuSans-6c" transform="translate(96.484375 0)"/>
      <use xlink:href="#DejaVuSans-73" transform="translate(124.267578 0)"/>
      <use xlink:href="#DejaVuSans-65" transform="translate(176.367188 0)"/>
      <use xlink:href="#DejaVuSans-20" transform="translate(237.890625 0)"/>
      <use xlink:href="#DejaVuSans-72" transform="translate(269.677734 0)"/>
      <use xlink:href="#DejaVuSans-65" transform="translate(308.541016 0)"/>
      <use xlink:href="#DejaVuSans-73" transform="translate(370.064453 0)"/>
      <use xlink:href="#DejaVuSans-74" transform="translate(422.164062 0)"/>
      <use xlink:href="#DejaVuSans-72" transform="translate(461.373047 0)"/>
      <use xlink:href="#DejaVuSans-69" transform="translate(502.486328 0)"/>
      <use xlink:href="#DejaVuSans-63" transform="translate(530.269531 0)"/>
      <use xlink:href="#DejaVuSans-74" transform="translate(585.25 0)"/>
      <use xlink:href="#DejaVuSans-69" transform="translate(624.458984 0)"/>
      <use xlink:href="#DejaVuSans-6f" transform="translate(652.242188 0)"/>
      <use xlink:href="#DejaVuSans-6e" transform="translate(713.423828 0)"/>
      <use xlink:href="#DejaVuSans-20" transform="translate(776.802734 0)"/>
      <use xlink:href="#DejaVuSans-72" transform="translate(808.589844 0)"/>
      <use xlink:href="#DejaVuSans-61" transform="translate(849.703125 0)"/>
      <use xlink:href="#DejaVuSans-74" transform="translate(910.982422 0)"/>
      <use xlink:href="#DejaVuSans-65" transform="translate(950.191406 0)"/>
      <use xlink:href="#DejaVuSans-20" transform="translate(1011.714844 0)"/>
      <use xlink:href="#DejaVuSans-61" transform="translate(1043.501953 0)"/>
      <use xlink:href="#DejaVuSans-6d" transform="translate(1104.78125 0)"/>
      <use xlink:href="#DejaVuSans-6f" transform="translate(1202.193359 0)"/>
      <use xlink:href="#DejaVuSans-6e" transform="translate(1263.375 0)"/>
      <use xlink:href="#DejaVuSans-67" transform="translate(1326.753906 0)"/>
      <use xlink:href="#DejaVuSans-20" transform="translate(1390.230469 0)"/>
      <use xlink:href="#DejaVuSans-74" transform="translate(1422.017578 0)"/>
      <use xlink:href="#DejaVuSans-72" transform="translate(1461.226562 0)"/>
      <use xlink:href="#DejaVuSans-75" transform="translate(1502.339844 0)"/>
      <use xlink:href="#DejaVuSans-65" transform="translate(1565.71875 0)"/>
      <use xlink:href="#DejaVuSans-20" transform="translate(1627.242188 0)"/>
      <use xlink:href="#DejaVuSans-70" transform="translate(1659.029297 0)"/>
      <use xlink:href="#DejaVuSans-6f" transform="translate(1722.505859 0)"/>
      <use xlink:href="#DejaVuSans-72" transform="translate(1783.6875 0)"/>
      <use xlink:href="#DejaVuSans-74" transform="translate(1824.800781 0)"/>
      <use xlink:href="#DejaVuSans-61" transform="translate(1864.009766 0)"/>
      <use xlink:href="#DejaVuSans-62" transform="translate(1925.289062 0)"/>
      <use xlink:href="#DejaVuSans-6c" transform="translate(1988.765625 0)"/>
      <use xlink:href="#DejaVuSans-65" transform="translate(2016.548828 0)"/>
     </g>
    </g>
   </g>
   <g id="matplotlib.axis_2">
    <g id="ytick_1">
     <g id="line2d_6">
      <defs>
       <path id="m021dcfab3b" d="M 0 0 
L -3.5 0 
" style="stroke: #000000; stroke-width: 0.8"/>
      </defs>
      <g>
       <use xlink:href="#m021dcfab3b" x="47.72" y="312.211293" style="stroke: #000000; stroke-width: 0.8"/>
      </g>
     </g>
     <g id="text_7">
      <!-- 0.0 -->
      <g transform="translate(24.816875 316.010511) scale(0.1 -0.1)">
       <use xlink:href="#DejaVuSans-30"/>
       <use xlink:href="#DejaVuSans-2e" transform="translate(63.623047 0)"/>
       <use xlink:href="#DejaVuSans-30" transform="translate(95.410156 0)"/>
      </g>
     </g>
    </g>
    <g id="ytick_2">
     <g id="line2d_7">
      <g>
       <use xlink:href="#m021dcfab3b" x="47.72" y="245.456545" style="stroke: #000000; stroke-width: 0.8"/>
      </g>
     </g>
     <g id="text_8">
      <!-- 0.2 -->
      <g transform="translate(24.816875 249.255764) scale(0.1 -0.1)">
       <use xlink:href="#DejaVuSans-30"/>
       <use xlink:href="#DejaVuSans-2e" transform="translate(63.623047 0)"/>
       <use xlink:href="#DejaVuSans-32" transform="translate(95.410156 0)"/>
      </g>
     </g>
    </g>
    <g id="ytick_3">
     <g id="line2d_8">
      <g>
       <use xlink:href="#m021dcfab3b" x="47.72" y="178.701798" style="stroke: #000000; stroke-width: 0.8"/>
      </g>
     </g>
     <g id="text_9">
      <!-- 0.4 -->
      <g transform="translate(24.816875 182.501017) scale(0.1 -0.1)">
       <use xlink:href="#DejaVuSans-30"/>
       <use xlink:href="#DejaVuSans-2e" transform="translate(63.623047 0)"/>
       <use xlink:href="#DejaVuSans-34" transform="translate(95.410156 0)"/>
      </g>
     </g>
    </g>
    <g id="ytick_4">
     <g id="line2d_9">
      <g>
       <use xlink:href="#m021dcfab3b" x="47.72" y="111.947051" style="stroke: #000000; stroke-width: 0.8"/>
      </g>
     </g>
     <g id="text_10">
      <!-- 0.6 -->
      <g transform="translate(24.816875 115.74627) scale(0.1 -0.1)">
       <use xlink:href="#DejaVuSans-30"/>
       <use xlink:href="#DejaVuSans-2e" transform="translate(63.623047 0)"/>
       <use xlink:href="#DejaVuSans-36" transform="translate(95.410156 0)"/>
      </g>
     </g>
    </g>
    <g id="ytick_5">
     <g id="line2d_10">
      <g>
       <use xlink:href="#m021dcfab3b" x="47.72" y="45.192304" style="stroke: #000000; stroke-width: 0.8"/>
      </g>
     </g>
     <g id="text_11">
      <!-- 0.8 -->
      <g transform="translate(24.816875 48.991522) scale(0.1 -0.1)">
       <use xlink:href="#DejaVuSans-30"/>
       <use xlink:href="#DejaVuSans-2e" transform="translate(63.623047 0)"/>
       <use xlink:href="#DejaVuSans-38" transform="translate(95.410156 0)"/>
      </g>
     </g>
    </g>
    <g id="text_12">
     <!-- unsupported deterministic reuse rate -->
     <g transform="translate(18.737188 258.529906) rotate(-90) scale(0.1 -0.1)">
      <defs>
       <path id="DejaVuSans-64" d="M 2906 2969 
L 2906 4863 
L 3481 4863 
L 3481 0 
L 2906 0 
L 2906 525 
Q 2725 213 2448 61 
Q 2172 -91 1784 -91 
Q 1150 -91 751 415 
Q 353 922 353 1747 
Q 353 2572 751 3078 
Q 1150 3584 1784 3584 
Q 2172 3584 2448 3432 
Q 2725 3281 2906 2969 
z
M 947 1747 
Q 947 1113 1208 752 
Q 1469 391 1925 391 
Q 2381 391 2643 752 
Q 2906 1113 2906 1747 
Q 2906 2381 2643 2742 
Q 2381 3103 1925 3103 
Q 1469 3103 1208 2742 
Q 947 2381 947 1747 
z
" transform="scale(0.015625)"/>
      </defs>
      <use xlink:href="#DejaVuSans-75"/>
      <use xlink:href="#DejaVuSans-6e" transform="translate(63.378906 0)"/>
      <use xlink:href="#DejaVuSans-73" transform="translate(126.757812 0)"/>
      <use xlink:href="#DejaVuSans-75" transform="translate(178.857422 0)"/>
      <use xlink:href="#DejaVuSans-70" transform="translate(242.236328 0)"/>
      <use xlink:href="#DejaVuSans-70" transform="translate(305.712891 0)"/>
      <use xlink:href="#DejaVuSans-6f" transform="translate(369.189453 0)"/>
      <use xlink:href="#DejaVuSans-72" transform="translate(430.371094 0)"/>
      <use xlink:href="#DejaVuSans-74" transform="translate(471.484375 0)"/>
      <use xlink:href="#DejaVuSans-65" transform="translate(510.693359 0)"/>
      <use xlink:href="#DejaVuSans-64" transform="translate(572.216797 0)"/>
      <use xlink:href="#DejaVuSans-20" transform="translate(635.693359 0)"/>
      <use xlink:href="#DejaVuSans-64" transform="translate(667.480469 0)"/>
      <use xlink:href="#DejaVuSans-65" transform="translate(730.957031 0)"/>
      <use xlink:href="#DejaVuSans-74" transform="translate(792.480469 0)"/>
      <use xlink:href="#DejaVuSans-65" transform="translate(831.689453 0)"/>
      <use xlink:href="#DejaVuSans-72" transform="translate(893.212891 0)"/>
      <use xlink:href="#DejaVuSans-6d" transform="translate(932.576172 0)"/>
      <use xlink:href="#DejaVuSans-69" transform="translate(1029.988281 0)"/>
      <use xlink:href="#DejaVuSans-6e" transform="translate(1057.771484 0)"/>
      <use xlink:href="#DejaVuSans-69" transform="translate(1121.150391 0)"/>
      <use xlink:href="#DejaVuSans-73" transform="translate(1148.933594 0)"/>
      <use xlink:href="#DejaVuSans-74" transform="translate(1201.033203 0)"/>
      <use xlink:href="#DejaVuSans-69" transform="translate(1240.242188 0)"/>
      <use xlink:href="#DejaVuSans-63" transform="translate(1268.025391 0)"/>
      <use xlink:href="#DejaVuSans-20" transform="translate(1323.005859 0)"/>
      <use xlink:href="#DejaVuSans-72" transform="translate(1354.792969 0)"/>
      <use xlink:href="#DejaVuSans-65" transform="translate(1393.65625 0)"/>
      <use xlink:href="#DejaVuSans-75" transform="translate(1455.179688 0)"/>
      <use xlink:href="#DejaVuSans-73" transform="translate(1518.558594 0)"/>
      <use xlink:href="#DejaVuSans-65" transform="translate(1570.658203 0)"/>
      <use xlink:href="#DejaVuSans-20" transform="translate(1632.181641 0)"/>
      <use xlink:href="#DejaVuSans-72" transform="translate(1663.96875 0)"/>
      <use xlink:href="#DejaVuSans-61" transform="translate(1705.082031 0)"/>
      <use xlink:href="#DejaVuSans-74" transform="translate(1766.361328 0)"/>
      <use xlink:href="#DejaVuSans-65" transform="translate(1805.570312 0)"/>
     </g>
    </g>
   </g>
   <g id="patch_3">
    <path d="M 47.72 318.04 
L 47.72 12.312 
" style="fill: none; stroke: #000000; stroke-width: 0.8; stroke-linejoin: miter; stroke-linecap: square"/>
   </g>
   <g id="patch_4">
    <path d="M 479.110909 318.04 
L 479.110909 12.312 
" style="fill: none; stroke: #000000; stroke-width: 0.8; stroke-linejoin: miter; stroke-linecap: square"/>
   </g>
   <g id="patch_5">
    <path d="M 47.72 318.04 
L 479.110909 318.04 
" style="fill: none; stroke: #000000; stroke-width: 0.8; stroke-linejoin: miter; stroke-linecap: square"/>
   </g>
   <g id="patch_6">
    <path d="M 47.72 12.312 
L 479.110909 12.312 
" style="fill: none; stroke: #000000; stroke-width: 0.8; stroke-linejoin: miter; stroke-linecap: square"/>
   </g>
   <g id="text_13">
    <!-- ClinVar-label-only baseline -->
    <g transform="translate(67.328678 18.370259) scale(0.07 -0.07)">
     <defs>
      <path id="DejaVuSans-43" d="M 4122 4306 
L 4122 3641 
Q 3803 3938 3442 4084 
Q 3081 4231 2675 4231 
Q 1875 4231 1450 3742 
Q 1025 3253 1025 2328 
Q 1025 1406 1450 917 
Q 1875 428 2675 428 
Q 3081 428 3442 575 
Q 3803 722 4122 1019 
L 4122 359 
Q 3791 134 3420 21 
Q 3050 -91 2638 -91 
Q 1578 -91 968 557 
Q 359 1206 359 2328 
Q 359 3453 968 4101 
Q 1578 4750 2638 4750 
Q 3056 4750 3426 4639 
Q 3797 4528 4122 4306 
z
" transform="scale(0.015625)"/>
      <path id="DejaVuSans-56" d="M 1831 0 
L 50 4666 
L 709 4666 
L 2188 738 
L 3669 4666 
L 4325 4666 
L 2547 0 
L 1831 0 
z
" transform="scale(0.015625)"/>
      <path id="DejaVuSans-2d" d="M 313 2009 
L 1997 2009 
L 1997 1497 
L 313 1497 
L 313 2009 
z
" transform="scale(0.015625)"/>
      <path id="DejaVuSans-79" d="M 2059 -325 
Q 1816 -950 1584 -1140 
Q 1353 -1331 966 -1331 
L 506 -1331 
L 506 -850 
L 844 -850 
Q 1081 -850 1212 -737 
Q 1344 -625 1503 -206 
L 1606 56 
L 191 3500 
L 800 3500 
L 1894 763 
L 2988 3500 
L 3597 3500 
L 2059 -325 
z
" transform="scale(0.015625)"/>
     </defs>
     <use xlink:href="#DejaVuSans-43"/>
     <use xlink:href="#DejaVuSans-6c" transform="translate(69.824219 0)"/>
     <use xlink:href="#DejaVuSans-69" transform="translate(97.607422 0)"/>
     <use xlink:href="#DejaVuSans-6e" transform="translate(125.390625 0)"/>
     <use xlink:href="#DejaVuSans-56" transform="translate(188.769531 0)"/>
     <use xlink:href="#DejaVuSans-61" transform="translate(249.427734 0)"/>
     <use xlink:href="#DejaVuSans-72" transform="translate(310.707031 0)"/>
     <use xlink:href="#DejaVuSans-2d" transform="translate(345.445312 0)"/>
     <use xlink:href="#DejaVuSans-6c" transform="translate(381.529297 0)"/>
     <use xlink:href="#DejaVuSans-61" transform="translate(409.3125 0)"/>
     <use xlink:href="#DejaVuSans-62" transform="translate(470.591797 0)"/>
     <use xlink:href="#DejaVuSans-65" transform="translate(534.068359 0)"/>
     <use xlink:href="#DejaVuSans-6c" transform="translate(595.591797 0)"/>
     <use xlink:href="#DejaVuSans-2d" transform="translate(623.375 0)"/>
     <use xlink:href="#DejaVuSans-6f" transform="translate(661.333984 0)"/>
     <use xlink:href="#DejaVuSans-6e" transform="translate(722.515625 0)"/>
     <use xlink:href="#DejaVuSans-6c" transform="translate(785.894531 0)"/>
     <use xlink:href="#DejaVuSans-79" transform="translate(813.677734 0)"/>
     <use xlink:href="#DejaVuSans-20" transform="translate(872.857422 0)"/>
     <use xlink:href="#DejaVuSans-62" transform="translate(904.644531 0)"/>
     <use xlink:href="#DejaVuSans-61" transform="translate(968.121094 0)"/>
     <use xlink:href="#DejaVuSans-73" transform="translate(1029.400391 0)"/>
     <use xlink:href="#DejaVuSans-65" transform="translate(1081.5 0)"/>
     <use xlink:href="#DejaVuSans-6c" transform="translate(1143.023438 0)"/>
     <use xlink:href="#DejaVuSans-69" transform="translate(1170.806641 0)"/>
     <use xlink:href="#DejaVuSans-6e" transform="translate(1198.589844 0)"/>
     <use xlink:href="#DejaVuSans-65" transform="translate(1261.96875 0)"/>
    </g>
    <!-- conservative_composite_routing -->
    <g transform="translate(67.328678 26.208727) scale(0.07 -0.07)">
     <defs>
      <path id="DejaVuSans-76" d="M 191 3500 
L 800 3500 
L 1894 563 
L 2988 3500 
L 3597 3500 
L 2284 0 
L 1503 0 
L 191 3500 
z
" transform="scale(0.015625)"/>
      <path id="DejaVuSans-5f" d="M 3263 -1063 
L 3263 -1509 
L -63 -1509 
L -63 -1063 
L 3263 -1063 
z
" transform="scale(0.015625)"/>
     </defs>
     <use xlink:href="#DejaVuSans-63"/>
     <use xlink:href="#DejaVuSans-6f" transform="translate(54.980469 0)"/>
     <use xlink:href="#DejaVuSans-6e" transform="translate(116.162109 0)"/>
     <use xlink:href="#DejaVuSans-73" transform="translate(179.541016 0)"/>
     <use xlink:href="#DejaVuSans-65" transform="translate(231.640625 0)"/>
     <use xlink:href="#DejaVuSans-72" transform="translate(293.164062 0)"/>
     <use xlink:href="#DejaVuSans-76" transform="translate(334.277344 0)"/>
     <use xlink:href="#DejaVuSans-61" transform="translate(393.457031 0)"/>
     <use xlink:href="#DejaVuSans-74" transform="translate(454.736328 0)"/>
     <use xlink:href="#DejaVuSans-69" transform="translate(493.945312 0)"/>
     <use xlink:href="#DejaVuSans-76" transform="translate(521.728516 0)"/>
     <use xlink:href="#DejaVuSans-65" transform="translate(580.908203 0)"/>
     <use xlink:href="#DejaVuSans-5f" transform="translate(642.431641 0)"/>
     <use xlink:href="#DejaVuSans-63" transform="translate(692.431641 0)"/>
     <use xlink:href="#DejaVuSans-6f" transform="translate(747.412109 0)"/>
     <use xlink:href="#DejaVuSans-6d" transform="translate(808.59375 0)"/>
     <use xlink:href="#DejaVuSans-70" transform="translate(906.005859 0)"/>
     <use xlink:href="#DejaVuSans-6f" transform="translate(969.482422 0)"/>
     <use xlink:href="#DejaVuSans-73" transform="translate(1030.664062 0)"/>
     <use xlink:href="#DejaVuSans-69" transform="translate(1082.763672 0)"/>
     <use xlink:href="#DejaVuSans-74" transform="translate(1110.546875 0)"/>
     <use xlink:href="#DejaVuSans-65" transform="translate(1149.755859 0)"/>
     <use xlink:href="#DejaVuSans-5f" transform="translate(1211.279297 0)"/>
     <use xlink:href="#DejaVuSans-72" transform="translate(1261.279297 0)"/>
     <use xlink:href="#DejaVuSans-6f" transform="translate(1300.142578 0)"/>
     <use xlink:href="#DejaVuSans-75" transform="translate(1361.324219 0)"/>
     <use xlink:href="#DejaVuSans-74" transform="translate(1424.703125 0)"/>
     <use xlink:href="#DejaVuSans-69" transform="translate(1463.912109 0)"/>
     <use xlink:href="#DejaVuSans-6e" transform="translate(1491.695312 0)"/>
     <use xlink:href="#DejaVuSans-67" transform="translate(1555.074219 0)"/>
    </g>
   </g>
   <g id="text_14">
    <!-- CAB-Core -->
    <g transform="translate(339.855561 294.930993) scale(0.07 -0.07)">
     <defs>
      <path id="DejaVuSans-41" d="M 2188 4044 
L 1331 1722 
L 3047 1722 
L 2188 4044 
z
M 1831 4666 
L 2547 4666 
L 4325 0 
L 3669 0 
L 3244 1197 
L 1141 1197 
L 716 0 
L 50 0 
L 1831 4666 
z
" transform="scale(0.015625)"/>
      <path id="DejaVuSans-42" d="M 1259 2228 
L 1259 519 
L 2272 519 
Q 2781 519 3026 730 
Q 3272 941 3272 1375 
Q 3272 1813 3026 2020 
Q 2781 2228 2272 2228 
L 1259 2228 
z
M 1259 4147 
L 1259 2741 
L 2194 2741 
Q 2656 2741 2882 2914 
Q 3109 3088 3109 3444 
Q 3109 3797 2882 3972 
Q 2656 4147 2194 4147 
L 1259 4147 
z
M 628 4666 
L 2241 4666 
Q 2963 4666 3353 4366 
Q 3744 4066 3744 3513 
Q 3744 3084 3544 2831 
Q 3344 2578 2956 2516 
Q 3422 2416 3680 2098 
Q 3938 1781 3938 1306 
Q 3938 681 3513 340 
Q 3088 0 2303 0 
L 628 0 
L 628 4666 
z
" transform="scale(0.015625)"/>
     </defs>
     <use xlink:href="#DejaVuSans-43"/>
     <use xlink:href="#DejaVuSans-41" transform="translate(69.824219 0)"/>
     <use xlink:href="#DejaVuSans-42" transform="translate(138.232422 0)"/>
     <use xlink:href="#DejaVuSans-2d" transform="translate(206.835938 0)"/>
     <use xlink:href="#DejaVuSans-43" transform="translate(242.919922 0)"/>
     <use xlink:href="#DejaVuSans-6f" transform="translate(312.744141 0)"/>
     <use xlink:href="#DejaVuSans-72" transform="translate(373.925781 0)"/>
     <use xlink:href="#DejaVuSans-65" transform="translate(412.789062 0)"/>
    </g>
    <!-- conservative_composite_routing -->
    <g transform="translate(339.855561 302.769461) scale(0.07 -0.07)">
     <use xlink:href="#DejaVuSans-63"/>
     <use xlink:href="#DejaVuSans-6f" transform="translate(54.980469 0)"/>
     <use xlink:href="#DejaVuSans-6e" transform="translate(116.162109 0)"/>
     <use xlink:href="#DejaVuSans-73" transform="translate(179.541016 0)"/>
     <use xlink:href="#DejaVuSans-65" transform="translate(231.640625 0)"/>
     <use xlink:href="#DejaVuSans-72" transform="translate(293.164062 0)"/>
     <use xlink:href="#DejaVuSans-76" transform="translate(334.277344 0)"/>
     <use xlink:href="#DejaVuSans-61" transform="translate(393.457031 0)"/>
     <use xlink:href="#DejaVuSans-74" transform="translate(454.736328 0)"/>
     <use xlink:href="#DejaVuSans-69" transform="translate(493.945312 0)"/>
     <use xlink:href="#DejaVuSans-76" transform="translate(521.728516 0)"/>
     <use xlink:href="#DejaVuSans-65" transform="translate(580.908203 0)"/>
     <use xlink:href="#DejaVuSans-5f" transform="translate(642.431641 0)"/>
     <use xlink:href="#DejaVuSans-63" transform="translate(692.431641 0)"/>
     <use xlink:href="#DejaVuSans-6f" transform="translate(747.412109 0)"/>
     <use xlink:href="#DejaVuSans-6d" transform="translate(808.59375 0)"/>
     <use xlink:href="#DejaVuSans-70" transform="translate(906.005859 0)"/>
     <use xlink:href="#DejaVuSans-6f" transform="translate(969.482422 0)"/>
     <use xlink:href="#DejaVuSans-73" transform="translate(1030.664062 0)"/>
     <use xlink:href="#DejaVuSans-69" transform="translate(1082.763672 0)"/>
     <use xlink:href="#DejaVuSans-74" transform="translate(1110.546875 0)"/>
     <use xlink:href="#DejaVuSans-65" transform="translate(1149.755859 0)"/>
     <use xlink:href="#DejaVuSans-5f" transform="translate(1211.279297 0)"/>
     <use xlink:href="#DejaVuSans-72" transform="translate(1261.279297 0)"/>
     <use xlink:href="#DejaVuSans-6f" transform="translate(1300.142578 0)"/>
     <use xlink:href="#DejaVuSans-75" transform="translate(1361.324219 0)"/>
     <use xlink:href="#DejaVuSans-74" transform="translate(1424.703125 0)"/>
     <use xlink:href="#DejaVuSans-69" transform="translate(1463.912109 0)"/>
     <use xlink:href="#DejaVuSans-6e" transform="translate(1491.695312 0)"/>
     <use xlink:href="#DejaVuSans-67" transform="translate(1555.074219 0)"/>
    </g>
   </g>
   <g id="text_15">
    <!-- CAB-Conservative -->
    <g transform="translate(67.328678 260.985361) scale(0.07 -0.07)">
     <use xlink:href="#DejaVuSans-43"/>
     <use xlink:href="#DejaVuSans-41" transform="translate(69.824219 0)"/>
     <use xlink:href="#DejaVuSans-42" transform="translate(138.232422 0)"/>
     <use xlink:href="#DejaVuSans-2d" transform="translate(206.835938 0)"/>
     <use xlink:href="#DejaVuSans-43" transform="translate(242.919922 0)"/>
     <use xlink:href="#DejaVuSans-6f" transform="translate(312.744141 0)"/>
     <use xlink:href="#DejaVuSans-6e" transform="translate(373.925781 0)"/>
     <use xlink:href="#DejaVuSans-73" transform="translate(437.304688 0)"/>
     <use xlink:href="#DejaVuSans-65" transform="translate(489.404297 0)"/>
     <use xlink:href="#DejaVuSans-72" transform="translate(550.927734 0)"/>
     <use xlink:href="#DejaVuSans-76" transform="translate(592.041016 0)"/>
     <use xlink:href="#DejaVuSans-61" transform="translate(651.220703 0)"/>
     <use xlink:href="#DejaVuSans-74" transform="translate(712.5 0)"/>
     <use xlink:href="#DejaVuSans-69" transform="translate(751.708984 0)"/>
     <use xlink:href="#DejaVuSans-76" transform="translate(779.492188 0)"/>
     <use xlink:href="#DejaVuSans-65" transform="translate(838.671875 0)"/>
    </g>
    <!-- conservative_composite_routing -->
    <g transform="translate(67.328678 268.823829) scale(0.07 -0.07)">
     <use xlink:href="#DejaVuSans-63"/>
     <use xlink:href="#DejaVuSans-6f" transform="translate(54.980469 0)"/>
     <use xlink:href="#DejaVuSans-6e" transform="translate(116.162109 0)"/>
     <use xlink:href="#DejaVuSans-73" transform="translate(179.541016 0)"/>
     <use xlink:href="#DejaVuSans-65" transform="translate(231.640625 0)"/>
     <use xlink:href="#DejaVuSans-72" transform="translate(293.164062 0)"/>
     <use xlink:href="#DejaVuSans-76" transform="translate(334.277344 0)"/>
     <use xlink:href="#DejaVuSans-61" transform="translate(393.457031 0)"/>
     <use xlink:href="#DejaVuSans-74" transform="translate(454.736328 0)"/>
     <use xlink:href="#DejaVuSans-69" transform="translate(493.945312 0)"/>
     <use xlink:href="#DejaVuSans-76" transform="translate(521.728516 0)"/>
     <use xlink:href="#DejaVuSans-65" transform="translate(580.908203 0)"/>
     <use xlink:href="#DejaVuSans-5f" transform="translate(642.431641 0)"/>
     <use xlink:href="#DejaVuSans-63" transform="translate(692.431641 0)"/>
     <use xlink:href="#DejaVuSans-6f" transform="translate(747.412109 0)"/>
     <use xlink:href="#DejaVuSans-6d" transform="translate(808.59375 0)"/>
     <use xlink:href="#DejaVuSans-70" transform="translate(906.005859 0)"/>
     <use xlink:href="#DejaVuSans-6f" transform="translate(969.482422 0)"/>
     <use xlink:href="#DejaVuSans-73" transform="translate(1030.664062 0)"/>
     <use xlink:href="#DejaVuSans-69" transform="translate(1082.763672 0)"/>
     <use xlink:href="#DejaVuSans-74" transform="translate(1110.546875 0)"/>
     <use xlink:href="#DejaVuSans-65" transform="translate(1149.755859 0)"/>
     <use xlink:href="#DejaVuSans-5f" transform="translate(1211.279297 0)"/>
     <use xlink:href="#DejaVuSans-72" transform="translate(1261.279297 0)"/>
     <use xlink:href="#DejaVuSans-6f" transform="translate(1300.142578 0)"/>
     <use xlink:href="#DejaVuSans-75" transform="translate(1361.324219 0)"/>
     <use xlink:href="#DejaVuSans-74" transform="translate(1424.703125 0)"/>
     <use xlink:href="#DejaVuSans-69" transform="translate(1463.912109 0)"/>
     <use xlink:href="#DejaVuSans-6e" transform="translate(1491.695312 0)"/>
     <use xlink:href="#DejaVuSans-67" transform="translate(1555.074219 0)"/>
    </g>
   </g>
   <g id="text_16">
    <!-- ClinVar-label-only baseline -->
    <g transform="translate(67.328678 181.129448) scale(0.07 -0.07)">
     <use xlink:href="#DejaVuSans-43"/>
     <use xlink:href="#DejaVuSans-6c" transform="translate(69.824219 0)"/>
     <use xlink:href="#DejaVuSans-69" transform="translate(97.607422 0)"/>
     <use xlink:href="#DejaVuSans-6e" transform="translate(125.390625 0)"/>
     <use xlink:href="#DejaVuSans-56" transform="translate(188.769531 0)"/>
     <use xlink:href="#DejaVuSans-61" transform="translate(249.427734 0)"/>
     <use xlink:href="#DejaVuSans-72" transform="translate(310.707031 0)"/>
     <use xlink:href="#DejaVuSans-2d" transform="translate(345.445312 0)"/>
     <use xlink:href="#DejaVuSans-6c" transform="translate(381.529297 0)"/>
     <use xlink:href="#DejaVuSans-61" transform="translate(409.3125 0)"/>
     <use xlink:href="#DejaVuSans-62" transform="translate(470.591797 0)"/>
     <use xlink:href="#DejaVuSans-65" transform="translate(534.068359 0)"/>
     <use xlink:href="#DejaVuSans-6c" transform="translate(595.591797 0)"/>
     <use xlink:href="#DejaVuSans-2d" transform="translate(623.375 0)"/>
     <use xlink:href="#DejaVuSans-6f" transform="translate(661.333984 0)"/>
     <use xlink:href="#DejaVuSans-6e" transform="translate(722.515625 0)"/>
     <use xlink:href="#DejaVuSans-6c" transform="translate(785.894531 0)"/>
     <use xlink:href="#DejaVuSans-79" transform="translate(813.677734 0)"/>
     <use xlink:href="#DejaVuSans-20" transform="translate(872.857422 0)"/>
     <use xlink:href="#DejaVuSans-62" transform="translate(904.644531 0)"/>
     <use xlink:href="#DejaVuSans-61" transform="translate(968.121094 0)"/>
     <use xlink:href="#DejaVuSans-73" transform="translate(1029.400391 0)"/>
     <use xlink:href="#DejaVuSans-65" transform="translate(1081.5 0)"/>
     <use xlink:href="#DejaVuSans-6c" transform="translate(1143.023438 0)"/>
     <use xlink:href="#DejaVuSans-69" transform="translate(1170.806641 0)"/>
     <use xlink:href="#DejaVuSans-6e" transform="translate(1198.589844 0)"/>
     <use xlink:href="#DejaVuSans-65" transform="translate(1261.96875 0)"/>
    </g>
    <!-- temporal_condition_label_drift -->
    <g transform="translate(67.328678 188.967916) scale(0.07 -0.07)">
     <use xlink:href="#DejaVuSans-74"/>
     <use xlink:href="#DejaVuSans-65" transform="translate(39.208984 0)"/>
     <use xlink:href="#DejaVuSans-6d" transform="translate(100.732422 0)"/>
     <use xlink:href="#DejaVuSans-70" transform="translate(198.144531 0)"/>
     <use xlink:href="#DejaVuSans-6f" transform="translate(261.621094 0)"/>
     <use xlink:href="#DejaVuSans-72" transform="translate(322.802734 0)"/>
     <use xlink:href="#DejaVuSans-61" transform="translate(363.916016 0)"/>
     <use xlink:href="#DejaVuSans-6c" transform="translate(425.195312 0)"/>
     <use xlink:href="#DejaVuSans-5f" transform="translate(452.978516 0)"/>
     <use xlink:href="#DejaVuSans-63" transform="translate(502.978516 0)"/>
     <use xlink:href="#DejaVuSans-6f" transform="translate(557.958984 0)"/>
     <use xlink:href="#DejaVuSans-6e" transform="translate(619.140625 0)"/>
     <use xlink:href="#DejaVuSans-64" transform="translate(682.519531 0)"/>
     <use xlink:href="#DejaVuSans-69" transform="translate(745.996094 0)"/>
     <use xlink:href="#DejaVuSans-74" transform="translate(773.779297 0)"/>
     <use xlink:href="#DejaVuSans-69" transform="translate(812.988281 0)"/>
     <use xlink:href="#DejaVuSans-6f" transform="translate(840.771484 0)"/>
     <use xlink:href="#DejaVuSans-6e" transform="translate(901.953125 0)"/>
     <use xlink:href="#DejaVuSans-5f" transform="translate(965.332031 0)"/>
     <use xlink:href="#DejaVuSans-6c" transform="translate(1015.332031 0)"/>
     <use xlink:href="#DejaVuSans-61" transform="translate(1043.115234 0)"/>
     <use xlink:href="#DejaVuSans-62" transform="translate(1104.394531 0)"/>
     <use xlink:href="#DejaVuSans-65" transform="translate(1167.871094 0)"/>
     <use xlink:href="#DejaVuSans-6c" transform="translate(1229.394531 0)"/>
     <use xlink:href="#DejaVuSans-5f" transform="translate(1257.177734 0)"/>
     <use xlink:href="#DejaVuSans-64" transform="translate(1307.177734 0)"/>
     <use xlink:href="#DejaVuSans-72" transform="translate(1370.654297 0)"/>
     <use xlink:href="#DejaVuSans-69" transform="translate(1411.767578 0)"/>
     <use xlink:href="#DejaVuSans-66" transform="translate(1439.550781 0)"/>
     <use xlink:href="#DejaVuSans-74" transform="translate(1473.005859 0)"/>
    </g>
   </g>
   <g id="text_17">
    <!-- CAB-Core -->
    <g transform="translate(459.502231 296.304804) scale(0.07 -0.07)">
     <use xlink:href="#DejaVuSans-43"/>
     <use xlink:href="#DejaVuSans-41" transform="translate(69.824219 0)"/>
     <use xlink:href="#DejaVuSans-42" transform="translate(138.232422 0)"/>
     <use xlink:href="#DejaVuSans-2d" transform="translate(206.835938 0)"/>
     <use xlink:href="#DejaVuSans-43" transform="translate(242.919922 0)"/>
     <use xlink:href="#DejaVuSans-6f" transform="translate(312.744141 0)"/>
     <use xlink:href="#DejaVuSans-72" transform="translate(373.925781 0)"/>
     <use xlink:href="#DejaVuSans-65" transform="translate(412.789062 0)"/>
    </g>
    <!-- temporal_condition_label_drift -->
    <g transform="translate(459.502231 304.143273) scale(0.07 -0.07)">
     <use xlink:href="#DejaVuSans-74"/>
     <use xlink:href="#DejaVuSans-65" transform="translate(39.208984 0)"/>
     <use xlink:href="#DejaVuSans-6d" transform="translate(100.732422 0)"/>
     <use xlink:href="#DejaVuSans-70" transform="translate(198.144531 0)"/>
     <use xlink:href="#DejaVuSans-6f" transform="translate(261.621094 0)"/>
     <use xlink:href="#DejaVuSans-72" transform="translate(322.802734 0)"/>
     <use xlink:href="#DejaVuSans-61" transform="translate(363.916016 0)"/>
     <use xlink:href="#DejaVuSans-6c" transform="translate(425.195312 0)"/>
     <use xlink:href="#DejaVuSans-5f" transform="translate(452.978516 0)"/>
     <use xlink:href="#DejaVuSans-63" transform="translate(502.978516 0)"/>
     <use xlink:href="#DejaVuSans-6f" transform="translate(557.958984 0)"/>
     <use xlink:href="#DejaVuSans-6e" transform="translate(619.140625 0)"/>
     <use xlink:href="#DejaVuSans-64" transform="translate(682.519531 0)"/>
     <use xlink:href="#DejaVuSans-69" transform="translate(745.996094 0)"/>
     <use xlink:href="#DejaVuSans-74" transform="translate(773.779297 0)"/>
     <use xlink:href="#DejaVuSans-69" transform="translate(812.988281 0)"/>
     <use xlink:href="#DejaVuSans-6f" transform="translate(840.771484 0)"/>
     <use xlink:href="#DejaVuSans-6e" transform="translate(901.953125 0)"/>
     <use xlink:href="#DejaVuSans-5f" transform="translate(965.332031 0)"/>
     <use xlink:href="#DejaVuSans-6c" transform="translate(1015.332031 0)"/>
     <use xlink:href="#DejaVuSans-61" transform="translate(1043.115234 0)"/>
     <use xlink:href="#DejaVuSans-62" transform="translate(1104.394531 0)"/>
     <use xlink:href="#DejaVuSans-65" transform="translate(1167.871094 0)"/>
     <use xlink:href="#DejaVuSans-6c" transform="translate(1229.394531 0)"/>
     <use xlink:href="#DejaVuSans-5f" transform="translate(1257.177734 0)"/>
     <use xlink:href="#DejaVuSans-64" transform="translate(1307.177734 0)"/>
     <use xlink:href="#DejaVuSans-72" transform="translate(1370.654297 0)"/>
     <use xlink:href="#DejaVuSans-69" transform="translate(1411.767578 0)"/>
     <use xlink:href="#DejaVuSans-66" transform="translate(1439.550781 0)"/>
     <use xlink:href="#DejaVuSans-74" transform="translate(1473.005859 0)"/>
    </g>
   </g>
   <g id="text_18">
    <!-- CAB-Conservative -->
    <g transform="translate(362.615603 279.481858) scale(0.07 -0.07)">
     <use xlink:href="#DejaVuSans-43"/>
     <use xlink:href="#DejaVuSans-41" transform="translate(69.824219 0)"/>
     <use xlink:href="#DejaVuSans-42" transform="translate(138.232422 0)"/>
     <use xlink:href="#DejaVuSans-2d" transform="translate(206.835938 0)"/>
     <use xlink:href="#DejaVuSans-43" transform="translate(242.919922 0)"/>
     <use xlink:href="#DejaVuSans-6f" transform="translate(312.744141 0)"/>
     <use xlink:href="#DejaVuSans-6e" transform="translate(373.925781 0)"/>
     <use xlink:href="#DejaVuSans-73" transform="translate(437.304688 0)"/>
     <use xlink:href="#DejaVuSans-65" transform="translate(489.404297 0)"/>
     <use xlink:href="#DejaVuSans-72" transform="translate(550.927734 0)"/>
     <use xlink:href="#DejaVuSans-76" transform="translate(592.041016 0)"/>
     <use xlink:href="#DejaVuSans-61" transform="translate(651.220703 0)"/>
     <use xlink:href="#DejaVuSans-74" transform="translate(712.5 0)"/>
     <use xlink:href="#DejaVuSans-69" transform="translate(751.708984 0)"/>
     <use xlink:href="#DejaVuSans-76" transform="translate(779.492188 0)"/>
     <use xlink:href="#DejaVuSans-65" transform="translate(838.671875 0)"/>
    </g>
    <!-- temporal_condition_label_drift -->
    <g transform="translate(362.615603 287.320327) scale(0.07 -0.07)">
     <use xlink:href="#DejaVuSans-74"/>
     <use xlink:href="#DejaVuSans-65" transform="translate(39.208984 0)"/>
     <use xlink:href="#DejaVuSans-6d" transform="translate(100.732422 0)"/>
     <use xlink:href="#DejaVuSans-70" transform="translate(198.144531 0)"/>
     <use xlink:href="#DejaVuSans-6f" transform="translate(261.621094 0)"/>
     <use xlink:href="#DejaVuSans-72" transform="translate(322.802734 0)"/>
     <use xlink:href="#DejaVuSans-61" transform="translate(363.916016 0)"/>
     <use xlink:href="#DejaVuSans-6c" transform="translate(425.195312 0)"/>
     <use xlink:href="#DejaVuSans-5f" transform="translate(452.978516 0)"/>
     <use xlink:href="#DejaVuSans-63" transform="translate(502.978516 0)"/>
     <use xlink:href="#DejaVuSans-6f" transform="translate(557.958984 0)"/>
     <use xlink:href="#DejaVuSans-6e" transform="translate(619.140625 0)"/>
     <use xlink:href="#DejaVuSans-64" transform="translate(682.519531 0)"/>
     <use xlink:href="#DejaVuSans-69" transform="translate(745.996094 0)"/>
     <use xlink:href="#DejaVuSans-74" transform="translate(773.779297 0)"/>
     <use xlink:href="#DejaVuSans-69" transform="translate(812.988281 0)"/>
     <use xlink:href="#DejaVuSans-6f" transform="translate(840.771484 0)"/>
     <use xlink:href="#DejaVuSans-6e" transform="translate(901.953125 0)"/>
     <use xlink:href="#DejaVuSans-5f" transform="translate(965.332031 0)"/>
     <use xlink:href="#DejaVuSans-6c" transform="translate(1015.332031 0)"/>
     <use xlink:href="#DejaVuSans-61" transform="translate(1043.115234 0)"/>
     <use xlink:href="#DejaVuSans-62" transform="translate(1104.394531 0)"/>
     <use xlink:href="#DejaVuSans-65" transform="translate(1167.871094 0)"/>
     <use xlink:href="#DejaVuSans-6c" transform="translate(1229.394531 0)"/>
     <use xlink:href="#DejaVuSans-5f" transform="translate(1257.177734 0)"/>
     <use xlink:href="#DejaVuSans-64" transform="translate(1307.177734 0)"/>
     <use xlink:href="#DejaVuSans-72" transform="translate(1370.654297 0)"/>
     <use xlink:href="#DejaVuSans-69" transform="translate(1411.767578 0)"/>
     <use xlink:href="#DejaVuSans-66" transform="translate(1439.550781 0)"/>
     <use xlink:href="#DejaVuSans-74" transform="translate(1473.005859 0)"/>
    </g>
   </g>
  </g>
 </g>
 <defs>
  <clipPath id="p409e6a8857">
   <rect x="47.72" y="12.312" width="431.390909" height="305.728"/>
  </clipPath>
 </defs>
</svg>
