<?xml version="1.0" encoding="utf-8" standalone="no"?>
<!DOCTYPE svg PUBLIC "-//W3C//DTD SVG 1.1//EN"
  "http://www.w3.org/Graphics/SVG/1.1/DTD/svg11.dtd">
<svg xmlns:xlink="http://www.w3.org/1999/xlink" width="854.881527pt" height="568.08pt" viewBox="0 0 854.881527 568.08" xmlns="http://www.w3.org/2000/svg" version="1.1">
 <metadata>
  <rdf:RDF xmlns:dc="http://purl.org/dc/elements/1.1/" xmlns:cc="http://creativecommons.org/ns#" xmlns:rdf="http://www.w3.org/1999/02/22-rdf-syntax-ns#">
   <cc:Work>
    <dc:type rdf:resource="http://purl.org/dc/dcmitype/StillImage"/>
    <dc:date>2026-05-07T23:18:24.097743</dc:date>
    <dc:format>image/svg+xml</dc:format>
    <dc:creator>
     <cc:Agent>
      <dc:title>Matplotlib v3.10.9, https://matplotlib.org/</dc:title>
     </cc:Agent>
    </dc:creator>
   </cc:Work>
  </rdf:RDF>
 </metadata>
 <defs>
  <style type="text/css">*{stroke-linejoin: round; stroke-linecap: butt}</style>
 </defs>
 <g id="figure_1">
  <g id="patch_1">
   <path d="M 0 568.08 
L 854.881527 568.08 
L 854.881527 0 
L 0 0 
z
" style="fill: #ffffff"/>
  </g>
  <g id="axes_1">
   <g id="patch_2">
    <path d="M 60.72165 193.83948 
L 114.2433 193.83948 
Q 123.800738 193.83948 123.800738 188.11368 
L 123.800738 142.30728 
Q 123.800738 136.58148 114.2433 136.58148 
L 60.72165 136.58148 
Q 51.164213 136.58148 51.164213 142.30728 
L 51.164213 188.11368 
Q 51.164213 193.83948 60.72165 193.83948 
z
" clip-path="url(#p18193cf706)" style="fill: #ffffff; stroke: #4c78a8; stroke-width: 1.2; stroke-linejoin: miter"/>
   </g>
   <g id="patch_3">
    <path d="M 160.119 193.83948 
L 213.64065 193.83948 
Q 223.198087 193.83948 223.198087 188.11368 
L 223.198087 142.30728 
Q 223.198087 136.58148 213.64065 136.58148 
L 160.119 136.58148 
Q 150.561562 136.58148 150.561562 142.30728 
L 150.561562 188.11368 
Q 150.561562 193.83948 160.119 193.83948 
z
" clip-path="url(#p18193cf706)" style="fill: #ffffff; stroke: #4c78a8; stroke-width: 1.2; stroke-linejoin: miter"/>
   </g>
   <g id="patch_4">
    <path d="M 259.51635 193.83948 
L 313.038 193.83948 
Q 322.595437 193.83948 322.595437 188.11368 
L 322.595437 142.30728 
Q 322.595437 136.58148 313.038 136.58148 
L 259.51635 136.58148 
Q 249.958912 136.58148 249.958912 142.30728 
L 249.958912 188.11368 
Q 249.958912 193.83948 259.51635 193.83948 
z
" clip-path="url(#p18193cf706)" style="fill: #ffffff; stroke: #4c78a8; stroke-width: 1.2; stroke-linejoin: miter"/>
   </g>
   <g id="patch_5">
    <path d="M 355.090725 193.83948 
L 408.612375 193.83948 
Q 418.169812 193.83948 418.169812 188.11368 
L 418.169812 142.30728 
Q 418.169812 136.58148 408.612375 136.58148 
L 355.090725 136.58148 
Q 345.533287 136.58148 345.533287 142.30728 
L 345.533287 188.11368 
Q 345.533287 193.83948 355.090725 193.83948 
z
" clip-path="url(#p18193cf706)" style="fill: #ffffff; stroke: #4c78a8; stroke-width: 1.2; stroke-linejoin: miter"/>
   </g>
   <g id="text_1">
    <!-- A -->
    <g style="fill: #222222" transform="translate(7.2 67.443409) scale(0.13 -0.13)">
     <defs>
      <path id="DejaVuSans-Bold-41" d="M 3419 850 
L 1538 850 
L 1241 0 
L 31 0 
L 1759 4666 
L 3194 4666 
L 4922 0 
L 3713 0 
L 3419 850 
z
M 1838 1716 
L 3116 1716 
L 2478 3572 
L 1838 1716 
z
" transform="scale(0.015625)"/>
     </defs>
     <use xlink:href="#DejaVuSans-Bold-41"/>
    </g>
   </g>
   <g id="text_2">
    <!-- arrhythmia -->
    <g style="fill: #222222" transform="translate(65.4181 162.938855) scale(0.08 -0.08)">
     <defs>
      <path id="DejaVuSans-61" d="M 2194 1759 
Q 1497 1759 1228 1600 
Q 959 1441 959 1056 
Q 959 750 1161 570 
Q 1363 391 1709 391 
Q 2188 391 2477 730 
Q 2766 1069 2766 1631 
L 2766 1759 
L 2194 1759 
z
M 3341 1997 
L 3341 0 
L 2766 0 
L 2766 531 
Q 2569 213 2275 61 
Q 1981 -91 1556 -91 
Q 1019 -91 701 211 
Q 384 513 384 1019 
Q 384 1609 779 1909 
Q 1175 2209 1959 2209 
L 2766 2209 
L 2766 2266 
Q 2766 2663 2505 2880 
Q 2244 3097 1772 3097 
Q 1472 3097 1187 3025 
Q 903 2953 641 2809 
L 641 3341 
Q 956 3463 1253 3523 
Q 1550 3584 1831 3584 
Q 2591 3584 2966 3190 
Q 3341 2797 3341 1997 
z
" transform="scale(0.015625)"/>
      <path id="DejaVuSans-72" d="M 2631 2963 
Q 2534 3019 2420 3045 
Q 2306 3072 2169 3072 
Q 1681 3072 1420 2755 
Q 1159 2438 1159 1844 
L 1159 0 
L 581 0 
L 581 3500 
L 1159 3500 
L 1159 2956 
Q 1341 3275 1631 3429 
Q 1922 3584 2338 3584 
Q 2397 3584 2469 3576 
Q 2541 3569 2628 3553 
L 2631 2963 
z
" transform="scale(0.015625)"/>
      <path id="DejaVuSans-68" d="M 3513 2113 
L 3513 0 
L 2938 0 
L 2938 2094 
Q 2938 2591 2744 2837 
Q 2550 3084 2163 3084 
Q 1697 3084 1428 2787 
Q 1159 2491 1159 1978 
L 1159 0 
L 581 0 
L 581 4863 
L 1159 4863 
L 1159 2956 
Q 1366 3272 1645 3428 
Q 1925 3584 2291 3584 
Q 2894 3584 3203 3211 
Q 3513 2838 3513 2113 
z
" transform="scale(0.015625)"/>
      <path id="DejaVuSans-79" d="M 2059 -325 
Q 1816 -950 1584 -1140 
Q 1353 -1331 966 -1331 
L 506 -1331 
L 506 -850 
L 844 -850 
Q 1081 -850 1212 -737 
Q 1344 -625 1503 -206 
L 1606 56 
L 191 3500 
L 800 3500 
L 1894 763 
L 2988 3500 
L 3597 3500 
L 2059 -325 
z
" transform="scale(0.015625)"/>
      <path id="DejaVuSans-74" d="M 1172 4494 
L 1172 3500 
L 2356 3500 
L 2356 3053 
L 1172 3053 
L 1172 1153 
Q 1172 725 1289 603 
Q 1406 481 1766 481 
L 2356 481 
L 2356 0 
L 1766 0 
Q 1100 0 847 248 
Q 594 497 594 1153 
L 594 3053 
L 172 3053 
L 172 3500 
L 594 3500 
L 594 4494 
L 1172 4494 
z
" transform="scale(0.015625)"/>
      <path id="DejaVuSans-6d" d="M 3328 2828 
Q 3544 3216 3844 3400 
Q 4144 3584 4550 3584 
Q 5097 3584 5394 3201 
Q 5691 2819 5691 2113 
L 5691 0 
L 5113 0 
L 5113 2094 
Q 5113 2597 4934 2840 
Q 4756 3084 4391 3084 
Q 3944 3084 3684 2787 
Q 3425 2491 3425 1978 
L 3425 0 
L 2847 0 
L 2847 2094 
Q 2847 2600 2669 2842 
Q 2491 3084 2119 3084 
Q 1678 3084 1418 2786 
Q 1159 2488 1159 1978 
L 1159 0 
L 581 0 
L 581 3500 
L 1159 3500 
L 1159 2956 
Q 1356 3278 1631 3431 
Q 1906 3584 2284 3584 
Q 2666 3584 2933 3390 
Q 3200 3197 3328 2828 
z
" transform="scale(0.015625)"/>
      <path id="DejaVuSans-69" d="M 603 3500 
L 1178 3500 
L 1178 0 
L 603 0 
L 603 3500 
z
M 603 4863 
L 1178 4863 
L 1178 4134 
L 603 4134 
L 603 4863 
z
" transform="scale(0.015625)"/>
     </defs>
     <use xlink:href="#DejaVuSans-61"/>
     <use xlink:href="#DejaVuSans-72" transform="translate(61.279297 0)"/>
     <use xlink:href="#DejaVuSans-72" transform="translate(100.642578 0)"/>
     <use xlink:href="#DejaVuSans-68" transform="translate(140.005859 0)"/>
     <use xlink:href="#DejaVuSans-79" transform="translate(203.384766 0)"/>
     <use xlink:href="#DejaVuSans-74" transform="translate(262.564453 0)"/>
     <use xlink:href="#DejaVuSans-68" transform="translate(301.773438 0)"/>
     <use xlink:href="#DejaVuSans-6d" transform="translate(365.152344 0)"/>
     <use xlink:href="#DejaVuSans-69" transform="translate(462.564453 0)"/>
     <use xlink:href="#DejaVuSans-61" transform="translate(490.347656 0)"/>
    </g>
    <!-- assertion -->
    <g style="fill: #222222" transform="translate(69.096225 171.897105) scale(0.08 -0.08)">
     <defs>
      <path id="DejaVuSans-73" d="M 2834 3397 
L 2834 2853 
Q 2591 2978 2328 3040 
Q 2066 3103 1784 3103 
Q 1356 3103 1142 2972 
Q 928 2841 928 2578 
Q 928 2378 1081 2264 
Q 1234 2150 1697 2047 
L 1894 2003 
Q 2506 1872 2764 1633 
Q 3022 1394 3022 966 
Q 3022 478 2636 193 
Q 2250 -91 1575 -91 
Q 1294 -91 989 -36 
Q 684 19 347 128 
L 347 722 
Q 666 556 975 473 
Q 1284 391 1588 391 
Q 1994 391 2212 530 
Q 2431 669 2431 922 
Q 2431 1156 2273 1281 
Q 2116 1406 1581 1522 
L 1381 1569 
Q 847 1681 609 1914 
Q 372 2147 372 2553 
Q 372 3047 722 3315 
Q 1072 3584 1716 3584 
Q 2034 3584 2315 3537 
Q 2597 3491 2834 3397 
z
" transform="scale(0.015625)"/>
      <path id="DejaVuSans-65" d="M 3597 1894 
L 3597 1613 
L 953 1613 
Q 991 1019 1311 708 
Q 1631 397 2203 397 
Q 2534 397 2845 478 
Q 3156 559 3463 722 
L 3463 178 
Q 3153 47 2828 -22 
Q 2503 -91 2169 -91 
Q 1331 -91 842 396 
Q 353 884 353 1716 
Q 353 2575 817 3079 
Q 1281 3584 2069 3584 
Q 2775 3584 3186 3129 
Q 3597 2675 3597 1894 
z
M 3022 2063 
Q 3016 2534 2758 2815 
Q 2500 3097 2075 3097 
Q 1594 3097 1305 2825 
Q 1016 2553 972 2059 
L 3022 2063 
z
" transform="scale(0.015625)"/>
      <path id="DejaVuSans-6f" d="M 1959 3097 
Q 1497 3097 1228 2736 
Q 959 2375 959 1747 
Q 959 1119 1226 758 
Q 1494 397 1959 397 
Q 2419 397 2687 759 
Q 2956 1122 2956 1747 
Q 2956 2369 2687 2733 
Q 2419 3097 1959 3097 
z
M 1959 3584 
Q 2709 3584 3137 3096 
Q 3566 2609 3566 1747 
Q 3566 888 3137 398 
Q 2709 -91 1959 -91 
Q 1206 -91 779 398 
Q 353 888 353 1747 
Q 353 2609 779 3096 
Q 1206 3584 1959 3584 
z
" transform="scale(0.015625)"/>
      <path id="DejaVuSans-6e" d="M 3513 2113 
L 3513 0 
L 2938 0 
L 2938 2094 
Q 2938 2591 2744 2837 
Q 2550 3084 2163 3084 
Q 1697 3084 1428 2787 
Q 1159 2491 1159 1978 
L 1159 0 
L 581 0 
L 581 3500 
L 1159 3500 
L 1159 2956 
Q 1366 3272 1645 3428 
Q 1925 3584 2291 3584 
Q 2894 3584 3203 3211 
Q 3513 2838 3513 2113 
z
" transform="scale(0.015625)"/>
     </defs>
     <use xlink:href="#DejaVuSans-61"/>
     <use xlink:href="#DejaVuSans-73" transform="translate(61.279297 0)"/>
     <use xlink:href="#DejaVuSans-73" transform="translate(113.378906 0)"/>
     <use xlink:href="#DejaVuSans-65" transform="translate(165.478516 0)"/>
     <use xlink:href="#DejaVuSans-72" transform="translate(227.001953 0)"/>
     <use xlink:href="#DejaVuSans-74" transform="translate(268.115234 0)"/>
     <use xlink:href="#DejaVuSans-69" transform="translate(307.324219 0)"/>
     <use xlink:href="#DejaVuSans-6f" transform="translate(335.107422 0)"/>
     <use xlink:href="#DejaVuSans-6e" transform="translate(396.289062 0)"/>
    </g>
   </g>
   <g id="text_3">
    <!-- postmortem -->
    <g style="fill: #222222" transform="translate(162.327325 162.938855) scale(0.08 -0.08)">
     <defs>
      <path id="DejaVuSans-70" d="M 1159 525 
L 1159 -1331 
L 581 -1331 
L 581 3500 
L 1159 3500 
L 1159 2969 
Q 1341 3281 1617 3432 
Q 1894 3584 2278 3584 
Q 2916 3584 3314 3078 
Q 3713 2572 3713 1747 
Q 3713 922 3314 415 
Q 2916 -91 2278 -91 
Q 1894 -91 1617 61 
Q 1341 213 1159 525 
z
M 3116 1747 
Q 3116 2381 2855 2742 
Q 2594 3103 2138 3103 
Q 1681 3103 1420 2742 
Q 1159 2381 1159 1747 
Q 1159 1113 1420 752 
Q 1681 391 2138 391 
Q 2594 391 2855 752 
Q 3116 1113 3116 1747 
z
" transform="scale(0.015625)"/>
     </defs>
     <use xlink:href="#DejaVuSans-70"/>
     <use xlink:href="#DejaVuSans-6f" transform="translate(63.476562 0)"/>
     <use xlink:href="#DejaVuSans-73" transform="translate(124.658203 0)"/>
     <use xlink:href="#DejaVuSans-74" transform="translate(176.757812 0)"/>
     <use xlink:href="#DejaVuSans-6d" transform="translate(215.966797 0)"/>
     <use xlink:href="#DejaVuSans-6f" transform="translate(313.378906 0)"/>
     <use xlink:href="#DejaVuSans-72" transform="translate(374.560547 0)"/>
     <use xlink:href="#DejaVuSans-74" transform="translate(415.673828 0)"/>
     <use xlink:href="#DejaVuSans-65" transform="translate(454.882812 0)"/>
     <use xlink:href="#DejaVuSans-6d" transform="translate(516.40625 0)"/>
    </g>
    <!-- interpretation -->
    <g style="fill: #222222" transform="translate(159.323575 171.897105) scale(0.08 -0.08)">
     <use xlink:href="#DejaVuSans-69"/>
     <use xlink:href="#DejaVuSans-6e" transform="translate(27.783203 0)"/>
     <use xlink:href="#DejaVuSans-74" transform="translate(91.162109 0)"/>
     <use xlink:href="#DejaVuSans-65" transform="translate(130.371094 0)"/>
     <use xlink:href="#DejaVuSans-72" transform="translate(191.894531 0)"/>
     <use xlink:href="#DejaVuSans-70" transform="translate(233.007812 0)"/>
     <use xlink:href="#DejaVuSans-72" transform="translate(296.484375 0)"/>
     <use xlink:href="#DejaVuSans-65" transform="translate(335.347656 0)"/>
     <use xlink:href="#DejaVuSans-74" transform="translate(396.871094 0)"/>
     <use xlink:href="#DejaVuSans-61" transform="translate(436.080078 0)"/>
     <use xlink:href="#DejaVuSans-74" transform="translate(497.359375 0)"/>
     <use xlink:href="#DejaVuSans-69" transform="translate(536.568359 0)"/>
     <use xlink:href="#DejaVuSans-6f" transform="translate(564.351562 0)"/>
     <use xlink:href="#DejaVuSans-6e" transform="translate(625.533203 0)"/>
    </g>
   </g>
   <g id="patch_6">
    <path d="M 121.066974 165.21048 
Q 137.182803 165.21048 151.956991 165.21048 
" style="fill: none; stroke: #4d4d4d; stroke-width: 1.2; stroke-linecap: round"/>
    <path d="M 147.956991 163.21048 
L 151.956991 165.21048 
L 147.956991 167.21048 
z
" style="fill: #4d4d4d; stroke: #4d4d4d; stroke-width: 1.2; stroke-linecap: round"/>
   </g>
   <g id="text_4">
    <!-- family-risk -->
    <g style="fill: #222222" transform="translate(265.4028 162.938855) scale(0.08 -0.08)">
     <defs>
      <path id="DejaVuSans-66" d="M 2375 4863 
L 2375 4384 
L 1825 4384 
Q 1516 4384 1395 4259 
Q 1275 4134 1275 3809 
L 1275 3500 
L 2222 3500 
L 2222 3053 
L 1275 3053 
L 1275 0 
L 697 0 
L 697 3053 
L 147 3053 
L 147 3500 
L 697 3500 
L 697 3744 
Q 697 4328 969 4595 
Q 1241 4863 1831 4863 
L 2375 4863 
z
" transform="scale(0.015625)"/>
      <path id="DejaVuSans-6c" d="M 603 4863 
L 1178 4863 
L 1178 0 
L 603 0 
L 603 4863 
z
" transform="scale(0.015625)"/>
      <path id="DejaVuSans-2d" d="M 313 2009 
L 1997 2009 
L 1997 1497 
L 313 1497 
L 313 2009 
z
" transform="scale(0.015625)"/>
      <path id="DejaVuSans-6b" d="M 581 4863 
L 1159 4863 
L 1159 1991 
L 2875 3500 
L 3609 3500 
L 1753 1863 
L 3688 0 
L 2938 0 
L 1159 1709 
L 1159 0 
L 581 0 
L 581 4863 
z
" transform="scale(0.015625)"/>
     </defs>
     <use xlink:href="#DejaVuSans-66"/>
     <use xlink:href="#DejaVuSans-61" transform="translate(35.205078 0)"/>
     <use xlink:href="#DejaVuSans-6d" transform="translate(96.484375 0)"/>
     <use xlink:href="#DejaVuSans-69" transform="translate(193.896484 0)"/>
     <use xlink:href="#DejaVuSans-6c" transform="translate(221.679688 0)"/>
     <use xlink:href="#DejaVuSans-79" transform="translate(249.462891 0)"/>
     <use xlink:href="#DejaVuSans-2d" transform="translate(306.892578 0)"/>
     <use xlink:href="#DejaVuSans-72" transform="translate(342.976562 0)"/>
     <use xlink:href="#DejaVuSans-69" transform="translate(384.089844 0)"/>
     <use xlink:href="#DejaVuSans-73" transform="translate(411.873047 0)"/>
     <use xlink:href="#DejaVuSans-6b" transform="translate(463.972656 0)"/>
    </g>
    <!-- interpretation -->
    <g style="fill: #222222" transform="translate(258.720925 171.897105) scale(0.08 -0.08)">
     <use xlink:href="#DejaVuSans-69"/>
     <use xlink:href="#DejaVuSans-6e" transform="translate(27.783203 0)"/>
     <use xlink:href="#DejaVuSans-74" transform="translate(91.162109 0)"/>
     <use xlink:href="#DejaVuSans-65" transform="translate(130.371094 0)"/>
     <use xlink:href="#DejaVuSans-72" transform="translate(191.894531 0)"/>
     <use xlink:href="#DejaVuSans-70" transform="translate(233.007812 0)"/>
     <use xlink:href="#DejaVuSans-72" transform="translate(296.484375 0)"/>
     <use xlink:href="#DejaVuSans-65" transform="translate(335.347656 0)"/>
     <use xlink:href="#DejaVuSans-74" transform="translate(396.871094 0)"/>
     <use xlink:href="#DejaVuSans-61" transform="translate(436.080078 0)"/>
     <use xlink:href="#DejaVuSans-74" transform="translate(497.359375 0)"/>
     <use xlink:href="#DejaVuSans-69" transform="translate(536.568359 0)"/>
     <use xlink:href="#DejaVuSans-6f" transform="translate(564.351562 0)"/>
     <use xlink:href="#DejaVuSans-6e" transform="translate(625.533203 0)"/>
    </g>
   </g>
   <g id="patch_7">
    <path d="M 220.464324 165.21048 
Q 236.580153 165.21048 251.354341 165.21048 
" style="fill: none; stroke: #4d4d4d; stroke-width: 1.2; stroke-linecap: round"/>
    <path d="M 247.354341 163.21048 
L 251.354341 165.21048 
L 247.354341 167.21048 
z
" style="fill: #4d4d4d; stroke: #4d4d4d; stroke-width: 1.2; stroke-linecap: round"/>
   </g>
   <g id="text_5">
    <!-- genotype-first -->
    <g style="fill: #222222" transform="translate(353.673425 158.45973) scale(0.08 -0.08)">
     <defs>
      <path id="DejaVuSans-67" d="M 2906 1791 
Q 2906 2416 2648 2759 
Q 2391 3103 1925 3103 
Q 1463 3103 1205 2759 
Q 947 2416 947 1791 
Q 947 1169 1205 825 
Q 1463 481 1925 481 
Q 2391 481 2648 825 
Q 2906 1169 2906 1791 
z
M 3481 434 
Q 3481 -459 3084 -895 
Q 2688 -1331 1869 -1331 
Q 1566 -1331 1297 -1286 
Q 1028 -1241 775 -1147 
L 775 -588 
Q 1028 -725 1275 -790 
Q 1522 -856 1778 -856 
Q 2344 -856 2625 -561 
Q 2906 -266 2906 331 
L 2906 616 
Q 2728 306 2450 153 
Q 2172 0 1784 0 
Q 1141 0 747 490 
Q 353 981 353 1791 
Q 353 2603 747 3093 
Q 1141 3584 1784 3584 
Q 2172 3584 2450 3431 
Q 2728 3278 2906 2969 
L 2906 3500 
L 3481 3500 
L 3481 434 
z
" transform="scale(0.015625)"/>
     </defs>
     <use xlink:href="#DejaVuSans-67"/>
     <use xlink:href="#DejaVuSans-65" transform="translate(63.476562 0)"/>
     <use xlink:href="#DejaVuSans-6e" transform="translate(125 0)"/>
     <use xlink:href="#DejaVuSans-6f" transform="translate(188.378906 0)"/>
     <use xlink:href="#DejaVuSans-74" transform="translate(249.560547 0)"/>
     <use xlink:href="#DejaVuSans-79" transform="translate(288.769531 0)"/>
     <use xlink:href="#DejaVuSans-70" transform="translate(347.949219 0)"/>
     <use xlink:href="#DejaVuSans-65" transform="translate(411.425781 0)"/>
     <use xlink:href="#DejaVuSans-2d" transform="translate(472.949219 0)"/>
     <use xlink:href="#DejaVuSans-66" transform="translate(509.033203 0)"/>
     <use xlink:href="#DejaVuSans-69" transform="translate(544.238281 0)"/>
     <use xlink:href="#DejaVuSans-72" transform="translate(572.021484 0)"/>
     <use xlink:href="#DejaVuSans-73" transform="translate(613.134766 0)"/>
     <use xlink:href="#DejaVuSans-74" transform="translate(665.234375 0)"/>
    </g>
    <!-- phenotype-negative -->
    <g style="fill: #222222" transform="translate(341.45905 167.41798) scale(0.08 -0.08)">
     <defs>
      <path id="DejaVuSans-76" d="M 191 3500 
L 800 3500 
L 1894 563 
L 2988 3500 
L 3597 3500 
L 2284 0 
L 1503 0 
L 191 3500 
z
" transform="scale(0.015625)"/>
     </defs>
     <use xlink:href="#DejaVuSans-70"/>
     <use xlink:href="#DejaVuSans-68" transform="translate(63.476562 0)"/>
     <use xlink:href="#DejaVuSans-65" transform="translate(126.855469 0)"/>
     <use xlink:href="#DejaVuSans-6e" transform="translate(188.378906 0)"/>
     <use xlink:href="#DejaVuSans-6f" transform="translate(251.757812 0)"/>
     <use xlink:href="#DejaVuSans-74" transform="translate(312.939453 0)"/>
     <use xlink:href="#DejaVuSans-79" transform="translate(352.148438 0)"/>
     <use xlink:href="#DejaVuSans-70" transform="translate(411.328125 0)"/>
     <use xlink:href="#DejaVuSans-65" transform="translate(474.804688 0)"/>
     <use xlink:href="#DejaVuSans-2d" transform="translate(536.328125 0)"/>
     <use xlink:href="#DejaVuSans-6e" transform="translate(572.412109 0)"/>
     <use xlink:href="#DejaVuSans-65" transform="translate(635.791016 0)"/>
     <use xlink:href="#DejaVuSans-67" transform="translate(697.314453 0)"/>
     <use xlink:href="#DejaVuSans-61" transform="translate(760.791016 0)"/>
     <use xlink:href="#DejaVuSans-74" transform="translate(822.070312 0)"/>
     <use xlink:href="#DejaVuSans-69" transform="translate(861.279297 0)"/>
     <use xlink:href="#DejaVuSans-76" transform="translate(889.0625 0)"/>
     <use xlink:href="#DejaVuSans-65" transform="translate(948.242188 0)"/>
    </g>
    <!-- relative -->
    <g style="fill: #222222" transform="translate(366.7653 176.37623) scale(0.08 -0.08)">
     <use xlink:href="#DejaVuSans-72"/>
     <use xlink:href="#DejaVuSans-65" transform="translate(38.863281 0)"/>
     <use xlink:href="#DejaVuSans-6c" transform="translate(100.386719 0)"/>
     <use xlink:href="#DejaVuSans-61" transform="translate(128.169922 0)"/>
     <use xlink:href="#DejaVuSans-74" transform="translate(189.449219 0)"/>
     <use xlink:href="#DejaVuSans-69" transform="translate(228.658203 0)"/>
     <use xlink:href="#DejaVuSans-76" transform="translate(256.441406 0)"/>
     <use xlink:href="#DejaVuSans-65" transform="translate(315.621094 0)"/>
    </g>
   </g>
   <g id="patch_8">
    <path d="M 319.864008 165.21048 
Q 334.065077 165.21048 346.924506 165.21048 
" style="fill: none; stroke: #4d4d4d; stroke-width: 1.2; stroke-linecap: round"/>
    <path d="M 342.924506 163.21048 
L 346.924506 165.21048 
L 342.924506 167.21048 
z
" style="fill: #4d4d4d; stroke: #4d4d4d; stroke-width: 1.2; stroke-linecap: round"/>
   </g>
   <g id="text_6">
    <!-- Each transfer can change disease-model meaning. -->
    <g style="fill: #222222" transform="translate(56.898675 259.1136) scale(0.08 -0.08)">
     <defs>
      <path id="DejaVuSans-45" d="M 628 4666 
L 3578 4666 
L 3578 4134 
L 1259 4134 
L 1259 2753 
L 3481 2753 
L 3481 2222 
L 1259 2222 
L 1259 531 
L 3634 531 
L 3634 0 
L 628 0 
L 628 4666 
z
" transform="scale(0.015625)"/>
      <path id="DejaVuSans-63" d="M 3122 3366 
L 3122 2828 
Q 2878 2963 2633 3030 
Q 2388 3097 2138 3097 
Q 1578 3097 1268 2742 
Q 959 2388 959 1747 
Q 959 1106 1268 751 
Q 1578 397 2138 397 
Q 2388 397 2633 464 
Q 2878 531 3122 666 
L 3122 134 
Q 2881 22 2623 -34 
Q 2366 -91 2075 -91 
Q 1284 -91 818 406 
Q 353 903 353 1747 
Q 353 2603 823 3093 
Q 1294 3584 2113 3584 
Q 2378 3584 2631 3529 
Q 2884 3475 3122 3366 
z
" transform="scale(0.015625)"/>
      <path id="DejaVuSans-20" transform="scale(0.015625)"/>
      <path id="DejaVuSans-64" d="M 2906 2969 
L 2906 4863 
L 3481 4863 
L 3481 0 
L 2906 0 
L 2906 525 
Q 2725 213 2448 61 
Q 2172 -91 1784 -91 
Q 1150 -91 751 415 
Q 353 922 353 1747 
Q 353 2572 751 3078 
Q 1150 3584 1784 3584 
Q 2172 3584 2448 3432 
Q 2725 3281 2906 2969 
z
M 947 1747 
Q 947 1113 1208 752 
Q 1469 391 1925 391 
Q 2381 391 2643 752 
Q 2906 1113 2906 1747 
Q 2906 2381 2643 2742 
Q 2381 3103 1925 3103 
Q 1469 3103 1208 2742 
Q 947 2381 947 1747 
z
" transform="scale(0.015625)"/>
      <path id="DejaVuSans-2e" d="M 684 794 
L 1344 794 
L 1344 0 
L 684 0 
L 684 794 
z
" transform="scale(0.015625)"/>
     </defs>
     <use xlink:href="#DejaVuSans-45"/>
     <use xlink:href="#DejaVuSans-61" transform="translate(63.183594 0)"/>
     <use xlink:href="#DejaVuSans-63" transform="translate(124.462891 0)"/>
     <use xlink:href="#DejaVuSans-68" transform="translate(179.443359 0)"/>
     <use xlink:href="#DejaVuSans-20" transform="translate(242.822266 0)"/>
     <use xlink:href="#DejaVuSans-74" transform="translate(274.609375 0)"/>
     <use xlink:href="#DejaVuSans-72" transform="translate(313.818359 0)"/>
     <use xlink:href="#DejaVuSans-61" transform="translate(354.931641 0)"/>
     <use xlink:href="#DejaVuSans-6e" transform="translate(416.210938 0)"/>
     <use xlink:href="#DejaVuSans-73" transform="translate(479.589844 0)"/>
     <use xlink:href="#DejaVuSans-66" transform="translate(531.689453 0)"/>
     <use xlink:href="#DejaVuSans-65" transform="translate(566.894531 0)"/>
     <use xlink:href="#DejaVuSans-72" transform="translate(628.417969 0)"/>
     <use xlink:href="#DejaVuSans-20" transform="translate(669.53125 0)"/>
     <use xlink:href="#DejaVuSans-63" transform="translate(701.318359 0)"/>
     <use xlink:href="#DejaVuSans-61" transform="translate(756.298828 0)"/>
     <use xlink:href="#DejaVuSans-6e" transform="translate(817.578125 0)"/>
     <use xlink:href="#DejaVuSans-20" transform="translate(880.957031 0)"/>
     <use xlink:href="#DejaVuSans-63" transform="translate(912.744141 0)"/>
     <use xlink:href="#DejaVuSans-68" transform="translate(967.724609 0)"/>
     <use xlink:href="#DejaVuSans-61" transform="translate(1031.103516 0)"/>
     <use xlink:href="#DejaVuSans-6e" transform="translate(1092.382812 0)"/>
     <use xlink:href="#DejaVuSans-67" transform="translate(1155.761719 0)"/>
     <use xlink:href="#DejaVuSans-65" transform="translate(1219.238281 0)"/>
     <use xlink:href="#DejaVuSans-20" transform="translate(1280.761719 0)"/>
     <use xlink:href="#DejaVuSans-64" transform="translate(1312.548828 0)"/>
     <use xlink:href="#DejaVuSans-69" transform="translate(1376.025391 0)"/>
     <use xlink:href="#DejaVuSans-73" transform="translate(1403.808594 0)"/>
     <use xlink:href="#DejaVuSans-65" transform="translate(1455.908203 0)"/>
     <use xlink:href="#DejaVuSans-61" transform="translate(1517.431641 0)"/>
     <use xlink:href="#DejaVuSans-73" transform="translate(1578.710938 0)"/>
     <use xlink:href="#DejaVuSans-65" transform="translate(1630.810547 0)"/>
     <use xlink:href="#DejaVuSans-2d" transform="translate(1692.333984 0)"/>
     <use xlink:href="#DejaVuSans-6d" transform="translate(1728.417969 0)"/>
     <use xlink:href="#DejaVuSans-6f" transform="translate(1825.830078 0)"/>
     <use xlink:href="#DejaVuSans-64" transform="translate(1887.011719 0)"/>
     <use xlink:href="#DejaVuSans-65" transform="translate(1950.488281 0)"/>
     <use xlink:href="#DejaVuSans-6c" transform="translate(2012.011719 0)"/>
     <use xlink:href="#DejaVuSans-20" transform="translate(2039.794922 0)"/>
     <use xlink:href="#DejaVuSans-6d" transform="translate(2071.582031 0)"/>
     <use xlink:href="#DejaVuSans-65" transform="translate(2168.994141 0)"/>
     <use xlink:href="#DejaVuSans-61" transform="translate(2230.517578 0)"/>
     <use xlink:href="#DejaVuSans-6e" transform="translate(2291.796875 0)"/>
     <use xlink:href="#DejaVuSans-69" transform="translate(2355.175781 0)"/>
     <use xlink:href="#DejaVuSans-6e" transform="translate(2382.958984 0)"/>
     <use xlink:href="#DejaVuSans-67" transform="translate(2446.337891 0)"/>
     <use xlink:href="#DejaVuSans-2e" transform="translate(2509.814453 0)"/>
    </g>
   </g>
   <g id="text_7">
    <!-- Context transfer chain -->
    <g style="fill: #222222" transform="translate(37.7838 69.888) scale(0.11 -0.11)">
     <defs>
      <path id="DejaVuSans-Bold-43" d="M 4288 256 
Q 3956 84 3597 -3 
Q 3238 -91 2847 -91 
Q 1681 -91 1000 561 
Q 319 1213 319 2328 
Q 319 3447 1000 4098 
Q 1681 4750 2847 4750 
Q 3238 4750 3597 4662 
Q 3956 4575 4288 4403 
L 4288 3438 
Q 3953 3666 3628 3772 
Q 3303 3878 2944 3878 
Q 2300 3878 1931 3465 
Q 1563 3053 1563 2328 
Q 1563 1606 1931 1193 
Q 2300 781 2944 781 
Q 3303 781 3628 887 
Q 3953 994 4288 1222 
L 4288 256 
z
" transform="scale(0.015625)"/>
      <path id="DejaVuSans-Bold-6f" d="M 2203 2784 
Q 1831 2784 1636 2517 
Q 1441 2250 1441 1747 
Q 1441 1244 1636 976 
Q 1831 709 2203 709 
Q 2569 709 2762 976 
Q 2956 1244 2956 1747 
Q 2956 2250 2762 2517 
Q 2569 2784 2203 2784 
z
M 2203 3584 
Q 3106 3584 3614 3096 
Q 4122 2609 4122 1747 
Q 4122 884 3614 396 
Q 3106 -91 2203 -91 
Q 1297 -91 786 396 
Q 275 884 275 1747 
Q 275 2609 786 3096 
Q 1297 3584 2203 3584 
z
" transform="scale(0.015625)"/>
      <path id="DejaVuSans-Bold-6e" d="M 4056 2131 
L 4056 0 
L 2931 0 
L 2931 347 
L 2931 1631 
Q 2931 2084 2911 2256 
Q 2891 2428 2841 2509 
Q 2775 2619 2662 2680 
Q 2550 2741 2406 2741 
Q 2056 2741 1856 2470 
Q 1656 2200 1656 1722 
L 1656 0 
L 538 0 
L 538 3500 
L 1656 3500 
L 1656 2988 
Q 1909 3294 2193 3439 
Q 2478 3584 2822 3584 
Q 3428 3584 3742 3212 
Q 4056 2841 4056 2131 
z
" transform="scale(0.015625)"/>
      <path id="DejaVuSans-Bold-74" d="M 1759 4494 
L 1759 3500 
L 2913 3500 
L 2913 2700 
L 1759 2700 
L 1759 1216 
Q 1759 972 1856 886 
Q 1953 800 2241 800 
L 2816 800 
L 2816 0 
L 1856 0 
Q 1194 0 917 276 
Q 641 553 641 1216 
L 641 2700 
L 84 2700 
L 84 3500 
L 641 3500 
L 641 4494 
L 1759 4494 
z
" transform="scale(0.015625)"/>
      <path id="DejaVuSans-Bold-65" d="M 4031 1759 
L 4031 1441 
L 1416 1441 
Q 1456 1047 1700 850 
Q 1944 653 2381 653 
Q 2734 653 3104 758 
Q 3475 863 3866 1075 
L 3866 213 
Q 3469 63 3072 -14 
Q 2675 -91 2278 -91 
Q 1328 -91 801 392 
Q 275 875 275 1747 
Q 275 2603 792 3093 
Q 1309 3584 2216 3584 
Q 3041 3584 3536 3087 
Q 4031 2591 4031 1759 
z
M 2881 2131 
Q 2881 2450 2695 2645 
Q 2509 2841 2209 2841 
Q 1884 2841 1681 2658 
Q 1478 2475 1428 2131 
L 2881 2131 
z
" transform="scale(0.015625)"/>
      <path id="DejaVuSans-Bold-78" d="M 1422 1791 
L 159 3500 
L 1344 3500 
L 2059 2463 
L 2784 3500 
L 3969 3500 
L 2706 1797 
L 4031 0 
L 2847 0 
L 2059 1106 
L 1281 0 
L 97 0 
L 1422 1791 
z
" transform="scale(0.015625)"/>
      <path id="DejaVuSans-Bold-20" transform="scale(0.015625)"/>
      <path id="DejaVuSans-Bold-72" d="M 3138 2547 
Q 2991 2616 2845 2648 
Q 2700 2681 2553 2681 
Q 2122 2681 1889 2404 
Q 1656 2128 1656 1613 
L 1656 0 
L 538 0 
L 538 3500 
L 1656 3500 
L 1656 2925 
Q 1872 3269 2151 3426 
Q 2431 3584 2822 3584 
Q 2878 3584 2943 3579 
Q 3009 3575 3134 3559 
L 3138 2547 
z
" transform="scale(0.015625)"/>
      <path id="DejaVuSans-Bold-61" d="M 2106 1575 
Q 1756 1575 1579 1456 
Q 1403 1338 1403 1106 
Q 1403 894 1545 773 
Q 1688 653 1941 653 
Q 2256 653 2472 879 
Q 2688 1106 2688 1447 
L 2688 1575 
L 2106 1575 
z
M 3816 1997 
L 3816 0 
L 2688 0 
L 2688 519 
Q 2463 200 2181 54 
Q 1900 -91 1497 -91 
Q 953 -91 614 226 
Q 275 544 275 1050 
Q 275 1666 698 1953 
Q 1122 2241 2028 2241 
L 2688 2241 
L 2688 2328 
Q 2688 2594 2478 2717 
Q 2269 2841 1825 2841 
Q 1466 2841 1156 2769 
Q 847 2697 581 2553 
L 581 3406 
Q 941 3494 1303 3539 
Q 1666 3584 2028 3584 
Q 2975 3584 3395 3211 
Q 3816 2838 3816 1997 
z
" transform="scale(0.015625)"/>
      <path id="DejaVuSans-Bold-73" d="M 3272 3391 
L 3272 2541 
Q 2913 2691 2578 2766 
Q 2244 2841 1947 2841 
Q 1628 2841 1473 2761 
Q 1319 2681 1319 2516 
Q 1319 2381 1436 2309 
Q 1553 2238 1856 2203 
L 2053 2175 
Q 2913 2066 3209 1816 
Q 3506 1566 3506 1031 
Q 3506 472 3093 190 
Q 2681 -91 1863 -91 
Q 1516 -91 1145 -36 
Q 775 19 384 128 
L 384 978 
Q 719 816 1070 734 
Q 1422 653 1784 653 
Q 2113 653 2278 743 
Q 2444 834 2444 1013 
Q 2444 1163 2330 1236 
Q 2216 1309 1875 1350 
L 1678 1375 
Q 931 1469 631 1722 
Q 331 1975 331 2491 
Q 331 3047 712 3315 
Q 1094 3584 1881 3584 
Q 2191 3584 2531 3537 
Q 2872 3491 3272 3391 
z
" transform="scale(0.015625)"/>
      <path id="DejaVuSans-Bold-66" d="M 2841 4863 
L 2841 4128 
L 2222 4128 
Q 1984 4128 1890 4042 
Q 1797 3956 1797 3744 
L 1797 3500 
L 2753 3500 
L 2753 2700 
L 1797 2700 
L 1797 0 
L 678 0 
L 678 2700 
L 122 2700 
L 122 3500 
L 678 3500 
L 678 3744 
Q 678 4316 997 4589 
Q 1316 4863 1984 4863 
L 2841 4863 
z
" transform="scale(0.015625)"/>
      <path id="DejaVuSans-Bold-63" d="M 3366 3391 
L 3366 2478 
Q 3138 2634 2908 2709 
Q 2678 2784 2431 2784 
Q 1963 2784 1702 2511 
Q 1441 2238 1441 1747 
Q 1441 1256 1702 982 
Q 1963 709 2431 709 
Q 2694 709 2930 787 
Q 3166 866 3366 1019 
L 3366 103 
Q 3103 6 2833 -42 
Q 2563 -91 2291 -91 
Q 1344 -91 809 395 
Q 275 881 275 1747 
Q 275 2613 809 3098 
Q 1344 3584 2291 3584 
Q 2566 3584 2833 3536 
Q 3100 3488 3366 3391 
z
" transform="scale(0.015625)"/>
      <path id="DejaVuSans-Bold-68" d="M 4056 2131 
L 4056 0 
L 2931 0 
L 2931 347 
L 2931 1625 
Q 2931 2084 2911 2256 
Q 2891 2428 2841 2509 
Q 2775 2619 2662 2680 
Q 2550 2741 2406 2741 
Q 2056 2741 1856 2470 
Q 1656 2200 1656 1722 
L 1656 0 
L 538 0 
L 538 4863 
L 1656 4863 
L 1656 2988 
Q 1909 3294 2193 3439 
Q 2478 3584 2822 3584 
Q 3428 3584 3742 3212 
Q 4056 2841 4056 2131 
z
" transform="scale(0.015625)"/>
      <path id="DejaVuSans-Bold-69" d="M 538 3500 
L 1656 3500 
L 1656 0 
L 538 0 
L 538 3500 
z
M 538 4863 
L 1656 4863 
L 1656 3950 
L 538 3950 
L 538 4863 
z
" transform="scale(0.015625)"/>
     </defs>
     <use xlink:href="#DejaVuSans-Bold-43"/>
     <use xlink:href="#DejaVuSans-Bold-6f" transform="translate(73.388672 0)"/>
     <use xlink:href="#DejaVuSans-Bold-6e" transform="translate(142.089844 0)"/>
     <use xlink:href="#DejaVuSans-Bold-74" transform="translate(213.28125 0)"/>
     <use xlink:href="#DejaVuSans-Bold-65" transform="translate(261.083984 0)"/>
     <use xlink:href="#DejaVuSans-Bold-78" transform="translate(328.90625 0)"/>
     <use xlink:href="#DejaVuSans-Bold-74" transform="translate(393.408203 0)"/>
     <use xlink:href="#DejaVuSans-Bold-20" transform="translate(441.210938 0)"/>
     <use xlink:href="#DejaVuSans-Bold-74" transform="translate(476.025391 0)"/>
     <use xlink:href="#DejaVuSans-Bold-72" transform="translate(523.828125 0)"/>
     <use xlink:href="#DejaVuSans-Bold-61" transform="translate(573.144531 0)"/>
     <use xlink:href="#DejaVuSans-Bold-6e" transform="translate(640.625 0)"/>
     <use xlink:href="#DejaVuSans-Bold-73" transform="translate(711.816406 0)"/>
     <use xlink:href="#DejaVuSans-Bold-66" transform="translate(771.337891 0)"/>
     <use xlink:href="#DejaVuSans-Bold-65" transform="translate(814.84375 0)"/>
     <use xlink:href="#DejaVuSans-Bold-72" transform="translate(882.666016 0)"/>
     <use xlink:href="#DejaVuSans-Bold-20" transform="translate(931.982422 0)"/>
     <use xlink:href="#DejaVuSans-Bold-63" transform="translate(966.796875 0)"/>
     <use xlink:href="#DejaVuSans-Bold-68" transform="translate(1026.074219 0)"/>
     <use xlink:href="#DejaVuSans-Bold-61" transform="translate(1097.265625 0)"/>
     <use xlink:href="#DejaVuSans-Bold-69" transform="translate(1164.746094 0)"/>
     <use xlink:href="#DejaVuSans-Bold-6e" transform="translate(1199.023438 0)"/>
    </g>
   </g>
  </g>
  <g id="axes_2">
   <g id="patch_9">
    <path d="M 526.551627 129.71052 
L 786.513927 129.71052 
Q 796.071365 129.71052 796.071365 123.98472 
L 796.071365 104.517 
Q 796.071365 98.7912 786.513927 98.7912 
L 526.551627 98.7912 
Q 516.99419 98.7912 516.99419 104.517 
L 516.99419 123.98472 
Q 516.99419 129.71052 526.551627 129.71052 
z
" clip-path="url(#p1e9f0cebe1)" style="fill: #e8f3ef; stroke: #4d4d4d; stroke-width: 1.2; stroke-linejoin: miter"/>
   </g>
   <g id="patch_10">
    <path d="M 526.551627 161.775 
L 786.513927 161.775 
Q 796.071365 161.775 796.071365 156.0492 
L 796.071365 136.58148 
Q 796.071365 130.85568 786.513927 130.85568 
L 526.551627 130.85568 
Q 516.99419 130.85568 516.99419 136.58148 
L 516.99419 156.0492 
Q 516.99419 161.775 526.551627 161.775 
z
" clip-path="url(#p1e9f0cebe1)" style="fill: #fff3e8; stroke: #4d4d4d; stroke-width: 1.2; stroke-linejoin: miter"/>
   </g>
   <g id="patch_11">
    <path d="M 526.551627 193.83948 
L 786.513927 193.83948 
Q 796.071365 193.83948 796.071365 188.11368 
L 796.071365 168.64596 
Q 796.071365 162.92016 786.513927 162.92016 
L 526.551627 162.92016 
Q 516.99419 162.92016 516.99419 168.64596 
L 516.99419 188.11368 
Q 516.99419 193.83948 526.551627 193.83948 
z
" clip-path="url(#p1e9f0cebe1)" style="fill: #fff3e8; stroke: #4d4d4d; stroke-width: 1.2; stroke-linejoin: miter"/>
   </g>
   <g id="patch_12">
    <path d="M 526.551627 225.90396 
L 786.513927 225.90396 
Q 796.071365 225.90396 796.071365 220.17816 
L 796.071365 200.71044 
Q 796.071365 194.98464 786.513927 194.98464 
L 526.551627 194.98464 
Q 516.99419 194.98464 516.99419 200.71044 
L 516.99419 220.17816 
Q 516.99419 225.90396 526.551627 225.90396 
z
" clip-path="url(#p1e9f0cebe1)" style="fill: #fdebec; stroke: #4d4d4d; stroke-width: 1.2; stroke-linejoin: miter"/>
   </g>
   <g id="patch_13">
    <path d="M 526.551627 257.96844 
L 786.513927 257.96844 
Q 796.071365 257.96844 796.071365 252.24264 
L 796.071365 232.77492 
Q 796.071365 227.04912 786.513927 227.04912 
L 526.551627 227.04912 
Q 516.99419 227.04912 516.99419 232.77492 
L 516.99419 252.24264 
Q 516.99419 257.96844 526.551627 257.96844 
z
" clip-path="url(#p1e9f0cebe1)" style="fill: #fdebec; stroke: #4d4d4d; stroke-width: 1.2; stroke-linejoin: miter"/>
   </g>
   <g id="text_8">
    <!-- B -->
    <g style="fill: #222222" transform="translate(434.800227 67.443409) scale(0.13 -0.13)">
     <defs>
      <path id="DejaVuSans-Bold-42" d="M 2456 2859 
Q 2741 2859 2887 2984 
Q 3034 3109 3034 3353 
Q 3034 3594 2887 3720 
Q 2741 3847 2456 3847 
L 1791 3847 
L 1791 2859 
L 2456 2859 
z
M 2497 819 
Q 2859 819 3042 972 
Q 3225 1125 3225 1434 
Q 3225 1738 3044 1889 
Q 2863 2041 2497 2041 
L 1791 2041 
L 1791 819 
L 2497 819 
z
M 3616 2497 
Q 4003 2384 4215 2081 
Q 4428 1778 4428 1338 
Q 4428 663 3972 331 
Q 3516 0 2584 0 
L 588 0 
L 588 4666 
L 2394 4666 
Q 3366 4666 3802 4372 
Q 4238 4078 4238 3431 
Q 4238 3091 4078 2852 
Q 3919 2613 3616 2497 
z
" transform="scale(0.015625)"/>
     </defs>
     <use xlink:href="#DejaVuSans-Bold-42"/>
    </g>
   </g>
   <g id="text_9">
    <!-- direct reuse -->
    <g style="fill: #222222" transform="translate(632.732152 116.45836) scale(0.08 -0.08)">
     <defs>
      <path id="DejaVuSans-75" d="M 544 1381 
L 544 3500 
L 1119 3500 
L 1119 1403 
Q 1119 906 1312 657 
Q 1506 409 1894 409 
Q 2359 409 2629 706 
Q 2900 1003 2900 1516 
L 2900 3500 
L 3475 3500 
L 3475 0 
L 2900 0 
L 2900 538 
Q 2691 219 2414 64 
Q 2138 -91 1772 -91 
Q 1169 -91 856 284 
Q 544 659 544 1381 
z
M 1991 3584 
L 1991 3584 
z
" transform="scale(0.015625)"/>
     </defs>
     <use xlink:href="#DejaVuSans-64"/>
     <use xlink:href="#DejaVuSans-69" transform="translate(63.476562 0)"/>
     <use xlink:href="#DejaVuSans-72" transform="translate(91.259766 0)"/>
     <use xlink:href="#DejaVuSans-65" transform="translate(130.123047 0)"/>
     <use xlink:href="#DejaVuSans-63" transform="translate(191.646484 0)"/>
     <use xlink:href="#DejaVuSans-74" transform="translate(246.626953 0)"/>
     <use xlink:href="#DejaVuSans-20" transform="translate(285.835938 0)"/>
     <use xlink:href="#DejaVuSans-72" transform="translate(317.623047 0)"/>
     <use xlink:href="#DejaVuSans-65" transform="translate(356.486328 0)"/>
     <use xlink:href="#DejaVuSans-75" transform="translate(418.009766 0)"/>
     <use xlink:href="#DejaVuSans-73" transform="translate(481.388672 0)"/>
     <use xlink:href="#DejaVuSans-65" transform="translate(533.488281 0)"/>
    </g>
   </g>
   <g id="text_10">
    <!-- context review -->
    <g style="fill: #222222" transform="translate(626.957777 148.52284) scale(0.08 -0.08)">
     <defs>
      <path id="DejaVuSans-78" d="M 3513 3500 
L 2247 1797 
L 3578 0 
L 2900 0 
L 1881 1375 
L 863 0 
L 184 0 
L 1544 1831 
L 300 3500 
L 978 3500 
L 1906 2253 
L 2834 3500 
L 3513 3500 
z
" transform="scale(0.015625)"/>
      <path id="DejaVuSans-77" d="M 269 3500 
L 844 3500 
L 1563 769 
L 2278 3500 
L 2956 3500 
L 3675 769 
L 4391 3500 
L 4966 3500 
L 4050 0 
L 3372 0 
L 2619 2869 
L 1863 0 
L 1184 0 
L 269 3500 
z
" transform="scale(0.015625)"/>
     </defs>
     <use xlink:href="#DejaVuSans-63"/>
     <use xlink:href="#DejaVuSans-6f" transform="translate(54.980469 0)"/>
     <use xlink:href="#DejaVuSans-6e" transform="translate(116.162109 0)"/>
     <use xlink:href="#DejaVuSans-74" transform="translate(179.541016 0)"/>
     <use xlink:href="#DejaVuSans-65" transform="translate(218.75 0)"/>
     <use xlink:href="#DejaVuSans-78" transform="translate(278.523438 0)"/>
     <use xlink:href="#DejaVuSans-74" transform="translate(337.703125 0)"/>
     <use xlink:href="#DejaVuSans-20" transform="translate(376.912109 0)"/>
     <use xlink:href="#DejaVuSans-72" transform="translate(408.699219 0)"/>
     <use xlink:href="#DejaVuSans-65" transform="translate(447.5625 0)"/>
     <use xlink:href="#DejaVuSans-76" transform="translate(509.085938 0)"/>
     <use xlink:href="#DejaVuSans-69" transform="translate(568.265625 0)"/>
     <use xlink:href="#DejaVuSans-65" transform="translate(596.048828 0)"/>
     <use xlink:href="#DejaVuSans-77" transform="translate(657.572266 0)"/>
    </g>
   </g>
   <g id="text_11">
    <!-- disease-specific review -->
    <g style="fill: #222222" transform="translate(610.285902 180.58732) scale(0.08 -0.08)">
     <use xlink:href="#DejaVuSans-64"/>
     <use xlink:href="#DejaVuSans-69" transform="translate(63.476562 0)"/>
     <use xlink:href="#DejaVuSans-73" transform="translate(91.259766 0)"/>
     <use xlink:href="#DejaVuSans-65" transform="translate(143.359375 0)"/>
     <use xlink:href="#DejaVuSans-61" transform="translate(204.882812 0)"/>
     <use xlink:href="#DejaVuSans-73" transform="translate(266.162109 0)"/>
     <use xlink:href="#DejaVuSans-65" transform="translate(318.261719 0)"/>
     <use xlink:href="#DejaVuSans-2d" transform="translate(379.785156 0)"/>
     <use xlink:href="#DejaVuSans-73" transform="translate(415.869141 0)"/>
     <use xlink:href="#DejaVuSans-70" transform="translate(467.96875 0)"/>
     <use xlink:href="#DejaVuSans-65" transform="translate(531.445312 0)"/>
     <use xlink:href="#DejaVuSans-63" transform="translate(592.96875 0)"/>
     <use xlink:href="#DejaVuSans-69" transform="translate(647.949219 0)"/>
     <use xlink:href="#DejaVuSans-66" transform="translate(675.732422 0)"/>
     <use xlink:href="#DejaVuSans-69" transform="translate(710.9375 0)"/>
     <use xlink:href="#DejaVuSans-63" transform="translate(738.720703 0)"/>
     <use xlink:href="#DejaVuSans-20" transform="translate(793.701172 0)"/>
     <use xlink:href="#DejaVuSans-72" transform="translate(825.488281 0)"/>
     <use xlink:href="#DejaVuSans-65" transform="translate(864.351562 0)"/>
     <use xlink:href="#DejaVuSans-76" transform="translate(925.875 0)"/>
     <use xlink:href="#DejaVuSans-69" transform="translate(985.054688 0)"/>
     <use xlink:href="#DejaVuSans-65" transform="translate(1012.837891 0)"/>
     <use xlink:href="#DejaVuSans-77" transform="translate(1074.361328 0)"/>
    </g>
   </g>
   <g id="text_12">
    <!-- PRF-needed -->
    <g style="fill: #222222" transform="translate(632.600277 212.6518) scale(0.08 -0.08)">
     <defs>
      <path id="DejaVuSans-50" d="M 1259 4147 
L 1259 2394 
L 2053 2394 
Q 2494 2394 2734 2622 
Q 2975 2850 2975 3272 
Q 2975 3691 2734 3919 
Q 2494 4147 2053 4147 
L 1259 4147 
z
M 628 4666 
L 2053 4666 
Q 2838 4666 3239 4311 
Q 3641 3956 3641 3272 
Q 3641 2581 3239 2228 
Q 2838 1875 2053 1875 
L 1259 1875 
L 1259 0 
L 628 0 
L 628 4666 
z
" transform="scale(0.015625)"/>
      <path id="DejaVuSans-52" d="M 2841 2188 
Q 3044 2119 3236 1894 
Q 3428 1669 3622 1275 
L 4263 0 
L 3584 0 
L 2988 1197 
Q 2756 1666 2539 1819 
Q 2322 1972 1947 1972 
L 1259 1972 
L 1259 0 
L 628 0 
L 628 4666 
L 2053 4666 
Q 2853 4666 3247 4331 
Q 3641 3997 3641 3322 
Q 3641 2881 3436 2590 
Q 3231 2300 2841 2188 
z
M 1259 4147 
L 1259 2491 
L 2053 2491 
Q 2509 2491 2742 2702 
Q 2975 2913 2975 3322 
Q 2975 3731 2742 3939 
Q 2509 4147 2053 4147 
L 1259 4147 
z
" transform="scale(0.015625)"/>
      <path id="DejaVuSans-46" d="M 628 4666 
L 3309 4666 
L 3309 4134 
L 1259 4134 
L 1259 2759 
L 3109 2759 
L 3109 2228 
L 1259 2228 
L 1259 0 
L 628 0 
L 628 4666 
z
" transform="scale(0.015625)"/>
     </defs>
     <use xlink:href="#DejaVuSans-50"/>
     <use xlink:href="#DejaVuSans-52" transform="translate(60.302734 0)"/>
     <use xlink:href="#DejaVuSans-46" transform="translate(129.785156 0)"/>
     <use xlink:href="#DejaVuSans-2d" transform="translate(187.304688 0)"/>
     <use xlink:href="#DejaVuSans-6e" transform="translate(223.388672 0)"/>
     <use xlink:href="#DejaVuSans-65" transform="translate(286.767578 0)"/>
     <use xlink:href="#DejaVuSans-65" transform="translate(348.291016 0)"/>
     <use xlink:href="#DejaVuSans-64" transform="translate(409.814453 0)"/>
     <use xlink:href="#DejaVuSans-65" transform="translate(473.291016 0)"/>
     <use xlink:href="#DejaVuSans-64" transform="translate(534.814453 0)"/>
    </g>
   </g>
   <g id="text_13">
    <!-- no deterministic reuse -->
    <g style="fill: #222222" transform="translate(611.691527 244.71628) scale(0.08 -0.08)">
     <use xlink:href="#DejaVuSans-6e"/>
     <use xlink:href="#DejaVuSans-6f" transform="translate(63.378906 0)"/>
     <use xlink:href="#DejaVuSans-20" transform="translate(124.560547 0)"/>
     <use xlink:href="#DejaVuSans-64" transform="translate(156.347656 0)"/>
     <use xlink:href="#DejaVuSans-65" transform="translate(219.824219 0)"/>
     <use xlink:href="#DejaVuSans-74" transform="translate(281.347656 0)"/>
     <use xlink:href="#DejaVuSans-65" transform="translate(320.556641 0)"/>
     <use xlink:href="#DejaVuSans-72" transform="translate(382.080078 0)"/>
     <use xlink:href="#DejaVuSans-6d" transform="translate(421.443359 0)"/>
     <use xlink:href="#DejaVuSans-69" transform="translate(518.855469 0)"/>
     <use xlink:href="#DejaVuSans-6e" transform="translate(546.638672 0)"/>
     <use xlink:href="#DejaVuSans-69" transform="translate(610.017578 0)"/>
     <use xlink:href="#DejaVuSans-73" transform="translate(637.800781 0)"/>
     <use xlink:href="#DejaVuSans-74" transform="translate(689.900391 0)"/>
     <use xlink:href="#DejaVuSans-69" transform="translate(729.109375 0)"/>
     <use xlink:href="#DejaVuSans-63" transform="translate(756.892578 0)"/>
     <use xlink:href="#DejaVuSans-20" transform="translate(811.873047 0)"/>
     <use xlink:href="#DejaVuSans-72" transform="translate(843.660156 0)"/>
     <use xlink:href="#DejaVuSans-65" transform="translate(882.523438 0)"/>
     <use xlink:href="#DejaVuSans-75" transform="translate(944.046875 0)"/>
     <use xlink:href="#DejaVuSans-73" transform="translate(1007.425781 0)"/>
     <use xlink:href="#DejaVuSans-65" transform="translate(1059.525391 0)"/>
    </g>
   </g>
   <g id="text_14">
    <!-- CAB routing -->
    <g style="fill: #222222" transform="translate(465.384027 69.888) scale(0.11 -0.11)">
     <defs>
      <path id="DejaVuSans-Bold-75" d="M 500 1363 
L 500 3500 
L 1625 3500 
L 1625 3150 
Q 1625 2866 1622 2436 
Q 1619 2006 1619 1863 
Q 1619 1441 1641 1255 
Q 1663 1069 1716 984 
Q 1784 875 1895 815 
Q 2006 756 2150 756 
Q 2500 756 2700 1025 
Q 2900 1294 2900 1772 
L 2900 3500 
L 4019 3500 
L 4019 0 
L 2900 0 
L 2900 506 
Q 2647 200 2364 54 
Q 2081 -91 1741 -91 
Q 1134 -91 817 281 
Q 500 653 500 1363 
z
" transform="scale(0.015625)"/>
      <path id="DejaVuSans-Bold-67" d="M 2919 594 
Q 2688 288 2409 144 
Q 2131 0 1766 0 
Q 1125 0 706 504 
Q 288 1009 288 1791 
Q 288 2575 706 3076 
Q 1125 3578 1766 3578 
Q 2131 3578 2409 3434 
Q 2688 3291 2919 2981 
L 2919 3500 
L 4044 3500 
L 4044 353 
Q 4044 -491 3511 -936 
Q 2978 -1381 1966 -1381 
Q 1638 -1381 1331 -1331 
Q 1025 -1281 716 -1178 
L 716 -306 
Q 1009 -475 1290 -558 
Q 1572 -641 1856 -641 
Q 2406 -641 2662 -400 
Q 2919 -159 2919 353 
L 2919 594 
z
M 2181 2772 
Q 1834 2772 1640 2515 
Q 1447 2259 1447 1791 
Q 1447 1309 1634 1061 
Q 1822 813 2181 813 
Q 2531 813 2725 1069 
Q 2919 1325 2919 1791 
Q 2919 2259 2725 2515 
Q 2531 2772 2181 2772 
z
" transform="scale(0.015625)"/>
     </defs>
     <use xlink:href="#DejaVuSans-Bold-43"/>
     <use xlink:href="#DejaVuSans-Bold-41" transform="translate(73.388672 0)"/>
     <use xlink:href="#DejaVuSans-Bold-42" transform="translate(150.78125 0)"/>
     <use xlink:href="#DejaVuSans-Bold-20" transform="translate(227.001953 0)"/>
     <use xlink:href="#DejaVuSans-Bold-72" transform="translate(261.816406 0)"/>
     <use xlink:href="#DejaVuSans-Bold-6f" transform="translate(311.132812 0)"/>
     <use xlink:href="#DejaVuSans-Bold-75" transform="translate(379.833984 0)"/>
     <use xlink:href="#DejaVuSans-Bold-74" transform="translate(451.025391 0)"/>
     <use xlink:href="#DejaVuSans-Bold-69" transform="translate(498.828125 0)"/>
     <use xlink:href="#DejaVuSans-Bold-6e" transform="translate(533.105469 0)"/>
     <use xlink:href="#DejaVuSans-Bold-67" transform="translate(604.296875 0)"/>
    </g>
   </g>
  </g>
  <g id="axes_3">
   <g id="patch_14">
    <path d="M 68.3676 422.31564 
L 167.76495 422.31564 
Q 177.322388 422.31564 177.322388 416.58984 
L 177.322388 389.106 
Q 177.322388 383.3802 167.76495 383.3802 
L 68.3676 383.3802 
Q 58.810163 383.3802 58.810163 389.106 
L 58.810163 416.58984 
Q 58.810163 422.31564 68.3676 422.31564 
z
" clip-path="url(#p87fda7c8b9)" style="fill: #eef2f5; stroke: #4d4d4d; stroke-width: 1.2; stroke-linejoin: miter"/>
   </g>
   <g id="patch_15">
    <path d="M 190.7028 422.31564 
L 267.1623 422.31564 
Q 276.719738 422.31564 276.719738 416.58984 
L 276.719738 389.106 
Q 276.719738 383.3802 267.1623 383.3802 
L 190.7028 383.3802 
Q 181.145362 383.3802 181.145362 389.106 
L 181.145362 416.58984 
Q 181.145362 422.31564 190.7028 422.31564 
z
" clip-path="url(#p87fda7c8b9)" style="fill: #fdebec; stroke: #c44e52; stroke-width: 1.2; stroke-linejoin: miter"/>
   </g>
   <g id="patch_16">
    <path d="M 290.10015 422.31564 
L 389.4975 422.31564 
Q 399.054937 422.31564 399.054937 416.58984 
L 399.054937 389.106 
Q 399.054937 383.3802 389.4975 383.3802 
L 290.10015 383.3802 
Q 280.542712 383.3802 280.542712 389.106 
L 280.542712 416.58984 
Q 280.542712 422.31564 290.10015 422.31564 
z
" clip-path="url(#p87fda7c8b9)" style="fill: #fdebec; stroke: #c44e52; stroke-width: 1.2; stroke-linejoin: miter"/>
   </g>
   <g id="patch_17">
    <path d="M 79.836525 523.08972 
L 378.028575 523.08972 
Q 387.586013 523.08972 387.586013 517.36392 
L 387.586013 480.7188 
Q 387.586013 474.993 378.028575 474.993 
L 79.836525 474.993 
Q 70.279088 474.993 70.279088 480.7188 
L 70.279088 517.36392 
Q 70.279088 523.08972 79.836525 523.08972 
z
" clip-path="url(#p87fda7c8b9)" style="fill: #ffffff; stroke: #c44e52; stroke-width: 1.2; stroke-linejoin: miter"/>
   </g>
   <g id="text_15">
    <!-- C -->
    <g style="fill: #222222" transform="translate(7.2 323.403409) scale(0.13 -0.13)">
     <use xlink:href="#DejaVuSans-Bold-43"/>
    </g>
   </g>
   <g id="text_16">
    <!-- variant -->
    <g style="fill: #222222" transform="translate(103.937525 400.576295) scale(0.08 -0.08)">
     <use xlink:href="#DejaVuSans-76"/>
     <use xlink:href="#DejaVuSans-61" transform="translate(59.179688 0)"/>
     <use xlink:href="#DejaVuSans-72" transform="translate(120.458984 0)"/>
     <use xlink:href="#DejaVuSans-69" transform="translate(161.572266 0)"/>
     <use xlink:href="#DejaVuSans-61" transform="translate(189.355469 0)"/>
     <use xlink:href="#DejaVuSans-6e" transform="translate(250.634766 0)"/>
     <use xlink:href="#DejaVuSans-74" transform="translate(314.013672 0)"/>
    </g>
    <!-- pathogenicity -->
    <g style="fill: #222222" transform="translate(90.6319 409.534545) scale(0.08 -0.08)">
     <use xlink:href="#DejaVuSans-70"/>
     <use xlink:href="#DejaVuSans-61" transform="translate(63.476562 0)"/>
     <use xlink:href="#DejaVuSans-74" transform="translate(124.755859 0)"/>
     <use xlink:href="#DejaVuSans-68" transform="translate(163.964844 0)"/>
     <use xlink:href="#DejaVuSans-6f" transform="translate(227.34375 0)"/>
     <use xlink:href="#DejaVuSans-67" transform="translate(288.525391 0)"/>
     <use xlink:href="#DejaVuSans-65" transform="translate(352.001953 0)"/>
     <use xlink:href="#DejaVuSans-6e" transform="translate(413.525391 0)"/>
     <use xlink:href="#DejaVuSans-69" transform="translate(476.904297 0)"/>
     <use xlink:href="#DejaVuSans-63" transform="translate(504.6875 0)"/>
     <use xlink:href="#DejaVuSans-69" transform="translate(559.667969 0)"/>
     <use xlink:href="#DejaVuSans-74" transform="translate(587.451172 0)"/>
     <use xlink:href="#DejaVuSans-79" transform="translate(626.660156 0)"/>
    </g>
   </g>
   <g id="text_17">
    <!-- cause -->
    <g style="fill: #222222" transform="translate(217.201925 400.576295) scale(0.08 -0.08)">
     <use xlink:href="#DejaVuSans-63"/>
     <use xlink:href="#DejaVuSans-61" transform="translate(54.980469 0)"/>
     <use xlink:href="#DejaVuSans-75" transform="translate(116.259766 0)"/>
     <use xlink:href="#DejaVuSans-73" transform="translate(179.638672 0)"/>
     <use xlink:href="#DejaVuSans-65" transform="translate(231.738281 0)"/>
    </g>
    <!-- of death -->
    <g style="fill: #222222" transform="translate(212.250675 409.534545) scale(0.08 -0.08)">
     <use xlink:href="#DejaVuSans-6f"/>
     <use xlink:href="#DejaVuSans-66" transform="translate(61.181641 0)"/>
     <use xlink:href="#DejaVuSans-20" transform="translate(96.386719 0)"/>
     <use xlink:href="#DejaVuSans-64" transform="translate(128.173828 0)"/>
     <use xlink:href="#DejaVuSans-65" transform="translate(191.650391 0)"/>
     <use xlink:href="#DejaVuSans-61" transform="translate(253.173828 0)"/>
     <use xlink:href="#DejaVuSans-74" transform="translate(314.453125 0)"/>
     <use xlink:href="#DejaVuSans-68" transform="translate(353.662109 0)"/>
    </g>
   </g>
   <g id="text_18">
    <!-- family-member -->
    <g style="fill: #222222" transform="translate(309.181325 400.576295) scale(0.08 -0.08)">
     <defs>
      <path id="DejaVuSans-62" d="M 3116 1747 
Q 3116 2381 2855 2742 
Q 2594 3103 2138 3103 
Q 1681 3103 1420 2742 
Q 1159 2381 1159 1747 
Q 1159 1113 1420 752 
Q 1681 391 2138 391 
Q 2594 391 2855 752 
Q 3116 1113 3116 1747 
z
M 1159 2969 
Q 1341 3281 1617 3432 
Q 1894 3584 2278 3584 
Q 2916 3584 3314 3078 
Q 3713 2572 3713 1747 
Q 3713 922 3314 415 
Q 2916 -91 2278 -91 
Q 1894 -91 1617 61 
Q 1341 213 1159 525 
L 1159 0 
L 581 0 
L 581 4863 
L 1159 4863 
L 1159 2969 
z
" transform="scale(0.015625)"/>
     </defs>
     <use xlink:href="#DejaVuSans-66"/>
     <use xlink:href="#DejaVuSans-61" transform="translate(35.205078 0)"/>
     <use xlink:href="#DejaVuSans-6d" transform="translate(96.484375 0)"/>
     <use xlink:href="#DejaVuSans-69" transform="translate(193.896484 0)"/>
     <use xlink:href="#DejaVuSans-6c" transform="translate(221.679688 0)"/>
     <use xlink:href="#DejaVuSans-79" transform="translate(249.462891 0)"/>
     <use xlink:href="#DejaVuSans-2d" transform="translate(306.892578 0)"/>
     <use xlink:href="#DejaVuSans-6d" transform="translate(342.976562 0)"/>
     <use xlink:href="#DejaVuSans-65" transform="translate(440.388672 0)"/>
     <use xlink:href="#DejaVuSans-6d" transform="translate(501.912109 0)"/>
     <use xlink:href="#DejaVuSans-62" transform="translate(599.324219 0)"/>
     <use xlink:href="#DejaVuSans-65" transform="translate(662.800781 0)"/>
     <use xlink:href="#DejaVuSans-72" transform="translate(724.324219 0)"/>
    </g>
    <!-- risk prediction -->
    <g style="fill: #222222" transform="translate(311.305075 409.534545) scale(0.08 -0.08)">
     <use xlink:href="#DejaVuSans-72"/>
     <use xlink:href="#DejaVuSans-69" transform="translate(41.113281 0)"/>
     <use xlink:href="#DejaVuSans-73" transform="translate(68.896484 0)"/>
     <use xlink:href="#DejaVuSans-6b" transform="translate(120.996094 0)"/>
     <use xlink:href="#DejaVuSans-20" transform="translate(178.90625 0)"/>
     <use xlink:href="#DejaVuSans-70" transform="translate(210.693359 0)"/>
     <use xlink:href="#DejaVuSans-72" transform="translate(274.169922 0)"/>
     <use xlink:href="#DejaVuSans-65" transform="translate(313.033203 0)"/>
     <use xlink:href="#DejaVuSans-64" transform="translate(374.556641 0)"/>
     <use xlink:href="#DejaVuSans-69" transform="translate(438.033203 0)"/>
     <use xlink:href="#DejaVuSans-63" transform="translate(465.816406 0)"/>
     <use xlink:href="#DejaVuSans-74" transform="translate(520.796875 0)"/>
     <use xlink:href="#DejaVuSans-69" transform="translate(560.005859 0)"/>
     <use xlink:href="#DejaVuSans-6f" transform="translate(587.789062 0)"/>
     <use xlink:href="#DejaVuSans-6e" transform="translate(648.970703 0)"/>
    </g>
   </g>
   <g id="text_19">
    <!-- != -->
    <g style="fill: #222222" transform="translate(175.4109 405.13824) scale(0.13 -0.13)">
     <defs>
      <path id="DejaVuSans-Bold-21" d="M 897 4666 
L 2022 4666 
L 2022 2875 
L 1863 1569 
L 1056 1569 
L 897 2875 
L 897 4666 
z
M 897 1113 
L 2022 1113 
L 2022 0 
L 897 0 
L 897 1113 
z
" transform="scale(0.015625)"/>
      <path id="DejaVuSans-Bold-3d" d="M 678 3084 
L 4684 3084 
L 4684 2350 
L 678 2350 
L 678 3084 
z
M 678 1663 
L 4684 1663 
L 4684 922 
L 678 922 
L 678 1663 
z
" transform="scale(0.015625)"/>
     </defs>
     <use xlink:href="#DejaVuSans-Bold-21"/>
     <use xlink:href="#DejaVuSans-Bold-3d" transform="translate(45.605469 0)"/>
    </g>
   </g>
   <g id="text_20">
    <!-- != -->
    <g style="fill: #222222" transform="translate(274.80825 405.13824) scale(0.13 -0.13)">
     <use xlink:href="#DejaVuSans-Bold-21"/>
     <use xlink:href="#DejaVuSans-Bold-3d" transform="translate(45.605469 0)"/>
    </g>
   </g>
   <g id="text_21">
    <!-- CAB does not infer cause of death or predict family-member risk. -->
    <g style="fill: #222222" transform="translate(82.143253 501.524797) scale(0.09 -0.09)">
     <defs>
      <path id="DejaVuSans-43" d="M 4122 4306 
L 4122 3641 
Q 3803 3938 3442 4084 
Q 3081 4231 2675 4231 
Q 1875 4231 1450 3742 
Q 1025 3253 1025 2328 
Q 1025 1406 1450 917 
Q 1875 428 2675 428 
Q 3081 428 3442 575 
Q 3803 722 4122 1019 
L 4122 359 
Q 3791 134 3420 21 
Q 3050 -91 2638 -91 
Q 1578 -91 968 557 
Q 359 1206 359 2328 
Q 359 3453 968 4101 
Q 1578 4750 2638 4750 
Q 3056 4750 3426 4639 
Q 3797 4528 4122 4306 
z
" transform="scale(0.015625)"/>
      <path id="DejaVuSans-41" d="M 2188 4044 
L 1331 1722 
L 3047 1722 
L 2188 4044 
z
M 1831 4666 
L 2547 4666 
L 4325 0 
L 3669 0 
L 3244 1197 
L 1141 1197 
L 716 0 
L 50 0 
L 1831 4666 
z
" transform="scale(0.015625)"/>
      <path id="DejaVuSans-42" d="M 1259 2228 
L 1259 519 
L 2272 519 
Q 2781 519 3026 730 
Q 3272 941 3272 1375 
Q 3272 1813 3026 2020 
Q 2781 2228 2272 2228 
L 1259 2228 
z
M 1259 4147 
L 1259 2741 
L 2194 2741 
Q 2656 2741 2882 2914 
Q 3109 3088 3109 3444 
Q 3109 3797 2882 3972 
Q 2656 4147 2194 4147 
L 1259 4147 
z
M 628 4666 
L 2241 4666 
Q 2963 4666 3353 4366 
Q 3744 4066 3744 3513 
Q 3744 3084 3544 2831 
Q 3344 2578 2956 2516 
Q 3422 2416 3680 2098 
Q 3938 1781 3938 1306 
Q 3938 681 3513 340 
Q 3088 0 2303 0 
L 628 0 
L 628 4666 
z
" transform="scale(0.015625)"/>
     </defs>
     <use xlink:href="#DejaVuSans-43"/>
     <use xlink:href="#DejaVuSans-41" transform="translate(69.824219 0)"/>
     <use xlink:href="#DejaVuSans-42" transform="translate(138.232422 0)"/>
     <use xlink:href="#DejaVuSans-20" transform="translate(206.835938 0)"/>
     <use xlink:href="#DejaVuSans-64" transform="translate(238.623047 0)"/>
     <use xlink:href="#DejaVuSans-6f" transform="translate(302.099609 0)"/>
     <use xlink:href="#DejaVuSans-65" transform="translate(363.28125 0)"/>
     <use xlink:href="#DejaVuSans-73" transform="translate(424.804688 0)"/>
     <use xlink:href="#DejaVuSans-20" transform="translate(476.904297 0)"/>
     <use xlink:href="#DejaVuSans-6e" transform="translate(508.691406 0)"/>
     <use xlink:href="#DejaVuSans-6f" transform="translate(572.070312 0)"/>
     <use xlink:href="#DejaVuSans-74" transform="translate(633.251953 0)"/>
     <use xlink:href="#DejaVuSans-20" transform="translate(672.460938 0)"/>
     <use xlink:href="#DejaVuSans-69" transform="translate(704.248047 0)"/>
     <use xlink:href="#DejaVuSans-6e" transform="translate(732.03125 0)"/>
     <use xlink:href="#DejaVuSans-66" transform="translate(795.410156 0)"/>
     <use xlink:href="#DejaVuSans-65" transform="translate(830.615234 0)"/>
     <use xlink:href="#DejaVuSans-72" transform="translate(892.138672 0)"/>
     <use xlink:href="#DejaVuSans-20" transform="translate(933.251953 0)"/>
     <use xlink:href="#DejaVuSans-63" transform="translate(965.039062 0)"/>
     <use xlink:href="#DejaVuSans-61" transform="translate(1020.019531 0)"/>
     <use xlink:href="#DejaVuSans-75" transform="translate(1081.298828 0)"/>
     <use xlink:href="#DejaVuSans-73" transform="translate(1144.677734 0)"/>
     <use xlink:href="#DejaVuSans-65" transform="translate(1196.777344 0)"/>
     <use xlink:href="#DejaVuSans-20" transform="translate(1258.300781 0)"/>
     <use xlink:href="#DejaVuSans-6f" transform="translate(1290.087891 0)"/>
     <use xlink:href="#DejaVuSans-66" transform="translate(1351.269531 0)"/>
     <use xlink:href="#DejaVuSans-20" transform="translate(1386.474609 0)"/>
     <use xlink:href="#DejaVuSans-64" transform="translate(1418.261719 0)"/>
     <use xlink:href="#DejaVuSans-65" transform="translate(1481.738281 0)"/>
     <use xlink:href="#DejaVuSans-61" transform="translate(1543.261719 0)"/>
     <use xlink:href="#DejaVuSans-74" transform="translate(1604.541016 0)"/>
     <use xlink:href="#DejaVuSans-68" transform="translate(1643.75 0)"/>
     <use xlink:href="#DejaVuSans-20" transform="translate(1707.128906 0)"/>
     <use xlink:href="#DejaVuSans-6f" transform="translate(1738.916016 0)"/>
     <use xlink:href="#DejaVuSans-72" transform="translate(1800.097656 0)"/>
     <use xlink:href="#DejaVuSans-20" transform="translate(1841.210938 0)"/>
     <use xlink:href="#DejaVuSans-70" transform="translate(1872.998047 0)"/>
     <use xlink:href="#DejaVuSans-72" transform="translate(1936.474609 0)"/>
     <use xlink:href="#DejaVuSans-65" transform="translate(1975.337891 0)"/>
     <use xlink:href="#DejaVuSans-64" transform="translate(2036.861328 0)"/>
     <use xlink:href="#DejaVuSans-69" transform="translate(2100.337891 0)"/>
     <use xlink:href="#DejaVuSans-63" transform="translate(2128.121094 0)"/>
     <use xlink:href="#DejaVuSans-74" transform="translate(2183.101562 0)"/>
     <use xlink:href="#DejaVuSans-20" transform="translate(2222.310547 0)"/>
     <use xlink:href="#DejaVuSans-66" transform="translate(2254.097656 0)"/>
     <use xlink:href="#DejaVuSans-61" transform="translate(2289.302734 0)"/>
     <use xlink:href="#DejaVuSans-6d" transform="translate(2350.582031 0)"/>
     <use xlink:href="#DejaVuSans-69" transform="translate(2447.994141 0)"/>
     <use xlink:href="#DejaVuSans-6c" transform="translate(2475.777344 0)"/>
     <use xlink:href="#DejaVuSans-79" transform="translate(2503.560547 0)"/>
     <use xlink:href="#DejaVuSans-2d" transform="translate(2560.990234 0)"/>
     <use xlink:href="#DejaVuSans-6d" transform="translate(2597.074219 0)"/>
     <use xlink:href="#DejaVuSans-65" transform="translate(2694.486328 0)"/>
     <use xlink:href="#DejaVuSans-6d" transform="translate(2756.009766 0)"/>
     <use xlink:href="#DejaVuSans-62" transform="translate(2853.421875 0)"/>
     <use xlink:href="#DejaVuSans-65" transform="translate(2916.898438 0)"/>
     <use xlink:href="#DejaVuSans-72" transform="translate(2978.421875 0)"/>
     <use xlink:href="#DejaVuSans-20" transform="translate(3019.535156 0)"/>
     <use xlink:href="#DejaVuSans-72" transform="translate(3051.322266 0)"/>
     <use xlink:href="#DejaVuSans-69" transform="translate(3092.435547 0)"/>
     <use xlink:href="#DejaVuSans-73" transform="translate(3120.21875 0)"/>
     <use xlink:href="#DejaVuSans-6b" transform="translate(3172.318359 0)"/>
     <use xlink:href="#DejaVuSans-2e" transform="translate(3230.228516 0)"/>
    </g>
   </g>
   <g id="text_22">
    <!-- Forbidden overclaim boundary -->
    <g style="fill: #222222" transform="translate(37.7838 325.848) scale(0.11 -0.11)">
     <defs>
      <path id="DejaVuSans-Bold-46" d="M 588 4666 
L 3834 4666 
L 3834 3756 
L 1791 3756 
L 1791 2888 
L 3713 2888 
L 3713 1978 
L 1791 1978 
L 1791 0 
L 588 0 
L 588 4666 
z
" transform="scale(0.015625)"/>
      <path id="DejaVuSans-Bold-62" d="M 2400 722 
Q 2759 722 2948 984 
Q 3138 1247 3138 1747 
Q 3138 2247 2948 2509 
Q 2759 2772 2400 2772 
Q 2041 2772 1848 2508 
Q 1656 2244 1656 1747 
Q 1656 1250 1848 986 
Q 2041 722 2400 722 
z
M 1656 2988 
Q 1888 3294 2169 3439 
Q 2450 3584 2816 3584 
Q 3463 3584 3878 3070 
Q 4294 2556 4294 1747 
Q 4294 938 3878 423 
Q 3463 -91 2816 -91 
Q 2450 -91 2169 54 
Q 1888 200 1656 506 
L 1656 0 
L 538 0 
L 538 4863 
L 1656 4863 
L 1656 2988 
z
" transform="scale(0.015625)"/>
      <path id="DejaVuSans-Bold-64" d="M 2919 2988 
L 2919 4863 
L 4044 4863 
L 4044 0 
L 2919 0 
L 2919 506 
Q 2688 197 2409 53 
Q 2131 -91 1766 -91 
Q 1119 -91 703 423 
Q 288 938 288 1747 
Q 288 2556 703 3070 
Q 1119 3584 1766 3584 
Q 2128 3584 2408 3439 
Q 2688 3294 2919 2988 
z
M 2181 722 
Q 2541 722 2730 984 
Q 2919 1247 2919 1747 
Q 2919 2247 2730 2509 
Q 2541 2772 2181 2772 
Q 1825 2772 1636 2509 
Q 1447 2247 1447 1747 
Q 1447 1247 1636 984 
Q 1825 722 2181 722 
z
" transform="scale(0.015625)"/>
      <path id="DejaVuSans-Bold-76" d="M 97 3500 
L 1216 3500 
L 2088 1081 
L 2956 3500 
L 4078 3500 
L 2700 0 
L 1472 0 
L 97 3500 
z
" transform="scale(0.015625)"/>
      <path id="DejaVuSans-Bold-6c" d="M 538 4863 
L 1656 4863 
L 1656 0 
L 538 0 
L 538 4863 
z
" transform="scale(0.015625)"/>
      <path id="DejaVuSans-Bold-6d" d="M 3781 2919 
Q 3994 3244 4286 3414 
Q 4578 3584 4928 3584 
Q 5531 3584 5847 3212 
Q 6163 2841 6163 2131 
L 6163 0 
L 5038 0 
L 5038 1825 
Q 5041 1866 5042 1909 
Q 5044 1953 5044 2034 
Q 5044 2406 4934 2573 
Q 4825 2741 4581 2741 
Q 4263 2741 4089 2478 
Q 3916 2216 3909 1719 
L 3909 0 
L 2784 0 
L 2784 1825 
Q 2784 2406 2684 2573 
Q 2584 2741 2328 2741 
Q 2006 2741 1831 2477 
Q 1656 2213 1656 1722 
L 1656 0 
L 531 0 
L 531 3500 
L 1656 3500 
L 1656 2988 
Q 1863 3284 2130 3434 
Q 2397 3584 2719 3584 
Q 3081 3584 3359 3409 
Q 3638 3234 3781 2919 
z
" transform="scale(0.015625)"/>
      <path id="DejaVuSans-Bold-79" d="M 78 3500 
L 1197 3500 
L 2138 1125 
L 2938 3500 
L 4056 3500 
L 2584 -331 
Q 2363 -916 2067 -1148 
Q 1772 -1381 1288 -1381 
L 641 -1381 
L 641 -647 
L 991 -647 
Q 1275 -647 1404 -556 
Q 1534 -466 1606 -231 
L 1638 -134 
L 78 3500 
z
" transform="scale(0.015625)"/>
     </defs>
     <use xlink:href="#DejaVuSans-Bold-46"/>
     <use xlink:href="#DejaVuSans-Bold-6f" transform="translate(64.310547 0)"/>
     <use xlink:href="#DejaVuSans-Bold-72" transform="translate(133.011719 0)"/>
     <use xlink:href="#DejaVuSans-Bold-62" transform="translate(182.328125 0)"/>
     <use xlink:href="#DejaVuSans-Bold-69" transform="translate(253.910156 0)"/>
     <use xlink:href="#DejaVuSans-Bold-64" transform="translate(288.1875 0)"/>
     <use xlink:href="#DejaVuSans-Bold-64" transform="translate(359.769531 0)"/>
     <use xlink:href="#DejaVuSans-Bold-65" transform="translate(431.351562 0)"/>
     <use xlink:href="#DejaVuSans-Bold-6e" transform="translate(499.173828 0)"/>
     <use xlink:href="#DejaVuSans-Bold-20" transform="translate(570.365234 0)"/>
     <use xlink:href="#DejaVuSans-Bold-6f" transform="translate(605.179688 0)"/>
     <use xlink:href="#DejaVuSans-Bold-76" transform="translate(673.880859 0)"/>
     <use xlink:href="#DejaVuSans-Bold-65" transform="translate(739.066406 0)"/>
     <use xlink:href="#DejaVuSans-Bold-72" transform="translate(806.888672 0)"/>
     <use xlink:href="#DejaVuSans-Bold-63" transform="translate(856.205078 0)"/>
     <use xlink:href="#DejaVuSans-Bold-6c" transform="translate(915.482422 0)"/>
     <use xlink:href="#DejaVuSans-Bold-61" transform="translate(949.759766 0)"/>
     <use xlink:href="#DejaVuSans-Bold-69" transform="translate(1017.240234 0)"/>
     <use xlink:href="#DejaVuSans-Bold-6d" transform="translate(1051.517578 0)"/>
     <use xlink:href="#DejaVuSans-Bold-20" transform="translate(1155.716797 0)"/>
     <use xlink:href="#DejaVuSans-Bold-62" transform="translate(1190.53125 0)"/>
     <use xlink:href="#DejaVuSans-Bold-6f" transform="translate(1262.113281 0)"/>
     <use xlink:href="#DejaVuSans-Bold-75" transform="translate(1330.814453 0)"/>
     <use xlink:href="#DejaVuSans-Bold-6e" transform="translate(1402.005859 0)"/>
     <use xlink:href="#DejaVuSans-Bold-64" transform="translate(1473.197266 0)"/>
     <use xlink:href="#DejaVuSans-Bold-61" transform="translate(1544.779297 0)"/>
     <use xlink:href="#DejaVuSans-Bold-72" transform="translate(1612.259766 0)"/>
     <use xlink:href="#DejaVuSans-Bold-79" transform="translate(1661.576172 0)"/>
    </g>
   </g>
  </g>
  <g id="axes_4">
   <g id="patch_18">
    <path d="M 499.790802 417.735 
L 625.948977 417.735 
Q 635.506415 417.735 635.506415 412.0092 
L 635.506415 382.23504 
Q 635.506415 376.50924 625.948977 376.50924 
L 499.790802 376.50924 
Q 490.233365 376.50924 490.233365 382.23504 
L 490.233365 412.0092 
Q 490.233365 417.735 499.790802 417.735 
z
" clip-path="url(#p14c6bdbe84)" style="fill: #eef2ff; stroke: #4d4d4d; stroke-width: 1.2; stroke-linejoin: miter"/>
   </g>
   <g id="patch_19">
    <path d="M 687.116577 417.735 
L 813.274752 417.735 
Q 822.83219 417.735 822.83219 412.0092 
L 822.83219 382.23504 
Q 822.83219 376.50924 813.274752 376.50924 
L 687.116577 376.50924 
Q 677.55914 376.50924 677.55914 382.23504 
L 677.55914 412.0092 
Q 677.55914 417.735 687.116577 417.735 
z
" clip-path="url(#p14c6bdbe84)" style="fill: #fff3e8; stroke: #4d4d4d; stroke-width: 1.2; stroke-linejoin: miter"/>
   </g>
   <g id="patch_20">
    <path d="M 499.790802 541.41228 
L 813.274752 541.41228 
Q 822.83219 541.41228 822.83219 535.68648 
L 822.83219 499.04136 
Q 822.83219 493.31556 813.274752 493.31556 
L 499.790802 493.31556 
Q 490.233365 493.31556 490.233365 499.04136 
L 490.233365 535.68648 
Q 490.233365 541.41228 499.790802 541.41228 
z
" clip-path="url(#p14c6bdbe84)" style="fill: #fdebec; stroke: #c44e52; stroke-width: 1.2; stroke-linejoin: miter"/>
   </g>
   <g id="text_23">
    <!-- D -->
    <g style="fill: #222222" transform="translate(434.800227 323.403409) scale(0.13 -0.13)">
     <defs>
      <path id="DejaVuSans-Bold-44" d="M 1791 3756 
L 1791 909 
L 2222 909 
Q 2959 909 3348 1275 
Q 3738 1641 3738 2338 
Q 3738 3031 3350 3393 
Q 2963 3756 2222 3756 
L 1791 3756 
z
M 588 4666 
L 1856 4666 
Q 2919 4666 3439 4514 
Q 3959 4363 4331 4000 
Q 4659 3684 4818 3271 
Q 4978 2859 4978 2338 
Q 4978 1809 4818 1395 
Q 4659 981 4331 666 
Q 3956 303 3431 151 
Q 2906 0 1856 0 
L 588 0 
L 588 4666 
z
" transform="scale(0.015625)"/>
     </defs>
     <use xlink:href="#DejaVuSans-Bold-44"/>
    </g>
   </g>
   <g id="text_24">
    <!-- SCN5A / Brugada -->
    <g style="fill: #222222" transform="translate(528.46864 394.850495) scale(0.08 -0.08)">
     <defs>
      <path id="DejaVuSans-53" d="M 3425 4513 
L 3425 3897 
Q 3066 4069 2747 4153 
Q 2428 4238 2131 4238 
Q 1616 4238 1336 4038 
Q 1056 3838 1056 3469 
Q 1056 3159 1242 3001 
Q 1428 2844 1947 2747 
L 2328 2669 
Q 3034 2534 3370 2195 
Q 3706 1856 3706 1288 
Q 3706 609 3251 259 
Q 2797 -91 1919 -91 
Q 1588 -91 1214 -16 
Q 841 59 441 206 
L 441 856 
Q 825 641 1194 531 
Q 1563 422 1919 422 
Q 2459 422 2753 634 
Q 3047 847 3047 1241 
Q 3047 1584 2836 1778 
Q 2625 1972 2144 2069 
L 1759 2144 
Q 1053 2284 737 2584 
Q 422 2884 422 3419 
Q 422 4038 858 4394 
Q 1294 4750 2059 4750 
Q 2388 4750 2728 4690 
Q 3069 4631 3425 4513 
z
" transform="scale(0.015625)"/>
      <path id="DejaVuSans-4e" d="M 628 4666 
L 1478 4666 
L 3547 763 
L 3547 4666 
L 4159 4666 
L 4159 0 
L 3309 0 
L 1241 3903 
L 1241 0 
L 628 0 
L 628 4666 
z
" transform="scale(0.015625)"/>
      <path id="DejaVuSans-35" d="M 691 4666 
L 3169 4666 
L 3169 4134 
L 1269 4134 
L 1269 2991 
Q 1406 3038 1543 3061 
Q 1681 3084 1819 3084 
Q 2600 3084 3056 2656 
Q 3513 2228 3513 1497 
Q 3513 744 3044 326 
Q 2575 -91 1722 -91 
Q 1428 -91 1123 -41 
Q 819 9 494 109 
L 494 744 
Q 775 591 1075 516 
Q 1375 441 1709 441 
Q 2250 441 2565 725 
Q 2881 1009 2881 1497 
Q 2881 1984 2565 2268 
Q 2250 2553 1709 2553 
Q 1456 2553 1204 2497 
Q 953 2441 691 2322 
L 691 4666 
z
" transform="scale(0.015625)"/>
      <path id="DejaVuSans-2f" d="M 1625 4666 
L 2156 4666 
L 531 -594 
L 0 -594 
L 1625 4666 
z
" transform="scale(0.015625)"/>
     </defs>
     <use xlink:href="#DejaVuSans-53"/>
     <use xlink:href="#DejaVuSans-43" transform="translate(63.476562 0)"/>
     <use xlink:href="#DejaVuSans-4e" transform="translate(133.300781 0)"/>
     <use xlink:href="#DejaVuSans-35" transform="translate(208.105469 0)"/>
     <use xlink:href="#DejaVuSans-41" transform="translate(271.728516 0)"/>
     <use xlink:href="#DejaVuSans-20" transform="translate(340.136719 0)"/>
     <use xlink:href="#DejaVuSans-2f" transform="translate(371.923828 0)"/>
     <use xlink:href="#DejaVuSans-20" transform="translate(405.615234 0)"/>
     <use xlink:href="#DejaVuSans-42" transform="translate(437.402344 0)"/>
     <use xlink:href="#DejaVuSans-72" transform="translate(506.005859 0)"/>
     <use xlink:href="#DejaVuSans-75" transform="translate(547.119141 0)"/>
     <use xlink:href="#DejaVuSans-67" transform="translate(610.498047 0)"/>
     <use xlink:href="#DejaVuSans-61" transform="translate(673.974609 0)"/>
     <use xlink:href="#DejaVuSans-64" transform="translate(735.253906 0)"/>
     <use xlink:href="#DejaVuSans-61" transform="translate(798.730469 0)"/>
    </g>
    <!-- assertion -->
    <g style="fill: #222222" transform="translate(544.48364 403.808745) scale(0.08 -0.08)">
     <use xlink:href="#DejaVuSans-61"/>
     <use xlink:href="#DejaVuSans-73" transform="translate(61.279297 0)"/>
     <use xlink:href="#DejaVuSans-73" transform="translate(113.378906 0)"/>
     <use xlink:href="#DejaVuSans-65" transform="translate(165.478516 0)"/>
     <use xlink:href="#DejaVuSans-72" transform="translate(227.001953 0)"/>
     <use xlink:href="#DejaVuSans-74" transform="translate(268.115234 0)"/>
     <use xlink:href="#DejaVuSans-69" transform="translate(307.324219 0)"/>
     <use xlink:href="#DejaVuSans-6f" transform="translate(335.107422 0)"/>
     <use xlink:href="#DejaVuSans-6e" transform="translate(396.289062 0)"/>
    </g>
   </g>
   <g id="text_25">
    <!-- SADS/postmortem -->
    <g style="fill: #222222" transform="translate(713.325665 394.850495) scale(0.08 -0.08)">
     <defs>
      <path id="DejaVuSans-44" d="M 1259 4147 
L 1259 519 
L 2022 519 
Q 2988 519 3436 956 
Q 3884 1394 3884 2338 
Q 3884 3275 3436 3711 
Q 2988 4147 2022 4147 
L 1259 4147 
z
M 628 4666 
L 1925 4666 
Q 3281 4666 3915 4102 
Q 4550 3538 4550 2338 
Q 4550 1131 3912 565 
Q 3275 0 1925 0 
L 628 0 
L 628 4666 
z
" transform="scale(0.015625)"/>
     </defs>
     <use xlink:href="#DejaVuSans-53"/>
     <use xlink:href="#DejaVuSans-41" transform="translate(65.351562 0)"/>
     <use xlink:href="#DejaVuSans-44" transform="translate(133.759766 0)"/>
     <use xlink:href="#DejaVuSans-53" transform="translate(210.761719 0)"/>
     <use xlink:href="#DejaVuSans-2f" transform="translate(274.238281 0)"/>
     <use xlink:href="#DejaVuSans-70" transform="translate(307.929688 0)"/>
     <use xlink:href="#DejaVuSans-6f" transform="translate(371.40625 0)"/>
     <use xlink:href="#DejaVuSans-73" transform="translate(432.587891 0)"/>
     <use xlink:href="#DejaVuSans-74" transform="translate(484.6875 0)"/>
     <use xlink:href="#DejaVuSans-6d" transform="translate(523.896484 0)"/>
     <use xlink:href="#DejaVuSans-6f" transform="translate(621.308594 0)"/>
     <use xlink:href="#DejaVuSans-72" transform="translate(682.490234 0)"/>
     <use xlink:href="#DejaVuSans-74" transform="translate(723.603516 0)"/>
     <use xlink:href="#DejaVuSans-65" transform="translate(762.8125 0)"/>
     <use xlink:href="#DejaVuSans-6d" transform="translate(824.335938 0)"/>
    </g>
    <!-- meaning -->
    <g style="fill: #222222" transform="translate(732.66629 403.808745) scale(0.08 -0.08)">
     <use xlink:href="#DejaVuSans-6d"/>
     <use xlink:href="#DejaVuSans-65" transform="translate(97.412109 0)"/>
     <use xlink:href="#DejaVuSans-61" transform="translate(158.935547 0)"/>
     <use xlink:href="#DejaVuSans-6e" transform="translate(220.214844 0)"/>
     <use xlink:href="#DejaVuSans-69" transform="translate(283.59375 0)"/>
     <use xlink:href="#DejaVuSans-6e" transform="translate(311.376953 0)"/>
     <use xlink:href="#DejaVuSans-67" transform="translate(374.755859 0)"/>
    </g>
   </g>
   <g id="patch_21">
    <path d="M 632.774052 398.26728 
Q 656.533719 398.26728 678.951746 398.26728 
" style="fill: none; stroke: #c44e52; stroke-width: 1.2; stroke-linecap: round"/>
    <path d="M 674.951746 396.26728 
L 678.951746 398.26728 
L 674.951746 400.26728 
z
" style="fill: #c44e52; stroke: #c44e52; stroke-width: 1.2; stroke-linecap: round"/>
   </g>
   <g id="text_26">
    <!-- trigger context -->
    <g style="fill: #222222" transform="translate(527.279177 424.06989) scale(0.08 -0.08)">
     <use xlink:href="#DejaVuSans-74"/>
     <use xlink:href="#DejaVuSans-72" transform="translate(39.208984 0)"/>
     <use xlink:href="#DejaVuSans-69" transform="translate(80.322266 0)"/>
     <use xlink:href="#DejaVuSans-67" transform="translate(108.105469 0)"/>
     <use xlink:href="#DejaVuSans-67" transform="translate(171.582031 0)"/>
     <use xlink:href="#DejaVuSans-65" transform="translate(235.058594 0)"/>
     <use xlink:href="#DejaVuSans-72" transform="translate(296.582031 0)"/>
     <use xlink:href="#DejaVuSans-20" transform="translate(337.695312 0)"/>
     <use xlink:href="#DejaVuSans-63" transform="translate(369.482422 0)"/>
     <use xlink:href="#DejaVuSans-6f" transform="translate(424.462891 0)"/>
     <use xlink:href="#DejaVuSans-6e" transform="translate(485.644531 0)"/>
     <use xlink:href="#DejaVuSans-74" transform="translate(549.023438 0)"/>
     <use xlink:href="#DejaVuSans-65" transform="translate(588.232422 0)"/>
     <use xlink:href="#DejaVuSans-78" transform="translate(648.005859 0)"/>
     <use xlink:href="#DejaVuSans-74" transform="translate(707.185547 0)"/>
    </g>
    <!-- phenotype context -->
    <g style="fill: #222222" transform="translate(519.332927 433.02814) scale(0.08 -0.08)">
     <use xlink:href="#DejaVuSans-70"/>
     <use xlink:href="#DejaVuSans-68" transform="translate(63.476562 0)"/>
     <use xlink:href="#DejaVuSans-65" transform="translate(126.855469 0)"/>
     <use xlink:href="#DejaVuSans-6e" transform="translate(188.378906 0)"/>
     <use xlink:href="#DejaVuSans-6f" transform="translate(251.757812 0)"/>
     <use xlink:href="#DejaVuSans-74" transform="translate(312.939453 0)"/>
     <use xlink:href="#DejaVuSans-79" transform="translate(352.148438 0)"/>
     <use xlink:href="#DejaVuSans-70" transform="translate(411.328125 0)"/>
     <use xlink:href="#DejaVuSans-65" transform="translate(474.804688 0)"/>
     <use xlink:href="#DejaVuSans-20" transform="translate(536.328125 0)"/>
     <use xlink:href="#DejaVuSans-63" transform="translate(568.115234 0)"/>
     <use xlink:href="#DejaVuSans-6f" transform="translate(623.095703 0)"/>
     <use xlink:href="#DejaVuSans-6e" transform="translate(684.277344 0)"/>
     <use xlink:href="#DejaVuSans-74" transform="translate(747.65625 0)"/>
     <use xlink:href="#DejaVuSans-65" transform="translate(786.865234 0)"/>
     <use xlink:href="#DejaVuSans-78" transform="translate(846.638672 0)"/>
     <use xlink:href="#DejaVuSans-74" transform="translate(905.818359 0)"/>
    </g>
    <!-- disease-specific curation -->
    <g style="fill: #222222" transform="translate(507.623552 441.98639) scale(0.08 -0.08)">
     <use xlink:href="#DejaVuSans-64"/>
     <use xlink:href="#DejaVuSans-69" transform="translate(63.476562 0)"/>
     <use xlink:href="#DejaVuSans-73" transform="translate(91.259766 0)"/>
     <use xlink:href="#DejaVuSans-65" transform="translate(143.359375 0)"/>
     <use xlink:href="#DejaVuSans-61" transform="translate(204.882812 0)"/>
     <use xlink:href="#DejaVuSans-73" transform="translate(266.162109 0)"/>
     <use xlink:href="#DejaVuSans-65" transform="translate(318.261719 0)"/>
     <use xlink:href="#DejaVuSans-2d" transform="translate(379.785156 0)"/>
     <use xlink:href="#DejaVuSans-73" transform="translate(415.869141 0)"/>
     <use xlink:href="#DejaVuSans-70" transform="translate(467.96875 0)"/>
     <use xlink:href="#DejaVuSans-65" transform="translate(531.445312 0)"/>
     <use xlink:href="#DejaVuSans-63" transform="translate(592.96875 0)"/>
     <use xlink:href="#DejaVuSans-69" transform="translate(647.949219 0)"/>
     <use xlink:href="#DejaVuSans-66" transform="translate(675.732422 0)"/>
     <use xlink:href="#DejaVuSans-69" transform="translate(710.9375 0)"/>
     <use xlink:href="#DejaVuSans-63" transform="translate(738.720703 0)"/>
     <use xlink:href="#DejaVuSans-20" transform="translate(793.701172 0)"/>
     <use xlink:href="#DejaVuSans-63" transform="translate(825.488281 0)"/>
     <use xlink:href="#DejaVuSans-75" transform="translate(880.46875 0)"/>
     <use xlink:href="#DejaVuSans-72" transform="translate(943.847656 0)"/>
     <use xlink:href="#DejaVuSans-61" transform="translate(984.960938 0)"/>
     <use xlink:href="#DejaVuSans-74" transform="translate(1046.240234 0)"/>
     <use xlink:href="#DejaVuSans-69" transform="translate(1085.449219 0)"/>
     <use xlink:href="#DejaVuSans-6f" transform="translate(1113.232422 0)"/>
     <use xlink:href="#DejaVuSans-6e" transform="translate(1174.414062 0)"/>
    </g>
    <!-- penetrance framing -->
    <g style="fill: #222222" transform="translate(517.422302 450.94464) scale(0.08 -0.08)">
     <use xlink:href="#DejaVuSans-70"/>
     <use xlink:href="#DejaVuSans-65" transform="translate(63.476562 0)"/>
     <use xlink:href="#DejaVuSans-6e" transform="translate(125 0)"/>
     <use xlink:href="#DejaVuSans-65" transform="translate(188.378906 0)"/>
     <use xlink:href="#DejaVuSans-74" transform="translate(249.902344 0)"/>
     <use xlink:href="#DejaVuSans-72" transform="translate(289.111328 0)"/>
     <use xlink:href="#DejaVuSans-61" transform="translate(330.224609 0)"/>
     <use xlink:href="#DejaVuSans-6e" transform="translate(391.503906 0)"/>
     <use xlink:href="#DejaVuSans-63" transform="translate(454.882812 0)"/>
     <use xlink:href="#DejaVuSans-65" transform="translate(509.863281 0)"/>
     <use xlink:href="#DejaVuSans-20" transform="translate(571.386719 0)"/>
     <use xlink:href="#DejaVuSans-66" transform="translate(603.173828 0)"/>
     <use xlink:href="#DejaVuSans-72" transform="translate(638.378906 0)"/>
     <use xlink:href="#DejaVuSans-61" transform="translate(679.492188 0)"/>
     <use xlink:href="#DejaVuSans-6d" transform="translate(740.771484 0)"/>
     <use xlink:href="#DejaVuSans-69" transform="translate(838.183594 0)"/>
     <use xlink:href="#DejaVuSans-6e" transform="translate(865.966797 0)"/>
     <use xlink:href="#DejaVuSans-67" transform="translate(929.345703 0)"/>
    </g>
   </g>
   <g id="text_27">
    <!-- SADS is a portability stress-test/use-case, not a validated CAB clinical endpoint. -->
    <g style="fill: #222222" transform="translate(496.733402 519.57142) scale(0.08 -0.08)">
     <defs>
      <path id="DejaVuSans-2c" d="M 750 794 
L 1409 794 
L 1409 256 
L 897 -744 
L 494 -744 
L 750 256 
L 750 794 
z
" transform="scale(0.015625)"/>
     </defs>
     <use xlink:href="#DejaVuSans-53"/>
     <use xlink:href="#DejaVuSans-41" transform="translate(65.351562 0)"/>
     <use xlink:href="#DejaVuSans-44" transform="translate(133.759766 0)"/>
     <use xlink:href="#DejaVuSans-53" transform="translate(210.761719 0)"/>
     <use xlink:href="#DejaVuSans-20" transform="translate(274.238281 0)"/>
     <use xlink:href="#DejaVuSans-69" transform="translate(306.025391 0)"/>
     <use xlink:href="#DejaVuSans-73" transform="translate(333.808594 0)"/>
     <use xlink:href="#DejaVuSans-20" transform="translate(385.908203 0)"/>
     <use xlink:href="#DejaVuSans-61" transform="translate(417.695312 0)"/>
     <use xlink:href="#DejaVuSans-20" transform="translate(478.974609 0)"/>
     <use xlink:href="#DejaVuSans-70" transform="translate(510.761719 0)"/>
     <use xlink:href="#DejaVuSans-6f" transform="translate(574.238281 0)"/>
     <use xlink:href="#DejaVuSans-72" transform="translate(635.419922 0)"/>
     <use xlink:href="#DejaVuSans-74" transform="translate(676.533203 0)"/>
     <use xlink:href="#DejaVuSans-61" transform="translate(715.742188 0)"/>
     <use xlink:href="#DejaVuSans-62" transform="translate(777.021484 0)"/>
     <use xlink:href="#DejaVuSans-69" transform="translate(840.498047 0)"/>
     <use xlink:href="#DejaVuSans-6c" transform="translate(868.28125 0)"/>
     <use xlink:href="#DejaVuSans-69" transform="translate(896.064453 0)"/>
     <use xlink:href="#DejaVuSans-74" transform="translate(923.847656 0)"/>
     <use xlink:href="#DejaVuSans-79" transform="translate(963.056641 0)"/>
     <use xlink:href="#DejaVuSans-20" transform="translate(1022.236328 0)"/>
     <use xlink:href="#DejaVuSans-73" transform="translate(1054.023438 0)"/>
     <use xlink:href="#DejaVuSans-74" transform="translate(1106.123047 0)"/>
     <use xlink:href="#DejaVuSans-72" transform="translate(1145.332031 0)"/>
     <use xlink:href="#DejaVuSans-65" transform="translate(1184.195312 0)"/>
     <use xlink:href="#DejaVuSans-73" transform="translate(1245.71875 0)"/>
     <use xlink:href="#DejaVuSans-73" transform="translate(1297.818359 0)"/>
     <use xlink:href="#DejaVuSans-2d" transform="translate(1349.917969 0)"/>
     <use xlink:href="#DejaVuSans-74" transform="translate(1386.001953 0)"/>
     <use xlink:href="#DejaVuSans-65" transform="translate(1425.210938 0)"/>
     <use xlink:href="#DejaVuSans-73" transform="translate(1486.734375 0)"/>
     <use xlink:href="#DejaVuSans-74" transform="translate(1538.833984 0)"/>
     <use xlink:href="#DejaVuSans-2f" transform="translate(1578.042969 0)"/>
     <use xlink:href="#DejaVuSans-75" transform="translate(1611.734375 0)"/>
     <use xlink:href="#DejaVuSans-73" transform="translate(1675.113281 0)"/>
     <use xlink:href="#DejaVuSans-65" transform="translate(1727.212891 0)"/>
     <use xlink:href="#DejaVuSans-2d" transform="translate(1788.736328 0)"/>
     <use xlink:href="#DejaVuSans-63" transform="translate(1824.820312 0)"/>
     <use xlink:href="#DejaVuSans-61" transform="translate(1879.800781 0)"/>
     <use xlink:href="#DejaVuSans-73" transform="translate(1941.080078 0)"/>
     <use xlink:href="#DejaVuSans-65" transform="translate(1993.179688 0)"/>
     <use xlink:href="#DejaVuSans-2c" transform="translate(2054.703125 0)"/>
     <use xlink:href="#DejaVuSans-20" transform="translate(2086.490234 0)"/>
     <use xlink:href="#DejaVuSans-6e" transform="translate(2118.277344 0)"/>
     <use xlink:href="#DejaVuSans-6f" transform="translate(2181.65625 0)"/>
     <use xlink:href="#DejaVuSans-74" transform="translate(2242.837891 0)"/>
     <use xlink:href="#DejaVuSans-20" transform="translate(2282.046875 0)"/>
     <use xlink:href="#DejaVuSans-61" transform="translate(2313.833984 0)"/>
     <use xlink:href="#DejaVuSans-20" transform="translate(2375.113281 0)"/>
     <use xlink:href="#DejaVuSans-76" transform="translate(2406.900391 0)"/>
     <use xlink:href="#DejaVuSans-61" transform="translate(2466.080078 0)"/>
     <use xlink:href="#DejaVuSans-6c" transform="translate(2527.359375 0)"/>
     <use xlink:href="#DejaVuSans-69" transform="translate(2555.142578 0)"/>
     <use xlink:href="#DejaVuSans-64" transform="translate(2582.925781 0)"/>
     <use xlink:href="#DejaVuSans-61" transform="translate(2646.402344 0)"/>
     <use xlink:href="#DejaVuSans-74" transform="translate(2707.681641 0)"/>
     <use xlink:href="#DejaVuSans-65" transform="translate(2746.890625 0)"/>
     <use xlink:href="#DejaVuSans-64" transform="translate(2808.414062 0)"/>
     <use xlink:href="#DejaVuSans-20" transform="translate(2871.890625 0)"/>
     <use xlink:href="#DejaVuSans-43" transform="translate(2903.677734 0)"/>
     <use xlink:href="#DejaVuSans-41" transform="translate(2973.501953 0)"/>
     <use xlink:href="#DejaVuSans-42" transform="translate(3041.910156 0)"/>
     <use xlink:href="#DejaVuSans-20" transform="translate(3110.513672 0)"/>
     <use xlink:href="#DejaVuSans-63" transform="translate(3142.300781 0)"/>
     <use xlink:href="#DejaVuSans-6c" transform="translate(3197.28125 0)"/>
     <use xlink:href="#DejaVuSans-69" transform="translate(3225.064453 0)"/>
     <use xlink:href="#DejaVuSans-6e" transform="translate(3252.847656 0)"/>
     <use xlink:href="#DejaVuSans-69" transform="translate(3316.226562 0)"/>
     <use xlink:href="#DejaVuSans-63" transform="translate(3344.009766 0)"/>
     <use xlink:href="#DejaVuSans-61" transform="translate(3398.990234 0)"/>
     <use xlink:href="#DejaVuSans-6c" transform="translate(3460.269531 0)"/>
     <use xlink:href="#DejaVuSans-20" transform="translate(3488.052734 0)"/>
     <use xlink:href="#DejaVuSans-65" transform="translate(3519.839844 0)"/>
     <use xlink:href="#DejaVuSans-6e" transform="translate(3581.363281 0)"/>
     <use xlink:href="#DejaVuSans-64" transform="translate(3644.742188 0)"/>
     <use xlink:href="#DejaVuSans-70" transform="translate(3708.21875 0)"/>
     <use xlink:href="#DejaVuSans-6f" transform="translate(3771.695312 0)"/>
     <use xlink:href="#DejaVuSans-69" transform="translate(3832.876953 0)"/>
     <use xlink:href="#DejaVuSans-6e" transform="translate(3860.660156 0)"/>
     <use xlink:href="#DejaVuSans-74" transform="translate(3924.039062 0)"/>
     <use xlink:href="#DejaVuSans-2e" transform="translate(3963.248047 0)"/>
    </g>
   </g>
   <g id="text_28">
    <!-- Brugada/SADS portability boundary -->
    <g style="fill: #222222" transform="translate(465.384027 325.848) scale(0.11 -0.11)">
     <defs>
      <path id="DejaVuSans-Bold-2f" d="M 1644 4666 
L 2338 4666 
L 691 -594 
L 0 -594 
L 1644 4666 
z
" transform="scale(0.015625)"/>
      <path id="DejaVuSans-Bold-53" d="M 3834 4519 
L 3834 3531 
Q 3450 3703 3084 3790 
Q 2719 3878 2394 3878 
Q 1963 3878 1756 3759 
Q 1550 3641 1550 3391 
Q 1550 3203 1689 3098 
Q 1828 2994 2194 2919 
L 2706 2816 
Q 3484 2659 3812 2340 
Q 4141 2022 4141 1434 
Q 4141 663 3683 286 
Q 3225 -91 2284 -91 
Q 1841 -91 1394 -6 
Q 947 78 500 244 
L 500 1259 
Q 947 1022 1364 901 
Q 1781 781 2169 781 
Q 2563 781 2772 912 
Q 2981 1044 2981 1288 
Q 2981 1506 2839 1625 
Q 2697 1744 2272 1838 
L 1806 1941 
Q 1106 2091 782 2419 
Q 459 2747 459 3303 
Q 459 4000 909 4375 
Q 1359 4750 2203 4750 
Q 2588 4750 2994 4692 
Q 3400 4634 3834 4519 
z
" transform="scale(0.015625)"/>
      <path id="DejaVuSans-Bold-70" d="M 1656 506 
L 1656 -1331 
L 538 -1331 
L 538 3500 
L 1656 3500 
L 1656 2988 
Q 1888 3294 2169 3439 
Q 2450 3584 2816 3584 
Q 3463 3584 3878 3070 
Q 4294 2556 4294 1747 
Q 4294 938 3878 423 
Q 3463 -91 2816 -91 
Q 2450 -91 2169 54 
Q 1888 200 1656 506 
z
M 2400 2772 
Q 2041 2772 1848 2508 
Q 1656 2244 1656 1747 
Q 1656 1250 1848 986 
Q 2041 722 2400 722 
Q 2759 722 2948 984 
Q 3138 1247 3138 1747 
Q 3138 2247 2948 2509 
Q 2759 2772 2400 2772 
z
" transform="scale(0.015625)"/>
     </defs>
     <use xlink:href="#DejaVuSans-Bold-42"/>
     <use xlink:href="#DejaVuSans-Bold-72" transform="translate(76.220703 0)"/>
     <use xlink:href="#DejaVuSans-Bold-75" transform="translate(125.537109 0)"/>
     <use xlink:href="#DejaVuSans-Bold-67" transform="translate(196.728516 0)"/>
     <use xlink:href="#DejaVuSans-Bold-61" transform="translate(268.310547 0)"/>
     <use xlink:href="#DejaVuSans-Bold-64" transform="translate(335.791016 0)"/>
     <use xlink:href="#DejaVuSans-Bold-61" transform="translate(407.373047 0)"/>
     <use xlink:href="#DejaVuSans-Bold-2f" transform="translate(474.853516 0)"/>
     <use xlink:href="#DejaVuSans-Bold-53" transform="translate(511.376953 0)"/>
     <use xlink:href="#DejaVuSans-Bold-41" transform="translate(583.398438 0)"/>
     <use xlink:href="#DejaVuSans-Bold-44" transform="translate(660.791016 0)"/>
     <use xlink:href="#DejaVuSans-Bold-53" transform="translate(743.798828 0)"/>
     <use xlink:href="#DejaVuSans-Bold-20" transform="translate(815.820312 0)"/>
     <use xlink:href="#DejaVuSans-Bold-70" transform="translate(850.634766 0)"/>
     <use xlink:href="#DejaVuSans-Bold-6f" transform="translate(922.216797 0)"/>
     <use xlink:href="#DejaVuSans-Bold-72" transform="translate(990.917969 0)"/>
     <use xlink:href="#DejaVuSans-Bold-74" transform="translate(1040.234375 0)"/>
     <use xlink:href="#DejaVuSans-Bold-61" transform="translate(1088.037109 0)"/>
     <use xlink:href="#DejaVuSans-Bold-62" transform="translate(1155.517578 0)"/>
     <use xlink:href="#DejaVuSans-Bold-69" transform="translate(1227.099609 0)"/>
     <use xlink:href="#DejaVuSans-Bold-6c" transform="translate(1261.376953 0)"/>
     <use xlink:href="#DejaVuSans-Bold-69" transform="translate(1295.654297 0)"/>
     <use xlink:href="#DejaVuSans-Bold-74" transform="translate(1329.931641 0)"/>
     <use xlink:href="#DejaVuSans-Bold-79" transform="translate(1377.734375 0)"/>
     <use xlink:href="#DejaVuSans-Bold-20" transform="translate(1442.919922 0)"/>
     <use xlink:href="#DejaVuSans-Bold-62" transform="translate(1477.734375 0)"/>
     <use xlink:href="#DejaVuSans-Bold-6f" transform="translate(1549.316406 0)"/>
     <use xlink:href="#DejaVuSans-Bold-75" transform="translate(1618.017578 0)"/>
     <use xlink:href="#DejaVuSans-Bold-6e" transform="translate(1689.208984 0)"/>
     <use xlink:href="#DejaVuSans-Bold-64" transform="translate(1760.400391 0)"/>
     <use xlink:href="#DejaVuSans-Bold-61" transform="translate(1831.982422 0)"/>
     <use xlink:href="#DejaVuSans-Bold-72" transform="translate(1899.462891 0)"/>
     <use xlink:href="#DejaVuSans-Bold-79" transform="translate(1948.779297 0)"/>
    </g>
   </g>
  </g>
  <g id="text_29">
   <!-- SADS/postmortem portability stress-test -->
   <g style="fill: #222222" transform="translate(19.914709 17.837812) scale(0.14 -0.14)">
    <defs>
     <path id="DejaVuSans-Bold-2d" d="M 347 2297 
L 2309 2297 
L 2309 1388 
L 347 1388 
L 347 2297 
z
" transform="scale(0.015625)"/>
    </defs>
    <use xlink:href="#DejaVuSans-Bold-53"/>
    <use xlink:href="#DejaVuSans-Bold-41" transform="translate(72.021484 0)"/>
    <use xlink:href="#DejaVuSans-Bold-44" transform="translate(149.414062 0)"/>
    <use xlink:href="#DejaVuSans-Bold-53" transform="translate(232.421875 0)"/>
    <use xlink:href="#DejaVuSans-Bold-2f" transform="translate(304.443359 0)"/>
    <use xlink:href="#DejaVuSans-Bold-70" transform="translate(340.966797 0)"/>
    <use xlink:href="#DejaVuSans-Bold-6f" transform="translate(412.548828 0)"/>
    <use xlink:href="#DejaVuSans-Bold-73" transform="translate(481.25 0)"/>
    <use xlink:href="#DejaVuSans-Bold-74" transform="translate(540.771484 0)"/>
    <use xlink:href="#DejaVuSans-Bold-6d" transform="translate(588.574219 0)"/>
    <use xlink:href="#DejaVuSans-Bold-6f" transform="translate(692.773438 0)"/>
    <use xlink:href="#DejaVuSans-Bold-72" transform="translate(761.474609 0)"/>
    <use xlink:href="#DejaVuSans-Bold-74" transform="translate(810.791016 0)"/>
    <use xlink:href="#DejaVuSans-Bold-65" transform="translate(858.59375 0)"/>
    <use xlink:href="#DejaVuSans-Bold-6d" transform="translate(926.416016 0)"/>
    <use xlink:href="#DejaVuSans-Bold-20" transform="translate(1030.615234 0)"/>
    <use xlink:href="#DejaVuSans-Bold-70" transform="translate(1065.429688 0)"/>
    <use xlink:href="#DejaVuSans-Bold-6f" transform="translate(1137.011719 0)"/>
    <use xlink:href="#DejaVuSans-Bold-72" transform="translate(1205.712891 0)"/>
    <use xlink:href="#DejaVuSans-Bold-74" transform="translate(1255.029297 0)"/>
    <use xlink:href="#DejaVuSans-Bold-61" transform="translate(1302.832031 0)"/>
    <use xlink:href="#DejaVuSans-Bold-62" transform="translate(1370.3125 0)"/>
    <use xlink:href="#DejaVuSans-Bold-69" transform="translate(1441.894531 0)"/>
    <use xlink:href="#DejaVuSans-Bold-6c" transform="translate(1476.171875 0)"/>
    <use xlink:href="#DejaVuSans-Bold-69" transform="translate(1510.449219 0)"/>
    <use xlink:href="#DejaVuSans-Bold-74" transform="translate(1544.726562 0)"/>
    <use xlink:href="#DejaVuSans-Bold-79" transform="translate(1592.529297 0)"/>
    <use xlink:href="#DejaVuSans-Bold-20" transform="translate(1657.714844 0)"/>
    <use xlink:href="#DejaVuSans-Bold-73" transform="translate(1692.529297 0)"/>
    <use xlink:href="#DejaVuSans-Bold-74" transform="translate(1752.050781 0)"/>
    <use xlink:href="#DejaVuSans-Bold-72" transform="translate(1799.853516 0)"/>
    <use xlink:href="#DejaVuSans-Bold-65" transform="translate(1849.169922 0)"/>
    <use xlink:href="#DejaVuSans-Bold-73" transform="translate(1916.992188 0)"/>
    <use xlink:href="#DejaVuSans-Bold-73" transform="translate(1976.513672 0)"/>
    <use xlink:href="#DejaVuSans-Bold-2d" transform="translate(2036.035156 0)"/>
    <use xlink:href="#DejaVuSans-Bold-74" transform="translate(2077.539062 0)"/>
    <use xlink:href="#DejaVuSans-Bold-65" transform="translate(2125.341797 0)"/>
    <use xlink:href="#DejaVuSans-Bold-73" transform="translate(2193.164062 0)"/>
    <use xlink:href="#DejaVuSans-Bold-74" transform="translate(2252.685547 0)"/>
   </g>
  </g>
 </g>
 <defs>
  <clipPath id="p18193cf706">
   <rect x="37.7838" y="75.888" width="382.2975" height="229.032"/>
  </clipPath>
  <clipPath id="p1e9f0cebe1">
   <rect x="465.384027" y="75.888" width="382.2975" height="229.032"/>
  </clipPath>
  <clipPath id="p87fda7c8b9">
   <rect x="37.7838" y="331.848" width="382.2975" height="229.032"/>
  </clipPath>
  <clipPath id="p14c6bdbe84">
   <rect x="465.384027" y="331.848" width="382.2975" height="229.032"/>
  </clipPath>
 </defs>
</svg>
