<?xml version="1.0" encoding="utf-8" standalone="no"?>
<!DOCTYPE svg PUBLIC "-//W3C//DTD SVG 1.1//EN"
  "http://www.w3.org/Graphics/SVG/1.1/DTD/svg11.dtd">
<svg xmlns:xlink="http://www.w3.org/1999/xlink" width="712.8pt" height="356.4pt" viewBox="0 0 712.8 356.4" xmlns="http://www.w3.org/2000/svg" version="1.1">
 <metadata>
  <rdf:RDF xmlns:dc="http://purl.org/dc/elements/1.1/" xmlns:cc="http://creativecommons.org/ns#" xmlns:rdf="http://www.w3.org/1999/02/22-rdf-syntax-ns#">
   <cc:Work>
    <dc:type rdf:resource="http://purl.org/dc/dcmitype/StillImage"/>
    <dc:date>2026-05-07T23:18:34.189014</dc:date>
    <dc:format>image/svg+xml</dc:format>
    <dc:creator>
     <cc:Agent>
      <dc:title>Matplotlib v3.10.9, https://matplotlib.org/</dc:title>
     </cc:Agent>
    </dc:creator>
   </cc:Work>
  </rdf:RDF>
 </metadata>
 <defs>
  <style type="text/css">*{stroke-linejoin: round; stroke-linecap: butt}</style>
 </defs>
 <g id="figure_1">
  <g id="patch_1">
   <path d="M 0 356.4 
L 712.8 356.4 
L 712.8 0 
L 0 0 
z
" style="fill: #ffffff"/>
  </g>
  <g id="axes_1">
   <g id="patch_2">
    <path d="M 49.104 113.7492 
L 209.736 113.7492 
Q 227.196 113.7492 227.196 106.7832 
L 227.196 91.458 
Q 227.196 84.492 209.736 84.492 
L 49.104 84.492 
Q 31.644 84.492 31.644 91.458 
L 31.644 106.7832 
Q 31.644 113.7492 49.104 113.7492 
z
" clip-path="url(#pf01f0e2811)" style="fill: #eef2f5; stroke: #4d4d4d; stroke-width: 1.2; stroke-linejoin: miter"/>
   </g>
   <g id="patch_3">
    <path d="M 265.608 113.7492 
L 419.256 113.7492 
Q 436.716 113.7492 436.716 106.7832 
L 436.716 91.458 
Q 436.716 84.492 419.256 84.492 
L 265.608 84.492 
Q 248.148 84.492 248.148 91.458 
L 248.148 106.7832 
Q 248.148 113.7492 265.608 113.7492 
z
" clip-path="url(#pf01f0e2811)" style="fill: #e8f3ef; stroke: #4d4d4d; stroke-width: 1.2; stroke-linejoin: miter"/>
   </g>
   <g id="patch_4">
    <path d="M 475.128 113.7492 
L 649.728 113.7492 
Q 667.188 113.7492 667.188 106.7832 
L 667.188 91.458 
Q 667.188 84.492 649.728 84.492 
L 475.128 84.492 
Q 457.668 84.492 457.668 91.458 
L 457.668 106.7832 
Q 457.668 113.7492 475.128 113.7492 
z
" clip-path="url(#pf01f0e2811)" style="fill: #fff3e8; stroke: #4d4d4d; stroke-width: 1.2; stroke-linejoin: miter"/>
   </g>
   <g id="patch_5">
    <path d="M 49.104 143.0064 
L 209.736 143.0064 
Q 227.196 143.0064 227.196 136.0404 
L 227.196 120.7152 
Q 227.196 113.7492 209.736 113.7492 
L 49.104 113.7492 
Q 31.644 113.7492 31.644 120.7152 
L 31.644 136.0404 
Q 31.644 143.0064 49.104 143.0064 
z
" clip-path="url(#pf01f0e2811)" style="fill: #eef2f5; stroke: #4d4d4d; stroke-width: 1.2; stroke-linejoin: miter"/>
   </g>
   <g id="patch_6">
    <path d="M 265.608 143.0064 
L 419.256 143.0064 
Q 436.716 143.0064 436.716 136.0404 
L 436.716 120.7152 
Q 436.716 113.7492 419.256 113.7492 
L 265.608 113.7492 
Q 248.148 113.7492 248.148 120.7152 
L 248.148 136.0404 
Q 248.148 143.0064 265.608 143.0064 
z
" clip-path="url(#pf01f0e2811)" style="fill: #e8f3ef; stroke: #4d4d4d; stroke-width: 1.2; stroke-linejoin: miter"/>
   </g>
   <g id="patch_7">
    <path d="M 475.128 143.0064 
L 649.728 143.0064 
Q 667.188 143.0064 667.188 136.0404 
L 667.188 120.7152 
Q 667.188 113.7492 649.728 113.7492 
L 475.128 113.7492 
Q 457.668 113.7492 457.668 120.7152 
L 457.668 136.0404 
Q 457.668 143.0064 475.128 143.0064 
z
" clip-path="url(#pf01f0e2811)" style="fill: #fff3e8; stroke: #4d4d4d; stroke-width: 1.2; stroke-linejoin: miter"/>
   </g>
   <g id="patch_8">
    <path d="M 49.104 172.2636 
L 209.736 172.2636 
Q 227.196 172.2636 227.196 165.2976 
L 227.196 149.9724 
Q 227.196 143.0064 209.736 143.0064 
L 49.104 143.0064 
Q 31.644 143.0064 31.644 149.9724 
L 31.644 165.2976 
Q 31.644 172.2636 49.104 172.2636 
z
" clip-path="url(#pf01f0e2811)" style="fill: #eef2f5; stroke: #4d4d4d; stroke-width: 1.2; stroke-linejoin: miter"/>
   </g>
   <g id="patch_9">
    <path d="M 265.608 172.2636 
L 419.256 172.2636 
Q 436.716 172.2636 436.716 165.2976 
L 436.716 149.9724 
Q 436.716 143.0064 419.256 143.0064 
L 265.608 143.0064 
Q 248.148 143.0064 248.148 149.9724 
L 248.148 165.2976 
Q 248.148 172.2636 265.608 172.2636 
z
" clip-path="url(#pf01f0e2811)" style="fill: #e8f3ef; stroke: #4d4d4d; stroke-width: 1.2; stroke-linejoin: miter"/>
   </g>
   <g id="patch_10">
    <path d="M 475.128 172.2636 
L 649.728 172.2636 
Q 667.188 172.2636 667.188 165.2976 
L 667.188 149.9724 
Q 667.188 143.0064 649.728 143.0064 
L 475.128 143.0064 
Q 457.668 143.0064 457.668 149.9724 
L 457.668 165.2976 
Q 457.668 172.2636 475.128 172.2636 
z
" clip-path="url(#pf01f0e2811)" style="fill: #fff3e8; stroke: #4d4d4d; stroke-width: 1.2; stroke-linejoin: miter"/>
   </g>
   <g id="patch_11">
    <path d="M 49.104 201.5208 
L 209.736 201.5208 
Q 227.196 201.5208 227.196 194.5548 
L 227.196 179.2296 
Q 227.196 172.2636 209.736 172.2636 
L 49.104 172.2636 
Q 31.644 172.2636 31.644 179.2296 
L 31.644 194.5548 
Q 31.644 201.5208 49.104 201.5208 
z
" clip-path="url(#pf01f0e2811)" style="fill: #eef2f5; stroke: #4d4d4d; stroke-width: 1.2; stroke-linejoin: miter"/>
   </g>
   <g id="patch_12">
    <path d="M 265.608 201.5208 
L 419.256 201.5208 
Q 436.716 201.5208 436.716 194.5548 
L 436.716 179.2296 
Q 436.716 172.2636 419.256 172.2636 
L 265.608 172.2636 
Q 248.148 172.2636 248.148 179.2296 
L 248.148 194.5548 
Q 248.148 201.5208 265.608 201.5208 
z
" clip-path="url(#pf01f0e2811)" style="fill: #e8f3ef; stroke: #4d4d4d; stroke-width: 1.2; stroke-linejoin: miter"/>
   </g>
   <g id="patch_13">
    <path d="M 475.128 201.5208 
L 649.728 201.5208 
Q 667.188 201.5208 667.188 194.5548 
L 667.188 179.2296 
Q 667.188 172.2636 649.728 172.2636 
L 475.128 172.2636 
Q 457.668 172.2636 457.668 179.2296 
L 457.668 194.5548 
Q 457.668 201.5208 475.128 201.5208 
z
" clip-path="url(#pf01f0e2811)" style="fill: #fff3e8; stroke: #4d4d4d; stroke-width: 1.2; stroke-linejoin: miter"/>
   </g>
   <g id="patch_14">
    <path d="M 49.104 230.778 
L 209.736 230.778 
Q 227.196 230.778 227.196 223.812 
L 227.196 208.4868 
Q 227.196 201.5208 209.736 201.5208 
L 49.104 201.5208 
Q 31.644 201.5208 31.644 208.4868 
L 31.644 223.812 
Q 31.644 230.778 49.104 230.778 
z
" clip-path="url(#pf01f0e2811)" style="fill: #eef2f5; stroke: #4d4d4d; stroke-width: 1.2; stroke-linejoin: miter"/>
   </g>
   <g id="patch_15">
    <path d="M 265.608 230.778 
L 419.256 230.778 
Q 436.716 230.778 436.716 223.812 
L 436.716 208.4868 
Q 436.716 201.5208 419.256 201.5208 
L 265.608 201.5208 
Q 248.148 201.5208 248.148 208.4868 
L 248.148 223.812 
Q 248.148 230.778 265.608 230.778 
z
" clip-path="url(#pf01f0e2811)" style="fill: #e8f3ef; stroke: #4d4d4d; stroke-width: 1.2; stroke-linejoin: miter"/>
   </g>
   <g id="patch_16">
    <path d="M 475.128 230.778 
L 649.728 230.778 
Q 667.188 230.778 667.188 223.812 
L 667.188 208.4868 
Q 667.188 201.5208 649.728 201.5208 
L 475.128 201.5208 
Q 457.668 201.5208 457.668 208.4868 
L 457.668 223.812 
Q 457.668 230.778 475.128 230.778 
z
" clip-path="url(#pf01f0e2811)" style="fill: #fff3e8; stroke: #4d4d4d; stroke-width: 1.2; stroke-linejoin: miter"/>
   </g>
   <g id="patch_17">
    <path d="M 49.104 260.0352 
L 209.736 260.0352 
Q 227.196 260.0352 227.196 253.0692 
L 227.196 237.744 
Q 227.196 230.778 209.736 230.778 
L 49.104 230.778 
Q 31.644 230.778 31.644 237.744 
L 31.644 253.0692 
Q 31.644 260.0352 49.104 260.0352 
z
" clip-path="url(#pf01f0e2811)" style="fill: #eef2f5; stroke: #4d4d4d; stroke-width: 1.2; stroke-linejoin: miter"/>
   </g>
   <g id="patch_18">
    <path d="M 265.608 260.0352 
L 419.256 260.0352 
Q 436.716 260.0352 436.716 253.0692 
L 436.716 237.744 
Q 436.716 230.778 419.256 230.778 
L 265.608 230.778 
Q 248.148 230.778 248.148 237.744 
L 248.148 253.0692 
Q 248.148 260.0352 265.608 260.0352 
z
" clip-path="url(#pf01f0e2811)" style="fill: #e8f3ef; stroke: #4d4d4d; stroke-width: 1.2; stroke-linejoin: miter"/>
   </g>
   <g id="patch_19">
    <path d="M 475.128 260.0352 
L 649.728 260.0352 
Q 667.188 260.0352 667.188 253.0692 
L 667.188 237.744 
Q 667.188 230.778 649.728 230.778 
L 475.128 230.778 
Q 457.668 230.778 457.668 237.744 
L 457.668 253.0692 
Q 457.668 260.0352 475.128 260.0352 
z
" clip-path="url(#pf01f0e2811)" style="fill: #fff3e8; stroke: #4d4d4d; stroke-width: 1.2; stroke-linejoin: miter"/>
   </g>
   <g id="patch_20">
    <path d="M 49.104 289.2924 
L 209.736 289.2924 
Q 227.196 289.2924 227.196 282.3264 
L 227.196 267.0012 
Q 227.196 260.0352 209.736 260.0352 
L 49.104 260.0352 
Q 31.644 260.0352 31.644 267.0012 
L 31.644 282.3264 
Q 31.644 289.2924 49.104 289.2924 
z
" clip-path="url(#pf01f0e2811)" style="fill: #eef2f5; stroke: #4d4d4d; stroke-width: 1.2; stroke-linejoin: miter"/>
   </g>
   <g id="patch_21">
    <path d="M 265.608 289.2924 
L 419.256 289.2924 
Q 436.716 289.2924 436.716 282.3264 
L 436.716 267.0012 
Q 436.716 260.0352 419.256 260.0352 
L 265.608 260.0352 
Q 248.148 260.0352 248.148 267.0012 
L 248.148 282.3264 
Q 248.148 289.2924 265.608 289.2924 
z
" clip-path="url(#pf01f0e2811)" style="fill: #e8f3ef; stroke: #4d4d4d; stroke-width: 1.2; stroke-linejoin: miter"/>
   </g>
   <g id="patch_22">
    <path d="M 475.128 289.2924 
L 649.728 289.2924 
Q 667.188 289.2924 667.188 282.3264 
L 667.188 267.0012 
Q 667.188 260.0352 649.728 260.0352 
L 475.128 260.0352 
Q 457.668 260.0352 457.668 267.0012 
L 457.668 282.3264 
Q 457.668 289.2924 475.128 289.2924 
z
" clip-path="url(#pf01f0e2811)" style="fill: #fff3e8; stroke: #4d4d4d; stroke-width: 1.2; stroke-linejoin: miter"/>
   </g>
   <g id="text_1">
    <!-- eMERGE SCN5A/KCNH2 JAMA 2016 -->
    <g style="fill: #222222" transform="translate(68.546797 101.052162) scale(0.07 -0.07)">
     <defs>
      <path id="DejaVuSans-65" d="M 3597 1894 
L 3597 1613 
L 953 1613 
Q 991 1019 1311 708 
Q 1631 397 2203 397 
Q 2534 397 2845 478 
Q 3156 559 3463 722 
L 3463 178 
Q 3153 47 2828 -22 
Q 2503 -91 2169 -91 
Q 1331 -91 842 396 
Q 353 884 353 1716 
Q 353 2575 817 3079 
Q 1281 3584 2069 3584 
Q 2775 3584 3186 3129 
Q 3597 2675 3597 1894 
z
M 3022 2063 
Q 3016 2534 2758 2815 
Q 2500 3097 2075 3097 
Q 1594 3097 1305 2825 
Q 1016 2553 972 2059 
L 3022 2063 
z
" transform="scale(0.015625)"/>
      <path id="DejaVuSans-4d" d="M 628 4666 
L 1569 4666 
L 2759 1491 
L 3956 4666 
L 4897 4666 
L 4897 0 
L 4281 0 
L 4281 4097 
L 3078 897 
L 2444 897 
L 1241 4097 
L 1241 0 
L 628 0 
L 628 4666 
z
" transform="scale(0.015625)"/>
      <path id="DejaVuSans-45" d="M 628 4666 
L 3578 4666 
L 3578 4134 
L 1259 4134 
L 1259 2753 
L 3481 2753 
L 3481 2222 
L 1259 2222 
L 1259 531 
L 3634 531 
L 3634 0 
L 628 0 
L 628 4666 
z
" transform="scale(0.015625)"/>
      <path id="DejaVuSans-52" d="M 2841 2188 
Q 3044 2119 3236 1894 
Q 3428 1669 3622 1275 
L 4263 0 
L 3584 0 
L 2988 1197 
Q 2756 1666 2539 1819 
Q 2322 1972 1947 1972 
L 1259 1972 
L 1259 0 
L 628 0 
L 628 4666 
L 2053 4666 
Q 2853 4666 3247 4331 
Q 3641 3997 3641 3322 
Q 3641 2881 3436 2590 
Q 3231 2300 2841 2188 
z
M 1259 4147 
L 1259 2491 
L 2053 2491 
Q 2509 2491 2742 2702 
Q 2975 2913 2975 3322 
Q 2975 3731 2742 3939 
Q 2509 4147 2053 4147 
L 1259 4147 
z
" transform="scale(0.015625)"/>
      <path id="DejaVuSans-47" d="M 3809 666 
L 3809 1919 
L 2778 1919 
L 2778 2438 
L 4434 2438 
L 4434 434 
Q 4069 175 3628 42 
Q 3188 -91 2688 -91 
Q 1594 -91 976 548 
Q 359 1188 359 2328 
Q 359 3472 976 4111 
Q 1594 4750 2688 4750 
Q 3144 4750 3555 4637 
Q 3966 4525 4313 4306 
L 4313 3634 
Q 3963 3931 3569 4081 
Q 3175 4231 2741 4231 
Q 1884 4231 1454 3753 
Q 1025 3275 1025 2328 
Q 1025 1384 1454 906 
Q 1884 428 2741 428 
Q 3075 428 3337 486 
Q 3600 544 3809 666 
z
" transform="scale(0.015625)"/>
      <path id="DejaVuSans-20" transform="scale(0.015625)"/>
      <path id="DejaVuSans-53" d="M 3425 4513 
L 3425 3897 
Q 3066 4069 2747 4153 
Q 2428 4238 2131 4238 
Q 1616 4238 1336 4038 
Q 1056 3838 1056 3469 
Q 1056 3159 1242 3001 
Q 1428 2844 1947 2747 
L 2328 2669 
Q 3034 2534 3370 2195 
Q 3706 1856 3706 1288 
Q 3706 609 3251 259 
Q 2797 -91 1919 -91 
Q 1588 -91 1214 -16 
Q 841 59 441 206 
L 441 856 
Q 825 641 1194 531 
Q 1563 422 1919 422 
Q 2459 422 2753 634 
Q 3047 847 3047 1241 
Q 3047 1584 2836 1778 
Q 2625 1972 2144 2069 
L 1759 2144 
Q 1053 2284 737 2584 
Q 422 2884 422 3419 
Q 422 4038 858 4394 
Q 1294 4750 2059 4750 
Q 2388 4750 2728 4690 
Q 3069 4631 3425 4513 
z
" transform="scale(0.015625)"/>
      <path id="DejaVuSans-43" d="M 4122 4306 
L 4122 3641 
Q 3803 3938 3442 4084 
Q 3081 4231 2675 4231 
Q 1875 4231 1450 3742 
Q 1025 3253 1025 2328 
Q 1025 1406 1450 917 
Q 1875 428 2675 428 
Q 3081 428 3442 575 
Q 3803 722 4122 1019 
L 4122 359 
Q 3791 134 3420 21 
Q 3050 -91 2638 -91 
Q 1578 -91 968 557 
Q 359 1206 359 2328 
Q 359 3453 968 4101 
Q 1578 4750 2638 4750 
Q 3056 4750 3426 4639 
Q 3797 4528 4122 4306 
z
" transform="scale(0.015625)"/>
      <path id="DejaVuSans-4e" d="M 628 4666 
L 1478 4666 
L 3547 763 
L 3547 4666 
L 4159 4666 
L 4159 0 
L 3309 0 
L 1241 3903 
L 1241 0 
L 628 0 
L 628 4666 
z
" transform="scale(0.015625)"/>
      <path id="DejaVuSans-35" d="M 691 4666 
L 3169 4666 
L 3169 4134 
L 1269 4134 
L 1269 2991 
Q 1406 3038 1543 3061 
Q 1681 3084 1819 3084 
Q 2600 3084 3056 2656 
Q 3513 2228 3513 1497 
Q 3513 744 3044 326 
Q 2575 -91 1722 -91 
Q 1428 -91 1123 -41 
Q 819 9 494 109 
L 494 744 
Q 775 591 1075 516 
Q 1375 441 1709 441 
Q 2250 441 2565 725 
Q 2881 1009 2881 1497 
Q 2881 1984 2565 2268 
Q 2250 2553 1709 2553 
Q 1456 2553 1204 2497 
Q 953 2441 691 2322 
L 691 4666 
z
" transform="scale(0.015625)"/>
      <path id="DejaVuSans-41" d="M 2188 4044 
L 1331 1722 
L 3047 1722 
L 2188 4044 
z
M 1831 4666 
L 2547 4666 
L 4325 0 
L 3669 0 
L 3244 1197 
L 1141 1197 
L 716 0 
L 50 0 
L 1831 4666 
z
" transform="scale(0.015625)"/>
      <path id="DejaVuSans-2f" d="M 1625 4666 
L 2156 4666 
L 531 -594 
L 0 -594 
L 1625 4666 
z
" transform="scale(0.015625)"/>
      <path id="DejaVuSans-4b" d="M 628 4666 
L 1259 4666 
L 1259 2694 
L 3353 4666 
L 4166 4666 
L 1850 2491 
L 4331 0 
L 3500 0 
L 1259 2247 
L 1259 0 
L 628 0 
L 628 4666 
z
" transform="scale(0.015625)"/>
      <path id="DejaVuSans-48" d="M 628 4666 
L 1259 4666 
L 1259 2753 
L 3553 2753 
L 3553 4666 
L 4184 4666 
L 4184 0 
L 3553 0 
L 3553 2222 
L 1259 2222 
L 1259 0 
L 628 0 
L 628 4666 
z
" transform="scale(0.015625)"/>
      <path id="DejaVuSans-32" d="M 1228 531 
L 3431 531 
L 3431 0 
L 469 0 
L 469 531 
Q 828 903 1448 1529 
Q 2069 2156 2228 2338 
Q 2531 2678 2651 2914 
Q 2772 3150 2772 3378 
Q 2772 3750 2511 3984 
Q 2250 4219 1831 4219 
Q 1534 4219 1204 4116 
Q 875 4013 500 3803 
L 500 4441 
Q 881 4594 1212 4672 
Q 1544 4750 1819 4750 
Q 2544 4750 2975 4387 
Q 3406 4025 3406 3419 
Q 3406 3131 3298 2873 
Q 3191 2616 2906 2266 
Q 2828 2175 2409 1742 
Q 1991 1309 1228 531 
z
" transform="scale(0.015625)"/>
      <path id="DejaVuSans-4a" d="M 628 4666 
L 1259 4666 
L 1259 325 
Q 1259 -519 939 -900 
Q 619 -1281 -91 -1281 
L -331 -1281 
L -331 -750 
L -134 -750 
Q 284 -750 456 -515 
Q 628 -281 628 325 
L 628 4666 
z
" transform="scale(0.015625)"/>
      <path id="DejaVuSans-30" d="M 2034 4250 
Q 1547 4250 1301 3770 
Q 1056 3291 1056 2328 
Q 1056 1369 1301 889 
Q 1547 409 2034 409 
Q 2525 409 2770 889 
Q 3016 1369 3016 2328 
Q 3016 3291 2770 3770 
Q 2525 4250 2034 4250 
z
M 2034 4750 
Q 2819 4750 3233 4129 
Q 3647 3509 3647 2328 
Q 3647 1150 3233 529 
Q 2819 -91 2034 -91 
Q 1250 -91 836 529 
Q 422 1150 422 2328 
Q 422 3509 836 4129 
Q 1250 4750 2034 4750 
z
" transform="scale(0.015625)"/>
      <path id="DejaVuSans-31" d="M 794 531 
L 1825 531 
L 1825 4091 
L 703 3866 
L 703 4441 
L 1819 4666 
L 2450 4666 
L 2450 531 
L 3481 531 
L 3481 0 
L 794 0 
L 794 531 
z
" transform="scale(0.015625)"/>
      <path id="DejaVuSans-36" d="M 2113 2584 
Q 1688 2584 1439 2293 
Q 1191 2003 1191 1497 
Q 1191 994 1439 701 
Q 1688 409 2113 409 
Q 2538 409 2786 701 
Q 3034 994 3034 1497 
Q 3034 2003 2786 2293 
Q 2538 2584 2113 2584 
z
M 3366 4563 
L 3366 3988 
Q 3128 4100 2886 4159 
Q 2644 4219 2406 4219 
Q 1781 4219 1451 3797 
Q 1122 3375 1075 2522 
Q 1259 2794 1537 2939 
Q 1816 3084 2150 3084 
Q 2853 3084 3261 2657 
Q 3669 2231 3669 1497 
Q 3669 778 3244 343 
Q 2819 -91 2113 -91 
Q 1303 -91 875 529 
Q 447 1150 447 2328 
Q 447 3434 972 4092 
Q 1497 4750 2381 4750 
Q 2619 4750 2861 4703 
Q 3103 4656 3366 4563 
z
" transform="scale(0.015625)"/>
     </defs>
     <use xlink:href="#DejaVuSans-65"/>
     <use xlink:href="#DejaVuSans-4d" transform="translate(61.523438 0)"/>
     <use xlink:href="#DejaVuSans-45" transform="translate(147.802734 0)"/>
     <use xlink:href="#DejaVuSans-52" transform="translate(210.986328 0)"/>
     <use xlink:href="#DejaVuSans-47" transform="translate(280.46875 0)"/>
     <use xlink:href="#DejaVuSans-45" transform="translate(357.958984 0)"/>
     <use xlink:href="#DejaVuSans-20" transform="translate(421.142578 0)"/>
     <use xlink:href="#DejaVuSans-53" transform="translate(452.929688 0)"/>
     <use xlink:href="#DejaVuSans-43" transform="translate(516.40625 0)"/>
     <use xlink:href="#DejaVuSans-4e" transform="translate(586.230469 0)"/>
     <use xlink:href="#DejaVuSans-35" transform="translate(661.035156 0)"/>
     <use xlink:href="#DejaVuSans-41" transform="translate(724.658203 0)"/>
     <use xlink:href="#DejaVuSans-2f" transform="translate(793.066406 0)"/>
     <use xlink:href="#DejaVuSans-4b" transform="translate(826.757812 0)"/>
     <use xlink:href="#DejaVuSans-43" transform="translate(886.833984 0)"/>
     <use xlink:href="#DejaVuSans-4e" transform="translate(956.658203 0)"/>
     <use xlink:href="#DejaVuSans-48" transform="translate(1031.462891 0)"/>
     <use xlink:href="#DejaVuSans-32" transform="translate(1106.658203 0)"/>
     <use xlink:href="#DejaVuSans-20" transform="translate(1170.28125 0)"/>
     <use xlink:href="#DejaVuSans-4a" transform="translate(1202.068359 0)"/>
     <use xlink:href="#DejaVuSans-41" transform="translate(1229.810547 0)"/>
     <use xlink:href="#DejaVuSans-4d" transform="translate(1298.21875 0)"/>
     <use xlink:href="#DejaVuSans-41" transform="translate(1384.498047 0)"/>
     <use xlink:href="#DejaVuSans-20" transform="translate(1452.90625 0)"/>
     <use xlink:href="#DejaVuSans-32" transform="translate(1484.693359 0)"/>
     <use xlink:href="#DejaVuSans-30" transform="translate(1548.316406 0)"/>
     <use xlink:href="#DejaVuSans-31" transform="translate(1611.939453 0)"/>
     <use xlink:href="#DejaVuSans-36" transform="translate(1675.5625 0)"/>
    </g>
   </g>
   <g id="text_2">
    <!-- external_genotype_phenotype_proxy -->
    <g style="fill: #222222" transform="translate(277.695125 100.954819) scale(0.07 -0.07)">
     <defs>
      <path id="DejaVuSans-78" d="M 3513 3500 
L 2247 1797 
L 3578 0 
L 2900 0 
L 1881 1375 
L 863 0 
L 184 0 
L 1544 1831 
L 300 3500 
L 978 3500 
L 1906 2253 
L 2834 3500 
L 3513 3500 
z
" transform="scale(0.015625)"/>
      <path id="DejaVuSans-74" d="M 1172 4494 
L 1172 3500 
L 2356 3500 
L 2356 3053 
L 1172 3053 
L 1172 1153 
Q 1172 725 1289 603 
Q 1406 481 1766 481 
L 2356 481 
L 2356 0 
L 1766 0 
Q 1100 0 847 248 
Q 594 497 594 1153 
L 594 3053 
L 172 3053 
L 172 3500 
L 594 3500 
L 594 4494 
L 1172 4494 
z
" transform="scale(0.015625)"/>
      <path id="DejaVuSans-72" d="M 2631 2963 
Q 2534 3019 2420 3045 
Q 2306 3072 2169 3072 
Q 1681 3072 1420 2755 
Q 1159 2438 1159 1844 
L 1159 0 
L 581 0 
L 581 3500 
L 1159 3500 
L 1159 2956 
Q 1341 3275 1631 3429 
Q 1922 3584 2338 3584 
Q 2397 3584 2469 3576 
Q 2541 3569 2628 3553 
L 2631 2963 
z
" transform="scale(0.015625)"/>
      <path id="DejaVuSans-6e" d="M 3513 2113 
L 3513 0 
L 2938 0 
L 2938 2094 
Q 2938 2591 2744 2837 
Q 2550 3084 2163 3084 
Q 1697 3084 1428 2787 
Q 1159 2491 1159 1978 
L 1159 0 
L 581 0 
L 581 3500 
L 1159 3500 
L 1159 2956 
Q 1366 3272 1645 3428 
Q 1925 3584 2291 3584 
Q 2894 3584 3203 3211 
Q 3513 2838 3513 2113 
z
" transform="scale(0.015625)"/>
      <path id="DejaVuSans-61" d="M 2194 1759 
Q 1497 1759 1228 1600 
Q 959 1441 959 1056 
Q 959 750 1161 570 
Q 1363 391 1709 391 
Q 2188 391 2477 730 
Q 2766 1069 2766 1631 
L 2766 1759 
L 2194 1759 
z
M 3341 1997 
L 3341 0 
L 2766 0 
L 2766 531 
Q 2569 213 2275 61 
Q 1981 -91 1556 -91 
Q 1019 -91 701 211 
Q 384 513 384 1019 
Q 384 1609 779 1909 
Q 1175 2209 1959 2209 
L 2766 2209 
L 2766 2266 
Q 2766 2663 2505 2880 
Q 2244 3097 1772 3097 
Q 1472 3097 1187 3025 
Q 903 2953 641 2809 
L 641 3341 
Q 956 3463 1253 3523 
Q 1550 3584 1831 3584 
Q 2591 3584 2966 3190 
Q 3341 2797 3341 1997 
z
" transform="scale(0.015625)"/>
      <path id="DejaVuSans-6c" d="M 603 4863 
L 1178 4863 
L 1178 0 
L 603 0 
L 603 4863 
z
" transform="scale(0.015625)"/>
      <path id="DejaVuSans-5f" d="M 3263 -1063 
L 3263 -1509 
L -63 -1509 
L -63 -1063 
L 3263 -1063 
z
" transform="scale(0.015625)"/>
      <path id="DejaVuSans-67" d="M 2906 1791 
Q 2906 2416 2648 2759 
Q 2391 3103 1925 3103 
Q 1463 3103 1205 2759 
Q 947 2416 947 1791 
Q 947 1169 1205 825 
Q 1463 481 1925 481 
Q 2391 481 2648 825 
Q 2906 1169 2906 1791 
z
M 3481 434 
Q 3481 -459 3084 -895 
Q 2688 -1331 1869 -1331 
Q 1566 -1331 1297 -1286 
Q 1028 -1241 775 -1147 
L 775 -588 
Q 1028 -725 1275 -790 
Q 1522 -856 1778 -856 
Q 2344 -856 2625 -561 
Q 2906 -266 2906 331 
L 2906 616 
Q 2728 306 2450 153 
Q 2172 0 1784 0 
Q 1141 0 747 490 
Q 353 981 353 1791 
Q 353 2603 747 3093 
Q 1141 3584 1784 3584 
Q 2172 3584 2450 3431 
Q 2728 3278 2906 2969 
L 2906 3500 
L 3481 3500 
L 3481 434 
z
" transform="scale(0.015625)"/>
      <path id="DejaVuSans-6f" d="M 1959 3097 
Q 1497 3097 1228 2736 
Q 959 2375 959 1747 
Q 959 1119 1226 758 
Q 1494 397 1959 397 
Q 2419 397 2687 759 
Q 2956 1122 2956 1747 
Q 2956 2369 2687 2733 
Q 2419 3097 1959 3097 
z
M 1959 3584 
Q 2709 3584 3137 3096 
Q 3566 2609 3566 1747 
Q 3566 888 3137 398 
Q 2709 -91 1959 -91 
Q 1206 -91 779 398 
Q 353 888 353 1747 
Q 353 2609 779 3096 
Q 1206 3584 1959 3584 
z
" transform="scale(0.015625)"/>
      <path id="DejaVuSans-79" d="M 2059 -325 
Q 1816 -950 1584 -1140 
Q 1353 -1331 966 -1331 
L 506 -1331 
L 506 -850 
L 844 -850 
Q 1081 -850 1212 -737 
Q 1344 -625 1503 -206 
L 1606 56 
L 191 3500 
L 800 3500 
L 1894 763 
L 2988 3500 
L 3597 3500 
L 2059 -325 
z
" transform="scale(0.015625)"/>
      <path id="DejaVuSans-70" d="M 1159 525 
L 1159 -1331 
L 581 -1331 
L 581 3500 
L 1159 3500 
L 1159 2969 
Q 1341 3281 1617 3432 
Q 1894 3584 2278 3584 
Q 2916 3584 3314 3078 
Q 3713 2572 3713 1747 
Q 3713 922 3314 415 
Q 2916 -91 2278 -91 
Q 1894 -91 1617 61 
Q 1341 213 1159 525 
z
M 3116 1747 
Q 3116 2381 2855 2742 
Q 2594 3103 2138 3103 
Q 1681 3103 1420 2742 
Q 1159 2381 1159 1747 
Q 1159 1113 1420 752 
Q 1681 391 2138 391 
Q 2594 391 2855 752 
Q 3116 1113 3116 1747 
z
" transform="scale(0.015625)"/>
      <path id="DejaVuSans-68" d="M 3513 2113 
L 3513 0 
L 2938 0 
L 2938 2094 
Q 2938 2591 2744 2837 
Q 2550 3084 2163 3084 
Q 1697 3084 1428 2787 
Q 1159 2491 1159 1978 
L 1159 0 
L 581 0 
L 581 4863 
L 1159 4863 
L 1159 2956 
Q 1366 3272 1645 3428 
Q 1925 3584 2291 3584 
Q 2894 3584 3203 3211 
Q 3513 2838 3513 2113 
z
" transform="scale(0.015625)"/>
     </defs>
     <use xlink:href="#DejaVuSans-65"/>
     <use xlink:href="#DejaVuSans-78" transform="translate(59.773438 0)"/>
     <use xlink:href="#DejaVuSans-74" transform="translate(118.953125 0)"/>
     <use xlink:href="#DejaVuSans-65" transform="translate(158.162109 0)"/>
     <use xlink:href="#DejaVuSans-72" transform="translate(219.685547 0)"/>
     <use xlink:href="#DejaVuSans-6e" transform="translate(259.048828 0)"/>
     <use xlink:href="#DejaVuSans-61" transform="translate(322.427734 0)"/>
     <use xlink:href="#DejaVuSans-6c" transform="translate(383.707031 0)"/>
     <use xlink:href="#DejaVuSans-5f" transform="translate(411.490234 0)"/>
     <use xlink:href="#DejaVuSans-67" transform="translate(461.490234 0)"/>
     <use xlink:href="#DejaVuSans-65" transform="translate(524.966797 0)"/>
     <use xlink:href="#DejaVuSans-6e" transform="translate(586.490234 0)"/>
     <use xlink:href="#DejaVuSans-6f" transform="translate(649.869141 0)"/>
     <use xlink:href="#DejaVuSans-74" transform="translate(711.050781 0)"/>
     <use xlink:href="#DejaVuSans-79" transform="translate(750.259766 0)"/>
     <use xlink:href="#DejaVuSans-70" transform="translate(809.439453 0)"/>
     <use xlink:href="#DejaVuSans-65" transform="translate(872.916016 0)"/>
     <use xlink:href="#DejaVuSans-5f" transform="translate(934.439453 0)"/>
     <use xlink:href="#DejaVuSans-70" transform="translate(984.439453 0)"/>
     <use xlink:href="#DejaVuSans-68" transform="translate(1047.916016 0)"/>
     <use xlink:href="#DejaVuSans-65" transform="translate(1111.294922 0)"/>
     <use xlink:href="#DejaVuSans-6e" transform="translate(1172.818359 0)"/>
     <use xlink:href="#DejaVuSans-6f" transform="translate(1236.197266 0)"/>
     <use xlink:href="#DejaVuSans-74" transform="translate(1297.378906 0)"/>
     <use xlink:href="#DejaVuSans-79" transform="translate(1336.587891 0)"/>
     <use xlink:href="#DejaVuSans-70" transform="translate(1395.767578 0)"/>
     <use xlink:href="#DejaVuSans-65" transform="translate(1459.244141 0)"/>
     <use xlink:href="#DejaVuSans-5f" transform="translate(1520.767578 0)"/>
     <use xlink:href="#DejaVuSans-70" transform="translate(1570.767578 0)"/>
     <use xlink:href="#DejaVuSans-72" transform="translate(1634.244141 0)"/>
     <use xlink:href="#DejaVuSans-6f" transform="translate(1673.107422 0)"/>
     <use xlink:href="#DejaVuSans-78" transform="translate(1731.164062 0)"/>
     <use xlink:href="#DejaVuSans-79" transform="translate(1790.34375 0)"/>
    </g>
   </g>
   <g id="text_3">
    <!-- proxy support only -->
    <g style="fill: #222222" transform="translate(529.604563 101.052162) scale(0.07 -0.07)">
     <defs>
      <path id="DejaVuSans-73" d="M 2834 3397 
L 2834 2853 
Q 2591 2978 2328 3040 
Q 2066 3103 1784 3103 
Q 1356 3103 1142 2972 
Q 928 2841 928 2578 
Q 928 2378 1081 2264 
Q 1234 2150 1697 2047 
L 1894 2003 
Q 2506 1872 2764 1633 
Q 3022 1394 3022 966 
Q 3022 478 2636 193 
Q 2250 -91 1575 -91 
Q 1294 -91 989 -36 
Q 684 19 347 128 
L 347 722 
Q 666 556 975 473 
Q 1284 391 1588 391 
Q 1994 391 2212 530 
Q 2431 669 2431 922 
Q 2431 1156 2273 1281 
Q 2116 1406 1581 1522 
L 1381 1569 
Q 847 1681 609 1914 
Q 372 2147 372 2553 
Q 372 3047 722 3315 
Q 1072 3584 1716 3584 
Q 2034 3584 2315 3537 
Q 2597 3491 2834 3397 
z
" transform="scale(0.015625)"/>
      <path id="DejaVuSans-75" d="M 544 1381 
L 544 3500 
L 1119 3500 
L 1119 1403 
Q 1119 906 1312 657 
Q 1506 409 1894 409 
Q 2359 409 2629 706 
Q 2900 1003 2900 1516 
L 2900 3500 
L 3475 3500 
L 3475 0 
L 2900 0 
L 2900 538 
Q 2691 219 2414 64 
Q 2138 -91 1772 -91 
Q 1169 -91 856 284 
Q 544 659 544 1381 
z
M 1991 3584 
L 1991 3584 
z
" transform="scale(0.015625)"/>
     </defs>
     <use xlink:href="#DejaVuSans-70"/>
     <use xlink:href="#DejaVuSans-72" transform="translate(63.476562 0)"/>
     <use xlink:href="#DejaVuSans-6f" transform="translate(102.339844 0)"/>
     <use xlink:href="#DejaVuSans-78" transform="translate(160.396484 0)"/>
     <use xlink:href="#DejaVuSans-79" transform="translate(219.576172 0)"/>
     <use xlink:href="#DejaVuSans-20" transform="translate(278.755859 0)"/>
     <use xlink:href="#DejaVuSans-73" transform="translate(310.542969 0)"/>
     <use xlink:href="#DejaVuSans-75" transform="translate(362.642578 0)"/>
     <use xlink:href="#DejaVuSans-70" transform="translate(426.021484 0)"/>
     <use xlink:href="#DejaVuSans-70" transform="translate(489.498047 0)"/>
     <use xlink:href="#DejaVuSans-6f" transform="translate(552.974609 0)"/>
     <use xlink:href="#DejaVuSans-72" transform="translate(614.15625 0)"/>
     <use xlink:href="#DejaVuSans-74" transform="translate(655.269531 0)"/>
     <use xlink:href="#DejaVuSans-20" transform="translate(694.478516 0)"/>
     <use xlink:href="#DejaVuSans-6f" transform="translate(726.265625 0)"/>
     <use xlink:href="#DejaVuSans-6e" transform="translate(787.447266 0)"/>
     <use xlink:href="#DejaVuSans-6c" transform="translate(850.826172 0)"/>
     <use xlink:href="#DejaVuSans-79" transform="translate(878.609375 0)"/>
    </g>
   </g>
   <g id="text_4">
    <!-- eMERGE-III inherited arrhythmia se -->
    <g style="fill: #222222" transform="translate(67.978047 130.309362) scale(0.07 -0.07)">
     <defs>
      <path id="DejaVuSans-2d" d="M 313 2009 
L 1997 2009 
L 1997 1497 
L 313 1497 
L 313 2009 
z
" transform="scale(0.015625)"/>
      <path id="DejaVuSans-49" d="M 628 4666 
L 1259 4666 
L 1259 0 
L 628 0 
L 628 4666 
z
" transform="scale(0.015625)"/>
      <path id="DejaVuSans-69" d="M 603 3500 
L 1178 3500 
L 1178 0 
L 603 0 
L 603 3500 
z
M 603 4863 
L 1178 4863 
L 1178 4134 
L 603 4134 
L 603 4863 
z
" transform="scale(0.015625)"/>
      <path id="DejaVuSans-64" d="M 2906 2969 
L 2906 4863 
L 3481 4863 
L 3481 0 
L 2906 0 
L 2906 525 
Q 2725 213 2448 61 
Q 2172 -91 1784 -91 
Q 1150 -91 751 415 
Q 353 922 353 1747 
Q 353 2572 751 3078 
Q 1150 3584 1784 3584 
Q 2172 3584 2448 3432 
Q 2725 3281 2906 2969 
z
M 947 1747 
Q 947 1113 1208 752 
Q 1469 391 1925 391 
Q 2381 391 2643 752 
Q 2906 1113 2906 1747 
Q 2906 2381 2643 2742 
Q 2381 3103 1925 3103 
Q 1469 3103 1208 2742 
Q 947 2381 947 1747 
z
" transform="scale(0.015625)"/>
      <path id="DejaVuSans-6d" d="M 3328 2828 
Q 3544 3216 3844 3400 
Q 4144 3584 4550 3584 
Q 5097 3584 5394 3201 
Q 5691 2819 5691 2113 
L 5691 0 
L 5113 0 
L 5113 2094 
Q 5113 2597 4934 2840 
Q 4756 3084 4391 3084 
Q 3944 3084 3684 2787 
Q 3425 2491 3425 1978 
L 3425 0 
L 2847 0 
L 2847 2094 
Q 2847 2600 2669 2842 
Q 2491 3084 2119 3084 
Q 1678 3084 1418 2786 
Q 1159 2488 1159 1978 
L 1159 0 
L 581 0 
L 581 3500 
L 1159 3500 
L 1159 2956 
Q 1356 3278 1631 3431 
Q 1906 3584 2284 3584 
Q 2666 3584 2933 3390 
Q 3200 3197 3328 2828 
z
" transform="scale(0.015625)"/>
     </defs>
     <use xlink:href="#DejaVuSans-65"/>
     <use xlink:href="#DejaVuSans-4d" transform="translate(61.523438 0)"/>
     <use xlink:href="#DejaVuSans-45" transform="translate(147.802734 0)"/>
     <use xlink:href="#DejaVuSans-52" transform="translate(210.986328 0)"/>
     <use xlink:href="#DejaVuSans-47" transform="translate(280.46875 0)"/>
     <use xlink:href="#DejaVuSans-45" transform="translate(357.958984 0)"/>
     <use xlink:href="#DejaVuSans-2d" transform="translate(421.142578 0)"/>
     <use xlink:href="#DejaVuSans-49" transform="translate(457.226562 0)"/>
     <use xlink:href="#DejaVuSans-49" transform="translate(486.71875 0)"/>
     <use xlink:href="#DejaVuSans-49" transform="translate(516.210938 0)"/>
     <use xlink:href="#DejaVuSans-20" transform="translate(545.703125 0)"/>
     <use xlink:href="#DejaVuSans-69" transform="translate(577.490234 0)"/>
     <use xlink:href="#DejaVuSans-6e" transform="translate(605.273438 0)"/>
     <use xlink:href="#DejaVuSans-68" transform="translate(668.652344 0)"/>
     <use xlink:href="#DejaVuSans-65" transform="translate(732.03125 0)"/>
     <use xlink:href="#DejaVuSans-72" transform="translate(793.554688 0)"/>
     <use xlink:href="#DejaVuSans-69" transform="translate(834.667969 0)"/>
     <use xlink:href="#DejaVuSans-74" transform="translate(862.451172 0)"/>
     <use xlink:href="#DejaVuSans-65" transform="translate(901.660156 0)"/>
     <use xlink:href="#DejaVuSans-64" transform="translate(963.183594 0)"/>
     <use xlink:href="#DejaVuSans-20" transform="translate(1026.660156 0)"/>
     <use xlink:href="#DejaVuSans-61" transform="translate(1058.447266 0)"/>
     <use xlink:href="#DejaVuSans-72" transform="translate(1119.726562 0)"/>
     <use xlink:href="#DejaVuSans-72" transform="translate(1159.089844 0)"/>
     <use xlink:href="#DejaVuSans-68" transform="translate(1198.453125 0)"/>
     <use xlink:href="#DejaVuSans-79" transform="translate(1261.832031 0)"/>
     <use xlink:href="#DejaVuSans-74" transform="translate(1321.011719 0)"/>
     <use xlink:href="#DejaVuSans-68" transform="translate(1360.220703 0)"/>
     <use xlink:href="#DejaVuSans-6d" transform="translate(1423.599609 0)"/>
     <use xlink:href="#DejaVuSans-69" transform="translate(1521.011719 0)"/>
     <use xlink:href="#DejaVuSans-61" transform="translate(1548.794922 0)"/>
     <use xlink:href="#DejaVuSans-20" transform="translate(1610.074219 0)"/>
     <use xlink:href="#DejaVuSans-73" transform="translate(1641.861328 0)"/>
     <use xlink:href="#DejaVuSans-65" transform="translate(1693.960938 0)"/>
    </g>
   </g>
   <g id="text_5">
    <!-- external_genotype_phenotype_proxy -->
    <g style="fill: #222222" transform="translate(277.695125 130.212019) scale(0.07 -0.07)">
     <use xlink:href="#DejaVuSans-65"/>
     <use xlink:href="#DejaVuSans-78" transform="translate(59.773438 0)"/>
     <use xlink:href="#DejaVuSans-74" transform="translate(118.953125 0)"/>
     <use xlink:href="#DejaVuSans-65" transform="translate(158.162109 0)"/>
     <use xlink:href="#DejaVuSans-72" transform="translate(219.685547 0)"/>
     <use xlink:href="#DejaVuSans-6e" transform="translate(259.048828 0)"/>
     <use xlink:href="#DejaVuSans-61" transform="translate(322.427734 0)"/>
     <use xlink:href="#DejaVuSans-6c" transform="translate(383.707031 0)"/>
     <use xlink:href="#DejaVuSans-5f" transform="translate(411.490234 0)"/>
     <use xlink:href="#DejaVuSans-67" transform="translate(461.490234 0)"/>
     <use xlink:href="#DejaVuSans-65" transform="translate(524.966797 0)"/>
     <use xlink:href="#DejaVuSans-6e" transform="translate(586.490234 0)"/>
     <use xlink:href="#DejaVuSans-6f" transform="translate(649.869141 0)"/>
     <use xlink:href="#DejaVuSans-74" transform="translate(711.050781 0)"/>
     <use xlink:href="#DejaVuSans-79" transform="translate(750.259766 0)"/>
     <use xlink:href="#DejaVuSans-70" transform="translate(809.439453 0)"/>
     <use xlink:href="#DejaVuSans-65" transform="translate(872.916016 0)"/>
     <use xlink:href="#DejaVuSans-5f" transform="translate(934.439453 0)"/>
     <use xlink:href="#DejaVuSans-70" transform="translate(984.439453 0)"/>
     <use xlink:href="#DejaVuSans-68" transform="translate(1047.916016 0)"/>
     <use xlink:href="#DejaVuSans-65" transform="translate(1111.294922 0)"/>
     <use xlink:href="#DejaVuSans-6e" transform="translate(1172.818359 0)"/>
     <use xlink:href="#DejaVuSans-6f" transform="translate(1236.197266 0)"/>
     <use xlink:href="#DejaVuSans-74" transform="translate(1297.378906 0)"/>
     <use xlink:href="#DejaVuSans-79" transform="translate(1336.587891 0)"/>
     <use xlink:href="#DejaVuSans-70" transform="translate(1395.767578 0)"/>
     <use xlink:href="#DejaVuSans-65" transform="translate(1459.244141 0)"/>
     <use xlink:href="#DejaVuSans-5f" transform="translate(1520.767578 0)"/>
     <use xlink:href="#DejaVuSans-70" transform="translate(1570.767578 0)"/>
     <use xlink:href="#DejaVuSans-72" transform="translate(1634.244141 0)"/>
     <use xlink:href="#DejaVuSans-6f" transform="translate(1673.107422 0)"/>
     <use xlink:href="#DejaVuSans-78" transform="translate(1731.164062 0)"/>
     <use xlink:href="#DejaVuSans-79" transform="translate(1790.34375 0)"/>
    </g>
   </g>
   <g id="text_6">
    <!-- proxy support only -->
    <g style="fill: #222222" transform="translate(529.604563 130.309362) scale(0.07 -0.07)">
     <use xlink:href="#DejaVuSans-70"/>
     <use xlink:href="#DejaVuSans-72" transform="translate(63.476562 0)"/>
     <use xlink:href="#DejaVuSans-6f" transform="translate(102.339844 0)"/>
     <use xlink:href="#DejaVuSans-78" transform="translate(160.396484 0)"/>
     <use xlink:href="#DejaVuSans-79" transform="translate(219.576172 0)"/>
     <use xlink:href="#DejaVuSans-20" transform="translate(278.755859 0)"/>
     <use xlink:href="#DejaVuSans-73" transform="translate(310.542969 0)"/>
     <use xlink:href="#DejaVuSans-75" transform="translate(362.642578 0)"/>
     <use xlink:href="#DejaVuSans-70" transform="translate(426.021484 0)"/>
     <use xlink:href="#DejaVuSans-70" transform="translate(489.498047 0)"/>
     <use xlink:href="#DejaVuSans-6f" transform="translate(552.974609 0)"/>
     <use xlink:href="#DejaVuSans-72" transform="translate(614.15625 0)"/>
     <use xlink:href="#DejaVuSans-74" transform="translate(655.269531 0)"/>
     <use xlink:href="#DejaVuSans-20" transform="translate(694.478516 0)"/>
     <use xlink:href="#DejaVuSans-6f" transform="translate(726.265625 0)"/>
     <use xlink:href="#DejaVuSans-6e" transform="translate(787.447266 0)"/>
     <use xlink:href="#DejaVuSans-6c" transform="translate(850.826172 0)"/>
     <use xlink:href="#DejaVuSans-79" transform="translate(878.609375 0)"/>
    </g>
   </g>
   <g id="text_7">
    <!-- ClinGen Evidence Repository -->
    <g style="fill: #222222" transform="translate(78.966406 159.566562) scale(0.07 -0.07)">
     <defs>
      <path id="DejaVuSans-76" d="M 191 3500 
L 800 3500 
L 1894 563 
L 2988 3500 
L 3597 3500 
L 2284 0 
L 1503 0 
L 191 3500 
z
" transform="scale(0.015625)"/>
      <path id="DejaVuSans-63" d="M 3122 3366 
L 3122 2828 
Q 2878 2963 2633 3030 
Q 2388 3097 2138 3097 
Q 1578 3097 1268 2742 
Q 959 2388 959 1747 
Q 959 1106 1268 751 
Q 1578 397 2138 397 
Q 2388 397 2633 464 
Q 2878 531 3122 666 
L 3122 134 
Q 2881 22 2623 -34 
Q 2366 -91 2075 -91 
Q 1284 -91 818 406 
Q 353 903 353 1747 
Q 353 2603 823 3093 
Q 1294 3584 2113 3584 
Q 2378 3584 2631 3529 
Q 2884 3475 3122 3366 
z
" transform="scale(0.015625)"/>
     </defs>
     <use xlink:href="#DejaVuSans-43"/>
     <use xlink:href="#DejaVuSans-6c" transform="translate(69.824219 0)"/>
     <use xlink:href="#DejaVuSans-69" transform="translate(97.607422 0)"/>
     <use xlink:href="#DejaVuSans-6e" transform="translate(125.390625 0)"/>
     <use xlink:href="#DejaVuSans-47" transform="translate(188.769531 0)"/>
     <use xlink:href="#DejaVuSans-65" transform="translate(266.259766 0)"/>
     <use xlink:href="#DejaVuSans-6e" transform="translate(327.783203 0)"/>
     <use xlink:href="#DejaVuSans-20" transform="translate(391.162109 0)"/>
     <use xlink:href="#DejaVuSans-45" transform="translate(422.949219 0)"/>
     <use xlink:href="#DejaVuSans-76" transform="translate(486.132812 0)"/>
     <use xlink:href="#DejaVuSans-69" transform="translate(545.3125 0)"/>
     <use xlink:href="#DejaVuSans-64" transform="translate(573.095703 0)"/>
     <use xlink:href="#DejaVuSans-65" transform="translate(636.572266 0)"/>
     <use xlink:href="#DejaVuSans-6e" transform="translate(698.095703 0)"/>
     <use xlink:href="#DejaVuSans-63" transform="translate(761.474609 0)"/>
     <use xlink:href="#DejaVuSans-65" transform="translate(816.455078 0)"/>
     <use xlink:href="#DejaVuSans-20" transform="translate(877.978516 0)"/>
     <use xlink:href="#DejaVuSans-52" transform="translate(909.765625 0)"/>
     <use xlink:href="#DejaVuSans-65" transform="translate(974.748047 0)"/>
     <use xlink:href="#DejaVuSans-70" transform="translate(1036.271484 0)"/>
     <use xlink:href="#DejaVuSans-6f" transform="translate(1099.748047 0)"/>
     <use xlink:href="#DejaVuSans-73" transform="translate(1160.929688 0)"/>
     <use xlink:href="#DejaVuSans-69" transform="translate(1213.029297 0)"/>
     <use xlink:href="#DejaVuSans-74" transform="translate(1240.8125 0)"/>
     <use xlink:href="#DejaVuSans-6f" transform="translate(1280.021484 0)"/>
     <use xlink:href="#DejaVuSans-72" transform="translate(1341.203125 0)"/>
     <use xlink:href="#DejaVuSans-79" transform="translate(1382.316406 0)"/>
    </g>
   </g>
   <g id="text_8">
    <!-- expert_curation_comparator -->
    <g style="fill: #222222" transform="translate(292.773016 159.469219) scale(0.07 -0.07)">
     <use xlink:href="#DejaVuSans-65"/>
     <use xlink:href="#DejaVuSans-78" transform="translate(59.773438 0)"/>
     <use xlink:href="#DejaVuSans-70" transform="translate(118.953125 0)"/>
     <use xlink:href="#DejaVuSans-65" transform="translate(182.429688 0)"/>
     <use xlink:href="#DejaVuSans-72" transform="translate(243.953125 0)"/>
     <use xlink:href="#DejaVuSans-74" transform="translate(285.066406 0)"/>
     <use xlink:href="#DejaVuSans-5f" transform="translate(324.275391 0)"/>
     <use xlink:href="#DejaVuSans-63" transform="translate(374.275391 0)"/>
     <use xlink:href="#DejaVuSans-75" transform="translate(429.255859 0)"/>
     <use xlink:href="#DejaVuSans-72" transform="translate(492.634766 0)"/>
     <use xlink:href="#DejaVuSans-61" transform="translate(533.748047 0)"/>
     <use xlink:href="#DejaVuSans-74" transform="translate(595.027344 0)"/>
     <use xlink:href="#DejaVuSans-69" transform="translate(634.236328 0)"/>
     <use xlink:href="#DejaVuSans-6f" transform="translate(662.019531 0)"/>
     <use xlink:href="#DejaVuSans-6e" transform="translate(723.201172 0)"/>
     <use xlink:href="#DejaVuSans-5f" transform="translate(786.580078 0)"/>
     <use xlink:href="#DejaVuSans-63" transform="translate(836.580078 0)"/>
     <use xlink:href="#DejaVuSans-6f" transform="translate(891.560547 0)"/>
     <use xlink:href="#DejaVuSans-6d" transform="translate(952.742188 0)"/>
     <use xlink:href="#DejaVuSans-70" transform="translate(1050.154297 0)"/>
     <use xlink:href="#DejaVuSans-61" transform="translate(1113.630859 0)"/>
     <use xlink:href="#DejaVuSans-72" transform="translate(1174.910156 0)"/>
     <use xlink:href="#DejaVuSans-61" transform="translate(1216.023438 0)"/>
     <use xlink:href="#DejaVuSans-74" transform="translate(1277.302734 0)"/>
     <use xlink:href="#DejaVuSans-6f" transform="translate(1316.511719 0)"/>
     <use xlink:href="#DejaVuSans-72" transform="translate(1377.693359 0)"/>
    </g>
   </g>
   <g id="text_9">
    <!-- proxy support only -->
    <g style="fill: #222222" transform="translate(529.604563 159.566562) scale(0.07 -0.07)">
     <use xlink:href="#DejaVuSans-70"/>
     <use xlink:href="#DejaVuSans-72" transform="translate(63.476562 0)"/>
     <use xlink:href="#DejaVuSans-6f" transform="translate(102.339844 0)"/>
     <use xlink:href="#DejaVuSans-78" transform="translate(160.396484 0)"/>
     <use xlink:href="#DejaVuSans-79" transform="translate(219.576172 0)"/>
     <use xlink:href="#DejaVuSans-20" transform="translate(278.755859 0)"/>
     <use xlink:href="#DejaVuSans-73" transform="translate(310.542969 0)"/>
     <use xlink:href="#DejaVuSans-75" transform="translate(362.642578 0)"/>
     <use xlink:href="#DejaVuSans-70" transform="translate(426.021484 0)"/>
     <use xlink:href="#DejaVuSans-70" transform="translate(489.498047 0)"/>
     <use xlink:href="#DejaVuSans-6f" transform="translate(552.974609 0)"/>
     <use xlink:href="#DejaVuSans-72" transform="translate(614.15625 0)"/>
     <use xlink:href="#DejaVuSans-74" transform="translate(655.269531 0)"/>
     <use xlink:href="#DejaVuSans-20" transform="translate(694.478516 0)"/>
     <use xlink:href="#DejaVuSans-6f" transform="translate(726.265625 0)"/>
     <use xlink:href="#DejaVuSans-6e" transform="translate(787.447266 0)"/>
     <use xlink:href="#DejaVuSans-6c" transform="translate(850.826172 0)"/>
     <use xlink:href="#DejaVuSans-79" transform="translate(878.609375 0)"/>
    </g>
   </g>
   <g id="text_10">
    <!-- Personal Genome Project -->
    <g style="fill: #222222" transform="translate(85.557891 188.823762) scale(0.07 -0.07)">
     <defs>
      <path id="DejaVuSans-50" d="M 1259 4147 
L 1259 2394 
L 2053 2394 
Q 2494 2394 2734 2622 
Q 2975 2850 2975 3272 
Q 2975 3691 2734 3919 
Q 2494 4147 2053 4147 
L 1259 4147 
z
M 628 4666 
L 2053 4666 
Q 2838 4666 3239 4311 
Q 3641 3956 3641 3272 
Q 3641 2581 3239 2228 
Q 2838 1875 2053 1875 
L 1259 1875 
L 1259 0 
L 628 0 
L 628 4666 
z
" transform="scale(0.015625)"/>
      <path id="DejaVuSans-6a" d="M 603 3500 
L 1178 3500 
L 1178 -63 
Q 1178 -731 923 -1031 
Q 669 -1331 103 -1331 
L -116 -1331 
L -116 -844 
L 38 -844 
Q 366 -844 484 -692 
Q 603 -541 603 -63 
L 603 3500 
z
M 603 4863 
L 1178 4863 
L 1178 4134 
L 603 4134 
L 603 4863 
z
" transform="scale(0.015625)"/>
     </defs>
     <use xlink:href="#DejaVuSans-50"/>
     <use xlink:href="#DejaVuSans-65" transform="translate(56.677734 0)"/>
     <use xlink:href="#DejaVuSans-72" transform="translate(118.201172 0)"/>
     <use xlink:href="#DejaVuSans-73" transform="translate(159.314453 0)"/>
     <use xlink:href="#DejaVuSans-6f" transform="translate(211.414062 0)"/>
     <use xlink:href="#DejaVuSans-6e" transform="translate(272.595703 0)"/>
     <use xlink:href="#DejaVuSans-61" transform="translate(335.974609 0)"/>
     <use xlink:href="#DejaVuSans-6c" transform="translate(397.253906 0)"/>
     <use xlink:href="#DejaVuSans-20" transform="translate(425.037109 0)"/>
     <use xlink:href="#DejaVuSans-47" transform="translate(456.824219 0)"/>
     <use xlink:href="#DejaVuSans-65" transform="translate(534.314453 0)"/>
     <use xlink:href="#DejaVuSans-6e" transform="translate(595.837891 0)"/>
     <use xlink:href="#DejaVuSans-6f" transform="translate(659.216797 0)"/>
     <use xlink:href="#DejaVuSans-6d" transform="translate(720.398438 0)"/>
     <use xlink:href="#DejaVuSans-65" transform="translate(817.810547 0)"/>
     <use xlink:href="#DejaVuSans-20" transform="translate(879.333984 0)"/>
     <use xlink:href="#DejaVuSans-50" transform="translate(911.121094 0)"/>
     <use xlink:href="#DejaVuSans-72" transform="translate(969.673828 0)"/>
     <use xlink:href="#DejaVuSans-6f" transform="translate(1008.537109 0)"/>
     <use xlink:href="#DejaVuSans-6a" transform="translate(1069.71875 0)"/>
     <use xlink:href="#DejaVuSans-65" transform="translate(1097.501953 0)"/>
     <use xlink:href="#DejaVuSans-63" transform="translate(1159.025391 0)"/>
     <use xlink:href="#DejaVuSans-74" transform="translate(1214.005859 0)"/>
    </g>
   </g>
   <g id="text_11">
    <!-- open_individual_demo -->
    <g style="fill: #222222" transform="translate(303.2845 188.726419) scale(0.07 -0.07)">
     <use xlink:href="#DejaVuSans-6f"/>
     <use xlink:href="#DejaVuSans-70" transform="translate(61.181641 0)"/>
     <use xlink:href="#DejaVuSans-65" transform="translate(124.658203 0)"/>
     <use xlink:href="#DejaVuSans-6e" transform="translate(186.181641 0)"/>
     <use xlink:href="#DejaVuSans-5f" transform="translate(249.560547 0)"/>
     <use xlink:href="#DejaVuSans-69" transform="translate(299.560547 0)"/>
     <use xlink:href="#DejaVuSans-6e" transform="translate(327.34375 0)"/>
     <use xlink:href="#DejaVuSans-64" transform="translate(390.722656 0)"/>
     <use xlink:href="#DejaVuSans-69" transform="translate(454.199219 0)"/>
     <use xlink:href="#DejaVuSans-76" transform="translate(481.982422 0)"/>
     <use xlink:href="#DejaVuSans-69" transform="translate(541.162109 0)"/>
     <use xlink:href="#DejaVuSans-64" transform="translate(568.945312 0)"/>
     <use xlink:href="#DejaVuSans-75" transform="translate(632.421875 0)"/>
     <use xlink:href="#DejaVuSans-61" transform="translate(695.800781 0)"/>
     <use xlink:href="#DejaVuSans-6c" transform="translate(757.080078 0)"/>
     <use xlink:href="#DejaVuSans-5f" transform="translate(784.863281 0)"/>
     <use xlink:href="#DejaVuSans-64" transform="translate(834.863281 0)"/>
     <use xlink:href="#DejaVuSans-65" transform="translate(898.339844 0)"/>
     <use xlink:href="#DejaVuSans-6d" transform="translate(959.863281 0)"/>
     <use xlink:href="#DejaVuSans-6f" transform="translate(1057.275391 0)"/>
    </g>
   </g>
   <g id="text_12">
    <!-- proxy support only -->
    <g style="fill: #222222" transform="translate(529.604563 188.823762) scale(0.07 -0.07)">
     <use xlink:href="#DejaVuSans-70"/>
     <use xlink:href="#DejaVuSans-72" transform="translate(63.476562 0)"/>
     <use xlink:href="#DejaVuSans-6f" transform="translate(102.339844 0)"/>
     <use xlink:href="#DejaVuSans-78" transform="translate(160.396484 0)"/>
     <use xlink:href="#DejaVuSans-79" transform="translate(219.576172 0)"/>
     <use xlink:href="#DejaVuSans-20" transform="translate(278.755859 0)"/>
     <use xlink:href="#DejaVuSans-73" transform="translate(310.542969 0)"/>
     <use xlink:href="#DejaVuSans-75" transform="translate(362.642578 0)"/>
     <use xlink:href="#DejaVuSans-70" transform="translate(426.021484 0)"/>
     <use xlink:href="#DejaVuSans-70" transform="translate(489.498047 0)"/>
     <use xlink:href="#DejaVuSans-6f" transform="translate(552.974609 0)"/>
     <use xlink:href="#DejaVuSans-72" transform="translate(614.15625 0)"/>
     <use xlink:href="#DejaVuSans-74" transform="translate(655.269531 0)"/>
     <use xlink:href="#DejaVuSans-20" transform="translate(694.478516 0)"/>
     <use xlink:href="#DejaVuSans-6f" transform="translate(726.265625 0)"/>
     <use xlink:href="#DejaVuSans-6e" transform="translate(787.447266 0)"/>
     <use xlink:href="#DejaVuSans-6c" transform="translate(850.826172 0)"/>
     <use xlink:href="#DejaVuSans-79" transform="translate(878.609375 0)"/>
    </g>
   </g>
   <g id="text_13">
    <!-- DiscovEHR -->
    <g style="fill: #222222" transform="translate(110.516172 218.080962) scale(0.07 -0.07)">
     <defs>
      <path id="DejaVuSans-44" d="M 1259 4147 
L 1259 519 
L 2022 519 
Q 2988 519 3436 956 
Q 3884 1394 3884 2338 
Q 3884 3275 3436 3711 
Q 2988 4147 2022 4147 
L 1259 4147 
z
M 628 4666 
L 1925 4666 
Q 3281 4666 3915 4102 
Q 4550 3538 4550 2338 
Q 4550 1131 3912 565 
Q 3275 0 1925 0 
L 628 0 
L 628 4666 
z
" transform="scale(0.015625)"/>
     </defs>
     <use xlink:href="#DejaVuSans-44"/>
     <use xlink:href="#DejaVuSans-69" transform="translate(77.001953 0)"/>
     <use xlink:href="#DejaVuSans-73" transform="translate(104.785156 0)"/>
     <use xlink:href="#DejaVuSans-63" transform="translate(156.884766 0)"/>
     <use xlink:href="#DejaVuSans-6f" transform="translate(211.865234 0)"/>
     <use xlink:href="#DejaVuSans-76" transform="translate(273.046875 0)"/>
     <use xlink:href="#DejaVuSans-45" transform="translate(332.226562 0)"/>
     <use xlink:href="#DejaVuSans-48" transform="translate(395.410156 0)"/>
     <use xlink:href="#DejaVuSans-52" transform="translate(470.605469 0)"/>
    </g>
   </g>
   <g id="text_14">
    <!-- penetrance_rationale -->
    <g style="fill: #222222" transform="translate(305.124187 217.983619) scale(0.07 -0.07)">
     <use xlink:href="#DejaVuSans-70"/>
     <use xlink:href="#DejaVuSans-65" transform="translate(63.476562 0)"/>
     <use xlink:href="#DejaVuSans-6e" transform="translate(125 0)"/>
     <use xlink:href="#DejaVuSans-65" transform="translate(188.378906 0)"/>
     <use xlink:href="#DejaVuSans-74" transform="translate(249.902344 0)"/>
     <use xlink:href="#DejaVuSans-72" transform="translate(289.111328 0)"/>
     <use xlink:href="#DejaVuSans-61" transform="translate(330.224609 0)"/>
     <use xlink:href="#DejaVuSans-6e" transform="translate(391.503906 0)"/>
     <use xlink:href="#DejaVuSans-63" transform="translate(454.882812 0)"/>
     <use xlink:href="#DejaVuSans-65" transform="translate(509.863281 0)"/>
     <use xlink:href="#DejaVuSans-5f" transform="translate(571.386719 0)"/>
     <use xlink:href="#DejaVuSans-72" transform="translate(621.386719 0)"/>
     <use xlink:href="#DejaVuSans-61" transform="translate(662.5 0)"/>
     <use xlink:href="#DejaVuSans-74" transform="translate(723.779297 0)"/>
     <use xlink:href="#DejaVuSans-69" transform="translate(762.988281 0)"/>
     <use xlink:href="#DejaVuSans-6f" transform="translate(790.771484 0)"/>
     <use xlink:href="#DejaVuSans-6e" transform="translate(851.953125 0)"/>
     <use xlink:href="#DejaVuSans-61" transform="translate(915.332031 0)"/>
     <use xlink:href="#DejaVuSans-6c" transform="translate(976.611328 0)"/>
     <use xlink:href="#DejaVuSans-65" transform="translate(1004.394531 0)"/>
    </g>
   </g>
   <g id="text_15">
    <!-- proxy support only -->
    <g style="fill: #222222" transform="translate(529.604563 218.080962) scale(0.07 -0.07)">
     <use xlink:href="#DejaVuSans-70"/>
     <use xlink:href="#DejaVuSans-72" transform="translate(63.476562 0)"/>
     <use xlink:href="#DejaVuSans-6f" transform="translate(102.339844 0)"/>
     <use xlink:href="#DejaVuSans-78" transform="translate(160.396484 0)"/>
     <use xlink:href="#DejaVuSans-79" transform="translate(219.576172 0)"/>
     <use xlink:href="#DejaVuSans-20" transform="translate(278.755859 0)"/>
     <use xlink:href="#DejaVuSans-73" transform="translate(310.542969 0)"/>
     <use xlink:href="#DejaVuSans-75" transform="translate(362.642578 0)"/>
     <use xlink:href="#DejaVuSans-70" transform="translate(426.021484 0)"/>
     <use xlink:href="#DejaVuSans-70" transform="translate(489.498047 0)"/>
     <use xlink:href="#DejaVuSans-6f" transform="translate(552.974609 0)"/>
     <use xlink:href="#DejaVuSans-72" transform="translate(614.15625 0)"/>
     <use xlink:href="#DejaVuSans-74" transform="translate(655.269531 0)"/>
     <use xlink:href="#DejaVuSans-20" transform="translate(694.478516 0)"/>
     <use xlink:href="#DejaVuSans-6f" transform="translate(726.265625 0)"/>
     <use xlink:href="#DejaVuSans-6e" transform="translate(787.447266 0)"/>
     <use xlink:href="#DejaVuSans-6c" transform="translate(850.826172 0)"/>
     <use xlink:href="#DejaVuSans-79" transform="translate(878.609375 0)"/>
    </g>
   </g>
   <g id="text_16">
    <!-- LOVD -->
    <g style="fill: #222222" transform="translate(119.813594 247.338162) scale(0.07 -0.07)">
     <defs>
      <path id="DejaVuSans-4c" d="M 628 4666 
L 1259 4666 
L 1259 531 
L 3531 531 
L 3531 0 
L 628 0 
L 628 4666 
z
" transform="scale(0.015625)"/>
      <path id="DejaVuSans-4f" d="M 2522 4238 
Q 1834 4238 1429 3725 
Q 1025 3213 1025 2328 
Q 1025 1447 1429 934 
Q 1834 422 2522 422 
Q 3209 422 3611 934 
Q 4013 1447 4013 2328 
Q 4013 3213 3611 3725 
Q 3209 4238 2522 4238 
z
M 2522 4750 
Q 3503 4750 4090 4092 
Q 4678 3434 4678 2328 
Q 4678 1225 4090 567 
Q 3503 -91 2522 -91 
Q 1538 -91 948 565 
Q 359 1222 359 2328 
Q 359 3434 948 4092 
Q 1538 4750 2522 4750 
z
" transform="scale(0.015625)"/>
      <path id="DejaVuSans-56" d="M 1831 0 
L 50 4666 
L 709 4666 
L 2188 738 
L 3669 4666 
L 4325 4666 
L 2547 0 
L 1831 0 
z
" transform="scale(0.015625)"/>
     </defs>
     <use xlink:href="#DejaVuSans-4c"/>
     <use xlink:href="#DejaVuSans-4f" transform="translate(52.087891 0)"/>
     <use xlink:href="#DejaVuSans-56" transform="translate(129.048828 0)"/>
     <use xlink:href="#DejaVuSans-44" transform="translate(197.457031 0)"/>
    </g>
   </g>
   <g id="text_17">
    <!-- feasibility_only -->
    <g style="fill: #222222" transform="translate(316.369578 247.240819) scale(0.07 -0.07)">
     <defs>
      <path id="DejaVuSans-66" d="M 2375 4863 
L 2375 4384 
L 1825 4384 
Q 1516 4384 1395 4259 
Q 1275 4134 1275 3809 
L 1275 3500 
L 2222 3500 
L 2222 3053 
L 1275 3053 
L 1275 0 
L 697 0 
L 697 3053 
L 147 3053 
L 147 3500 
L 697 3500 
L 697 3744 
Q 697 4328 969 4595 
Q 1241 4863 1831 4863 
L 2375 4863 
z
" transform="scale(0.015625)"/>
      <path id="DejaVuSans-62" d="M 3116 1747 
Q 3116 2381 2855 2742 
Q 2594 3103 2138 3103 
Q 1681 3103 1420 2742 
Q 1159 2381 1159 1747 
Q 1159 1113 1420 752 
Q 1681 391 2138 391 
Q 2594 391 2855 752 
Q 3116 1113 3116 1747 
z
M 1159 2969 
Q 1341 3281 1617 3432 
Q 1894 3584 2278 3584 
Q 2916 3584 3314 3078 
Q 3713 2572 3713 1747 
Q 3713 922 3314 415 
Q 2916 -91 2278 -91 
Q 1894 -91 1617 61 
Q 1341 213 1159 525 
L 1159 0 
L 581 0 
L 581 4863 
L 1159 4863 
L 1159 2969 
z
" transform="scale(0.015625)"/>
     </defs>
     <use xlink:href="#DejaVuSans-66"/>
     <use xlink:href="#DejaVuSans-65" transform="translate(35.205078 0)"/>
     <use xlink:href="#DejaVuSans-61" transform="translate(96.728516 0)"/>
     <use xlink:href="#DejaVuSans-73" transform="translate(158.007812 0)"/>
     <use xlink:href="#DejaVuSans-69" transform="translate(210.107422 0)"/>
     <use xlink:href="#DejaVuSans-62" transform="translate(237.890625 0)"/>
     <use xlink:href="#DejaVuSans-69" transform="translate(301.367188 0)"/>
     <use xlink:href="#DejaVuSans-6c" transform="translate(329.150391 0)"/>
     <use xlink:href="#DejaVuSans-69" transform="translate(356.933594 0)"/>
     <use xlink:href="#DejaVuSans-74" transform="translate(384.716797 0)"/>
     <use xlink:href="#DejaVuSans-79" transform="translate(423.925781 0)"/>
     <use xlink:href="#DejaVuSans-5f" transform="translate(483.105469 0)"/>
     <use xlink:href="#DejaVuSans-6f" transform="translate(533.105469 0)"/>
     <use xlink:href="#DejaVuSans-6e" transform="translate(594.287109 0)"/>
     <use xlink:href="#DejaVuSans-6c" transform="translate(657.666016 0)"/>
     <use xlink:href="#DejaVuSans-79" transform="translate(685.449219 0)"/>
    </g>
   </g>
   <g id="text_18">
    <!-- proxy support only -->
    <g style="fill: #222222" transform="translate(529.604563 247.338162) scale(0.07 -0.07)">
     <use xlink:href="#DejaVuSans-70"/>
     <use xlink:href="#DejaVuSans-72" transform="translate(63.476562 0)"/>
     <use xlink:href="#DejaVuSans-6f" transform="translate(102.339844 0)"/>
     <use xlink:href="#DejaVuSans-78" transform="translate(160.396484 0)"/>
     <use xlink:href="#DejaVuSans-79" transform="translate(219.576172 0)"/>
     <use xlink:href="#DejaVuSans-20" transform="translate(278.755859 0)"/>
     <use xlink:href="#DejaVuSans-73" transform="translate(310.542969 0)"/>
     <use xlink:href="#DejaVuSans-75" transform="translate(362.642578 0)"/>
     <use xlink:href="#DejaVuSans-70" transform="translate(426.021484 0)"/>
     <use xlink:href="#DejaVuSans-70" transform="translate(489.498047 0)"/>
     <use xlink:href="#DejaVuSans-6f" transform="translate(552.974609 0)"/>
     <use xlink:href="#DejaVuSans-72" transform="translate(614.15625 0)"/>
     <use xlink:href="#DejaVuSans-74" transform="translate(655.269531 0)"/>
     <use xlink:href="#DejaVuSans-20" transform="translate(694.478516 0)"/>
     <use xlink:href="#DejaVuSans-6f" transform="translate(726.265625 0)"/>
     <use xlink:href="#DejaVuSans-6e" transform="translate(787.447266 0)"/>
     <use xlink:href="#DejaVuSans-6c" transform="translate(850.826172 0)"/>
     <use xlink:href="#DejaVuSans-79" transform="translate(878.609375 0)"/>
    </g>
   </g>
   <g id="text_19">
    <!-- PhysioNet ECG/rhythm datasets -->
    <g style="fill: #222222" transform="translate(73.444609 276.595362) scale(0.07 -0.07)">
     <use xlink:href="#DejaVuSans-50"/>
     <use xlink:href="#DejaVuSans-68" transform="translate(60.302734 0)"/>
     <use xlink:href="#DejaVuSans-79" transform="translate(123.681641 0)"/>
     <use xlink:href="#DejaVuSans-73" transform="translate(182.861328 0)"/>
     <use xlink:href="#DejaVuSans-69" transform="translate(234.960938 0)"/>
     <use xlink:href="#DejaVuSans-6f" transform="translate(262.744141 0)"/>
     <use xlink:href="#DejaVuSans-4e" transform="translate(323.925781 0)"/>
     <use xlink:href="#DejaVuSans-65" transform="translate(398.730469 0)"/>
     <use xlink:href="#DejaVuSans-74" transform="translate(460.253906 0)"/>
     <use xlink:href="#DejaVuSans-20" transform="translate(499.462891 0)"/>
     <use xlink:href="#DejaVuSans-45" transform="translate(531.25 0)"/>
     <use xlink:href="#DejaVuSans-43" transform="translate(594.433594 0)"/>
     <use xlink:href="#DejaVuSans-47" transform="translate(664.257812 0)"/>
     <use xlink:href="#DejaVuSans-2f" transform="translate(741.748047 0)"/>
     <use xlink:href="#DejaVuSans-72" transform="translate(775.439453 0)"/>
     <use xlink:href="#DejaVuSans-68" transform="translate(814.802734 0)"/>
     <use xlink:href="#DejaVuSans-79" transform="translate(878.181641 0)"/>
     <use xlink:href="#DejaVuSans-74" transform="translate(937.361328 0)"/>
     <use xlink:href="#DejaVuSans-68" transform="translate(976.570312 0)"/>
     <use xlink:href="#DejaVuSans-6d" transform="translate(1039.949219 0)"/>
     <use xlink:href="#DejaVuSans-20" transform="translate(1137.361328 0)"/>
     <use xlink:href="#DejaVuSans-64" transform="translate(1169.148438 0)"/>
     <use xlink:href="#DejaVuSans-61" transform="translate(1232.625 0)"/>
     <use xlink:href="#DejaVuSans-74" transform="translate(1293.904297 0)"/>
     <use xlink:href="#DejaVuSans-61" transform="translate(1333.113281 0)"/>
     <use xlink:href="#DejaVuSans-73" transform="translate(1394.392578 0)"/>
     <use xlink:href="#DejaVuSans-65" transform="translate(1446.492188 0)"/>
     <use xlink:href="#DejaVuSans-74" transform="translate(1508.015625 0)"/>
     <use xlink:href="#DejaVuSans-73" transform="translate(1547.224609 0)"/>
    </g>
   </g>
   <g id="text_20">
    <!-- feasibility_only -->
    <g style="fill: #222222" transform="translate(316.369578 276.498019) scale(0.07 -0.07)">
     <use xlink:href="#DejaVuSans-66"/>
     <use xlink:href="#DejaVuSans-65" transform="translate(35.205078 0)"/>
     <use xlink:href="#DejaVuSans-61" transform="translate(96.728516 0)"/>
     <use xlink:href="#DejaVuSans-73" transform="translate(158.007812 0)"/>
     <use xlink:href="#DejaVuSans-69" transform="translate(210.107422 0)"/>
     <use xlink:href="#DejaVuSans-62" transform="translate(237.890625 0)"/>
     <use xlink:href="#DejaVuSans-69" transform="translate(301.367188 0)"/>
     <use xlink:href="#DejaVuSans-6c" transform="translate(329.150391 0)"/>
     <use xlink:href="#DejaVuSans-69" transform="translate(356.933594 0)"/>
     <use xlink:href="#DejaVuSans-74" transform="translate(384.716797 0)"/>
     <use xlink:href="#DejaVuSans-79" transform="translate(423.925781 0)"/>
     <use xlink:href="#DejaVuSans-5f" transform="translate(483.105469 0)"/>
     <use xlink:href="#DejaVuSans-6f" transform="translate(533.105469 0)"/>
     <use xlink:href="#DejaVuSans-6e" transform="translate(594.287109 0)"/>
     <use xlink:href="#DejaVuSans-6c" transform="translate(657.666016 0)"/>
     <use xlink:href="#DejaVuSans-79" transform="translate(685.449219 0)"/>
    </g>
   </g>
   <g id="text_21">
    <!-- proxy support only -->
    <g style="fill: #222222" transform="translate(529.604563 276.595362) scale(0.07 -0.07)">
     <use xlink:href="#DejaVuSans-70"/>
     <use xlink:href="#DejaVuSans-72" transform="translate(63.476562 0)"/>
     <use xlink:href="#DejaVuSans-6f" transform="translate(102.339844 0)"/>
     <use xlink:href="#DejaVuSans-78" transform="translate(160.396484 0)"/>
     <use xlink:href="#DejaVuSans-79" transform="translate(219.576172 0)"/>
     <use xlink:href="#DejaVuSans-20" transform="translate(278.755859 0)"/>
     <use xlink:href="#DejaVuSans-73" transform="translate(310.542969 0)"/>
     <use xlink:href="#DejaVuSans-75" transform="translate(362.642578 0)"/>
     <use xlink:href="#DejaVuSans-70" transform="translate(426.021484 0)"/>
     <use xlink:href="#DejaVuSans-70" transform="translate(489.498047 0)"/>
     <use xlink:href="#DejaVuSans-6f" transform="translate(552.974609 0)"/>
     <use xlink:href="#DejaVuSans-72" transform="translate(614.15625 0)"/>
     <use xlink:href="#DejaVuSans-74" transform="translate(655.269531 0)"/>
     <use xlink:href="#DejaVuSans-20" transform="translate(694.478516 0)"/>
     <use xlink:href="#DejaVuSans-6f" transform="translate(726.265625 0)"/>
     <use xlink:href="#DejaVuSans-6e" transform="translate(787.447266 0)"/>
     <use xlink:href="#DejaVuSans-6c" transform="translate(850.826172 0)"/>
     <use xlink:href="#DejaVuSans-79" transform="translate(878.609375 0)"/>
    </g>
   </g>
  </g>
  <g id="text_22">
   <!-- Supplementary Figure 7. External evidence stack -->
   <g style="fill: #222222" transform="translate(10.8 17.077969) scale(0.13 -0.13)">
    <defs>
     <path id="DejaVuSans-Bold-53" d="M 3834 4519 
L 3834 3531 
Q 3450 3703 3084 3790 
Q 2719 3878 2394 3878 
Q 1963 3878 1756 3759 
Q 1550 3641 1550 3391 
Q 1550 3203 1689 3098 
Q 1828 2994 2194 2919 
L 2706 2816 
Q 3484 2659 3812 2340 
Q 4141 2022 4141 1434 
Q 4141 663 3683 286 
Q 3225 -91 2284 -91 
Q 1841 -91 1394 -6 
Q 947 78 500 244 
L 500 1259 
Q 947 1022 1364 901 
Q 1781 781 2169 781 
Q 2563 781 2772 912 
Q 2981 1044 2981 1288 
Q 2981 1506 2839 1625 
Q 2697 1744 2272 1838 
L 1806 1941 
Q 1106 2091 782 2419 
Q 459 2747 459 3303 
Q 459 4000 909 4375 
Q 1359 4750 2203 4750 
Q 2588 4750 2994 4692 
Q 3400 4634 3834 4519 
z
" transform="scale(0.015625)"/>
     <path id="DejaVuSans-Bold-75" d="M 500 1363 
L 500 3500 
L 1625 3500 
L 1625 3150 
Q 1625 2866 1622 2436 
Q 1619 2006 1619 1863 
Q 1619 1441 1641 1255 
Q 1663 1069 1716 984 
Q 1784 875 1895 815 
Q 2006 756 2150 756 
Q 2500 756 2700 1025 
Q 2900 1294 2900 1772 
L 2900 3500 
L 4019 3500 
L 4019 0 
L 2900 0 
L 2900 506 
Q 2647 200 2364 54 
Q 2081 -91 1741 -91 
Q 1134 -91 817 281 
Q 500 653 500 1363 
z
" transform="scale(0.015625)"/>
     <path id="DejaVuSans-Bold-70" d="M 1656 506 
L 1656 -1331 
L 538 -1331 
L 538 3500 
L 1656 3500 
L 1656 2988 
Q 1888 3294 2169 3439 
Q 2450 3584 2816 3584 
Q 3463 3584 3878 3070 
Q 4294 2556 4294 1747 
Q 4294 938 3878 423 
Q 3463 -91 2816 -91 
Q 2450 -91 2169 54 
Q 1888 200 1656 506 
z
M 2400 2772 
Q 2041 2772 1848 2508 
Q 1656 2244 1656 1747 
Q 1656 1250 1848 986 
Q 2041 722 2400 722 
Q 2759 722 2948 984 
Q 3138 1247 3138 1747 
Q 3138 2247 2948 2509 
Q 2759 2772 2400 2772 
z
" transform="scale(0.015625)"/>
     <path id="DejaVuSans-Bold-6c" d="M 538 4863 
L 1656 4863 
L 1656 0 
L 538 0 
L 538 4863 
z
" transform="scale(0.015625)"/>
     <path id="DejaVuSans-Bold-65" d="M 4031 1759 
L 4031 1441 
L 1416 1441 
Q 1456 1047 1700 850 
Q 1944 653 2381 653 
Q 2734 653 3104 758 
Q 3475 863 3866 1075 
L 3866 213 
Q 3469 63 3072 -14 
Q 2675 -91 2278 -91 
Q 1328 -91 801 392 
Q 275 875 275 1747 
Q 275 2603 792 3093 
Q 1309 3584 2216 3584 
Q 3041 3584 3536 3087 
Q 4031 2591 4031 1759 
z
M 2881 2131 
Q 2881 2450 2695 2645 
Q 2509 2841 2209 2841 
Q 1884 2841 1681 2658 
Q 1478 2475 1428 2131 
L 2881 2131 
z
" transform="scale(0.015625)"/>
     <path id="DejaVuSans-Bold-6d" d="M 3781 2919 
Q 3994 3244 4286 3414 
Q 4578 3584 4928 3584 
Q 5531 3584 5847 3212 
Q 6163 2841 6163 2131 
L 6163 0 
L 5038 0 
L 5038 1825 
Q 5041 1866 5042 1909 
Q 5044 1953 5044 2034 
Q 5044 2406 4934 2573 
Q 4825 2741 4581 2741 
Q 4263 2741 4089 2478 
Q 3916 2216 3909 1719 
L 3909 0 
L 2784 0 
L 2784 1825 
Q 2784 2406 2684 2573 
Q 2584 2741 2328 2741 
Q 2006 2741 1831 2477 
Q 1656 2213 1656 1722 
L 1656 0 
L 531 0 
L 531 3500 
L 1656 3500 
L 1656 2988 
Q 1863 3284 2130 3434 
Q 2397 3584 2719 3584 
Q 3081 3584 3359 3409 
Q 3638 3234 3781 2919 
z
" transform="scale(0.015625)"/>
     <path id="DejaVuSans-Bold-6e" d="M 4056 2131 
L 4056 0 
L 2931 0 
L 2931 347 
L 2931 1631 
Q 2931 2084 2911 2256 
Q 2891 2428 2841 2509 
Q 2775 2619 2662 2680 
Q 2550 2741 2406 2741 
Q 2056 2741 1856 2470 
Q 1656 2200 1656 1722 
L 1656 0 
L 538 0 
L 538 3500 
L 1656 3500 
L 1656 2988 
Q 1909 3294 2193 3439 
Q 2478 3584 2822 3584 
Q 3428 3584 3742 3212 
Q 4056 2841 4056 2131 
z
" transform="scale(0.015625)"/>
     <path id="DejaVuSans-Bold-74" d="M 1759 4494 
L 1759 3500 
L 2913 3500 
L 2913 2700 
L 1759 2700 
L 1759 1216 
Q 1759 972 1856 886 
Q 1953 800 2241 800 
L 2816 800 
L 2816 0 
L 1856 0 
Q 1194 0 917 276 
Q 641 553 641 1216 
L 641 2700 
L 84 2700 
L 84 3500 
L 641 3500 
L 641 4494 
L 1759 4494 
z
" transform="scale(0.015625)"/>
     <path id="DejaVuSans-Bold-61" d="M 2106 1575 
Q 1756 1575 1579 1456 
Q 1403 1338 1403 1106 
Q 1403 894 1545 773 
Q 1688 653 1941 653 
Q 2256 653 2472 879 
Q 2688 1106 2688 1447 
L 2688 1575 
L 2106 1575 
z
M 3816 1997 
L 3816 0 
L 2688 0 
L 2688 519 
Q 2463 200 2181 54 
Q 1900 -91 1497 -91 
Q 953 -91 614 226 
Q 275 544 275 1050 
Q 275 1666 698 1953 
Q 1122 2241 2028 2241 
L 2688 2241 
L 2688 2328 
Q 2688 2594 2478 2717 
Q 2269 2841 1825 2841 
Q 1466 2841 1156 2769 
Q 847 2697 581 2553 
L 581 3406 
Q 941 3494 1303 3539 
Q 1666 3584 2028 3584 
Q 2975 3584 3395 3211 
Q 3816 2838 3816 1997 
z
" transform="scale(0.015625)"/>
     <path id="DejaVuSans-Bold-72" d="M 3138 2547 
Q 2991 2616 2845 2648 
Q 2700 2681 2553 2681 
Q 2122 2681 1889 2404 
Q 1656 2128 1656 1613 
L 1656 0 
L 538 0 
L 538 3500 
L 1656 3500 
L 1656 2925 
Q 1872 3269 2151 3426 
Q 2431 3584 2822 3584 
Q 2878 3584 2943 3579 
Q 3009 3575 3134 3559 
L 3138 2547 
z
" transform="scale(0.015625)"/>
     <path id="DejaVuSans-Bold-79" d="M 78 3500 
L 1197 3500 
L 2138 1125 
L 2938 3500 
L 4056 3500 
L 2584 -331 
Q 2363 -916 2067 -1148 
Q 1772 -1381 1288 -1381 
L 641 -1381 
L 641 -647 
L 991 -647 
Q 1275 -647 1404 -556 
Q 1534 -466 1606 -231 
L 1638 -134 
L 78 3500 
z
" transform="scale(0.015625)"/>
     <path id="DejaVuSans-Bold-20" transform="scale(0.015625)"/>
     <path id="DejaVuSans-Bold-46" d="M 588 4666 
L 3834 4666 
L 3834 3756 
L 1791 3756 
L 1791 2888 
L 3713 2888 
L 3713 1978 
L 1791 1978 
L 1791 0 
L 588 0 
L 588 4666 
z
" transform="scale(0.015625)"/>
     <path id="DejaVuSans-Bold-69" d="M 538 3500 
L 1656 3500 
L 1656 0 
L 538 0 
L 538 3500 
z
M 538 4863 
L 1656 4863 
L 1656 3950 
L 538 3950 
L 538 4863 
z
" transform="scale(0.015625)"/>
     <path id="DejaVuSans-Bold-67" d="M 2919 594 
Q 2688 288 2409 144 
Q 2131 0 1766 0 
Q 1125 0 706 504 
Q 288 1009 288 1791 
Q 288 2575 706 3076 
Q 1125 3578 1766 3578 
Q 2131 3578 2409 3434 
Q 2688 3291 2919 2981 
L 2919 3500 
L 4044 3500 
L 4044 353 
Q 4044 -491 3511 -936 
Q 2978 -1381 1966 -1381 
Q 1638 -1381 1331 -1331 
Q 1025 -1281 716 -1178 
L 716 -306 
Q 1009 -475 1290 -558 
Q 1572 -641 1856 -641 
Q 2406 -641 2662 -400 
Q 2919 -159 2919 353 
L 2919 594 
z
M 2181 2772 
Q 1834 2772 1640 2515 
Q 1447 2259 1447 1791 
Q 1447 1309 1634 1061 
Q 1822 813 2181 813 
Q 2531 813 2725 1069 
Q 2919 1325 2919 1791 
Q 2919 2259 2725 2515 
Q 2531 2772 2181 2772 
z
" transform="scale(0.015625)"/>
     <path id="DejaVuSans-Bold-37" d="M 428 4666 
L 3944 4666 
L 3944 3988 
L 2125 0 
L 953 0 
L 2675 3781 
L 428 3781 
L 428 4666 
z
" transform="scale(0.015625)"/>
     <path id="DejaVuSans-Bold-2e" d="M 653 1209 
L 1778 1209 
L 1778 0 
L 653 0 
L 653 1209 
z
" transform="scale(0.015625)"/>
     <path id="DejaVuSans-Bold-45" d="M 588 4666 
L 3834 4666 
L 3834 3756 
L 1791 3756 
L 1791 2888 
L 3713 2888 
L 3713 1978 
L 1791 1978 
L 1791 909 
L 3903 909 
L 3903 0 
L 588 0 
L 588 4666 
z
" transform="scale(0.015625)"/>
     <path id="DejaVuSans-Bold-78" d="M 1422 1791 
L 159 3500 
L 1344 3500 
L 2059 2463 
L 2784 3500 
L 3969 3500 
L 2706 1797 
L 4031 0 
L 2847 0 
L 2059 1106 
L 1281 0 
L 97 0 
L 1422 1791 
z
" transform="scale(0.015625)"/>
     <path id="DejaVuSans-Bold-76" d="M 97 3500 
L 1216 3500 
L 2088 1081 
L 2956 3500 
L 4078 3500 
L 2700 0 
L 1472 0 
L 97 3500 
z
" transform="scale(0.015625)"/>
     <path id="DejaVuSans-Bold-64" d="M 2919 2988 
L 2919 4863 
L 4044 4863 
L 4044 0 
L 2919 0 
L 2919 506 
Q 2688 197 2409 53 
Q 2131 -91 1766 -91 
Q 1119 -91 703 423 
Q 288 938 288 1747 
Q 288 2556 703 3070 
Q 1119 3584 1766 3584 
Q 2128 3584 2408 3439 
Q 2688 3294 2919 2988 
z
M 2181 722 
Q 2541 722 2730 984 
Q 2919 1247 2919 1747 
Q 2919 2247 2730 2509 
Q 2541 2772 2181 2772 
Q 1825 2772 1636 2509 
Q 1447 2247 1447 1747 
Q 1447 1247 1636 984 
Q 1825 722 2181 722 
z
" transform="scale(0.015625)"/>
     <path id="DejaVuSans-Bold-63" d="M 3366 3391 
L 3366 2478 
Q 3138 2634 2908 2709 
Q 2678 2784 2431 2784 
Q 1963 2784 1702 2511 
Q 1441 2238 1441 1747 
Q 1441 1256 1702 982 
Q 1963 709 2431 709 
Q 2694 709 2930 787 
Q 3166 866 3366 1019 
L 3366 103 
Q 3103 6 2833 -42 
Q 2563 -91 2291 -91 
Q 1344 -91 809 395 
Q 275 881 275 1747 
Q 275 2613 809 3098 
Q 1344 3584 2291 3584 
Q 2566 3584 2833 3536 
Q 3100 3488 3366 3391 
z
" transform="scale(0.015625)"/>
     <path id="DejaVuSans-Bold-73" d="M 3272 3391 
L 3272 2541 
Q 2913 2691 2578 2766 
Q 2244 2841 1947 2841 
Q 1628 2841 1473 2761 
Q 1319 2681 1319 2516 
Q 1319 2381 1436 2309 
Q 1553 2238 1856 2203 
L 2053 2175 
Q 2913 2066 3209 1816 
Q 3506 1566 3506 1031 
Q 3506 472 3093 190 
Q 2681 -91 1863 -91 
Q 1516 -91 1145 -36 
Q 775 19 384 128 
L 384 978 
Q 719 816 1070 734 
Q 1422 653 1784 653 
Q 2113 653 2278 743 
Q 2444 834 2444 1013 
Q 2444 1163 2330 1236 
Q 2216 1309 1875 1350 
L 1678 1375 
Q 931 1469 631 1722 
Q 331 1975 331 2491 
Q 331 3047 712 3315 
Q 1094 3584 1881 3584 
Q 2191 3584 2531 3537 
Q 2872 3491 3272 3391 
z
" transform="scale(0.015625)"/>
     <path id="DejaVuSans-Bold-6b" d="M 538 4863 
L 1656 4863 
L 1656 2216 
L 2944 3500 
L 4244 3500 
L 2534 1894 
L 4378 0 
L 3022 0 
L 1656 1459 
L 1656 0 
L 538 0 
L 538 4863 
z
" transform="scale(0.015625)"/>
    </defs>
    <use xlink:href="#DejaVuSans-Bold-53"/>
    <use xlink:href="#DejaVuSans-Bold-75" transform="translate(72.021484 0)"/>
    <use xlink:href="#DejaVuSans-Bold-70" transform="translate(143.212891 0)"/>
    <use xlink:href="#DejaVuSans-Bold-70" transform="translate(214.794922 0)"/>
    <use xlink:href="#DejaVuSans-Bold-6c" transform="translate(286.376953 0)"/>
    <use xlink:href="#DejaVuSans-Bold-65" transform="translate(320.654297 0)"/>
    <use xlink:href="#DejaVuSans-Bold-6d" transform="translate(388.476562 0)"/>
    <use xlink:href="#DejaVuSans-Bold-65" transform="translate(492.675781 0)"/>
    <use xlink:href="#DejaVuSans-Bold-6e" transform="translate(560.498047 0)"/>
    <use xlink:href="#DejaVuSans-Bold-74" transform="translate(631.689453 0)"/>
    <use xlink:href="#DejaVuSans-Bold-61" transform="translate(679.492188 0)"/>
    <use xlink:href="#DejaVuSans-Bold-72" transform="translate(746.972656 0)"/>
    <use xlink:href="#DejaVuSans-Bold-79" transform="translate(796.289062 0)"/>
    <use xlink:href="#DejaVuSans-Bold-20" transform="translate(861.474609 0)"/>
    <use xlink:href="#DejaVuSans-Bold-46" transform="translate(896.289062 0)"/>
    <use xlink:href="#DejaVuSans-Bold-69" transform="translate(964.599609 0)"/>
    <use xlink:href="#DejaVuSans-Bold-67" transform="translate(998.876953 0)"/>
    <use xlink:href="#DejaVuSans-Bold-75" transform="translate(1070.458984 0)"/>
    <use xlink:href="#DejaVuSans-Bold-72" transform="translate(1141.650391 0)"/>
    <use xlink:href="#DejaVuSans-Bold-65" transform="translate(1190.966797 0)"/>
    <use xlink:href="#DejaVuSans-Bold-20" transform="translate(1258.789062 0)"/>
    <use xlink:href="#DejaVuSans-Bold-37" transform="translate(1293.603516 0)"/>
    <use xlink:href="#DejaVuSans-Bold-2e" transform="translate(1363.183594 0)"/>
    <use xlink:href="#DejaVuSans-Bold-20" transform="translate(1401.171875 0)"/>
    <use xlink:href="#DejaVuSans-Bold-45" transform="translate(1435.986328 0)"/>
    <use xlink:href="#DejaVuSans-Bold-78" transform="translate(1504.296875 0)"/>
    <use xlink:href="#DejaVuSans-Bold-74" transform="translate(1568.798828 0)"/>
    <use xlink:href="#DejaVuSans-Bold-65" transform="translate(1616.601562 0)"/>
    <use xlink:href="#DejaVuSans-Bold-72" transform="translate(1684.423828 0)"/>
    <use xlink:href="#DejaVuSans-Bold-6e" transform="translate(1733.740234 0)"/>
    <use xlink:href="#DejaVuSans-Bold-61" transform="translate(1804.931641 0)"/>
    <use xlink:href="#DejaVuSans-Bold-6c" transform="translate(1872.412109 0)"/>
    <use xlink:href="#DejaVuSans-Bold-20" transform="translate(1906.689453 0)"/>
    <use xlink:href="#DejaVuSans-Bold-65" transform="translate(1941.503906 0)"/>
    <use xlink:href="#DejaVuSans-Bold-76" transform="translate(2009.326172 0)"/>
    <use xlink:href="#DejaVuSans-Bold-69" transform="translate(2074.511719 0)"/>
    <use xlink:href="#DejaVuSans-Bold-64" transform="translate(2108.789062 0)"/>
    <use xlink:href="#DejaVuSans-Bold-65" transform="translate(2180.371094 0)"/>
    <use xlink:href="#DejaVuSans-Bold-6e" transform="translate(2248.193359 0)"/>
    <use xlink:href="#DejaVuSans-Bold-63" transform="translate(2319.384766 0)"/>
    <use xlink:href="#DejaVuSans-Bold-65" transform="translate(2378.662109 0)"/>
    <use xlink:href="#DejaVuSans-Bold-20" transform="translate(2446.484375 0)"/>
    <use xlink:href="#DejaVuSans-Bold-73" transform="translate(2481.298828 0)"/>
    <use xlink:href="#DejaVuSans-Bold-74" transform="translate(2540.820312 0)"/>
    <use xlink:href="#DejaVuSans-Bold-61" transform="translate(2588.623047 0)"/>
    <use xlink:href="#DejaVuSans-Bold-63" transform="translate(2656.103516 0)"/>
    <use xlink:href="#DejaVuSans-Bold-6b" transform="translate(2715.380859 0)"/>
   </g>
  </g>
 </g>
 <defs>
  <clipPath id="pf01f0e2811">
   <rect x="7.2" y="70.56" width="698.4" height="278.64"/>
  </clipPath>
 </defs>
</svg>
