<?xml version="1.0" encoding="utf-8" standalone="no"?>
<!DOCTYPE svg PUBLIC "-//W3C//DTD SVG 1.1//EN"
  "http://www.w3.org/Graphics/SVG/1.1/DTD/svg11.dtd">
<svg xmlns:xlink="http://www.w3.org/1999/xlink" width="504pt" height="360pt" viewBox="0 0 504 360" xmlns="http://www.w3.org/2000/svg" version="1.1">
 <metadata>
  <rdf:RDF xmlns:dc="http://purl.org/dc/elements/1.1/" xmlns:cc="http://creativecommons.org/ns#" xmlns:rdf="http://www.w3.org/1999/02/22-rdf-syntax-ns#">
   <cc:Work>
    <dc:type rdf:resource="http://purl.org/dc/dcmitype/StillImage"/>
    <dc:date>2026-05-13T10:15:08.713288</dc:date>
    <dc:format>image/svg+xml</dc:format>
    <dc:creator>
     <cc:Agent>
      <dc:title>Matplotlib v3.10.9, https://matplotlib.org/</dc:title>
     </cc:Agent>
    </dc:creator>
   </cc:Work>
  </rdf:RDF>
 </metadata>
 <defs>
  <style type="text/css">*{stroke-linejoin: round; stroke-linecap: butt}</style>
 </defs>
 <g id="figure_1">
  <g id="patch_1">
   <path d="M 0 360 
L 504 360 
L 504 0 
L 0 0 
z
" style="fill: #ffffff"/>
  </g>
  <g id="axes_1">
   <g id="patch_2">
    <path d="M 44.66 325.96 
L 495.36 325.96 
L 495.36 21.84 
L 44.66 21.84 
z
" style="fill: #ffffff"/>
   </g>
   <g id="matplotlib.axis_1">
    <g id="xtick_1">
     <g id="line2d_1">
      <path d="M 65.146364 325.96 
L 65.146364 21.84 
" clip-path="url(#pac5ea8786d)" style="fill: none; stroke: #b0b0b0; stroke-opacity: 0.25; stroke-width: 0.8; stroke-linecap: square"/>
     </g>
     <g id="line2d_2">
      <defs>
       <path id="m4a9e0308c5" d="M 0 0 
L 0 3.5 
" style="stroke: #000000; stroke-width: 0.8"/>
      </defs>
      <g>
       <use xlink:href="#m4a9e0308c5" x="65.146364" y="325.96" style="stroke: #000000; stroke-width: 0.8"/>
      </g>
     </g>
     <g id="text_1">
      <!-- 0.0 -->
      <g transform="translate(58.785114 339.03875) scale(0.08 -0.08)">
       <defs>
        <path id="DejaVuSans-30" d="M 2034 4250 
Q 1547 4250 1301 3770 
Q 1056 3291 1056 2328 
Q 1056 1369 1301 889 
Q 1547 409 2034 409 
Q 2525 409 2770 889 
Q 3016 1369 3016 2328 
Q 3016 3291 2770 3770 
Q 2525 4250 2034 4250 
z
M 2034 4750 
Q 2819 4750 3233 4129 
Q 3647 3509 3647 2328 
Q 3647 1150 3233 529 
Q 2819 -91 2034 -91 
Q 1250 -91 836 529 
Q 422 1150 422 2328 
Q 422 3509 836 4129 
Q 1250 4750 2034 4750 
z
" transform="scale(0.015625)"/>
        <path id="DejaVuSans-2e" d="M 684 794 
L 1344 794 
L 1344 0 
L 684 0 
L 684 794 
z
" transform="scale(0.015625)"/>
       </defs>
       <use xlink:href="#DejaVuSans-30"/>
       <use xlink:href="#DejaVuSans-2e" transform="translate(63.623047 0)"/>
       <use xlink:href="#DejaVuSans-30" transform="translate(95.410156 0)"/>
      </g>
     </g>
    </g>
    <g id="xtick_2">
     <g id="line2d_3">
      <path d="M 130.864533 325.96 
L 130.864533 21.84 
" clip-path="url(#pac5ea8786d)" style="fill: none; stroke: #b0b0b0; stroke-opacity: 0.25; stroke-width: 0.8; stroke-linecap: square"/>
     </g>
     <g id="line2d_4">
      <g>
       <use xlink:href="#m4a9e0308c5" x="130.864533" y="325.96" style="stroke: #000000; stroke-width: 0.8"/>
      </g>
     </g>
     <g id="text_2">
      <!-- 0.1 -->
      <g transform="translate(124.503283 339.03875) scale(0.08 -0.08)">
       <defs>
        <path id="DejaVuSans-31" d="M 794 531 
L 1825 531 
L 1825 4091 
L 703 3866 
L 703 4441 
L 1819 4666 
L 2450 4666 
L 2450 531 
L 3481 531 
L 3481 0 
L 794 0 
L 794 531 
z
" transform="scale(0.015625)"/>
       </defs>
       <use xlink:href="#DejaVuSans-30"/>
       <use xlink:href="#DejaVuSans-2e" transform="translate(63.623047 0)"/>
       <use xlink:href="#DejaVuSans-31" transform="translate(95.410156 0)"/>
      </g>
     </g>
    </g>
    <g id="xtick_3">
     <g id="line2d_5">
      <path d="M 196.582702 325.96 
L 196.582702 21.84 
" clip-path="url(#pac5ea8786d)" style="fill: none; stroke: #b0b0b0; stroke-opacity: 0.25; stroke-width: 0.8; stroke-linecap: square"/>
     </g>
     <g id="line2d_6">
      <g>
       <use xlink:href="#m4a9e0308c5" x="196.582702" y="325.96" style="stroke: #000000; stroke-width: 0.8"/>
      </g>
     </g>
     <g id="text_3">
      <!-- 0.2 -->
      <g transform="translate(190.221452 339.03875) scale(0.08 -0.08)">
       <defs>
        <path id="DejaVuSans-32" d="M 1228 531 
L 3431 531 
L 3431 0 
L 469 0 
L 469 531 
Q 828 903 1448 1529 
Q 2069 2156 2228 2338 
Q 2531 2678 2651 2914 
Q 2772 3150 2772 3378 
Q 2772 3750 2511 3984 
Q 2250 4219 1831 4219 
Q 1534 4219 1204 4116 
Q 875 4013 500 3803 
L 500 4441 
Q 881 4594 1212 4672 
Q 1544 4750 1819 4750 
Q 2544 4750 2975 4387 
Q 3406 4025 3406 3419 
Q 3406 3131 3298 2873 
Q 3191 2616 2906 2266 
Q 2828 2175 2409 1742 
Q 1991 1309 1228 531 
z
" transform="scale(0.015625)"/>
       </defs>
       <use xlink:href="#DejaVuSans-30"/>
       <use xlink:href="#DejaVuSans-2e" transform="translate(63.623047 0)"/>
       <use xlink:href="#DejaVuSans-32" transform="translate(95.410156 0)"/>
      </g>
     </g>
    </g>
    <g id="xtick_4">
     <g id="line2d_7">
      <path d="M 262.300871 325.96 
L 262.300871 21.84 
" clip-path="url(#pac5ea8786d)" style="fill: none; stroke: #b0b0b0; stroke-opacity: 0.25; stroke-width: 0.8; stroke-linecap: square"/>
     </g>
     <g id="line2d_8">
      <g>
       <use xlink:href="#m4a9e0308c5" x="262.300871" y="325.96" style="stroke: #000000; stroke-width: 0.8"/>
      </g>
     </g>
     <g id="text_4">
      <!-- 0.3 -->
      <g transform="translate(255.939621 339.03875) scale(0.08 -0.08)">
       <defs>
        <path id="DejaVuSans-33" d="M 2597 2516 
Q 3050 2419 3304 2112 
Q 3559 1806 3559 1356 
Q 3559 666 3084 287 
Q 2609 -91 1734 -91 
Q 1441 -91 1130 -33 
Q 819 25 488 141 
L 488 750 
Q 750 597 1062 519 
Q 1375 441 1716 441 
Q 2309 441 2620 675 
Q 2931 909 2931 1356 
Q 2931 1769 2642 2001 
Q 2353 2234 1838 2234 
L 1294 2234 
L 1294 2753 
L 1863 2753 
Q 2328 2753 2575 2939 
Q 2822 3125 2822 3475 
Q 2822 3834 2567 4026 
Q 2313 4219 1838 4219 
Q 1578 4219 1281 4162 
Q 984 4106 628 3988 
L 628 4550 
Q 988 4650 1302 4700 
Q 1616 4750 1894 4750 
Q 2613 4750 3031 4423 
Q 3450 4097 3450 3541 
Q 3450 3153 3228 2886 
Q 3006 2619 2597 2516 
z
" transform="scale(0.015625)"/>
       </defs>
       <use xlink:href="#DejaVuSans-30"/>
       <use xlink:href="#DejaVuSans-2e" transform="translate(63.623047 0)"/>
       <use xlink:href="#DejaVuSans-33" transform="translate(95.410156 0)"/>
      </g>
     </g>
    </g>
    <g id="xtick_5">
     <g id="line2d_9">
      <path d="M 328.019041 325.96 
L 328.019041 21.84 
" clip-path="url(#pac5ea8786d)" style="fill: none; stroke: #b0b0b0; stroke-opacity: 0.25; stroke-width: 0.8; stroke-linecap: square"/>
     </g>
     <g id="line2d_10">
      <g>
       <use xlink:href="#m4a9e0308c5" x="328.019041" y="325.96" style="stroke: #000000; stroke-width: 0.8"/>
      </g>
     </g>
     <g id="text_5">
      <!-- 0.4 -->
      <g transform="translate(321.657791 339.03875) scale(0.08 -0.08)">
       <defs>
        <path id="DejaVuSans-34" d="M 2419 4116 
L 825 1625 
L 2419 1625 
L 2419 4116 
z
M 2253 4666 
L 3047 4666 
L 3047 1625 
L 3713 1625 
L 3713 1100 
L 3047 1100 
L 3047 0 
L 2419 0 
L 2419 1100 
L 313 1100 
L 313 1709 
L 2253 4666 
z
" transform="scale(0.015625)"/>
       </defs>
       <use xlink:href="#DejaVuSans-30"/>
       <use xlink:href="#DejaVuSans-2e" transform="translate(63.623047 0)"/>
       <use xlink:href="#DejaVuSans-34" transform="translate(95.410156 0)"/>
      </g>
     </g>
    </g>
    <g id="xtick_6">
     <g id="line2d_11">
      <path d="M 393.73721 325.96 
L 393.73721 21.84 
" clip-path="url(#pac5ea8786d)" style="fill: none; stroke: #b0b0b0; stroke-opacity: 0.25; stroke-width: 0.8; stroke-linecap: square"/>
     </g>
     <g id="line2d_12">
      <g>
       <use xlink:href="#m4a9e0308c5" x="393.73721" y="325.96" style="stroke: #000000; stroke-width: 0.8"/>
      </g>
     </g>
     <g id="text_6">
      <!-- 0.5 -->
      <g transform="translate(387.37596 339.03875) scale(0.08 -0.08)">
       <defs>
        <path id="DejaVuSans-35" d="M 691 4666 
L 3169 4666 
L 3169 4134 
L 1269 4134 
L 1269 2991 
Q 1406 3038 1543 3061 
Q 1681 3084 1819 3084 
Q 2600 3084 3056 2656 
Q 3513 2228 3513 1497 
Q 3513 744 3044 326 
Q 2575 -91 1722 -91 
Q 1428 -91 1123 -41 
Q 819 9 494 109 
L 494 744 
Q 775 591 1075 516 
Q 1375 441 1709 441 
Q 2250 441 2565 725 
Q 2881 1009 2881 1497 
Q 2881 1984 2565 2268 
Q 2250 2553 1709 2553 
Q 1456 2553 1204 2497 
Q 953 2441 691 2322 
L 691 4666 
z
" transform="scale(0.015625)"/>
       </defs>
       <use xlink:href="#DejaVuSans-30"/>
       <use xlink:href="#DejaVuSans-2e" transform="translate(63.623047 0)"/>
       <use xlink:href="#DejaVuSans-35" transform="translate(95.410156 0)"/>
      </g>
     </g>
    </g>
    <g id="xtick_7">
     <g id="line2d_13">
      <path d="M 459.455379 325.96 
L 459.455379 21.84 
" clip-path="url(#pac5ea8786d)" style="fill: none; stroke: #b0b0b0; stroke-opacity: 0.25; stroke-width: 0.8; stroke-linecap: square"/>
     </g>
     <g id="line2d_14">
      <g>
       <use xlink:href="#m4a9e0308c5" x="459.455379" y="325.96" style="stroke: #000000; stroke-width: 0.8"/>
      </g>
     </g>
     <g id="text_7">
      <!-- 0.6 -->
      <g transform="translate(453.094129 339.03875) scale(0.08 -0.08)">
       <defs>
        <path id="DejaVuSans-36" d="M 2113 2584 
Q 1688 2584 1439 2293 
Q 1191 2003 1191 1497 
Q 1191 994 1439 701 
Q 1688 409 2113 409 
Q 2538 409 2786 701 
Q 3034 994 3034 1497 
Q 3034 2003 2786 2293 
Q 2538 2584 2113 2584 
z
M 3366 4563 
L 3366 3988 
Q 3128 4100 2886 4159 
Q 2644 4219 2406 4219 
Q 1781 4219 1451 3797 
Q 1122 3375 1075 2522 
Q 1259 2794 1537 2939 
Q 1816 3084 2150 3084 
Q 2853 3084 3261 2657 
Q 3669 2231 3669 1497 
Q 3669 778 3244 343 
Q 2819 -91 2113 -91 
Q 1303 -91 875 529 
Q 447 1150 447 2328 
Q 447 3434 972 4092 
Q 1497 4750 2381 4750 
Q 2619 4750 2861 4703 
Q 3103 4656 3366 4563 
z
" transform="scale(0.015625)"/>
       </defs>
       <use xlink:href="#DejaVuSans-30"/>
       <use xlink:href="#DejaVuSans-2e" transform="translate(63.623047 0)"/>
       <use xlink:href="#DejaVuSans-36" transform="translate(95.410156 0)"/>
      </g>
     </g>
    </g>
    <g id="text_8">
     <!-- Overrestriction -->
     <g transform="translate(240.17375 350.78125) scale(0.08 -0.08)">
      <defs>
       <path id="DejaVuSans-4f" d="M 2522 4238 
Q 1834 4238 1429 3725 
Q 1025 3213 1025 2328 
Q 1025 1447 1429 934 
Q 1834 422 2522 422 
Q 3209 422 3611 934 
Q 4013 1447 4013 2328 
Q 4013 3213 3611 3725 
Q 3209 4238 2522 4238 
z
M 2522 4750 
Q 3503 4750 4090 4092 
Q 4678 3434 4678 2328 
Q 4678 1225 4090 567 
Q 3503 -91 2522 -91 
Q 1538 -91 948 565 
Q 359 1222 359 2328 
Q 359 3434 948 4092 
Q 1538 4750 2522 4750 
z
" transform="scale(0.015625)"/>
       <path id="DejaVuSans-76" d="M 191 3500 
L 800 3500 
L 1894 563 
L 2988 3500 
L 3597 3500 
L 2284 0 
L 1503 0 
L 191 3500 
z
" transform="scale(0.015625)"/>
       <path id="DejaVuSans-65" d="M 3597 1894 
L 3597 1613 
L 953 1613 
Q 991 1019 1311 708 
Q 1631 397 2203 397 
Q 2534 397 2845 478 
Q 3156 559 3463 722 
L 3463 178 
Q 3153 47 2828 -22 
Q 2503 -91 2169 -91 
Q 1331 -91 842 396 
Q 353 884 353 1716 
Q 353 2575 817 3079 
Q 1281 3584 2069 3584 
Q 2775 3584 3186 3129 
Q 3597 2675 3597 1894 
z
M 3022 2063 
Q 3016 2534 2758 2815 
Q 2500 3097 2075 3097 
Q 1594 3097 1305 2825 
Q 1016 2553 972 2059 
L 3022 2063 
z
" transform="scale(0.015625)"/>
       <path id="DejaVuSans-72" d="M 2631 2963 
Q 2534 3019 2420 3045 
Q 2306 3072 2169 3072 
Q 1681 3072 1420 2755 
Q 1159 2438 1159 1844 
L 1159 0 
L 581 0 
L 581 3500 
L 1159 3500 
L 1159 2956 
Q 1341 3275 1631 3429 
Q 1922 3584 2338 3584 
Q 2397 3584 2469 3576 
Q 2541 3569 2628 3553 
L 2631 2963 
z
" transform="scale(0.015625)"/>
       <path id="DejaVuSans-73" d="M 2834 3397 
L 2834 2853 
Q 2591 2978 2328 3040 
Q 2066 3103 1784 3103 
Q 1356 3103 1142 2972 
Q 928 2841 928 2578 
Q 928 2378 1081 2264 
Q 1234 2150 1697 2047 
L 1894 2003 
Q 2506 1872 2764 1633 
Q 3022 1394 3022 966 
Q 3022 478 2636 193 
Q 2250 -91 1575 -91 
Q 1294 -91 989 -36 
Q 684 19 347 128 
L 347 722 
Q 666 556 975 473 
Q 1284 391 1588 391 
Q 1994 391 2212 530 
Q 2431 669 2431 922 
Q 2431 1156 2273 1281 
Q 2116 1406 1581 1522 
L 1381 1569 
Q 847 1681 609 1914 
Q 372 2147 372 2553 
Q 372 3047 722 3315 
Q 1072 3584 1716 3584 
Q 2034 3584 2315 3537 
Q 2597 3491 2834 3397 
z
" transform="scale(0.015625)"/>
       <path id="DejaVuSans-74" d="M 1172 4494 
L 1172 3500 
L 2356 3500 
L 2356 3053 
L 1172 3053 
L 1172 1153 
Q 1172 725 1289 603 
Q 1406 481 1766 481 
L 2356 481 
L 2356 0 
L 1766 0 
Q 1100 0 847 248 
Q 594 497 594 1153 
L 594 3053 
L 172 3053 
L 172 3500 
L 594 3500 
L 594 4494 
L 1172 4494 
z
" transform="scale(0.015625)"/>
       <path id="DejaVuSans-69" d="M 603 3500 
L 1178 3500 
L 1178 0 
L 603 0 
L 603 3500 
z
M 603 4863 
L 1178 4863 
L 1178 4134 
L 603 4134 
L 603 4863 
z
" transform="scale(0.015625)"/>
       <path id="DejaVuSans-63" d="M 3122 3366 
L 3122 2828 
Q 2878 2963 2633 3030 
Q 2388 3097 2138 3097 
Q 1578 3097 1268 2742 
Q 959 2388 959 1747 
Q 959 1106 1268 751 
Q 1578 397 2138 397 
Q 2388 397 2633 464 
Q 2878 531 3122 666 
L 3122 134 
Q 2881 22 2623 -34 
Q 2366 -91 2075 -91 
Q 1284 -91 818 406 
Q 353 903 353 1747 
Q 353 2603 823 3093 
Q 1294 3584 2113 3584 
Q 2378 3584 2631 3529 
Q 2884 3475 3122 3366 
z
" transform="scale(0.015625)"/>
       <path id="DejaVuSans-6f" d="M 1959 3097 
Q 1497 3097 1228 2736 
Q 959 2375 959 1747 
Q 959 1119 1226 758 
Q 1494 397 1959 397 
Q 2419 397 2687 759 
Q 2956 1122 2956 1747 
Q 2956 2369 2687 2733 
Q 2419 3097 1959 3097 
z
M 1959 3584 
Q 2709 3584 3137 3096 
Q 3566 2609 3566 1747 
Q 3566 888 3137 398 
Q 2709 -91 1959 -91 
Q 1206 -91 779 398 
Q 353 888 353 1747 
Q 353 2609 779 3096 
Q 1206 3584 1959 3584 
z
" transform="scale(0.015625)"/>
       <path id="DejaVuSans-6e" d="M 3513 2113 
L 3513 0 
L 2938 0 
L 2938 2094 
Q 2938 2591 2744 2837 
Q 2550 3084 2163 3084 
Q 1697 3084 1428 2787 
Q 1159 2491 1159 1978 
L 1159 0 
L 581 0 
L 581 3500 
L 1159 3500 
L 1159 2956 
Q 1366 3272 1645 3428 
Q 1925 3584 2291 3584 
Q 2894 3584 3203 3211 
Q 3513 2838 3513 2113 
z
" transform="scale(0.015625)"/>
      </defs>
      <use xlink:href="#DejaVuSans-4f"/>
      <use xlink:href="#DejaVuSans-76" transform="translate(78.710938 0)"/>
      <use xlink:href="#DejaVuSans-65" transform="translate(137.890625 0)"/>
      <use xlink:href="#DejaVuSans-72" transform="translate(199.414062 0)"/>
      <use xlink:href="#DejaVuSans-72" transform="translate(238.777344 0)"/>
      <use xlink:href="#DejaVuSans-65" transform="translate(277.640625 0)"/>
      <use xlink:href="#DejaVuSans-73" transform="translate(339.164062 0)"/>
      <use xlink:href="#DejaVuSans-74" transform="translate(391.263672 0)"/>
      <use xlink:href="#DejaVuSans-72" transform="translate(430.472656 0)"/>
      <use xlink:href="#DejaVuSans-69" transform="translate(471.585938 0)"/>
      <use xlink:href="#DejaVuSans-63" transform="translate(499.369141 0)"/>
      <use xlink:href="#DejaVuSans-74" transform="translate(554.349609 0)"/>
      <use xlink:href="#DejaVuSans-69" transform="translate(593.558594 0)"/>
      <use xlink:href="#DejaVuSans-6f" transform="translate(621.341797 0)"/>
      <use xlink:href="#DejaVuSans-6e" transform="translate(682.523438 0)"/>
     </g>
    </g>
   </g>
   <g id="matplotlib.axis_2">
    <g id="ytick_1">
     <g id="line2d_15">
      <path d="M 44.66 312.136364 
L 495.36 312.136364 
" clip-path="url(#pac5ea8786d)" style="fill: none; stroke: #b0b0b0; stroke-opacity: 0.25; stroke-width: 0.8; stroke-linecap: square"/>
     </g>
     <g id="line2d_16">
      <defs>
       <path id="mc827395a13" d="M 0 0 
L -3.5 0 
" style="stroke: #000000; stroke-width: 0.8"/>
      </defs>
      <g>
       <use xlink:href="#mc827395a13" x="44.66" y="312.136364" style="stroke: #000000; stroke-width: 0.8"/>
      </g>
     </g>
     <g id="text_9">
      <!-- 0.00 -->
      <g transform="translate(19.8475 315.175739) scale(0.08 -0.08)">
       <use xlink:href="#DejaVuSans-30"/>
       <use xlink:href="#DejaVuSans-2e" transform="translate(63.623047 0)"/>
       <use xlink:href="#DejaVuSans-30" transform="translate(95.410156 0)"/>
       <use xlink:href="#DejaVuSans-30" transform="translate(159.033203 0)"/>
      </g>
     </g>
    </g>
    <g id="ytick_2">
     <g id="line2d_17">
      <path d="M 44.66 275.423983 
L 495.36 275.423983 
" clip-path="url(#pac5ea8786d)" style="fill: none; stroke: #b0b0b0; stroke-opacity: 0.25; stroke-width: 0.8; stroke-linecap: square"/>
     </g>
     <g id="line2d_18">
      <g>
       <use xlink:href="#mc827395a13" x="44.66" y="275.423983" style="stroke: #000000; stroke-width: 0.8"/>
      </g>
     </g>
     <g id="text_10">
      <!-- 0.05 -->
      <g transform="translate(19.8475 278.463358) scale(0.08 -0.08)">
       <use xlink:href="#DejaVuSans-30"/>
       <use xlink:href="#DejaVuSans-2e" transform="translate(63.623047 0)"/>
       <use xlink:href="#DejaVuSans-30" transform="translate(95.410156 0)"/>
       <use xlink:href="#DejaVuSans-35" transform="translate(159.033203 0)"/>
      </g>
     </g>
    </g>
    <g id="ytick_3">
     <g id="line2d_19">
      <path d="M 44.66 238.711603 
L 495.36 238.711603 
" clip-path="url(#pac5ea8786d)" style="fill: none; stroke: #b0b0b0; stroke-opacity: 0.25; stroke-width: 0.8; stroke-linecap: square"/>
     </g>
     <g id="line2d_20">
      <g>
       <use xlink:href="#mc827395a13" x="44.66" y="238.711603" style="stroke: #000000; stroke-width: 0.8"/>
      </g>
     </g>
     <g id="text_11">
      <!-- 0.10 -->
      <g transform="translate(19.8475 241.750978) scale(0.08 -0.08)">
       <use xlink:href="#DejaVuSans-30"/>
       <use xlink:href="#DejaVuSans-2e" transform="translate(63.623047 0)"/>
       <use xlink:href="#DejaVuSans-31" transform="translate(95.410156 0)"/>
       <use xlink:href="#DejaVuSans-30" transform="translate(159.033203 0)"/>
      </g>
     </g>
    </g>
    <g id="ytick_4">
     <g id="line2d_21">
      <path d="M 44.66 201.999223 
L 495.36 201.999223 
" clip-path="url(#pac5ea8786d)" style="fill: none; stroke: #b0b0b0; stroke-opacity: 0.25; stroke-width: 0.8; stroke-linecap: square"/>
     </g>
     <g id="line2d_22">
      <g>
       <use xlink:href="#mc827395a13" x="44.66" y="201.999223" style="stroke: #000000; stroke-width: 0.8"/>
      </g>
     </g>
     <g id="text_12">
      <!-- 0.15 -->
      <g transform="translate(19.8475 205.038598) scale(0.08 -0.08)">
       <use xlink:href="#DejaVuSans-30"/>
       <use xlink:href="#DejaVuSans-2e" transform="translate(63.623047 0)"/>
       <use xlink:href="#DejaVuSans-31" transform="translate(95.410156 0)"/>
       <use xlink:href="#DejaVuSans-35" transform="translate(159.033203 0)"/>
      </g>
     </g>
    </g>
    <g id="ytick_5">
     <g id="line2d_23">
      <path d="M 44.66 165.286843 
L 495.36 165.286843 
" clip-path="url(#pac5ea8786d)" style="fill: none; stroke: #b0b0b0; stroke-opacity: 0.25; stroke-width: 0.8; stroke-linecap: square"/>
     </g>
     <g id="line2d_24">
      <g>
       <use xlink:href="#mc827395a13" x="44.66" y="165.286843" style="stroke: #000000; stroke-width: 0.8"/>
      </g>
     </g>
     <g id="text_13">
      <!-- 0.20 -->
      <g transform="translate(19.8475 168.326218) scale(0.08 -0.08)">
       <use xlink:href="#DejaVuSans-30"/>
       <use xlink:href="#DejaVuSans-2e" transform="translate(63.623047 0)"/>
       <use xlink:href="#DejaVuSans-32" transform="translate(95.410156 0)"/>
       <use xlink:href="#DejaVuSans-30" transform="translate(159.033203 0)"/>
      </g>
     </g>
    </g>
    <g id="ytick_6">
     <g id="line2d_25">
      <path d="M 44.66 128.574463 
L 495.36 128.574463 
" clip-path="url(#pac5ea8786d)" style="fill: none; stroke: #b0b0b0; stroke-opacity: 0.25; stroke-width: 0.8; stroke-linecap: square"/>
     </g>
     <g id="line2d_26">
      <g>
       <use xlink:href="#mc827395a13" x="44.66" y="128.574463" style="stroke: #000000; stroke-width: 0.8"/>
      </g>
     </g>
     <g id="text_14">
      <!-- 0.25 -->
      <g transform="translate(19.8475 131.613838) scale(0.08 -0.08)">
       <use xlink:href="#DejaVuSans-30"/>
       <use xlink:href="#DejaVuSans-2e" transform="translate(63.623047 0)"/>
       <use xlink:href="#DejaVuSans-32" transform="translate(95.410156 0)"/>
       <use xlink:href="#DejaVuSans-35" transform="translate(159.033203 0)"/>
      </g>
     </g>
    </g>
    <g id="ytick_7">
     <g id="line2d_27">
      <path d="M 44.66 91.862083 
L 495.36 91.862083 
" clip-path="url(#pac5ea8786d)" style="fill: none; stroke: #b0b0b0; stroke-opacity: 0.25; stroke-width: 0.8; stroke-linecap: square"/>
     </g>
     <g id="line2d_28">
      <g>
       <use xlink:href="#mc827395a13" x="44.66" y="91.862083" style="stroke: #000000; stroke-width: 0.8"/>
      </g>
     </g>
     <g id="text_15">
      <!-- 0.30 -->
      <g transform="translate(19.8475 94.901458) scale(0.08 -0.08)">
       <use xlink:href="#DejaVuSans-30"/>
       <use xlink:href="#DejaVuSans-2e" transform="translate(63.623047 0)"/>
       <use xlink:href="#DejaVuSans-33" transform="translate(95.410156 0)"/>
       <use xlink:href="#DejaVuSans-30" transform="translate(159.033203 0)"/>
      </g>
     </g>
    </g>
    <g id="ytick_8">
     <g id="line2d_29">
      <path d="M 44.66 55.149702 
L 495.36 55.149702 
" clip-path="url(#pac5ea8786d)" style="fill: none; stroke: #b0b0b0; stroke-opacity: 0.25; stroke-width: 0.8; stroke-linecap: square"/>
     </g>
     <g id="line2d_30">
      <g>
       <use xlink:href="#mc827395a13" x="44.66" y="55.149702" style="stroke: #000000; stroke-width: 0.8"/>
      </g>
     </g>
     <g id="text_16">
      <!-- 0.35 -->
      <g transform="translate(19.8475 58.189077) scale(0.08 -0.08)">
       <use xlink:href="#DejaVuSans-30"/>
       <use xlink:href="#DejaVuSans-2e" transform="translate(63.623047 0)"/>
       <use xlink:href="#DejaVuSans-33" transform="translate(95.410156 0)"/>
       <use xlink:href="#DejaVuSans-35" transform="translate(159.033203 0)"/>
      </g>
     </g>
    </g>
    <g id="text_17">
     <!-- Unsupported reuse -->
     <g transform="translate(14.18375 212.0875) rotate(-90) scale(0.08 -0.08)">
      <defs>
       <path id="DejaVuSans-55" d="M 556 4666 
L 1191 4666 
L 1191 1831 
Q 1191 1081 1462 751 
Q 1734 422 2344 422 
Q 2950 422 3222 751 
Q 3494 1081 3494 1831 
L 3494 4666 
L 4128 4666 
L 4128 1753 
Q 4128 841 3676 375 
Q 3225 -91 2344 -91 
Q 1459 -91 1007 375 
Q 556 841 556 1753 
L 556 4666 
z
" transform="scale(0.015625)"/>
       <path id="DejaVuSans-75" d="M 544 1381 
L 544 3500 
L 1119 3500 
L 1119 1403 
Q 1119 906 1312 657 
Q 1506 409 1894 409 
Q 2359 409 2629 706 
Q 2900 1003 2900 1516 
L 2900 3500 
L 3475 3500 
L 3475 0 
L 2900 0 
L 2900 538 
Q 2691 219 2414 64 
Q 2138 -91 1772 -91 
Q 1169 -91 856 284 
Q 544 659 544 1381 
z
M 1991 3584 
L 1991 3584 
z
" transform="scale(0.015625)"/>
       <path id="DejaVuSans-70" d="M 1159 525 
L 1159 -1331 
L 581 -1331 
L 581 3500 
L 1159 3500 
L 1159 2969 
Q 1341 3281 1617 3432 
Q 1894 3584 2278 3584 
Q 2916 3584 3314 3078 
Q 3713 2572 3713 1747 
Q 3713 922 3314 415 
Q 2916 -91 2278 -91 
Q 1894 -91 1617 61 
Q 1341 213 1159 525 
z
M 3116 1747 
Q 3116 2381 2855 2742 
Q 2594 3103 2138 3103 
Q 1681 3103 1420 2742 
Q 1159 2381 1159 1747 
Q 1159 1113 1420 752 
Q 1681 391 2138 391 
Q 2594 391 2855 752 
Q 3116 1113 3116 1747 
z
" transform="scale(0.015625)"/>
       <path id="DejaVuSans-64" d="M 2906 2969 
L 2906 4863 
L 3481 4863 
L 3481 0 
L 2906 0 
L 2906 525 
Q 2725 213 2448 61 
Q 2172 -91 1784 -91 
Q 1150 -91 751 415 
Q 353 922 353 1747 
Q 353 2572 751 3078 
Q 1150 3584 1784 3584 
Q 2172 3584 2448 3432 
Q 2725 3281 2906 2969 
z
M 947 1747 
Q 947 1113 1208 752 
Q 1469 391 1925 391 
Q 2381 391 2643 752 
Q 2906 1113 2906 1747 
Q 2906 2381 2643 2742 
Q 2381 3103 1925 3103 
Q 1469 3103 1208 2742 
Q 947 2381 947 1747 
z
" transform="scale(0.015625)"/>
       <path id="DejaVuSans-20" transform="scale(0.015625)"/>
      </defs>
      <use xlink:href="#DejaVuSans-55"/>
      <use xlink:href="#DejaVuSans-6e" transform="translate(73.193359 0)"/>
      <use xlink:href="#DejaVuSans-73" transform="translate(136.572266 0)"/>
      <use xlink:href="#DejaVuSans-75" transform="translate(188.671875 0)"/>
      <use xlink:href="#DejaVuSans-70" transform="translate(252.050781 0)"/>
      <use xlink:href="#DejaVuSans-70" transform="translate(315.527344 0)"/>
      <use xlink:href="#DejaVuSans-6f" transform="translate(379.003906 0)"/>
      <use xlink:href="#DejaVuSans-72" transform="translate(440.185547 0)"/>
      <use xlink:href="#DejaVuSans-74" transform="translate(481.298828 0)"/>
      <use xlink:href="#DejaVuSans-65" transform="translate(520.507812 0)"/>
      <use xlink:href="#DejaVuSans-64" transform="translate(582.03125 0)"/>
      <use xlink:href="#DejaVuSans-20" transform="translate(645.507812 0)"/>
      <use xlink:href="#DejaVuSans-72" transform="translate(677.294922 0)"/>
      <use xlink:href="#DejaVuSans-65" transform="translate(716.158203 0)"/>
      <use xlink:href="#DejaVuSans-75" transform="translate(777.681641 0)"/>
      <use xlink:href="#DejaVuSans-73" transform="translate(841.060547 0)"/>
      <use xlink:href="#DejaVuSans-65" transform="translate(893.160156 0)"/>
     </g>
    </g>
   </g>
   <g id="line2d_31">
    <path d="M 474.873636 312.136364 
L 474.873636 312.136364 
L 474.873636 312.136364 
L 474.873636 312.136364 
L 474.873636 312.136364 
L 474.873636 312.081415 
L 474.873636 312.081415 
L 474.308054 311.998993 
L 473.668701 311.971519 
L 473.1523 311.889096 
L 471.701459 311.58688 
L 468.676825 311.009922 
L 468.357148 310.982448 
L 444.528933 306.586578 
L 405.921813 300.322464 
L 404.495563 299.663083 
L 403.266037 299.250971 
L 393.946229 296.063965 
L 384.773965 293.508866 
L 359.986719 286.585371 
L 334.338805 280.321257 
L 327.453459 278.150796 
L 274.805152 261.144276 
L 257.493424 256.089026 
L 245.247345 251.967898 
L 240.673508 249.87986 
L 235.14064 248.011615 
L 234.378334 247.709399 
L 233.148808 246.830225 
L 231.452062 245.786206 
L 215.025593 238.285753 
L 202.976238 233.093132 
L 201.254901 232.433752 
L 197.320418 229.878653 
L 185.074338 223.202426 
L 180.795587 221.444078 
L 180.402139 221.334181 
L 180.328367 221.306707 
L 178.533259 219.850575 
L 178.533259 219.795627 
L 175.115177 217.597692 
L 173.024982 216.416302 
L 172.852849 216.388828 
L 169.975758 214.822799 
L 143.958986 193.008296 
L 139.92614 188.969591 
L 129.253854 179.600893 
L 125.122646 176.798527 
L 124.483293 176.111672 
L 123.671805 175.452291 
L 123.548853 175.424817 
L 121.384887 172.81477 
L 114.91758 165.918749 
L 108.032233 158.006184 
L 101.26984 150.313412 
L 97.605852 145.532904 
L 95.982878 143.554762 
L 95.269753 142.758011 
L 93.917274 141.686518 
L 93.843502 141.082086 
L 93.818912 140.999663 
L 93.007425 139.735851 
L 92.712338 139.571005 
L 90.843459 137.482967 
L 89.589342 136.136732 
L 88.654902 135.504826 
L 88.384407 135.175136 
L 88.040139 134.241013 
L 79.433457 115.613516 
L 76.507185 106.931673 
L 76.335051 106.409664 
L 75.228478 103.085287 
L 74.515352 100.777456 
L 72.892378 96.793699 
L 72.769425 96.271689 
L 72.203843 94.458393 
L 71.466128 91.656026 
L 70.089059 85.419386 
L 69.621839 83.551141 
L 69.523477 82.946709 
L 68.859532 78.825582 
L 68.539856 77.204605 
L 68.515265 77.149656 
L 68.441494 75.116567 
L 68.367722 71.627345 
L 67.998864 64.786273 
L 66.572614 52.038251 
L 66.154575 44.290531 
L 66.105394 42.504709 
L 66.056213 40.828783 
L 66.056213 40.828783 
L 65.662765 38.438529 
L 65.392269 37.421984 
L 65.195545 36.460388 
L 65.170954 36.048275 
L 65.170954 35.828481 
L 65.146364 35.663636 
L 65.146364 35.663636 
L 65.146364 35.663636 
L 65.146364 35.663636 
L 65.146364 35.663636 
" clip-path="url(#pac5ea8786d)" style="fill: none; stroke: #1f77b4; stroke-opacity: 0.85; stroke-width: 1.5; stroke-linecap: square"/>
   </g>
   <g id="line2d_32">
    <path d="M 474.873636 312.136364 
L 474.873636 312.136364 
L 474.873636 312.136364 
L 474.873636 312.136364 
L 474.873636 312.136364 
L 474.873636 312.136364 
L 474.873636 312.136364 
L 474.873636 312.136364 
L 474.873636 312.136364 
L 474.873636 312.136364 
L 474.849046 312.108889 
L 474.849046 312.081415 
L 474.209692 311.861622 
L 471.209649 311.229716 
L 468.357148 310.73518 
L 467.816157 310.570335 
L 458.963569 309.196626 
L 443.545312 305.844775 
L 429.135266 302.98746 
L 427.168024 300.459835 
L 421.167937 299.003703 
L 417.208863 297.739891 
L 410.889099 296.283759 
L 404.520154 294.745204 
L 372.552476 286.832639 
L 335.54374 271.309724 
L 326.076389 269.881067 
L 322.264859 266.88638 
L 314.100805 264.468652 
L 309.969598 259.413402 
L 285.993839 249.605118 
L 282.157718 248.066563 
L 252.624501 240.09905 
L 251.788423 239.439669 
L 250.312992 238.835237 
L 248.567065 236.252664 
L 210.796024 223.504642 
L 206.246777 220.949542 
L 204.795936 220.125317 
L 203.320505 214.63048 
L 200.418824 210.948939 
L 196.410569 206.36075 
L 195.353176 205.344205 
L 184.312032 197.10195 
L 177.697182 194.464428 
L 168.598688 191.140051 
L 134.934264 169.984929 
L 129.180082 165.918749 
L 119.909455 158.63809 
L 99.032103 122.234794 
L 91.679537 115.421196 
L 87.499148 109.898885 
L 86.687661 104.074358 
L 83.958113 93.084684 
L 83.613845 89.622936 
L 83.171216 83.93578 
L 82.581044 80.638878 
L 80.884298 75.830895 
L 80.04822 74.15497 
L 79.777724 73.165899 
L 78.990827 71.544922 
L 78.523607 70.858068 
L 77.859663 70.061316 
L 76.949814 67.890856 
L 75.867831 65.500602 
L 74.589124 58.906797 
L 72.695654 57.011078 
L 72.03171 55.77474 
L 67.630006 52.670157 
L 66.425071 51.159077 
L 66.302118 49.977687 
L 66.056213 42.394812 
L 65.90867 42.037647 
L 65.810308 41.543112 
L 65.195545 40.993628 
L 65.170954 40.801309 
L 65.146364 40.2793 
L 65.146364 39.702342 
L 65.146364 39.592445 
L 65.146364 39.482548 
L 65.146364 39.345177 
L 65.146364 39.09791 
L 65.146364 38.988013 
L 65.146364 36.790078 
L 65.146364 36.73513 
L 65.146364 36.460388 
L 65.146364 36.295543 
L 65.146364 35.773533 
L 65.146364 35.691111 
L 65.146364 35.691111 
L 65.146364 35.663636 
L 65.146364 35.663636 
L 65.146364 35.663636 
L 65.146364 35.663636 
L 65.146364 35.663636 
L 65.146364 35.663636 
L 65.146364 35.663636 
L 65.146364 35.663636 
L 65.146364 35.663636 
L 65.146364 35.663636 
L 65.146364 35.663636 
" clip-path="url(#pac5ea8786d)" style="fill: none; stroke: #ff7f0e; stroke-opacity: 0.85; stroke-width: 1.5; stroke-linecap: square"/>
   </g>
   <g id="line2d_33">
    <path d="M 474.873636 312.136364 
L 474.873636 312.136364 
L 474.873636 312.136364 
L 474.873636 312.136364 
L 474.873636 312.136364 
L 474.873636 312.136364 
L 474.873636 312.136364 
L 474.873636 312.136364 
L 474.873636 312.136364 
L 474.873636 312.136364 
L 474.873636 312.136364 
L 474.873636 312.136364 
L 474.873636 312.136364 
L 474.873636 312.136364 
L 474.873636 312.136364 
L 474.873636 312.136364 
L 474.873636 312.136364 
L 474.873636 312.136364 
L 474.873636 312.136364 
L 474.873636 312.136364 
L 474.873636 312.136364 
L 474.873636 312.136364 
L 460.193095 307.767968 
L 460.193095 307.767968 
L 460.193095 307.767968 
L 452.643805 304.993075 
L 452.643805 304.993075 
L 161.467437 187.293665 
L 161.467437 187.293665 
L 124.139025 170.561886 
L 124.139025 170.561886 
L 124.139025 170.561886 
L 124.139025 170.561886 
L 124.139025 170.561886 
L 124.139025 170.561886 
L 124.139025 170.561886 
L 124.139025 170.561886 
L 124.139025 170.561886 
L 124.139025 170.561886 
L 124.139025 170.561886 
L 124.139025 170.561886 
L 124.139025 170.561886 
L 124.139025 170.561886 
L 124.139025 170.561886 
L 124.139025 170.561886 
L 124.139025 170.561886 
L 124.139025 170.561886 
L 124.139025 170.561886 
L 124.139025 170.561886 
L 124.139025 170.561886 
L 124.139025 170.561886 
L 124.139025 170.561886 
L 124.139025 170.561886 
L 124.139025 170.561886 
L 124.139025 170.561886 
L 124.139025 170.561886 
L 124.139025 170.561886 
L 124.139025 170.561886 
L 124.139025 170.561886 
L 124.139025 170.561886 
L 124.139025 170.561886 
L 124.139025 170.561886 
L 124.139025 170.561886 
L 124.139025 170.561886 
L 124.139025 170.561886 
L 123.745577 169.765135 
L 123.745577 169.765135 
L 123.745577 169.765135 
L 65.146364 35.965852 
L 65.146364 35.965852 
L 65.146364 35.965852 
L 65.146364 35.965852 
L 65.146364 35.965852 
L 65.146364 35.965852 
L 65.146364 35.965852 
L 65.146364 35.965852 
L 65.146364 35.965852 
L 65.146364 35.965852 
L 65.146364 35.965852 
L 65.146364 35.965852 
L 65.146364 35.965852 
L 65.146364 35.965852 
L 65.146364 35.965852 
L 65.146364 35.965852 
L 65.146364 35.965852 
L 65.146364 35.965852 
L 65.146364 35.965852 
L 65.146364 35.965852 
L 65.146364 35.965852 
L 65.146364 35.965852 
L 65.146364 35.965852 
L 65.146364 35.965852 
L 65.146364 35.965852 
L 65.146364 35.965852 
L 65.146364 35.965852 
L 65.146364 35.965852 
L 65.146364 35.965852 
L 65.146364 35.965852 
L 65.146364 35.965852 
L 65.146364 35.965852 
L 65.146364 35.663636 
" clip-path="url(#pac5ea8786d)" style="fill: none; stroke: #2ca02c; stroke-opacity: 0.85; stroke-width: 1.5; stroke-linecap: square"/>
   </g>
   <g id="line2d_34">
    <path d="M 459.381608 297.684942 
L 459.381608 297.684942 
L 448.365054 295.129843 
L 448.365054 295.129843 
L 447.430614 294.607833 
L 447.430614 294.607833 
L 447.283071 294.442988 
L 447.283071 294.333092 
L 447.086347 293.920979 
L 413.913733 286.667794 
L 413.667828 286.557897 
L 413.667828 286.557897 
L 413.643237 286.557897 
L 411.184185 286.008413 
L 393.577372 278.672806 
L 393.577372 278.672806 
L 393.306876 276.502345 
L 393.282285 276.502345 
L 393.282285 276.474871 
L 388.905172 274.798946 
L 388.708448 274.771472 
L 388.708448 274.771472 
L 388.683858 274.771472 
L 388.683858 274.771472 
L 388.683858 274.743997 
L 297.108755 198.887772 
L 297.034983 198.832823 
L 297.034983 198.832823 
L 296.912031 198.695452 
L 296.912031 198.695452 
L 296.912031 198.667978 
L 284.14955 171.11137 
L 273.255949 170.232196 
L 269.100151 163.143856 
L 269.05097 163.006486 
L 266.149288 154.626859 
L 266.075517 154.599385 
L 261.427908 152.209131 
L 261.132822 152.07176 
L 196.361387 134.488281 
L 194.172831 132.015604 
L 194.049878 131.740863 
L 194.049878 131.740863 
L 194.049878 131.740863 
L 191.76296 130.80674 
L 191.492464 130.202308 
L 191.320331 130.202308 
L 191.320331 130.202308 
L 171.893818 125.229481 
L 171.697094 125.174532 
L 170.885607 124.5701 
L 170.836426 124.542626 
L 168.64787 119.240108 
L 167.910154 114.78929 
L 167.787201 114.761816 
L 167.762611 114.651919 
L 167.615068 114.102436 
L 165.81996 110.393421 
L 165.81996 110.393421 
L 157.606725 108.387805 
L 156.8936 105.887654 
L 156.8936 105.750283 
L 154.926358 105.00848 
L 149.418082 101.491784 
L 148.803318 100.832404 
L 148.557413 99.843333 
L 110.909325 80.501507 
L 107.810919 65.830292 
L 107.761738 65.665447 
L 107.761738 65.528076 
L 102.597728 63.000451 
L 73.507141 47.532484 
L 73.507141 47.477536 
L 72.130072 47.422588 
L 72.130072 47.367639 
L 65.244726 43.109141 
L 65.220135 42.806925 
L 65.220135 41.762906 
L 65.220135 41.762906 
L 65.220135 41.735431 
L 65.220135 41.570586 
L 65.170954 41.488164 
L 65.146364 41.488164 
L 65.146364 41.350793 
L 65.146364 41.323319 
L 65.146364 41.185948 
L 65.146364 41.103525 
L 65.146364 41.103525 
L 65.146364 39.619919 
L 65.146364 39.592445 
L 65.146364 39.455074 
L 65.146364 39.345177 
L 65.146364 37.367036 
L 65.146364 37.339562 
L 65.146364 37.312087 
L 65.146364 37.312087 
L 65.146364 36.872501 
L 65.146364 36.872501 
L 65.146364 36.872501 
L 65.146364 36.872501 
L 65.146364 35.663636 
" clip-path="url(#pac5ea8786d)" style="fill: none; stroke: #d62728; stroke-opacity: 0.85; stroke-width: 1.5; stroke-linecap: square"/>
   </g>
   <g id="patch_3">
    <path d="M 44.66 325.96 
L 44.66 21.84 
" style="fill: none; stroke: #000000; stroke-width: 0.8; stroke-linejoin: miter; stroke-linecap: square"/>
   </g>
   <g id="patch_4">
    <path d="M 495.36 325.96 
L 495.36 21.84 
" style="fill: none; stroke: #000000; stroke-width: 0.8; stroke-linejoin: miter; stroke-linecap: square"/>
   </g>
   <g id="patch_5">
    <path d="M 44.66 325.96 
L 495.36 325.96 
" style="fill: none; stroke: #000000; stroke-width: 0.8; stroke-linejoin: miter; stroke-linecap: square"/>
   </g>
   <g id="patch_6">
    <path d="M 44.66 21.84 
L 495.36 21.84 
" style="fill: none; stroke: #000000; stroke-width: 0.8; stroke-linejoin: miter; stroke-linecap: square"/>
   </g>
   <g id="text_18">
    <!-- Continuous CAB operating frontier -->
    <g transform="translate(44.66 15.84) scale(0.096 -0.096)">
     <defs>
      <path id="DejaVuSans-Bold-43" d="M 4288 256 
Q 3956 84 3597 -3 
Q 3238 -91 2847 -91 
Q 1681 -91 1000 561 
Q 319 1213 319 2328 
Q 319 3447 1000 4098 
Q 1681 4750 2847 4750 
Q 3238 4750 3597 4662 
Q 3956 4575 4288 4403 
L 4288 3438 
Q 3953 3666 3628 3772 
Q 3303 3878 2944 3878 
Q 2300 3878 1931 3465 
Q 1563 3053 1563 2328 
Q 1563 1606 1931 1193 
Q 2300 781 2944 781 
Q 3303 781 3628 887 
Q 3953 994 4288 1222 
L 4288 256 
z
" transform="scale(0.015625)"/>
      <path id="DejaVuSans-Bold-6f" d="M 2203 2784 
Q 1831 2784 1636 2517 
Q 1441 2250 1441 1747 
Q 1441 1244 1636 976 
Q 1831 709 2203 709 
Q 2569 709 2762 976 
Q 2956 1244 2956 1747 
Q 2956 2250 2762 2517 
Q 2569 2784 2203 2784 
z
M 2203 3584 
Q 3106 3584 3614 3096 
Q 4122 2609 4122 1747 
Q 4122 884 3614 396 
Q 3106 -91 2203 -91 
Q 1297 -91 786 396 
Q 275 884 275 1747 
Q 275 2609 786 3096 
Q 1297 3584 2203 3584 
z
" transform="scale(0.015625)"/>
      <path id="DejaVuSans-Bold-6e" d="M 4056 2131 
L 4056 0 
L 2931 0 
L 2931 347 
L 2931 1631 
Q 2931 2084 2911 2256 
Q 2891 2428 2841 2509 
Q 2775 2619 2662 2680 
Q 2550 2741 2406 2741 
Q 2056 2741 1856 2470 
Q 1656 2200 1656 1722 
L 1656 0 
L 538 0 
L 538 3500 
L 1656 3500 
L 1656 2988 
Q 1909 3294 2193 3439 
Q 2478 3584 2822 3584 
Q 3428 3584 3742 3212 
Q 4056 2841 4056 2131 
z
" transform="scale(0.015625)"/>
      <path id="DejaVuSans-Bold-74" d="M 1759 4494 
L 1759 3500 
L 2913 3500 
L 2913 2700 
L 1759 2700 
L 1759 1216 
Q 1759 972 1856 886 
Q 1953 800 2241 800 
L 2816 800 
L 2816 0 
L 1856 0 
Q 1194 0 917 276 
Q 641 553 641 1216 
L 641 2700 
L 84 2700 
L 84 3500 
L 641 3500 
L 641 4494 
L 1759 4494 
z
" transform="scale(0.015625)"/>
      <path id="DejaVuSans-Bold-69" d="M 538 3500 
L 1656 3500 
L 1656 0 
L 538 0 
L 538 3500 
z
M 538 4863 
L 1656 4863 
L 1656 3950 
L 538 3950 
L 538 4863 
z
" transform="scale(0.015625)"/>
      <path id="DejaVuSans-Bold-75" d="M 500 1363 
L 500 3500 
L 1625 3500 
L 1625 3150 
Q 1625 2866 1622 2436 
Q 1619 2006 1619 1863 
Q 1619 1441 1641 1255 
Q 1663 1069 1716 984 
Q 1784 875 1895 815 
Q 2006 756 2150 756 
Q 2500 756 2700 1025 
Q 2900 1294 2900 1772 
L 2900 3500 
L 4019 3500 
L 4019 0 
L 2900 0 
L 2900 506 
Q 2647 200 2364 54 
Q 2081 -91 1741 -91 
Q 1134 -91 817 281 
Q 500 653 500 1363 
z
" transform="scale(0.015625)"/>
      <path id="DejaVuSans-Bold-73" d="M 3272 3391 
L 3272 2541 
Q 2913 2691 2578 2766 
Q 2244 2841 1947 2841 
Q 1628 2841 1473 2761 
Q 1319 2681 1319 2516 
Q 1319 2381 1436 2309 
Q 1553 2238 1856 2203 
L 2053 2175 
Q 2913 2066 3209 1816 
Q 3506 1566 3506 1031 
Q 3506 472 3093 190 
Q 2681 -91 1863 -91 
Q 1516 -91 1145 -36 
Q 775 19 384 128 
L 384 978 
Q 719 816 1070 734 
Q 1422 653 1784 653 
Q 2113 653 2278 743 
Q 2444 834 2444 1013 
Q 2444 1163 2330 1236 
Q 2216 1309 1875 1350 
L 1678 1375 
Q 931 1469 631 1722 
Q 331 1975 331 2491 
Q 331 3047 712 3315 
Q 1094 3584 1881 3584 
Q 2191 3584 2531 3537 
Q 2872 3491 3272 3391 
z
" transform="scale(0.015625)"/>
      <path id="DejaVuSans-Bold-20" transform="scale(0.015625)"/>
      <path id="DejaVuSans-Bold-41" d="M 3419 850 
L 1538 850 
L 1241 0 
L 31 0 
L 1759 4666 
L 3194 4666 
L 4922 0 
L 3713 0 
L 3419 850 
z
M 1838 1716 
L 3116 1716 
L 2478 3572 
L 1838 1716 
z
" transform="scale(0.015625)"/>
      <path id="DejaVuSans-Bold-42" d="M 2456 2859 
Q 2741 2859 2887 2984 
Q 3034 3109 3034 3353 
Q 3034 3594 2887 3720 
Q 2741 3847 2456 3847 
L 1791 3847 
L 1791 2859 
L 2456 2859 
z
M 2497 819 
Q 2859 819 3042 972 
Q 3225 1125 3225 1434 
Q 3225 1738 3044 1889 
Q 2863 2041 2497 2041 
L 1791 2041 
L 1791 819 
L 2497 819 
z
M 3616 2497 
Q 4003 2384 4215 2081 
Q 4428 1778 4428 1338 
Q 4428 663 3972 331 
Q 3516 0 2584 0 
L 588 0 
L 588 4666 
L 2394 4666 
Q 3366 4666 3802 4372 
Q 4238 4078 4238 3431 
Q 4238 3091 4078 2852 
Q 3919 2613 3616 2497 
z
" transform="scale(0.015625)"/>
      <path id="DejaVuSans-Bold-70" d="M 1656 506 
L 1656 -1331 
L 538 -1331 
L 538 3500 
L 1656 3500 
L 1656 2988 
Q 1888 3294 2169 3439 
Q 2450 3584 2816 3584 
Q 3463 3584 3878 3070 
Q 4294 2556 4294 1747 
Q 4294 938 3878 423 
Q 3463 -91 2816 -91 
Q 2450 -91 2169 54 
Q 1888 200 1656 506 
z
M 2400 2772 
Q 2041 2772 1848 2508 
Q 1656 2244 1656 1747 
Q 1656 1250 1848 986 
Q 2041 722 2400 722 
Q 2759 722 2948 984 
Q 3138 1247 3138 1747 
Q 3138 2247 2948 2509 
Q 2759 2772 2400 2772 
z
" transform="scale(0.015625)"/>
      <path id="DejaVuSans-Bold-65" d="M 4031 1759 
L 4031 1441 
L 1416 1441 
Q 1456 1047 1700 850 
Q 1944 653 2381 653 
Q 2734 653 3104 758 
Q 3475 863 3866 1075 
L 3866 213 
Q 3469 63 3072 -14 
Q 2675 -91 2278 -91 
Q 1328 -91 801 392 
Q 275 875 275 1747 
Q 275 2603 792 3093 
Q 1309 3584 2216 3584 
Q 3041 3584 3536 3087 
Q 4031 2591 4031 1759 
z
M 2881 2131 
Q 2881 2450 2695 2645 
Q 2509 2841 2209 2841 
Q 1884 2841 1681 2658 
Q 1478 2475 1428 2131 
L 2881 2131 
z
" transform="scale(0.015625)"/>
      <path id="DejaVuSans-Bold-72" d="M 3138 2547 
Q 2991 2616 2845 2648 
Q 2700 2681 2553 2681 
Q 2122 2681 1889 2404 
Q 1656 2128 1656 1613 
L 1656 0 
L 538 0 
L 538 3500 
L 1656 3500 
L 1656 2925 
Q 1872 3269 2151 3426 
Q 2431 3584 2822 3584 
Q 2878 3584 2943 3579 
Q 3009 3575 3134 3559 
L 3138 2547 
z
" transform="scale(0.015625)"/>
      <path id="DejaVuSans-Bold-61" d="M 2106 1575 
Q 1756 1575 1579 1456 
Q 1403 1338 1403 1106 
Q 1403 894 1545 773 
Q 1688 653 1941 653 
Q 2256 653 2472 879 
Q 2688 1106 2688 1447 
L 2688 1575 
L 2106 1575 
z
M 3816 1997 
L 3816 0 
L 2688 0 
L 2688 519 
Q 2463 200 2181 54 
Q 1900 -91 1497 -91 
Q 953 -91 614 226 
Q 275 544 275 1050 
Q 275 1666 698 1953 
Q 1122 2241 2028 2241 
L 2688 2241 
L 2688 2328 
Q 2688 2594 2478 2717 
Q 2269 2841 1825 2841 
Q 1466 2841 1156 2769 
Q 847 2697 581 2553 
L 581 3406 
Q 941 3494 1303 3539 
Q 1666 3584 2028 3584 
Q 2975 3584 3395 3211 
Q 3816 2838 3816 1997 
z
" transform="scale(0.015625)"/>
      <path id="DejaVuSans-Bold-67" d="M 2919 594 
Q 2688 288 2409 144 
Q 2131 0 1766 0 
Q 1125 0 706 504 
Q 288 1009 288 1791 
Q 288 2575 706 3076 
Q 1125 3578 1766 3578 
Q 2131 3578 2409 3434 
Q 2688 3291 2919 2981 
L 2919 3500 
L 4044 3500 
L 4044 353 
Q 4044 -491 3511 -936 
Q 2978 -1381 1966 -1381 
Q 1638 -1381 1331 -1331 
Q 1025 -1281 716 -1178 
L 716 -306 
Q 1009 -475 1290 -558 
Q 1572 -641 1856 -641 
Q 2406 -641 2662 -400 
Q 2919 -159 2919 353 
L 2919 594 
z
M 2181 2772 
Q 1834 2772 1640 2515 
Q 1447 2259 1447 1791 
Q 1447 1309 1634 1061 
Q 1822 813 2181 813 
Q 2531 813 2725 1069 
Q 2919 1325 2919 1791 
Q 2919 2259 2725 2515 
Q 2531 2772 2181 2772 
z
" transform="scale(0.015625)"/>
      <path id="DejaVuSans-Bold-66" d="M 2841 4863 
L 2841 4128 
L 2222 4128 
Q 1984 4128 1890 4042 
Q 1797 3956 1797 3744 
L 1797 3500 
L 2753 3500 
L 2753 2700 
L 1797 2700 
L 1797 0 
L 678 0 
L 678 2700 
L 122 2700 
L 122 3500 
L 678 3500 
L 678 3744 
Q 678 4316 997 4589 
Q 1316 4863 1984 4863 
L 2841 4863 
z
" transform="scale(0.015625)"/>
     </defs>
     <use xlink:href="#DejaVuSans-Bold-43"/>
     <use xlink:href="#DejaVuSans-Bold-6f" transform="translate(73.388672 0)"/>
     <use xlink:href="#DejaVuSans-Bold-6e" transform="translate(142.089844 0)"/>
     <use xlink:href="#DejaVuSans-Bold-74" transform="translate(213.28125 0)"/>
     <use xlink:href="#DejaVuSans-Bold-69" transform="translate(261.083984 0)"/>
     <use xlink:href="#DejaVuSans-Bold-6e" transform="translate(295.361328 0)"/>
     <use xlink:href="#DejaVuSans-Bold-75" transform="translate(366.552734 0)"/>
     <use xlink:href="#DejaVuSans-Bold-6f" transform="translate(437.744141 0)"/>
     <use xlink:href="#DejaVuSans-Bold-75" transform="translate(506.445312 0)"/>
     <use xlink:href="#DejaVuSans-Bold-73" transform="translate(577.636719 0)"/>
     <use xlink:href="#DejaVuSans-Bold-20" transform="translate(637.158203 0)"/>
     <use xlink:href="#DejaVuSans-Bold-43" transform="translate(671.972656 0)"/>
     <use xlink:href="#DejaVuSans-Bold-41" transform="translate(745.361328 0)"/>
     <use xlink:href="#DejaVuSans-Bold-42" transform="translate(822.753906 0)"/>
     <use xlink:href="#DejaVuSans-Bold-20" transform="translate(898.974609 0)"/>
     <use xlink:href="#DejaVuSans-Bold-6f" transform="translate(933.789062 0)"/>
     <use xlink:href="#DejaVuSans-Bold-70" transform="translate(1002.490234 0)"/>
     <use xlink:href="#DejaVuSans-Bold-65" transform="translate(1074.072266 0)"/>
     <use xlink:href="#DejaVuSans-Bold-72" transform="translate(1141.894531 0)"/>
     <use xlink:href="#DejaVuSans-Bold-61" transform="translate(1191.210938 0)"/>
     <use xlink:href="#DejaVuSans-Bold-74" transform="translate(1258.691406 0)"/>
     <use xlink:href="#DejaVuSans-Bold-69" transform="translate(1306.494141 0)"/>
     <use xlink:href="#DejaVuSans-Bold-6e" transform="translate(1340.771484 0)"/>
     <use xlink:href="#DejaVuSans-Bold-67" transform="translate(1411.962891 0)"/>
     <use xlink:href="#DejaVuSans-Bold-20" transform="translate(1483.544922 0)"/>
     <use xlink:href="#DejaVuSans-Bold-66" transform="translate(1518.359375 0)"/>
     <use xlink:href="#DejaVuSans-Bold-72" transform="translate(1561.865234 0)"/>
     <use xlink:href="#DejaVuSans-Bold-6f" transform="translate(1611.181641 0)"/>
     <use xlink:href="#DejaVuSans-Bold-6e" transform="translate(1679.882812 0)"/>
     <use xlink:href="#DejaVuSans-Bold-74" transform="translate(1751.074219 0)"/>
     <use xlink:href="#DejaVuSans-Bold-69" transform="translate(1798.876953 0)"/>
     <use xlink:href="#DejaVuSans-Bold-65" transform="translate(1833.154297 0)"/>
     <use xlink:href="#DejaVuSans-Bold-72" transform="translate(1900.976562 0)"/>
    </g>
   </g>
   <g id="legend_1">
    <g id="line2d_35">
     <path d="M 388.184531 31.008906 
L 395.184531 31.008906 
L 402.184531 31.008906 
" style="fill: none; stroke: #1f77b4; stroke-opacity: 0.85; stroke-width: 1.5; stroke-linecap: square"/>
    </g>
    <g id="text_19">
     <!-- allowed-risk threshold -->
     <g transform="translate(407.784531 33.458906) scale(0.07 -0.07)">
      <defs>
       <path id="DejaVuSans-61" d="M 2194 1759 
Q 1497 1759 1228 1600 
Q 959 1441 959 1056 
Q 959 750 1161 570 
Q 1363 391 1709 391 
Q 2188 391 2477 730 
Q 2766 1069 2766 1631 
L 2766 1759 
L 2194 1759 
z
M 3341 1997 
L 3341 0 
L 2766 0 
L 2766 531 
Q 2569 213 2275 61 
Q 1981 -91 1556 -91 
Q 1019 -91 701 211 
Q 384 513 384 1019 
Q 384 1609 779 1909 
Q 1175 2209 1959 2209 
L 2766 2209 
L 2766 2266 
Q 2766 2663 2505 2880 
Q 2244 3097 1772 3097 
Q 1472 3097 1187 3025 
Q 903 2953 641 2809 
L 641 3341 
Q 956 3463 1253 3523 
Q 1550 3584 1831 3584 
Q 2591 3584 2966 3190 
Q 3341 2797 3341 1997 
z
" transform="scale(0.015625)"/>
       <path id="DejaVuSans-6c" d="M 603 4863 
L 1178 4863 
L 1178 0 
L 603 0 
L 603 4863 
z
" transform="scale(0.015625)"/>
       <path id="DejaVuSans-77" d="M 269 3500 
L 844 3500 
L 1563 769 
L 2278 3500 
L 2956 3500 
L 3675 769 
L 4391 3500 
L 4966 3500 
L 4050 0 
L 3372 0 
L 2619 2869 
L 1863 0 
L 1184 0 
L 269 3500 
z
" transform="scale(0.015625)"/>
       <path id="DejaVuSans-2d" d="M 313 2009 
L 1997 2009 
L 1997 1497 
L 313 1497 
L 313 2009 
z
" transform="scale(0.015625)"/>
       <path id="DejaVuSans-6b" d="M 581 4863 
L 1159 4863 
L 1159 1991 
L 2875 3500 
L 3609 3500 
L 1753 1863 
L 3688 0 
L 2938 0 
L 1159 1709 
L 1159 0 
L 581 0 
L 581 4863 
z
" transform="scale(0.015625)"/>
       <path id="DejaVuSans-68" d="M 3513 2113 
L 3513 0 
L 2938 0 
L 2938 2094 
Q 2938 2591 2744 2837 
Q 2550 3084 2163 3084 
Q 1697 3084 1428 2787 
Q 1159 2491 1159 1978 
L 1159 0 
L 581 0 
L 581 4863 
L 1159 4863 
L 1159 2956 
Q 1366 3272 1645 3428 
Q 1925 3584 2291 3584 
Q 2894 3584 3203 3211 
Q 3513 2838 3513 2113 
z
" transform="scale(0.015625)"/>
      </defs>
      <use xlink:href="#DejaVuSans-61"/>
      <use xlink:href="#DejaVuSans-6c" transform="translate(61.279297 0)"/>
      <use xlink:href="#DejaVuSans-6c" transform="translate(89.0625 0)"/>
      <use xlink:href="#DejaVuSans-6f" transform="translate(116.845703 0)"/>
      <use xlink:href="#DejaVuSans-77" transform="translate(178.027344 0)"/>
      <use xlink:href="#DejaVuSans-65" transform="translate(259.814453 0)"/>
      <use xlink:href="#DejaVuSans-64" transform="translate(321.337891 0)"/>
      <use xlink:href="#DejaVuSans-2d" transform="translate(384.814453 0)"/>
      <use xlink:href="#DejaVuSans-72" transform="translate(420.898438 0)"/>
      <use xlink:href="#DejaVuSans-69" transform="translate(462.011719 0)"/>
      <use xlink:href="#DejaVuSans-73" transform="translate(489.794922 0)"/>
      <use xlink:href="#DejaVuSans-6b" transform="translate(541.894531 0)"/>
      <use xlink:href="#DejaVuSans-20" transform="translate(599.804688 0)"/>
      <use xlink:href="#DejaVuSans-74" transform="translate(631.591797 0)"/>
      <use xlink:href="#DejaVuSans-68" transform="translate(670.800781 0)"/>
      <use xlink:href="#DejaVuSans-72" transform="translate(734.179688 0)"/>
      <use xlink:href="#DejaVuSans-65" transform="translate(773.042969 0)"/>
      <use xlink:href="#DejaVuSans-73" transform="translate(834.566406 0)"/>
      <use xlink:href="#DejaVuSans-68" transform="translate(886.666016 0)"/>
      <use xlink:href="#DejaVuSans-6f" transform="translate(950.044922 0)"/>
      <use xlink:href="#DejaVuSans-6c" transform="translate(1011.226562 0)"/>
      <use xlink:href="#DejaVuSans-64" transform="translate(1039.009766 0)"/>
     </g>
    </g>
    <g id="line2d_36">
     <path d="M 388.184531 41.283594 
L 395.184531 41.283594 
L 402.184531 41.283594 
" style="fill: none; stroke: #ff7f0e; stroke-opacity: 0.85; stroke-width: 1.5; stroke-linecap: square"/>
    </g>
    <g id="text_20">
     <!-- direct-use threshold -->
     <g transform="translate(407.784531 43.733594) scale(0.07 -0.07)">
      <use xlink:href="#DejaVuSans-64"/>
      <use xlink:href="#DejaVuSans-69" transform="translate(63.476562 0)"/>
      <use xlink:href="#DejaVuSans-72" transform="translate(91.259766 0)"/>
      <use xlink:href="#DejaVuSans-65" transform="translate(130.123047 0)"/>
      <use xlink:href="#DejaVuSans-63" transform="translate(191.646484 0)"/>
      <use xlink:href="#DejaVuSans-74" transform="translate(246.626953 0)"/>
      <use xlink:href="#DejaVuSans-2d" transform="translate(285.835938 0)"/>
      <use xlink:href="#DejaVuSans-75" transform="translate(321.919922 0)"/>
      <use xlink:href="#DejaVuSans-73" transform="translate(385.298828 0)"/>
      <use xlink:href="#DejaVuSans-65" transform="translate(437.398438 0)"/>
      <use xlink:href="#DejaVuSans-20" transform="translate(498.921875 0)"/>
      <use xlink:href="#DejaVuSans-74" transform="translate(530.708984 0)"/>
      <use xlink:href="#DejaVuSans-68" transform="translate(569.917969 0)"/>
      <use xlink:href="#DejaVuSans-72" transform="translate(633.296875 0)"/>
      <use xlink:href="#DejaVuSans-65" transform="translate(672.160156 0)"/>
      <use xlink:href="#DejaVuSans-73" transform="translate(733.683594 0)"/>
      <use xlink:href="#DejaVuSans-68" transform="translate(785.783203 0)"/>
      <use xlink:href="#DejaVuSans-6f" transform="translate(849.162109 0)"/>
      <use xlink:href="#DejaVuSans-6c" transform="translate(910.34375 0)"/>
      <use xlink:href="#DejaVuSans-64" transform="translate(938.126953 0)"/>
     </g>
    </g>
    <g id="line2d_37">
     <path d="M 388.184531 51.558281 
L 395.184531 51.558281 
L 402.184531 51.558281 
" style="fill: none; stroke: #2ca02c; stroke-opacity: 0.85; stroke-width: 1.5; stroke-linecap: square"/>
    </g>
    <g id="text_21">
     <!-- regime score threshold -->
     <g transform="translate(407.784531 54.008281) scale(0.07 -0.07)">
      <defs>
       <path id="DejaVuSans-67" d="M 2906 1791 
Q 2906 2416 2648 2759 
Q 2391 3103 1925 3103 
Q 1463 3103 1205 2759 
Q 947 2416 947 1791 
Q 947 1169 1205 825 
Q 1463 481 1925 481 
Q 2391 481 2648 825 
Q 2906 1169 2906 1791 
z
M 3481 434 
Q 3481 -459 3084 -895 
Q 2688 -1331 1869 -1331 
Q 1566 -1331 1297 -1286 
Q 1028 -1241 775 -1147 
L 775 -588 
Q 1028 -725 1275 -790 
Q 1522 -856 1778 -856 
Q 2344 -856 2625 -561 
Q 2906 -266 2906 331 
L 2906 616 
Q 2728 306 2450 153 
Q 2172 0 1784 0 
Q 1141 0 747 490 
Q 353 981 353 1791 
Q 353 2603 747 3093 
Q 1141 3584 1784 3584 
Q 2172 3584 2450 3431 
Q 2728 3278 2906 2969 
L 2906 3500 
L 3481 3500 
L 3481 434 
z
" transform="scale(0.015625)"/>
       <path id="DejaVuSans-6d" d="M 3328 2828 
Q 3544 3216 3844 3400 
Q 4144 3584 4550 3584 
Q 5097 3584 5394 3201 
Q 5691 2819 5691 2113 
L 5691 0 
L 5113 0 
L 5113 2094 
Q 5113 2597 4934 2840 
Q 4756 3084 4391 3084 
Q 3944 3084 3684 2787 
Q 3425 2491 3425 1978 
L 3425 0 
L 2847 0 
L 2847 2094 
Q 2847 2600 2669 2842 
Q 2491 3084 2119 3084 
Q 1678 3084 1418 2786 
Q 1159 2488 1159 1978 
L 1159 0 
L 581 0 
L 581 3500 
L 1159 3500 
L 1159 2956 
Q 1356 3278 1631 3431 
Q 1906 3584 2284 3584 
Q 2666 3584 2933 3390 
Q 3200 3197 3328 2828 
z
" transform="scale(0.015625)"/>
      </defs>
      <use xlink:href="#DejaVuSans-72"/>
      <use xlink:href="#DejaVuSans-65" transform="translate(38.863281 0)"/>
      <use xlink:href="#DejaVuSans-67" transform="translate(100.386719 0)"/>
      <use xlink:href="#DejaVuSans-69" transform="translate(163.863281 0)"/>
      <use xlink:href="#DejaVuSans-6d" transform="translate(191.646484 0)"/>
      <use xlink:href="#DejaVuSans-65" transform="translate(289.058594 0)"/>
      <use xlink:href="#DejaVuSans-20" transform="translate(350.582031 0)"/>
      <use xlink:href="#DejaVuSans-73" transform="translate(382.369141 0)"/>
      <use xlink:href="#DejaVuSans-63" transform="translate(434.46875 0)"/>
      <use xlink:href="#DejaVuSans-6f" transform="translate(489.449219 0)"/>
      <use xlink:href="#DejaVuSans-72" transform="translate(550.630859 0)"/>
      <use xlink:href="#DejaVuSans-65" transform="translate(589.494141 0)"/>
      <use xlink:href="#DejaVuSans-20" transform="translate(651.017578 0)"/>
      <use xlink:href="#DejaVuSans-74" transform="translate(682.804688 0)"/>
      <use xlink:href="#DejaVuSans-68" transform="translate(722.013672 0)"/>
      <use xlink:href="#DejaVuSans-72" transform="translate(785.392578 0)"/>
      <use xlink:href="#DejaVuSans-65" transform="translate(824.255859 0)"/>
      <use xlink:href="#DejaVuSans-73" transform="translate(885.779297 0)"/>
      <use xlink:href="#DejaVuSans-68" transform="translate(937.878906 0)"/>
      <use xlink:href="#DejaVuSans-6f" transform="translate(1001.257812 0)"/>
      <use xlink:href="#DejaVuSans-6c" transform="translate(1062.439453 0)"/>
      <use xlink:href="#DejaVuSans-64" transform="translate(1090.222656 0)"/>
     </g>
    </g>
    <g id="line2d_38">
     <path d="M 388.184531 61.832969 
L 395.184531 61.832969 
L 402.184531 61.832969 
" style="fill: none; stroke: #d62728; stroke-opacity: 0.85; stroke-width: 1.5; stroke-linecap: square"/>
    </g>
    <g id="text_22">
     <!-- repair/review threshold -->
     <g transform="translate(407.784531 64.282969) scale(0.07 -0.07)">
      <defs>
       <path id="DejaVuSans-2f" d="M 1625 4666 
L 2156 4666 
L 531 -594 
L 0 -594 
L 1625 4666 
z
" transform="scale(0.015625)"/>
      </defs>
      <use xlink:href="#DejaVuSans-72"/>
      <use xlink:href="#DejaVuSans-65" transform="translate(38.863281 0)"/>
      <use xlink:href="#DejaVuSans-70" transform="translate(100.386719 0)"/>
      <use xlink:href="#DejaVuSans-61" transform="translate(163.863281 0)"/>
      <use xlink:href="#DejaVuSans-69" transform="translate(225.142578 0)"/>
      <use xlink:href="#DejaVuSans-72" transform="translate(252.925781 0)"/>
      <use xlink:href="#DejaVuSans-2f" transform="translate(294.039062 0)"/>
      <use xlink:href="#DejaVuSans-72" transform="translate(327.730469 0)"/>
      <use xlink:href="#DejaVuSans-65" transform="translate(366.59375 0)"/>
      <use xlink:href="#DejaVuSans-76" transform="translate(428.117188 0)"/>
      <use xlink:href="#DejaVuSans-69" transform="translate(487.296875 0)"/>
      <use xlink:href="#DejaVuSans-65" transform="translate(515.080078 0)"/>
      <use xlink:href="#DejaVuSans-77" transform="translate(576.603516 0)"/>
      <use xlink:href="#DejaVuSans-20" transform="translate(658.390625 0)"/>
      <use xlink:href="#DejaVuSans-74" transform="translate(690.177734 0)"/>
      <use xlink:href="#DejaVuSans-68" transform="translate(729.386719 0)"/>
      <use xlink:href="#DejaVuSans-72" transform="translate(792.765625 0)"/>
      <use xlink:href="#DejaVuSans-65" transform="translate(831.628906 0)"/>
      <use xlink:href="#DejaVuSans-73" transform="translate(893.152344 0)"/>
      <use xlink:href="#DejaVuSans-68" transform="translate(945.251953 0)"/>
      <use xlink:href="#DejaVuSans-6f" transform="translate(1008.630859 0)"/>
      <use xlink:href="#DejaVuSans-6c" transform="translate(1069.8125 0)"/>
      <use xlink:href="#DejaVuSans-64" transform="translate(1097.595703 0)"/>
     </g>
    </g>
   </g>
  </g>
 </g>
 <defs>
  <clipPath id="pac5ea8786d">
   <rect x="44.66" y="21.84" width="450.7" height="304.12"/>
  </clipPath>
 </defs>
</svg>
