<svg xmlns="http://www.w3.org/2000/svg" width="1400" height="980" viewBox="0 0 1400 980">
<rect width="100%" height="100%" fill="#fff"/>
<text x="40" y="40" font-family="Arial" font-size="26" font-weight="700">Disease architecture phase space</text>
<text x="40" y="66" font-family="Arial" font-size="14">Pathogenic meaning mobility varies with anchoring, penetrance dependence, specificity, system overlap, and genotype-first inference dependence.</text>
<rect x="90" y="140" width="520" height="520" fill="#fafafa" stroke="#111"/>
<text x="240" y="118" font-family="Arial" font-size="18" font-weight="700">Anchoring vs conditionality</text>
<text x="270" y="700" font-family="Arial" font-size="14">phenotype anchoring →</text>
<text x="20" y="400" transform="rotate(-90 20,400)" font-family="Arial" font-size="14">penetrance/modifier dependence →</text>
<circle cx="558.0" cy="556.0" r="13.2" fill="#cfcfcf" stroke="#111" stroke-width="1.4"/>
<text x="572.0" y="560.0" font-family="Arial" font-size="11">Phenotype-anchored monogenic</text>
<circle cx="532.0" cy="504.0" r="18.8" fill="#cfcfcf" stroke="#111" stroke-width="1.6"/>
<text x="546.0" y="508.0" font-family="Arial" font-size="11">Syndrome-anchored</text>
<circle cx="324.0" cy="166.0" r="14.8" fill="#cfcfcf" stroke="#111" stroke-width="2.8"/>
<text x="338.0" y="170.0" font-family="Arial" font-size="11">Modifier/penetrance boundary</text>
<circle cx="168.0" cy="426.0" r="16.4" fill="#cfcfcf" stroke="#111" stroke-width="2.4"/>
<text x="182.0" y="430.0" font-family="Arial" font-size="11">Nonspecific/underresolved</text>
<circle cx="376.0" cy="426.0" r="25.2" fill="#cfcfcf" stroke="#111" stroke-width="2.0"/>
<text x="390.0" y="430.0" font-family="Arial" font-size="11">Structural-functional overlap</text>
<circle cx="428.0" cy="374.0" r="21.2" fill="#cfcfcf" stroke="#111" stroke-width="2.2"/>
<text x="442.0" y="378.0" font-family="Arial" font-size="11">Syndrome-organ boundary</text>
<circle cx="350.0" cy="244.0" r="17.2" fill="#ffffff" stroke="#111" stroke-width="2.8"/>
<text x="364.0" y="248.0" font-family="Arial" font-size="11">Trigger-dependent latent</text>
<circle cx="298.0" cy="374.0" r="22.0" fill="#ffffff" stroke="#111" stroke-width="2.0"/>
<text x="312.0" y="378.0" font-family="Arial" font-size="11">Pleiotropic collision</text>
<circle cx="142.0" cy="192.0" r="15.6" fill="#f8f8f8" stroke="#111" stroke-width="5.0"/>
<text x="156.0" y="196.0" font-family="Arial" font-size="11">Genotype-first absent phenotype</text>
<text x="680" y="100" font-family="Arial" font-size="18" font-weight="700">Regime support and expected mobility</text>
<rect x="680" y="108" width="650" height="68" rx="12" fill="#cfcfcf" stroke="#111"/>
<text x="694" y="130" font-family="Arial" font-size="13" font-weight="700">Phenotype-anchored monogenic</text>
<text x="990" y="130" font-family="Arial" font-size="12">strong_empirical_support</text>
<text x="694" y="152" font-family="Arial" font-size="12">deterministic self-loop mobility</text>
<text x="694" y="172" font-family="Arial" font-size="12">direct deterministic use within concordant self-loop</text>
<rect x="680" y="190" width="650" height="68" rx="12" fill="#cfcfcf" stroke="#111"/>
<text x="694" y="212" font-family="Arial" font-size="13" font-weight="700">Syndrome-anchored</text>
<text x="990" y="212" font-family="Arial" font-size="12">strong_empirical_support</text>
<text x="694" y="234" font-family="Arial" font-size="12">self-loop stable but boundary-sensitive</text>
<text x="694" y="254" font-family="Arial" font-size="12">self-loop stable but boundary-sensitive</text>
<rect x="680" y="272" width="650" height="68" rx="12" fill="#cfcfcf" stroke="#111"/>
<text x="694" y="294" font-family="Arial" font-size="13" font-weight="700">Modifier/penetrance boundary</text>
<text x="990" y="294" font-family="Arial" font-size="12">strong_empirical_support</text>
<text x="694" y="316" font-family="Arial" font-size="12">conditional liability, not deterministic disease</text>
<text x="694" y="336" font-family="Arial" font-size="12">population/penetrance review; PRF-needed</text>
<rect x="680" y="354" width="650" height="68" rx="12" fill="#cfcfcf" stroke="#111"/>
<text x="694" y="376" font-family="Arial" font-size="13" font-weight="700">Nonspecific/underresolved</text>
<text x="990" y="376" font-family="Arial" font-size="12">strong_empirical_support</text>
<text x="694" y="398" font-family="Arial" font-size="12">inference-limited; contextual repair required</text>
<text x="694" y="418" font-family="Arial" font-size="12">contextual repair or disease-specific review</text>
<rect x="680" y="436" width="650" height="68" rx="12" fill="#cfcfcf" stroke="#111"/>
<text x="694" y="458" font-family="Arial" font-size="13" font-weight="700">Structural-functional overlap</text>
<text x="990" y="458" font-family="Arial" font-size="12">strong_empirical_support</text>
<text x="694" y="480" font-family="Arial" font-size="12">domain repair across structural/functional systems</text>
<text x="694" y="500" font-family="Arial" font-size="12">domain repair; disease-specific expert review</text>
<rect x="680" y="518" width="650" height="68" rx="12" fill="#cfcfcf" stroke="#111"/>
<text x="694" y="540" font-family="Arial" font-size="13" font-weight="700">Syndrome-organ boundary</text>
<text x="990" y="540" font-family="Arial" font-size="12">strong_empirical_support</text>
<text x="694" y="562" font-family="Arial" font-size="12">source identity accepted; meaning boundary</text>
<text x="694" y="582" font-family="Arial" font-size="12">source identity accepted; contextual repair or disease-specific review</text>
<rect x="680" y="600" width="650" height="68" rx="12" fill="#ffffff" stroke="#111"/>
<text x="694" y="622" font-family="Arial" font-size="13" font-weight="700">Trigger-dependent latent</text>
<text x="990" y="622" font-family="Arial" font-size="12">underpowered_framework_category</text>
<text x="694" y="644" font-family="Arial" font-size="12">trigger/context-dependent mobility</text>
<text x="694" y="664" font-family="Arial" font-size="12">contextual repair; trigger/phenotype-context review</text>
<rect x="680" y="682" width="650" height="68" rx="12" fill="#ffffff" stroke="#111"/>
<text x="694" y="704" font-family="Arial" font-size="13" font-weight="700">Pleiotropic collision</text>
<text x="990" y="704" font-family="Arial" font-size="12">underpowered_framework_category</text>
<text x="694" y="726" font-family="Arial" font-size="12">disease-model collision; underpowered here</text>
<text x="694" y="746" font-family="Arial" font-size="12">disease-specific review or contextual repair</text>
<rect x="680" y="764" width="650" height="68" rx="12" fill="#f8f8f8" stroke="#111"/>
<text x="694" y="786" font-family="Arial" font-size="13" font-weight="700">Genotype-first absent phenotype</text>
<text x="990" y="786" font-family="Arial" font-size="12">absent_in_current_benchmark</text>
<text x="694" y="808" font-family="Arial" font-size="12">absent/currently unsampled; PRF target</text>
<text x="694" y="828" font-family="Arial" font-size="12">PRF-needed; no deterministic reuse</text>
</svg>
