<?xml version="1.0" encoding="utf-8" standalone="no"?>
<!DOCTYPE svg PUBLIC "-//W3C//DTD SVG 1.1//EN"
  "http://www.w3.org/Graphics/SVG/1.1/DTD/svg11.dtd">
<svg xmlns:xlink="http://www.w3.org/1999/xlink" width="864pt" height="288pt" viewBox="0 0 864 288" xmlns="http://www.w3.org/2000/svg" version="1.1">
 <metadata>
  <rdf:RDF xmlns:dc="http://purl.org/dc/elements/1.1/" xmlns:cc="http://creativecommons.org/ns#" xmlns:rdf="http://www.w3.org/1999/02/22-rdf-syntax-ns#">
   <cc:Work>
    <dc:type rdf:resource="http://purl.org/dc/dcmitype/StillImage"/>
    <dc:date>2026-05-04T03:16:52.981122</dc:date>
    <dc:format>image/svg+xml</dc:format>
    <dc:creator>
     <cc:Agent>
      <dc:title>Matplotlib v3.10.9, https://matplotlib.org/</dc:title>
     </cc:Agent>
    </dc:creator>
   </cc:Work>
  </rdf:RDF>
 </metadata>
 <defs>
  <style type="text/css">*{stroke-linejoin: round; stroke-linecap: butt}</style>
 </defs>
 <g id="figure_1">
  <g id="patch_1">
   <path d="M 0 288 
L 864 288 
L 864 0 
L 0 0 
z
" style="fill: #ffffff"/>
  </g>
  <g id="axes_1">
   <g id="patch_2">
    <path d="M 47.72 224.618033 
L 429.87619 224.618033 
L 429.87619 26.88 
L 47.72 26.88 
z
" style="fill: #ffffff"/>
   </g>
   <g id="patch_3">
    <path d="M 65.090736 224.618033 
L 110.125977 224.618033 
L 110.125977 145.186038 
L 65.090736 145.186038 
z
" clip-path="url(#pc7d10639d3)" style="fill: #1f77b4"/>
   </g>
   <g id="patch_4">
    <path d="M 193.762854 224.618033 
L 238.798095 224.618033 
L 238.798095 149.747426 
L 193.762854 149.747426 
z
" clip-path="url(#pc7d10639d3)" style="fill: #1f77b4"/>
   </g>
   <g id="patch_5">
    <path d="M 322.434972 224.618033 
L 367.470213 224.618033 
L 367.470213 144.994061 
L 322.434972 144.994061 
z
" clip-path="url(#pc7d10639d3)" style="fill: #1f77b4"/>
   </g>
   <g id="patch_6">
    <path d="M 110.125977 224.618033 
L 155.161218 224.618033 
L 155.161218 216.553659 
L 110.125977 216.553659 
z
" clip-path="url(#pc7d10639d3)" style="fill: #ff7f0e"/>
   </g>
   <g id="patch_7">
    <path d="M 238.798095 224.618033 
L 283.833336 224.618033 
L 283.833336 207.087163 
L 238.798095 207.087163 
z
" clip-path="url(#pc7d10639d3)" style="fill: #ff7f0e"/>
   </g>
   <g id="patch_8">
    <path d="M 367.470213 224.618033 
L 412.505454 224.618033 
L 412.505454 220.255076 
L 367.470213 220.255076 
z
" clip-path="url(#pc7d10639d3)" style="fill: #ff7f0e"/>
   </g>
   <g id="matplotlib.axis_1">
    <g id="xtick_1">
     <g id="line2d_1">
      <defs>
       <path id="m0621df428c" d="M 0 0 
L 0 3.5 
" style="stroke: #000000; stroke-width: 0.8"/>
      </defs>
      <g>
       <use xlink:href="#m0621df428c" x="110.125977" y="224.618033" style="stroke: #000000; stroke-width: 0.8"/>
      </g>
     </g>
     <g id="text_1">
      <!-- cardiomyopathy -->
      <g transform="translate(33.074935 266.543625) rotate(-20) scale(0.1 -0.1)">
       <defs>
        <path id="DejaVuSans-63" d="M 3122 3366 
L 3122 2828 
Q 2878 2963 2633 3030 
Q 2388 3097 2138 3097 
Q 1578 3097 1268 2742 
Q 959 2388 959 1747 
Q 959 1106 1268 751 
Q 1578 397 2138 397 
Q 2388 397 2633 464 
Q 2878 531 3122 666 
L 3122 134 
Q 2881 22 2623 -34 
Q 2366 -91 2075 -91 
Q 1284 -91 818 406 
Q 353 903 353 1747 
Q 353 2603 823 3093 
Q 1294 3584 2113 3584 
Q 2378 3584 2631 3529 
Q 2884 3475 3122 3366 
z
" transform="scale(0.015625)"/>
        <path id="DejaVuSans-61" d="M 2194 1759 
Q 1497 1759 1228 1600 
Q 959 1441 959 1056 
Q 959 750 1161 570 
Q 1363 391 1709 391 
Q 2188 391 2477 730 
Q 2766 1069 2766 1631 
L 2766 1759 
L 2194 1759 
z
M 3341 1997 
L 3341 0 
L 2766 0 
L 2766 531 
Q 2569 213 2275 61 
Q 1981 -91 1556 -91 
Q 1019 -91 701 211 
Q 384 513 384 1019 
Q 384 1609 779 1909 
Q 1175 2209 1959 2209 
L 2766 2209 
L 2766 2266 
Q 2766 2663 2505 2880 
Q 2244 3097 1772 3097 
Q 1472 3097 1187 3025 
Q 903 2953 641 2809 
L 641 3341 
Q 956 3463 1253 3523 
Q 1550 3584 1831 3584 
Q 2591 3584 2966 3190 
Q 3341 2797 3341 1997 
z
" transform="scale(0.015625)"/>
        <path id="DejaVuSans-72" d="M 2631 2963 
Q 2534 3019 2420 3045 
Q 2306 3072 2169 3072 
Q 1681 3072 1420 2755 
Q 1159 2438 1159 1844 
L 1159 0 
L 581 0 
L 581 3500 
L 1159 3500 
L 1159 2956 
Q 1341 3275 1631 3429 
Q 1922 3584 2338 3584 
Q 2397 3584 2469 3576 
Q 2541 3569 2628 3553 
L 2631 2963 
z
" transform="scale(0.015625)"/>
        <path id="DejaVuSans-64" d="M 2906 2969 
L 2906 4863 
L 3481 4863 
L 3481 0 
L 2906 0 
L 2906 525 
Q 2725 213 2448 61 
Q 2172 -91 1784 -91 
Q 1150 -91 751 415 
Q 353 922 353 1747 
Q 353 2572 751 3078 
Q 1150 3584 1784 3584 
Q 2172 3584 2448 3432 
Q 2725 3281 2906 2969 
z
M 947 1747 
Q 947 1113 1208 752 
Q 1469 391 1925 391 
Q 2381 391 2643 752 
Q 2906 1113 2906 1747 
Q 2906 2381 2643 2742 
Q 2381 3103 1925 3103 
Q 1469 3103 1208 2742 
Q 947 2381 947 1747 
z
" transform="scale(0.015625)"/>
        <path id="DejaVuSans-69" d="M 603 3500 
L 1178 3500 
L 1178 0 
L 603 0 
L 603 3500 
z
M 603 4863 
L 1178 4863 
L 1178 4134 
L 603 4134 
L 603 4863 
z
" transform="scale(0.015625)"/>
        <path id="DejaVuSans-6f" d="M 1959 3097 
Q 1497 3097 1228 2736 
Q 959 2375 959 1747 
Q 959 1119 1226 758 
Q 1494 397 1959 397 
Q 2419 397 2687 759 
Q 2956 1122 2956 1747 
Q 2956 2369 2687 2733 
Q 2419 3097 1959 3097 
z
M 1959 3584 
Q 2709 3584 3137 3096 
Q 3566 2609 3566 1747 
Q 3566 888 3137 398 
Q 2709 -91 1959 -91 
Q 1206 -91 779 398 
Q 353 888 353 1747 
Q 353 2609 779 3096 
Q 1206 3584 1959 3584 
z
" transform="scale(0.015625)"/>
        <path id="DejaVuSans-6d" d="M 3328 2828 
Q 3544 3216 3844 3400 
Q 4144 3584 4550 3584 
Q 5097 3584 5394 3201 
Q 5691 2819 5691 2113 
L 5691 0 
L 5113 0 
L 5113 2094 
Q 5113 2597 4934 2840 
Q 4756 3084 4391 3084 
Q 3944 3084 3684 2787 
Q 3425 2491 3425 1978 
L 3425 0 
L 2847 0 
L 2847 2094 
Q 2847 2600 2669 2842 
Q 2491 3084 2119 3084 
Q 1678 3084 1418 2786 
Q 1159 2488 1159 1978 
L 1159 0 
L 581 0 
L 581 3500 
L 1159 3500 
L 1159 2956 
Q 1356 3278 1631 3431 
Q 1906 3584 2284 3584 
Q 2666 3584 2933 3390 
Q 3200 3197 3328 2828 
z
" transform="scale(0.015625)"/>
        <path id="DejaVuSans-79" d="M 2059 -325 
Q 1816 -950 1584 -1140 
Q 1353 -1331 966 -1331 
L 506 -1331 
L 506 -850 
L 844 -850 
Q 1081 -850 1212 -737 
Q 1344 -625 1503 -206 
L 1606 56 
L 191 3500 
L 800 3500 
L 1894 763 
L 2988 3500 
L 3597 3500 
L 2059 -325 
z
" transform="scale(0.015625)"/>
        <path id="DejaVuSans-70" d="M 1159 525 
L 1159 -1331 
L 581 -1331 
L 581 3500 
L 1159 3500 
L 1159 2969 
Q 1341 3281 1617 3432 
Q 1894 3584 2278 3584 
Q 2916 3584 3314 3078 
Q 3713 2572 3713 1747 
Q 3713 922 3314 415 
Q 2916 -91 2278 -91 
Q 1894 -91 1617 61 
Q 1341 213 1159 525 
z
M 3116 1747 
Q 3116 2381 2855 2742 
Q 2594 3103 2138 3103 
Q 1681 3103 1420 2742 
Q 1159 2381 1159 1747 
Q 1159 1113 1420 752 
Q 1681 391 2138 391 
Q 2594 391 2855 752 
Q 3116 1113 3116 1747 
z
" transform="scale(0.015625)"/>
        <path id="DejaVuSans-74" d="M 1172 4494 
L 1172 3500 
L 2356 3500 
L 2356 3053 
L 1172 3053 
L 1172 1153 
Q 1172 725 1289 603 
Q 1406 481 1766 481 
L 2356 481 
L 2356 0 
L 1766 0 
Q 1100 0 847 248 
Q 594 497 594 1153 
L 594 3053 
L 172 3053 
L 172 3500 
L 594 3500 
L 594 4494 
L 1172 4494 
z
" transform="scale(0.015625)"/>
        <path id="DejaVuSans-68" d="M 3513 2113 
L 3513 0 
L 2938 0 
L 2938 2094 
Q 2938 2591 2744 2837 
Q 2550 3084 2163 3084 
Q 1697 3084 1428 2787 
Q 1159 2491 1159 1978 
L 1159 0 
L 581 0 
L 581 4863 
L 1159 4863 
L 1159 2956 
Q 1366 3272 1645 3428 
Q 1925 3584 2291 3584 
Q 2894 3584 3203 3211 
Q 3513 2838 3513 2113 
z
" transform="scale(0.015625)"/>
       </defs>
       <use xlink:href="#DejaVuSans-63"/>
       <use xlink:href="#DejaVuSans-61" transform="translate(54.980469 0)"/>
       <use xlink:href="#DejaVuSans-72" transform="translate(116.259766 0)"/>
       <use xlink:href="#DejaVuSans-64" transform="translate(155.623047 0)"/>
       <use xlink:href="#DejaVuSans-69" transform="translate(219.099609 0)"/>
       <use xlink:href="#DejaVuSans-6f" transform="translate(246.882812 0)"/>
       <use xlink:href="#DejaVuSans-6d" transform="translate(308.064453 0)"/>
       <use xlink:href="#DejaVuSans-79" transform="translate(405.476562 0)"/>
       <use xlink:href="#DejaVuSans-6f" transform="translate(464.65625 0)"/>
       <use xlink:href="#DejaVuSans-70" transform="translate(525.837891 0)"/>
       <use xlink:href="#DejaVuSans-61" transform="translate(589.314453 0)"/>
       <use xlink:href="#DejaVuSans-74" transform="translate(650.59375 0)"/>
       <use xlink:href="#DejaVuSans-68" transform="translate(689.802734 0)"/>
       <use xlink:href="#DejaVuSans-79" transform="translate(753.181641 0)"/>
      </g>
     </g>
    </g>
    <g id="xtick_2">
     <g id="line2d_2">
      <g>
       <use xlink:href="#m0621df428c" x="238.798095" y="224.618033" style="stroke: #000000; stroke-width: 0.8"/>
      </g>
     </g>
     <g id="text_2">
      <!-- hereditary_cancer -->
      <g transform="translate(152.9862 269.697692) rotate(-20) scale(0.1 -0.1)">
       <defs>
        <path id="DejaVuSans-65" d="M 3597 1894 
L 3597 1613 
L 953 1613 
Q 991 1019 1311 708 
Q 1631 397 2203 397 
Q 2534 397 2845 478 
Q 3156 559 3463 722 
L 3463 178 
Q 3153 47 2828 -22 
Q 2503 -91 2169 -91 
Q 1331 -91 842 396 
Q 353 884 353 1716 
Q 353 2575 817 3079 
Q 1281 3584 2069 3584 
Q 2775 3584 3186 3129 
Q 3597 2675 3597 1894 
z
M 3022 2063 
Q 3016 2534 2758 2815 
Q 2500 3097 2075 3097 
Q 1594 3097 1305 2825 
Q 1016 2553 972 2059 
L 3022 2063 
z
" transform="scale(0.015625)"/>
        <path id="DejaVuSans-5f" d="M 3263 -1063 
L 3263 -1509 
L -63 -1509 
L -63 -1063 
L 3263 -1063 
z
" transform="scale(0.015625)"/>
        <path id="DejaVuSans-6e" d="M 3513 2113 
L 3513 0 
L 2938 0 
L 2938 2094 
Q 2938 2591 2744 2837 
Q 2550 3084 2163 3084 
Q 1697 3084 1428 2787 
Q 1159 2491 1159 1978 
L 1159 0 
L 581 0 
L 581 3500 
L 1159 3500 
L 1159 2956 
Q 1366 3272 1645 3428 
Q 1925 3584 2291 3584 
Q 2894 3584 3203 3211 
Q 3513 2838 3513 2113 
z
" transform="scale(0.015625)"/>
       </defs>
       <use xlink:href="#DejaVuSans-68"/>
       <use xlink:href="#DejaVuSans-65" transform="translate(63.378906 0)"/>
       <use xlink:href="#DejaVuSans-72" transform="translate(124.902344 0)"/>
       <use xlink:href="#DejaVuSans-65" transform="translate(163.765625 0)"/>
       <use xlink:href="#DejaVuSans-64" transform="translate(225.289062 0)"/>
       <use xlink:href="#DejaVuSans-69" transform="translate(288.765625 0)"/>
       <use xlink:href="#DejaVuSans-74" transform="translate(316.548828 0)"/>
       <use xlink:href="#DejaVuSans-61" transform="translate(355.757812 0)"/>
       <use xlink:href="#DejaVuSans-72" transform="translate(417.037109 0)"/>
       <use xlink:href="#DejaVuSans-79" transform="translate(458.150391 0)"/>
       <use xlink:href="#DejaVuSans-5f" transform="translate(517.330078 0)"/>
       <use xlink:href="#DejaVuSans-63" transform="translate(567.330078 0)"/>
       <use xlink:href="#DejaVuSans-61" transform="translate(622.310547 0)"/>
       <use xlink:href="#DejaVuSans-6e" transform="translate(683.589844 0)"/>
       <use xlink:href="#DejaVuSans-63" transform="translate(746.96875 0)"/>
       <use xlink:href="#DejaVuSans-65" transform="translate(801.949219 0)"/>
       <use xlink:href="#DejaVuSans-72" transform="translate(863.472656 0)"/>
      </g>
     </g>
    </g>
    <g id="xtick_3">
     <g id="line2d_3">
      <g>
       <use xlink:href="#m0621df428c" x="367.470213" y="224.618033" style="stroke: #000000; stroke-width: 0.8"/>
      </g>
     </g>
     <g id="text_3">
      <!-- inherited_arrhythmia -->
      <g transform="translate(267.922655 274.697064) rotate(-20) scale(0.1 -0.1)">
       <use xlink:href="#DejaVuSans-69"/>
       <use xlink:href="#DejaVuSans-6e" transform="translate(27.783203 0)"/>
       <use xlink:href="#DejaVuSans-68" transform="translate(91.162109 0)"/>
       <use xlink:href="#DejaVuSans-65" transform="translate(154.541016 0)"/>
       <use xlink:href="#DejaVuSans-72" transform="translate(216.064453 0)"/>
       <use xlink:href="#DejaVuSans-69" transform="translate(257.177734 0)"/>
       <use xlink:href="#DejaVuSans-74" transform="translate(284.960938 0)"/>
       <use xlink:href="#DejaVuSans-65" transform="translate(324.169922 0)"/>
       <use xlink:href="#DejaVuSans-64" transform="translate(385.693359 0)"/>
       <use xlink:href="#DejaVuSans-5f" transform="translate(449.169922 0)"/>
       <use xlink:href="#DejaVuSans-61" transform="translate(499.169922 0)"/>
       <use xlink:href="#DejaVuSans-72" transform="translate(560.449219 0)"/>
       <use xlink:href="#DejaVuSans-72" transform="translate(599.8125 0)"/>
       <use xlink:href="#DejaVuSans-68" transform="translate(639.175781 0)"/>
       <use xlink:href="#DejaVuSans-79" transform="translate(702.554688 0)"/>
       <use xlink:href="#DejaVuSans-74" transform="translate(761.734375 0)"/>
       <use xlink:href="#DejaVuSans-68" transform="translate(800.943359 0)"/>
       <use xlink:href="#DejaVuSans-6d" transform="translate(864.322266 0)"/>
       <use xlink:href="#DejaVuSans-69" transform="translate(961.734375 0)"/>
       <use xlink:href="#DejaVuSans-61" transform="translate(989.517578 0)"/>
      </g>
     </g>
    </g>
   </g>
   <g id="matplotlib.axis_2">
    <g id="ytick_1">
     <g id="line2d_4">
      <defs>
       <path id="m44c4121c48" d="M 0 0 
L -3.5 0 
" style="stroke: #000000; stroke-width: 0.8"/>
      </defs>
      <g>
       <use xlink:href="#m44c4121c48" x="47.72" y="224.618033" style="stroke: #000000; stroke-width: 0.8"/>
      </g>
     </g>
     <g id="text_4">
      <!-- 0.0 -->
      <g transform="translate(24.816875 228.417252) scale(0.1 -0.1)">
       <defs>
        <path id="DejaVuSans-30" d="M 2034 4250 
Q 1547 4250 1301 3770 
Q 1056 3291 1056 2328 
Q 1056 1369 1301 889 
Q 1547 409 2034 409 
Q 2525 409 2770 889 
Q 3016 1369 3016 2328 
Q 3016 3291 2770 3770 
Q 2525 4250 2034 4250 
z
M 2034 4750 
Q 2819 4750 3233 4129 
Q 3647 3509 3647 2328 
Q 3647 1150 3233 529 
Q 2819 -91 2034 -91 
Q 1250 -91 836 529 
Q 422 1150 422 2328 
Q 422 3509 836 4129 
Q 1250 4750 2034 4750 
z
" transform="scale(0.015625)"/>
        <path id="DejaVuSans-2e" d="M 684 794 
L 1344 794 
L 1344 0 
L 684 0 
L 684 794 
z
" transform="scale(0.015625)"/>
       </defs>
       <use xlink:href="#DejaVuSans-30"/>
       <use xlink:href="#DejaVuSans-2e" transform="translate(63.623047 0)"/>
       <use xlink:href="#DejaVuSans-30" transform="translate(95.410156 0)"/>
      </g>
     </g>
    </g>
    <g id="ytick_2">
     <g id="line2d_5">
      <g>
       <use xlink:href="#m44c4121c48" x="47.72" y="183.518975" style="stroke: #000000; stroke-width: 0.8"/>
      </g>
     </g>
     <g id="text_5">
      <!-- 0.2 -->
      <g transform="translate(24.816875 187.318194) scale(0.1 -0.1)">
       <defs>
        <path id="DejaVuSans-32" d="M 1228 531 
L 3431 531 
L 3431 0 
L 469 0 
L 469 531 
Q 828 903 1448 1529 
Q 2069 2156 2228 2338 
Q 2531 2678 2651 2914 
Q 2772 3150 2772 3378 
Q 2772 3750 2511 3984 
Q 2250 4219 1831 4219 
Q 1534 4219 1204 4116 
Q 875 4013 500 3803 
L 500 4441 
Q 881 4594 1212 4672 
Q 1544 4750 1819 4750 
Q 2544 4750 2975 4387 
Q 3406 4025 3406 3419 
Q 3406 3131 3298 2873 
Q 3191 2616 2906 2266 
Q 2828 2175 2409 1742 
Q 1991 1309 1228 531 
z
" transform="scale(0.015625)"/>
       </defs>
       <use xlink:href="#DejaVuSans-30"/>
       <use xlink:href="#DejaVuSans-2e" transform="translate(63.623047 0)"/>
       <use xlink:href="#DejaVuSans-32" transform="translate(95.410156 0)"/>
      </g>
     </g>
    </g>
    <g id="ytick_3">
     <g id="line2d_6">
      <g>
       <use xlink:href="#m44c4121c48" x="47.72" y="142.419916" style="stroke: #000000; stroke-width: 0.8"/>
      </g>
     </g>
     <g id="text_6">
      <!-- 0.4 -->
      <g transform="translate(24.816875 146.219135) scale(0.1 -0.1)">
       <defs>
        <path id="DejaVuSans-34" d="M 2419 4116 
L 825 1625 
L 2419 1625 
L 2419 4116 
z
M 2253 4666 
L 3047 4666 
L 3047 1625 
L 3713 1625 
L 3713 1100 
L 3047 1100 
L 3047 0 
L 2419 0 
L 2419 1100 
L 313 1100 
L 313 1709 
L 2253 4666 
z
" transform="scale(0.015625)"/>
       </defs>
       <use xlink:href="#DejaVuSans-30"/>
       <use xlink:href="#DejaVuSans-2e" transform="translate(63.623047 0)"/>
       <use xlink:href="#DejaVuSans-34" transform="translate(95.410156 0)"/>
      </g>
     </g>
    </g>
    <g id="ytick_4">
     <g id="line2d_7">
      <g>
       <use xlink:href="#m44c4121c48" x="47.72" y="101.320858" style="stroke: #000000; stroke-width: 0.8"/>
      </g>
     </g>
     <g id="text_7">
      <!-- 0.6 -->
      <g transform="translate(24.816875 105.120077) scale(0.1 -0.1)">
       <defs>
        <path id="DejaVuSans-36" d="M 2113 2584 
Q 1688 2584 1439 2293 
Q 1191 2003 1191 1497 
Q 1191 994 1439 701 
Q 1688 409 2113 409 
Q 2538 409 2786 701 
Q 3034 994 3034 1497 
Q 3034 2003 2786 2293 
Q 2538 2584 2113 2584 
z
M 3366 4563 
L 3366 3988 
Q 3128 4100 2886 4159 
Q 2644 4219 2406 4219 
Q 1781 4219 1451 3797 
Q 1122 3375 1075 2522 
Q 1259 2794 1537 2939 
Q 1816 3084 2150 3084 
Q 2853 3084 3261 2657 
Q 3669 2231 3669 1497 
Q 3669 778 3244 343 
Q 2819 -91 2113 -91 
Q 1303 -91 875 529 
Q 447 1150 447 2328 
Q 447 3434 972 4092 
Q 1497 4750 2381 4750 
Q 2619 4750 2861 4703 
Q 3103 4656 3366 4563 
z
" transform="scale(0.015625)"/>
       </defs>
       <use xlink:href="#DejaVuSans-30"/>
       <use xlink:href="#DejaVuSans-2e" transform="translate(63.623047 0)"/>
       <use xlink:href="#DejaVuSans-36" transform="translate(95.410156 0)"/>
      </g>
     </g>
    </g>
    <g id="ytick_5">
     <g id="line2d_8">
      <g>
       <use xlink:href="#m44c4121c48" x="47.72" y="60.221799" style="stroke: #000000; stroke-width: 0.8"/>
      </g>
     </g>
     <g id="text_8">
      <!-- 0.8 -->
      <g transform="translate(24.816875 64.021018) scale(0.1 -0.1)">
       <defs>
        <path id="DejaVuSans-38" d="M 2034 2216 
Q 1584 2216 1326 1975 
Q 1069 1734 1069 1313 
Q 1069 891 1326 650 
Q 1584 409 2034 409 
Q 2484 409 2743 651 
Q 3003 894 3003 1313 
Q 3003 1734 2745 1975 
Q 2488 2216 2034 2216 
z
M 1403 2484 
Q 997 2584 770 2862 
Q 544 3141 544 3541 
Q 544 4100 942 4425 
Q 1341 4750 2034 4750 
Q 2731 4750 3128 4425 
Q 3525 4100 3525 3541 
Q 3525 3141 3298 2862 
Q 3072 2584 2669 2484 
Q 3125 2378 3379 2068 
Q 3634 1759 3634 1313 
Q 3634 634 3220 271 
Q 2806 -91 2034 -91 
Q 1263 -91 848 271 
Q 434 634 434 1313 
Q 434 1759 690 2068 
Q 947 2378 1403 2484 
z
M 1172 3481 
Q 1172 3119 1398 2916 
Q 1625 2713 2034 2713 
Q 2441 2713 2670 2916 
Q 2900 3119 2900 3481 
Q 2900 3844 2670 4047 
Q 2441 4250 2034 4250 
Q 1625 4250 1398 4047 
Q 1172 3844 1172 3481 
z
" transform="scale(0.015625)"/>
       </defs>
       <use xlink:href="#DejaVuSans-30"/>
       <use xlink:href="#DejaVuSans-2e" transform="translate(63.623047 0)"/>
       <use xlink:href="#DejaVuSans-38" transform="translate(95.410156 0)"/>
      </g>
     </g>
    </g>
    <g id="text_9">
     <!-- unsupported reuse rate -->
     <g transform="translate(18.737187 184.738079) rotate(-90) scale(0.1 -0.1)">
      <defs>
       <path id="DejaVuSans-75" d="M 544 1381 
L 544 3500 
L 1119 3500 
L 1119 1403 
Q 1119 906 1312 657 
Q 1506 409 1894 409 
Q 2359 409 2629 706 
Q 2900 1003 2900 1516 
L 2900 3500 
L 3475 3500 
L 3475 0 
L 2900 0 
L 2900 538 
Q 2691 219 2414 64 
Q 2138 -91 1772 -91 
Q 1169 -91 856 284 
Q 544 659 544 1381 
z
M 1991 3584 
L 1991 3584 
z
" transform="scale(0.015625)"/>
       <path id="DejaVuSans-73" d="M 2834 3397 
L 2834 2853 
Q 2591 2978 2328 3040 
Q 2066 3103 1784 3103 
Q 1356 3103 1142 2972 
Q 928 2841 928 2578 
Q 928 2378 1081 2264 
Q 1234 2150 1697 2047 
L 1894 2003 
Q 2506 1872 2764 1633 
Q 3022 1394 3022 966 
Q 3022 478 2636 193 
Q 2250 -91 1575 -91 
Q 1294 -91 989 -36 
Q 684 19 347 128 
L 347 722 
Q 666 556 975 473 
Q 1284 391 1588 391 
Q 1994 391 2212 530 
Q 2431 669 2431 922 
Q 2431 1156 2273 1281 
Q 2116 1406 1581 1522 
L 1381 1569 
Q 847 1681 609 1914 
Q 372 2147 372 2553 
Q 372 3047 722 3315 
Q 1072 3584 1716 3584 
Q 2034 3584 2315 3537 
Q 2597 3491 2834 3397 
z
" transform="scale(0.015625)"/>
       <path id="DejaVuSans-20" transform="scale(0.015625)"/>
      </defs>
      <use xlink:href="#DejaVuSans-75"/>
      <use xlink:href="#DejaVuSans-6e" transform="translate(63.378906 0)"/>
      <use xlink:href="#DejaVuSans-73" transform="translate(126.757812 0)"/>
      <use xlink:href="#DejaVuSans-75" transform="translate(178.857422 0)"/>
      <use xlink:href="#DejaVuSans-70" transform="translate(242.236328 0)"/>
      <use xlink:href="#DejaVuSans-70" transform="translate(305.712891 0)"/>
      <use xlink:href="#DejaVuSans-6f" transform="translate(369.189453 0)"/>
      <use xlink:href="#DejaVuSans-72" transform="translate(430.371094 0)"/>
      <use xlink:href="#DejaVuSans-74" transform="translate(471.484375 0)"/>
      <use xlink:href="#DejaVuSans-65" transform="translate(510.693359 0)"/>
      <use xlink:href="#DejaVuSans-64" transform="translate(572.216797 0)"/>
      <use xlink:href="#DejaVuSans-20" transform="translate(635.693359 0)"/>
      <use xlink:href="#DejaVuSans-72" transform="translate(667.480469 0)"/>
      <use xlink:href="#DejaVuSans-65" transform="translate(706.34375 0)"/>
      <use xlink:href="#DejaVuSans-75" transform="translate(767.867188 0)"/>
      <use xlink:href="#DejaVuSans-73" transform="translate(831.246094 0)"/>
      <use xlink:href="#DejaVuSans-65" transform="translate(883.345703 0)"/>
      <use xlink:href="#DejaVuSans-20" transform="translate(944.869141 0)"/>
      <use xlink:href="#DejaVuSans-72" transform="translate(976.65625 0)"/>
      <use xlink:href="#DejaVuSans-61" transform="translate(1017.769531 0)"/>
      <use xlink:href="#DejaVuSans-74" transform="translate(1079.048828 0)"/>
      <use xlink:href="#DejaVuSans-65" transform="translate(1118.257812 0)"/>
     </g>
    </g>
   </g>
   <g id="patch_9">
    <path d="M 47.72 224.618033 
L 47.72 26.88 
" style="fill: none; stroke: #000000; stroke-width: 0.8; stroke-linejoin: miter; stroke-linecap: square"/>
   </g>
   <g id="patch_10">
    <path d="M 429.87619 224.618033 
L 429.87619 26.88 
" style="fill: none; stroke: #000000; stroke-width: 0.8; stroke-linejoin: miter; stroke-linecap: square"/>
   </g>
   <g id="patch_11">
    <path d="M 47.72 224.618033 
L 429.87619 224.618033 
" style="fill: none; stroke: #000000; stroke-width: 0.8; stroke-linejoin: miter; stroke-linecap: square"/>
   </g>
   <g id="patch_12">
    <path d="M 47.72 26.88 
L 429.87619 26.88 
" style="fill: none; stroke: #000000; stroke-width: 0.8; stroke-linejoin: miter; stroke-linecap: square"/>
   </g>
   <g id="text_10">
    <!-- temporal condition label drift gold standard -->
    <g transform="translate(107.959657 20.88) scale(0.12 -0.12)">
     <defs>
      <path id="DejaVuSans-6c" d="M 603 4863 
L 1178 4863 
L 1178 0 
L 603 0 
L 603 4863 
z
" transform="scale(0.015625)"/>
      <path id="DejaVuSans-62" d="M 3116 1747 
Q 3116 2381 2855 2742 
Q 2594 3103 2138 3103 
Q 1681 3103 1420 2742 
Q 1159 2381 1159 1747 
Q 1159 1113 1420 752 
Q 1681 391 2138 391 
Q 2594 391 2855 752 
Q 3116 1113 3116 1747 
z
M 1159 2969 
Q 1341 3281 1617 3432 
Q 1894 3584 2278 3584 
Q 2916 3584 3314 3078 
Q 3713 2572 3713 1747 
Q 3713 922 3314 415 
Q 2916 -91 2278 -91 
Q 1894 -91 1617 61 
Q 1341 213 1159 525 
L 1159 0 
L 581 0 
L 581 4863 
L 1159 4863 
L 1159 2969 
z
" transform="scale(0.015625)"/>
      <path id="DejaVuSans-66" d="M 2375 4863 
L 2375 4384 
L 1825 4384 
Q 1516 4384 1395 4259 
Q 1275 4134 1275 3809 
L 1275 3500 
L 2222 3500 
L 2222 3053 
L 1275 3053 
L 1275 0 
L 697 0 
L 697 3053 
L 147 3053 
L 147 3500 
L 697 3500 
L 697 3744 
Q 697 4328 969 4595 
Q 1241 4863 1831 4863 
L 2375 4863 
z
" transform="scale(0.015625)"/>
      <path id="DejaVuSans-67" d="M 2906 1791 
Q 2906 2416 2648 2759 
Q 2391 3103 1925 3103 
Q 1463 3103 1205 2759 
Q 947 2416 947 1791 
Q 947 1169 1205 825 
Q 1463 481 1925 481 
Q 2391 481 2648 825 
Q 2906 1169 2906 1791 
z
M 3481 434 
Q 3481 -459 3084 -895 
Q 2688 -1331 1869 -1331 
Q 1566 -1331 1297 -1286 
Q 1028 -1241 775 -1147 
L 775 -588 
Q 1028 -725 1275 -790 
Q 1522 -856 1778 -856 
Q 2344 -856 2625 -561 
Q 2906 -266 2906 331 
L 2906 616 
Q 2728 306 2450 153 
Q 2172 0 1784 0 
Q 1141 0 747 490 
Q 353 981 353 1791 
Q 353 2603 747 3093 
Q 1141 3584 1784 3584 
Q 2172 3584 2450 3431 
Q 2728 3278 2906 2969 
L 2906 3500 
L 3481 3500 
L 3481 434 
z
" transform="scale(0.015625)"/>
     </defs>
     <use xlink:href="#DejaVuSans-74"/>
     <use xlink:href="#DejaVuSans-65" transform="translate(39.208984 0)"/>
     <use xlink:href="#DejaVuSans-6d" transform="translate(100.732422 0)"/>
     <use xlink:href="#DejaVuSans-70" transform="translate(198.144531 0)"/>
     <use xlink:href="#DejaVuSans-6f" transform="translate(261.621094 0)"/>
     <use xlink:href="#DejaVuSans-72" transform="translate(322.802734 0)"/>
     <use xlink:href="#DejaVuSans-61" transform="translate(363.916016 0)"/>
     <use xlink:href="#DejaVuSans-6c" transform="translate(425.195312 0)"/>
     <use xlink:href="#DejaVuSans-20" transform="translate(452.978516 0)"/>
     <use xlink:href="#DejaVuSans-63" transform="translate(484.765625 0)"/>
     <use xlink:href="#DejaVuSans-6f" transform="translate(539.746094 0)"/>
     <use xlink:href="#DejaVuSans-6e" transform="translate(600.927734 0)"/>
     <use xlink:href="#DejaVuSans-64" transform="translate(664.306641 0)"/>
     <use xlink:href="#DejaVuSans-69" transform="translate(727.783203 0)"/>
     <use xlink:href="#DejaVuSans-74" transform="translate(755.566406 0)"/>
     <use xlink:href="#DejaVuSans-69" transform="translate(794.775391 0)"/>
     <use xlink:href="#DejaVuSans-6f" transform="translate(822.558594 0)"/>
     <use xlink:href="#DejaVuSans-6e" transform="translate(883.740234 0)"/>
     <use xlink:href="#DejaVuSans-20" transform="translate(947.119141 0)"/>
     <use xlink:href="#DejaVuSans-6c" transform="translate(978.90625 0)"/>
     <use xlink:href="#DejaVuSans-61" transform="translate(1006.689453 0)"/>
     <use xlink:href="#DejaVuSans-62" transform="translate(1067.96875 0)"/>
     <use xlink:href="#DejaVuSans-65" transform="translate(1131.445312 0)"/>
     <use xlink:href="#DejaVuSans-6c" transform="translate(1192.96875 0)"/>
     <use xlink:href="#DejaVuSans-20" transform="translate(1220.751953 0)"/>
     <use xlink:href="#DejaVuSans-64" transform="translate(1252.539062 0)"/>
     <use xlink:href="#DejaVuSans-72" transform="translate(1316.015625 0)"/>
     <use xlink:href="#DejaVuSans-69" transform="translate(1357.128906 0)"/>
     <use xlink:href="#DejaVuSans-66" transform="translate(1384.912109 0)"/>
     <use xlink:href="#DejaVuSans-74" transform="translate(1418.367188 0)"/>
     <use xlink:href="#DejaVuSans-20" transform="translate(1457.576172 0)"/>
     <use xlink:href="#DejaVuSans-67" transform="translate(1489.363281 0)"/>
     <use xlink:href="#DejaVuSans-6f" transform="translate(1552.839844 0)"/>
     <use xlink:href="#DejaVuSans-6c" transform="translate(1614.021484 0)"/>
     <use xlink:href="#DejaVuSans-64" transform="translate(1641.804688 0)"/>
     <use xlink:href="#DejaVuSans-20" transform="translate(1705.28125 0)"/>
     <use xlink:href="#DejaVuSans-73" transform="translate(1737.068359 0)"/>
     <use xlink:href="#DejaVuSans-74" transform="translate(1789.167969 0)"/>
     <use xlink:href="#DejaVuSans-61" transform="translate(1828.376953 0)"/>
     <use xlink:href="#DejaVuSans-6e" transform="translate(1889.65625 0)"/>
     <use xlink:href="#DejaVuSans-64" transform="translate(1953.035156 0)"/>
     <use xlink:href="#DejaVuSans-61" transform="translate(2016.511719 0)"/>
     <use xlink:href="#DejaVuSans-72" transform="translate(2077.791016 0)"/>
     <use xlink:href="#DejaVuSans-64" transform="translate(2117.154297 0)"/>
    </g>
   </g>
   <g id="legend_1">
    <g id="patch_13">
     <path d="M 348.990252 64.23625 
L 422.87619 64.23625 
Q 424.87619 64.23625 424.87619 62.23625 
L 424.87619 33.88 
Q 424.87619 31.88 422.87619 31.88 
L 348.990252 31.88 
Q 346.990252 31.88 346.990252 33.88 
L 346.990252 62.23625 
Q 346.990252 64.23625 348.990252 64.23625 
z
" style="fill: #ffffff; opacity: 0.8; stroke: #cccccc; stroke-linejoin: miter"/>
    </g>
    <g id="patch_14">
     <path d="M 350.990252 43.478438 
L 370.990252 43.478438 
L 370.990252 36.478438 
L 350.990252 36.478438 
z
" style="fill: #1f77b4"/>
    </g>
    <g id="text_11">
     <!-- baseline -->
     <g transform="translate(378.990252 43.478438) scale(0.1 -0.1)">
      <use xlink:href="#DejaVuSans-62"/>
      <use xlink:href="#DejaVuSans-61" transform="translate(63.476562 0)"/>
      <use xlink:href="#DejaVuSans-73" transform="translate(124.755859 0)"/>
      <use xlink:href="#DejaVuSans-65" transform="translate(176.855469 0)"/>
      <use xlink:href="#DejaVuSans-6c" transform="translate(238.378906 0)"/>
      <use xlink:href="#DejaVuSans-69" transform="translate(266.162109 0)"/>
      <use xlink:href="#DejaVuSans-6e" transform="translate(293.945312 0)"/>
      <use xlink:href="#DejaVuSans-65" transform="translate(357.324219 0)"/>
     </g>
    </g>
    <g id="patch_15">
     <path d="M 350.990252 58.156563 
L 370.990252 58.156563 
L 370.990252 51.156563 
L 350.990252 51.156563 
z
" style="fill: #ff7f0e"/>
    </g>
    <g id="text_12">
     <!-- CAB -->
     <g transform="translate(378.990252 58.156563) scale(0.1 -0.1)">
      <defs>
       <path id="DejaVuSans-43" d="M 4122 4306 
L 4122 3641 
Q 3803 3938 3442 4084 
Q 3081 4231 2675 4231 
Q 1875 4231 1450 3742 
Q 1025 3253 1025 2328 
Q 1025 1406 1450 917 
Q 1875 428 2675 428 
Q 3081 428 3442 575 
Q 3803 722 4122 1019 
L 4122 359 
Q 3791 134 3420 21 
Q 3050 -91 2638 -91 
Q 1578 -91 968 557 
Q 359 1206 359 2328 
Q 359 3453 968 4101 
Q 1578 4750 2638 4750 
Q 3056 4750 3426 4639 
Q 3797 4528 4122 4306 
z
" transform="scale(0.015625)"/>
       <path id="DejaVuSans-41" d="M 2188 4044 
L 1331 1722 
L 3047 1722 
L 2188 4044 
z
M 1831 4666 
L 2547 4666 
L 4325 0 
L 3669 0 
L 3244 1197 
L 1141 1197 
L 716 0 
L 50 0 
L 1831 4666 
z
" transform="scale(0.015625)"/>
       <path id="DejaVuSans-42" d="M 1259 2228 
L 1259 519 
L 2272 519 
Q 2781 519 3026 730 
Q 3272 941 3272 1375 
Q 3272 1813 3026 2020 
Q 2781 2228 2272 2228 
L 1259 2228 
z
M 1259 4147 
L 1259 2741 
L 2194 2741 
Q 2656 2741 2882 2914 
Q 3109 3088 3109 3444 
Q 3109 3797 2882 3972 
Q 2656 4147 2194 4147 
L 1259 4147 
z
M 628 4666 
L 2241 4666 
Q 2963 4666 3353 4366 
Q 3744 4066 3744 3513 
Q 3744 3084 3544 2831 
Q 3344 2578 2956 2516 
Q 3422 2416 3680 2098 
Q 3938 1781 3938 1306 
Q 3938 681 3513 340 
Q 3088 0 2303 0 
L 628 0 
L 628 4666 
z
" transform="scale(0.015625)"/>
      </defs>
      <use xlink:href="#DejaVuSans-43"/>
      <use xlink:href="#DejaVuSans-41" transform="translate(69.824219 0)"/>
      <use xlink:href="#DejaVuSans-42" transform="translate(138.232422 0)"/>
     </g>
    </g>
   </g>
  </g>
  <g id="axes_2">
   <g id="patch_16">
    <path d="M 471.04381 224.618033 
L 853.2 224.618033 
L 853.2 26.88 
L 471.04381 26.88 
z
" style="fill: #ffffff"/>
   </g>
   <g id="patch_17">
    <path d="M 488.414546 224.618033 
L 533.449787 224.618033 
L 533.449787 36.296097 
L 488.414546 36.296097 
z
" clip-path="url(#p874ebf64c2)" style="fill: #1f77b4"/>
   </g>
   <g id="patch_18">
    <path d="M 617.086664 224.618033 
L 662.121905 224.618033 
L 662.121905 49.033558 
L 617.086664 49.033558 
z
" clip-path="url(#p874ebf64c2)" style="fill: #1f77b4"/>
   </g>
   <g id="patch_19">
    <path d="M 745.758782 224.618033 
L 790.794023 224.618033 
L 790.794023 101.364487 
L 745.758782 101.364487 
z
" clip-path="url(#p874ebf64c2)" style="fill: #1f77b4"/>
   </g>
   <g id="patch_20">
    <path d="M 533.449787 224.618033 
L 578.485028 224.618033 
L 578.485028 216.553659 
L 533.449787 216.553659 
z
" clip-path="url(#p874ebf64c2)" style="fill: #ff7f0e"/>
   </g>
   <g id="patch_21">
    <path d="M 662.121905 224.618033 
L 707.157146 224.618033 
L 707.157146 192.501084 
L 662.121905 192.501084 
z
" clip-path="url(#p874ebf64c2)" style="fill: #ff7f0e"/>
   </g>
   <g id="patch_22">
    <path d="M 790.794023 224.618033 
L 835.829264 224.618033 
L 835.829264 220.255076 
L 790.794023 220.255076 
z
" clip-path="url(#p874ebf64c2)" style="fill: #ff7f0e"/>
   </g>
   <g id="matplotlib.axis_3">
    <g id="xtick_4">
     <g id="line2d_9">
      <g>
       <use xlink:href="#m0621df428c" x="533.449787" y="224.618033" style="stroke: #000000; stroke-width: 0.8"/>
      </g>
     </g>
     <g id="text_13">
      <!-- cardiomyopathy -->
      <g transform="translate(456.398745 266.543625) rotate(-20) scale(0.1 -0.1)">
       <use xlink:href="#DejaVuSans-63"/>
       <use xlink:href="#DejaVuSans-61" transform="translate(54.980469 0)"/>
       <use xlink:href="#DejaVuSans-72" transform="translate(116.259766 0)"/>
       <use xlink:href="#DejaVuSans-64" transform="translate(155.623047 0)"/>
       <use xlink:href="#DejaVuSans-69" transform="translate(219.099609 0)"/>
       <use xlink:href="#DejaVuSans-6f" transform="translate(246.882812 0)"/>
       <use xlink:href="#DejaVuSans-6d" transform="translate(308.064453 0)"/>
       <use xlink:href="#DejaVuSans-79" transform="translate(405.476562 0)"/>
       <use xlink:href="#DejaVuSans-6f" transform="translate(464.65625 0)"/>
       <use xlink:href="#DejaVuSans-70" transform="translate(525.837891 0)"/>
       <use xlink:href="#DejaVuSans-61" transform="translate(589.314453 0)"/>
       <use xlink:href="#DejaVuSans-74" transform="translate(650.59375 0)"/>
       <use xlink:href="#DejaVuSans-68" transform="translate(689.802734 0)"/>
       <use xlink:href="#DejaVuSans-79" transform="translate(753.181641 0)"/>
      </g>
     </g>
    </g>
    <g id="xtick_5">
     <g id="line2d_10">
      <g>
       <use xlink:href="#m0621df428c" x="662.121905" y="224.618033" style="stroke: #000000; stroke-width: 0.8"/>
      </g>
     </g>
     <g id="text_14">
      <!-- hereditary_cancer -->
      <g transform="translate(576.31001 269.697692) rotate(-20) scale(0.1 -0.1)">
       <use xlink:href="#DejaVuSans-68"/>
       <use xlink:href="#DejaVuSans-65" transform="translate(63.378906 0)"/>
       <use xlink:href="#DejaVuSans-72" transform="translate(124.902344 0)"/>
       <use xlink:href="#DejaVuSans-65" transform="translate(163.765625 0)"/>
       <use xlink:href="#DejaVuSans-64" transform="translate(225.289062 0)"/>
       <use xlink:href="#DejaVuSans-69" transform="translate(288.765625 0)"/>
       <use xlink:href="#DejaVuSans-74" transform="translate(316.548828 0)"/>
       <use xlink:href="#DejaVuSans-61" transform="translate(355.757812 0)"/>
       <use xlink:href="#DejaVuSans-72" transform="translate(417.037109 0)"/>
       <use xlink:href="#DejaVuSans-79" transform="translate(458.150391 0)"/>
       <use xlink:href="#DejaVuSans-5f" transform="translate(517.330078 0)"/>
       <use xlink:href="#DejaVuSans-63" transform="translate(567.330078 0)"/>
       <use xlink:href="#DejaVuSans-61" transform="translate(622.310547 0)"/>
       <use xlink:href="#DejaVuSans-6e" transform="translate(683.589844 0)"/>
       <use xlink:href="#DejaVuSans-63" transform="translate(746.96875 0)"/>
       <use xlink:href="#DejaVuSans-65" transform="translate(801.949219 0)"/>
       <use xlink:href="#DejaVuSans-72" transform="translate(863.472656 0)"/>
      </g>
     </g>
    </g>
    <g id="xtick_6">
     <g id="line2d_11">
      <g>
       <use xlink:href="#m0621df428c" x="790.794023" y="224.618033" style="stroke: #000000; stroke-width: 0.8"/>
      </g>
     </g>
     <g id="text_15">
      <!-- inherited_arrhythmia -->
      <g transform="translate(691.246465 274.697064) rotate(-20) scale(0.1 -0.1)">
       <use xlink:href="#DejaVuSans-69"/>
       <use xlink:href="#DejaVuSans-6e" transform="translate(27.783203 0)"/>
       <use xlink:href="#DejaVuSans-68" transform="translate(91.162109 0)"/>
       <use xlink:href="#DejaVuSans-65" transform="translate(154.541016 0)"/>
       <use xlink:href="#DejaVuSans-72" transform="translate(216.064453 0)"/>
       <use xlink:href="#DejaVuSans-69" transform="translate(257.177734 0)"/>
       <use xlink:href="#DejaVuSans-74" transform="translate(284.960938 0)"/>
       <use xlink:href="#DejaVuSans-65" transform="translate(324.169922 0)"/>
       <use xlink:href="#DejaVuSans-64" transform="translate(385.693359 0)"/>
       <use xlink:href="#DejaVuSans-5f" transform="translate(449.169922 0)"/>
       <use xlink:href="#DejaVuSans-61" transform="translate(499.169922 0)"/>
       <use xlink:href="#DejaVuSans-72" transform="translate(560.449219 0)"/>
       <use xlink:href="#DejaVuSans-72" transform="translate(599.8125 0)"/>
       <use xlink:href="#DejaVuSans-68" transform="translate(639.175781 0)"/>
       <use xlink:href="#DejaVuSans-79" transform="translate(702.554688 0)"/>
       <use xlink:href="#DejaVuSans-74" transform="translate(761.734375 0)"/>
       <use xlink:href="#DejaVuSans-68" transform="translate(800.943359 0)"/>
       <use xlink:href="#DejaVuSans-6d" transform="translate(864.322266 0)"/>
       <use xlink:href="#DejaVuSans-69" transform="translate(961.734375 0)"/>
       <use xlink:href="#DejaVuSans-61" transform="translate(989.517578 0)"/>
      </g>
     </g>
    </g>
   </g>
   <g id="matplotlib.axis_4">
    <g id="ytick_6">
     <g id="line2d_12">
      <g>
       <use xlink:href="#m44c4121c48" x="471.04381" y="224.618033" style="stroke: #000000; stroke-width: 0.8"/>
      </g>
     </g>
    </g>
    <g id="ytick_7">
     <g id="line2d_13">
      <g>
       <use xlink:href="#m44c4121c48" x="471.04381" y="183.518975" style="stroke: #000000; stroke-width: 0.8"/>
      </g>
     </g>
    </g>
    <g id="ytick_8">
     <g id="line2d_14">
      <g>
       <use xlink:href="#m44c4121c48" x="471.04381" y="142.419916" style="stroke: #000000; stroke-width: 0.8"/>
      </g>
     </g>
    </g>
    <g id="ytick_9">
     <g id="line2d_15">
      <g>
       <use xlink:href="#m44c4121c48" x="471.04381" y="101.320858" style="stroke: #000000; stroke-width: 0.8"/>
      </g>
     </g>
    </g>
    <g id="ytick_10">
     <g id="line2d_16">
      <g>
       <use xlink:href="#m44c4121c48" x="471.04381" y="60.221799" style="stroke: #000000; stroke-width: 0.8"/>
      </g>
     </g>
    </g>
    <g id="text_16">
     <!-- unsupported reuse rate -->
     <g transform="translate(461.464123 184.738079) rotate(-90) scale(0.1 -0.1)">
      <use xlink:href="#DejaVuSans-75"/>
      <use xlink:href="#DejaVuSans-6e" transform="translate(63.378906 0)"/>
      <use xlink:href="#DejaVuSans-73" transform="translate(126.757812 0)"/>
      <use xlink:href="#DejaVuSans-75" transform="translate(178.857422 0)"/>
      <use xlink:href="#DejaVuSans-70" transform="translate(242.236328 0)"/>
      <use xlink:href="#DejaVuSans-70" transform="translate(305.712891 0)"/>
      <use xlink:href="#DejaVuSans-6f" transform="translate(369.189453 0)"/>
      <use xlink:href="#DejaVuSans-72" transform="translate(430.371094 0)"/>
      <use xlink:href="#DejaVuSans-74" transform="translate(471.484375 0)"/>
      <use xlink:href="#DejaVuSans-65" transform="translate(510.693359 0)"/>
      <use xlink:href="#DejaVuSans-64" transform="translate(572.216797 0)"/>
      <use xlink:href="#DejaVuSans-20" transform="translate(635.693359 0)"/>
      <use xlink:href="#DejaVuSans-72" transform="translate(667.480469 0)"/>
      <use xlink:href="#DejaVuSans-65" transform="translate(706.34375 0)"/>
      <use xlink:href="#DejaVuSans-75" transform="translate(767.867188 0)"/>
      <use xlink:href="#DejaVuSans-73" transform="translate(831.246094 0)"/>
      <use xlink:href="#DejaVuSans-65" transform="translate(883.345703 0)"/>
      <use xlink:href="#DejaVuSans-20" transform="translate(944.869141 0)"/>
      <use xlink:href="#DejaVuSans-72" transform="translate(976.65625 0)"/>
      <use xlink:href="#DejaVuSans-61" transform="translate(1017.769531 0)"/>
      <use xlink:href="#DejaVuSans-74" transform="translate(1079.048828 0)"/>
      <use xlink:href="#DejaVuSans-65" transform="translate(1118.257812 0)"/>
     </g>
    </g>
   </g>
   <g id="patch_23">
    <path d="M 471.04381 224.618033 
L 471.04381 26.88 
" style="fill: none; stroke: #000000; stroke-width: 0.8; stroke-linejoin: miter; stroke-linecap: square"/>
   </g>
   <g id="patch_24">
    <path d="M 853.2 224.618033 
L 853.2 26.88 
" style="fill: none; stroke: #000000; stroke-width: 0.8; stroke-linejoin: miter; stroke-linecap: square"/>
   </g>
   <g id="patch_25">
    <path d="M 471.04381 224.618033 
L 853.2 224.618033 
" style="fill: none; stroke: #000000; stroke-width: 0.8; stroke-linejoin: miter; stroke-linecap: square"/>
   </g>
   <g id="patch_26">
    <path d="M 471.04381 26.88 
L 853.2 26.88 
" style="fill: none; stroke: #000000; stroke-width: 0.8; stroke-linejoin: miter; stroke-linecap: square"/>
   </g>
   <g id="text_17">
    <!-- conservative composite routing gold standard -->
    <g transform="translate(523.809718 20.88) scale(0.12 -0.12)">
     <defs>
      <path id="DejaVuSans-76" d="M 191 3500 
L 800 3500 
L 1894 563 
L 2988 3500 
L 3597 3500 
L 2284 0 
L 1503 0 
L 191 3500 
z
" transform="scale(0.015625)"/>
     </defs>
     <use xlink:href="#DejaVuSans-63"/>
     <use xlink:href="#DejaVuSans-6f" transform="translate(54.980469 0)"/>
     <use xlink:href="#DejaVuSans-6e" transform="translate(116.162109 0)"/>
     <use xlink:href="#DejaVuSans-73" transform="translate(179.541016 0)"/>
     <use xlink:href="#DejaVuSans-65" transform="translate(231.640625 0)"/>
     <use xlink:href="#DejaVuSans-72" transform="translate(293.164062 0)"/>
     <use xlink:href="#DejaVuSans-76" transform="translate(334.277344 0)"/>
     <use xlink:href="#DejaVuSans-61" transform="translate(393.457031 0)"/>
     <use xlink:href="#DejaVuSans-74" transform="translate(454.736328 0)"/>
     <use xlink:href="#DejaVuSans-69" transform="translate(493.945312 0)"/>
     <use xlink:href="#DejaVuSans-76" transform="translate(521.728516 0)"/>
     <use xlink:href="#DejaVuSans-65" transform="translate(580.908203 0)"/>
     <use xlink:href="#DejaVuSans-20" transform="translate(642.431641 0)"/>
     <use xlink:href="#DejaVuSans-63" transform="translate(674.21875 0)"/>
     <use xlink:href="#DejaVuSans-6f" transform="translate(729.199219 0)"/>
     <use xlink:href="#DejaVuSans-6d" transform="translate(790.380859 0)"/>
     <use xlink:href="#DejaVuSans-70" transform="translate(887.792969 0)"/>
     <use xlink:href="#DejaVuSans-6f" transform="translate(951.269531 0)"/>
     <use xlink:href="#DejaVuSans-73" transform="translate(1012.451172 0)"/>
     <use xlink:href="#DejaVuSans-69" transform="translate(1064.550781 0)"/>
     <use xlink:href="#DejaVuSans-74" transform="translate(1092.333984 0)"/>
     <use xlink:href="#DejaVuSans-65" transform="translate(1131.542969 0)"/>
     <use xlink:href="#DejaVuSans-20" transform="translate(1193.066406 0)"/>
     <use xlink:href="#DejaVuSans-72" transform="translate(1224.853516 0)"/>
     <use xlink:href="#DejaVuSans-6f" transform="translate(1263.716797 0)"/>
     <use xlink:href="#DejaVuSans-75" transform="translate(1324.898438 0)"/>
     <use xlink:href="#DejaVuSans-74" transform="translate(1388.277344 0)"/>
     <use xlink:href="#DejaVuSans-69" transform="translate(1427.486328 0)"/>
     <use xlink:href="#DejaVuSans-6e" transform="translate(1455.269531 0)"/>
     <use xlink:href="#DejaVuSans-67" transform="translate(1518.648438 0)"/>
     <use xlink:href="#DejaVuSans-20" transform="translate(1582.125 0)"/>
     <use xlink:href="#DejaVuSans-67" transform="translate(1613.912109 0)"/>
     <use xlink:href="#DejaVuSans-6f" transform="translate(1677.388672 0)"/>
     <use xlink:href="#DejaVuSans-6c" transform="translate(1738.570312 0)"/>
     <use xlink:href="#DejaVuSans-64" transform="translate(1766.353516 0)"/>
     <use xlink:href="#DejaVuSans-20" transform="translate(1829.830078 0)"/>
     <use xlink:href="#DejaVuSans-73" transform="translate(1861.617188 0)"/>
     <use xlink:href="#DejaVuSans-74" transform="translate(1913.716797 0)"/>
     <use xlink:href="#DejaVuSans-61" transform="translate(1952.925781 0)"/>
     <use xlink:href="#DejaVuSans-6e" transform="translate(2014.205078 0)"/>
     <use xlink:href="#DejaVuSans-64" transform="translate(2077.583984 0)"/>
     <use xlink:href="#DejaVuSans-61" transform="translate(2141.060547 0)"/>
     <use xlink:href="#DejaVuSans-72" transform="translate(2202.339844 0)"/>
     <use xlink:href="#DejaVuSans-64" transform="translate(2241.703125 0)"/>
    </g>
   </g>
   <g id="legend_2">
    <g id="patch_27">
     <path d="M 772.314062 64.23625 
L 846.2 64.23625 
Q 848.2 64.23625 848.2 62.23625 
L 848.2 33.88 
Q 848.2 31.88 846.2 31.88 
L 772.314062 31.88 
Q 770.314062 31.88 770.314062 33.88 
L 770.314062 62.23625 
Q 770.314062 64.23625 772.314062 64.23625 
z
" style="fill: #ffffff; opacity: 0.8; stroke: #cccccc; stroke-linejoin: miter"/>
    </g>
    <g id="patch_28">
     <path d="M 774.314062 43.478438 
L 794.314062 43.478438 
L 794.314062 36.478438 
L 774.314062 36.478438 
z
" style="fill: #1f77b4"/>
    </g>
    <g id="text_18">
     <!-- baseline -->
     <g transform="translate(802.314062 43.478438) scale(0.1 -0.1)">
      <use xlink:href="#DejaVuSans-62"/>
      <use xlink:href="#DejaVuSans-61" transform="translate(63.476562 0)"/>
      <use xlink:href="#DejaVuSans-73" transform="translate(124.755859 0)"/>
      <use xlink:href="#DejaVuSans-65" transform="translate(176.855469 0)"/>
      <use xlink:href="#DejaVuSans-6c" transform="translate(238.378906 0)"/>
      <use xlink:href="#DejaVuSans-69" transform="translate(266.162109 0)"/>
      <use xlink:href="#DejaVuSans-6e" transform="translate(293.945312 0)"/>
      <use xlink:href="#DejaVuSans-65" transform="translate(357.324219 0)"/>
     </g>
    </g>
    <g id="patch_29">
     <path d="M 774.314062 58.156563 
L 794.314062 58.156563 
L 794.314062 51.156563 
L 774.314062 51.156563 
z
" style="fill: #ff7f0e"/>
    </g>
    <g id="text_19">
     <!-- CAB -->
     <g transform="translate(802.314062 58.156563) scale(0.1 -0.1)">
      <use xlink:href="#DejaVuSans-43"/>
      <use xlink:href="#DejaVuSans-41" transform="translate(69.824219 0)"/>
      <use xlink:href="#DejaVuSans-42" transform="translate(138.232422 0)"/>
     </g>
    </g>
   </g>
  </g>
 </g>
 <defs>
  <clipPath id="pc7d10639d3">
   <rect x="47.72" y="26.88" width="382.15619" height="197.738033"/>
  </clipPath>
  <clipPath id="p874ebf64c2">
   <rect x="471.04381" y="26.88" width="382.15619" height="197.738033"/>
  </clipPath>
 </defs>
</svg>
